<?xml version="1.0" encoding="utf-8"?>
<!-- Generator: Adobe Illustrator 28.0.0, SVG Export Plug-In . SVG Version: 6.00 Build 0)  -->
<svg version="1.1" xmlns="http://www.w3.org/2000/svg" xmlns:xlink="http://www.w3.org/1999/xlink" x="0px" y="0px"
	 viewBox="0 0 670 100" style="enable-background:new 0 0 670 100;" xml:space="preserve">
<g id="Capa_1">
	<g>
		<path d="M8.3,47.7c0-17.4,12.8-30.3,31-30.3c14.9,0,26.3,8.7,29.8,21.5h-9.6C56.4,31.1,49,25.8,39.3,25.8
			c-12.9,0-21.8,9.3-21.8,21.9s8.9,21.9,21.8,21.9c9.7,0,17.1-5.3,20.2-13.2h9.6C65.6,69.3,54.2,78,39.3,78
			C21.2,78,8.3,65.2,8.3,47.7z"/>
		<path d="M78.2,50.9c0-13,7.7-19.2,19-19.2c11.2,0,18.9,6.2,18.9,19.3v0.4h-8.4v-0.5c0-8.1-4.3-11.4-10.5-11.4
			c-6.3,0-10.5,3.3-10.5,11.4v25.9h-8.5V50.9z"/>
		<path d="M121.7,54.8c0-13.4,9.8-23.1,23.7-23.1s23.7,9.8,23.7,23.1S159.3,78,145.4,78S121.7,68.2,121.7,54.8z M160.5,54.8
			c0-8.9-6.1-15.3-15.1-15.3s-15.1,6.4-15.1,15.3c0,8.9,6.1,15.3,15.1,15.3S160.5,63.8,160.5,54.8z"/>
		<path d="M177.7,58.3V32.9h8.5v25.5c0,8.2,4.4,11.8,10.5,11.8c6,0,10.5-3.8,10.5-11.8V32.9h8.5v25.5c0,8,4.5,11.8,10.4,11.8
			c6.1,0,10.5-3.6,10.5-11.8V32.9h8.5v25.5c0,13.4-7.8,19.7-18.2,19.7c-6.9,0-12.5-3-15.5-8.7c-3,5.7-8.7,8.7-15.5,8.7
			C185.5,78,177.7,71.8,177.7,58.3z"/>
		<path d="M280.9,42.6c0-15.4,8.9-25.1,25.2-25.1c16.5,0,25.5,9.7,25.5,25.1v34.3h-9.1V58.4h-32.8v18.4h-8.8V42.6z M322.5,50v-7.5
			c0-10.5-5.5-16.7-16.4-16.7c-10.9,0-16.4,6.2-16.4,16.7V50H322.5z"/>
		<path d="M340.5,54.6c0-14.6,10.9-22.9,22.3-22.9c7.1,0,13.2,3.2,16.4,8.9v-27h8.5v40.9c0,14.3-9.8,23.5-23.4,23.5
			C350.3,78,340.5,68.4,340.5,54.6z M379.2,54.8c0-8.9-6.1-15.3-15-15.3c-9.1,0-15.1,6.4-15.1,15.3c0,8.9,6.1,15.3,15.1,15.3
			C373.1,70.2,379.2,63.8,379.2,54.8z"/>
		<path d="M395.4,32.9h9.3L419,69.3l14.3-36.4h9l-18.3,44h-10.2L395.4,32.9z"/>
		<path d="M446.2,55.2c0-13.8,9.8-23.5,23.8-23.5c13.8,0,23.4,9.4,23.4,23.5v21.6h-7.7v-9.6c-2.9,7.1-9.4,10.8-17.1,10.8
			C457.1,78,446.2,69.7,446.2,55.2z M485,54.8c0-8.9-6.1-15.3-15.1-15.3c-9.1,0-15.1,6.4-15.1,15.3c0,8.9,6.1,15.3,15.1,15.3
			C479,70.2,485,63.8,485,54.8z"/>
		<path d="M503.8,54c0-14.7,8.7-22.3,21.7-22.3c13,0,21.7,7.5,21.7,22.3v22.9h-8.5V54c0-9.5-5.3-14.4-13.3-14.4
			c-8,0-13.3,4.9-13.3,14.4v22.9h-8.5V54z"/>
		<path d="M555.9,54.8c0-13.4,9.8-23.1,23.7-23.1c11.7,0,20.4,6.9,22.7,17.1h-8.5c-2.1-5.6-7.3-9.3-14.2-9.3
			c-9.1,0-15.1,6.4-15.1,15.3c0,8.9,6.1,15.3,15.1,15.3c6.9,0,12-3.6,14.2-9.3h8.5C599.9,71,591.2,78,579.5,78
			C565.7,78,555.9,68.2,555.9,54.8z"/>
		<path d="M609.2,54.8c0-13.4,9.8-23.1,23.7-23.1c13.9,0,23.5,9.8,23.5,23.1V58h-38.3c1.2,7.8,7.1,12.2,14.8,12.2
			c5.7,0,9.7-1.8,12.3-5.6h9.3c-3.4,8.2-11.4,13.4-21.6,13.4C619,78,609.2,68.2,609.2,54.8z M647.4,50.4c-1.7-7-7.5-10.9-14.6-10.9
			c-7.3,0-12.8,3.9-14.5,10.9H647.4z"/>
	</g>
</g>
<g id="Capa_2">
	<rect x="-13.1" y="128.6" style="fill:none;" width="659.4" height="80.6"/>
	
		<text transform="matrix(1 0 0 1 -13.1113 191.8213)" style="font-family:'FONTSPRINGDEMO-AllRoundGothicLigRegular'; font-size:89px; letter-spacing:1;">Crow Advance</text>
</g>
</svg>
