<svg enable-background="new 0 0 670 100" viewBox="0 0 670 100" xmlns="http://www.w3.org/2000/svg"><g fill="#fff"><path d="m8.3 47.7c0-17.4 12.8-30.3 31-30.3 14.9 0 26.3 8.7 29.8 21.5h-9.6c-3.1-7.8-10.5-13.1-20.2-13.1-12.9 0-21.8 9.3-21.8 21.9s8.9 21.9 21.8 21.9c9.7 0 17.1-5.3 20.2-13.2h9.6c-3.5 12.9-14.9 21.6-29.8 21.6-18.1 0-31-12.8-31-30.3z"/><path d="m78.2 50.9c0-13 7.7-19.2 19-19.2 11.2 0 18.9 6.2 18.9 19.3v.4h-8.4v-.5c0-8.1-4.3-11.4-10.5-11.4-6.3 0-10.5 3.3-10.5 11.4v25.9h-8.5z"/><path d="m121.7 54.8c0-13.4 9.8-23.1 23.7-23.1s23.7 9.8 23.7 23.1-9.8 23.2-23.7 23.2-23.7-9.8-23.7-23.2zm38.8 0c0-8.9-6.1-15.3-15.1-15.3s-15.1 6.4-15.1 15.3 6.1 15.3 15.1 15.3 15.1-6.3 15.1-15.3z"/><path d="m177.7 58.3v-25.4h8.5v25.5c0 8.2 4.4 11.8 10.5 11.8 6 0 10.5-3.8 10.5-11.8v-25.5h8.5v25.5c0 8 4.5 11.8 10.4 11.8 6.1 0 10.5-3.6 10.5-11.8v-25.5h8.5v25.5c0 13.4-7.8 19.7-18.2 19.7-6.9 0-12.5-3-15.5-8.7-3 5.7-8.7 8.7-15.5 8.7-10.4-.1-18.2-6.3-18.2-19.8z"/><path d="m280.9 42.6c0-15.4 8.9-25.1 25.2-25.1 16.5 0 25.5 9.7 25.5 25.1v34.3h-9.1v-18.5h-32.8v18.4h-8.8zm41.6 7.4v-7.5c0-10.5-5.5-16.7-16.4-16.7s-16.4 6.2-16.4 16.7v7.5z"/><path d="m340.5 54.6c0-14.6 10.9-22.9 22.3-22.9 7.1 0 13.2 3.2 16.4 8.9v-27h8.5v40.9c0 14.3-9.8 23.5-23.4 23.5-14 0-23.8-9.6-23.8-23.4zm38.7.2c0-8.9-6.1-15.3-15-15.3-9.1 0-15.1 6.4-15.1 15.3s6.1 15.3 15.1 15.3c8.9.1 15-6.3 15-15.3z"/><path d="m395.4 32.9h9.3l14.3 36.4 14.3-36.4h9l-18.3 44h-10.2z"/><path d="m446.2 55.2c0-13.8 9.8-23.5 23.8-23.5 13.8 0 23.4 9.4 23.4 23.5v21.6h-7.7v-9.6c-2.9 7.1-9.4 10.8-17.1 10.8-11.5-0-22.4-8.3-22.4-22.8zm38.8-.4c0-8.9-6.1-15.3-15.1-15.3-9.1 0-15.1 6.4-15.1 15.3s6.1 15.3 15.1 15.3c9.1.1 15.1-6.3 15.1-15.3z"/><path d="m503.8 54c0-14.7 8.7-22.3 21.7-22.3s21.7 7.5 21.7 22.3v22.9h-8.5v-22.9c0-9.5-5.3-14.4-13.3-14.4s-13.3 4.9-13.3 14.4v22.9h-8.5v-22.9z"/><path d="m555.9 54.8c0-13.4 9.8-23.1 23.7-23.1 11.7 0 20.4 6.9 22.7 17.1h-8.5c-2.1-5.6-7.3-9.3-14.2-9.3-9.1 0-15.1 6.4-15.1 15.3s6.1 15.3 15.1 15.3c6.9 0 12-3.6 14.2-9.3h8.5c-2.4 10.2-11.1 17.2-22.8 17.2-13.8 0-23.6-9.8-23.6-23.2z"/><path d="m609.2 54.8c0-13.4 9.8-23.1 23.7-23.1s23.5 9.8 23.5 23.1v3.2h-38.3c1.2 7.8 7.1 12.2 14.8 12.2 5.7 0 9.7-1.8 12.3-5.6h9.3c-3.4 8.2-11.4 13.4-21.6 13.4-13.9-0-23.7-9.8-23.7-23.2zm38.2-4.4c-1.7-7-7.5-10.9-14.6-10.9-7.3 0-12.8 3.9-14.5 10.9z"/></g><path d="m-13.1 128.6h659.4v80.6h-659.4z" fill="none"/><text font-family="FONTSPRINGDEMO-AllRoundGothicLigRegular" font-size="89" letter-spacing="1" transform="translate(-13.1113 191.8213)">Crow Advance</text></svg>