<?xml version="1.0" encoding="utf-8"?>
<!-- Generator: Adobe Illustrator 28.0.0, SVG Export Plug-In . SVG Version: 6.00 Build 0)  -->
<svg version="1.1" xmlns="http://www.w3.org/2000/svg" xmlns:xlink="http://www.w3.org/1999/xlink" x="0px" y="0px"
	 viewBox="0 0 920 290" style="enable-background:new 0 0 920 290;" xml:space="preserve">
<style type="text/css">
	.st0{fill:url(#SVGID_1_);}
	.st1{fill:url(#SVGID_00000008148636797655615260000012591006882357973935_);}
	.st2{fill:url(#SVGID_00000173132424604496864150000010422429240325142448_);}
	.st3{fill:url(#SVGID_00000088818142787803790790000017615425801961006001_);}
	.st4{fill:url(#SVGID_00000173870091014030695000000014374513255526641032_);}
	.st5{fill:#17002B;}
	.st6{display:none;}
</style>
<g id="Capa_1">
	<linearGradient id="SVGID_1_" gradientUnits="userSpaceOnUse" x1="70.0322" y1="214.2898" x2="172.9258" y2="214.2898">
		<stop  offset="0" style="stop-color:#B800D8"/>
		<stop  offset="0.3565" style="stop-color:#7958E0"/>
		<stop  offset="1" style="stop-color:#00FFF0"/>
	</linearGradient>
	<path class="st0" d="M172.9,238.7c0,24.9-20.2,45-45,45c-10.9,0-20.9-3.9-28.7-10.3c-0.1-0.1-0.1-0.1-0.2-0.2l-13.7-13.7
		c-5.8-8.6-10.1-18.2-12.6-28.5c-1.7-6.9-2.6-14.1-2.6-21.6c0-21.2,7.3-40.6,19.6-56l8.6-8.6l32,32l32.8,32.8l-0.3,0.3
		C169.1,217.8,172.9,227.8,172.9,238.7z"/>
	
		<linearGradient id="SVGID_00000155836715299189617780000007061498825258385047_" gradientUnits="userSpaceOnUse" x1="7.4053" y1="132.8974" x2="172.9258" y2="132.8974">
		<stop  offset="0" style="stop-color:#B800D8"/>
		<stop  offset="0.3565" style="stop-color:#7958E0"/>
		<stop  offset="1" style="stop-color:#00FFF0"/>
	</linearGradient>
	<path style="fill:url(#SVGID_00000155836715299189617780000007061498825258385047_);" d="M172.9,51.9c0,15-8.3,26.2-18.4,36.6
		l-56.3,56.3l-8.6,8.6c-12.2,15.4-19.6,34.8-19.6,56c0,7.4,0.9,14.6,2.6,21.6c2.5,10.3,6.9,20,12.6,28.5l-50.9-50.9l-3.4-3.4
		c-14.7-16-23.6-37.3-23.6-60.7c0-22.8,8.5-43.7,22.5-59.5l7.8-7.8l28.5-28.5l26.2-26.2l5.5-5.5c0.1-0.1,0.1-0.1,0.2-0.2
		c7.9-6.6,18.1-10.6,29.2-10.6C152.5,6.3,172.9,26.7,172.9,51.9z"/>
	
		<linearGradient id="SVGID_00000124138091008300358080000012783354159552408202_" gradientUnits="userSpaceOnUse" x1="4069.1638" y1="3943.3188" x2="4076.9504" y2="3943.3188" gradientTransform="matrix(0 1 -1 0 4280.73 -4029.6216)">
		<stop  offset="0" style="stop-color:#B800D8"/>
		<stop  offset="0.3565" style="stop-color:#7958E0"/>
		<stop  offset="1" style="stop-color:#00FFF0"/>
	</linearGradient>
	<path style="fill:url(#SVGID_00000124138091008300358080000012783354159552408202_);" d="M341.3,47.3l-7.8-7.8
		C336.3,42,338.9,44.6,341.3,47.3z"/>
	
		<linearGradient id="SVGID_00000078765746781138687710000002199846350373234866_" gradientUnits="userSpaceOnUse" x1="4117.6338" y1="4049.4707" x2="4220.5278" y2="4049.4707" gradientTransform="matrix(0 1 -1 0 4280.73 -4029.6216)">
		<stop  offset="0" style="stop-color:#B800D8"/>
		<stop  offset="0.3565" style="stop-color:#7958E0"/>
		<stop  offset="1" style="stop-color:#00FFF0"/>
	</linearGradient>
	<path style="fill:url(#SVGID_00000078765746781138687710000002199846350373234866_);" d="M206.9,190.9c-24.9,0-45-20.2-45-45
		c0-10.9,3.9-20.9,10.3-28.7c0.1-0.1,0.1-0.1,0.2-0.2l13.7-13.7c8.6-5.8,18.2-10.1,28.5-12.6c6.9-1.7,14.1-2.6,21.6-2.6
		c21.2,0,40.6,7.3,56,19.6l8.6,8.6l-32,32l-32.8,32.8l-0.3-0.3C227.8,187,217.8,190.9,206.9,190.9z"/>
	
		<linearGradient id="SVGID_00000154402350032762695690000005253695452882672573_" gradientUnits="userSpaceOnUse" x1="4055.0076" y1="3968.0771" x2="4220.5278" y2="3968.0771" gradientTransform="matrix(0 1 -1 0 4280.73 -4029.6216)">
		<stop  offset="0" style="stop-color:#B800D8"/>
		<stop  offset="0.3565" style="stop-color:#7958E0"/>
		<stop  offset="1" style="stop-color:#00FFF0"/>
	</linearGradient>
	<path style="fill:url(#SVGID_00000154402350032762695690000005253695452882672573_);" d="M393.6,190.9c-15,0-26.2-8.3-36.6-18.4
		l-56.3-56.3l-8.6-8.6c-15.4-12.2-34.8-19.6-56-19.6c-7.4,0-14.6,0.9-21.6,2.6c-10.3,2.5-20,6.9-28.5,12.6l50.9-50.9l3.4-3.4
		c16-14.7,37.3-23.6,60.7-23.6c22.8,0,43.7,8.5,59.5,22.5l7.8,7.8l28.5,28.5l26.2,26.2l5.5,5.5c0.1,0.1,0.1,0.1,0.2,0.2
		c6.6,7.9,10.6,18.1,10.6,29.2C439.3,170.5,418.8,190.9,393.6,190.9z"/>
	<g>
		<path class="st5" d="M492,157.9c-6.3-3.4-11.2-8.2-14.8-14.2c-3.6-6-5.4-12.9-5.4-20.5c0-7.6,1.8-14.4,5.4-20.5
			c3.6-6,8.6-10.8,14.9-14.2c6.3-3.4,13.4-5.1,21.2-5.1c6.3,0,12.1,1.1,17.4,3.3c5.2,2.2,9.7,5.4,13.3,9.6l-9.3,8.7
			c-5.6-6-12.5-9.1-20.7-9.1c-5.3,0-10.1,1.2-14.3,3.5c-4.2,2.3-7.5,5.5-9.8,9.7c-2.4,4.1-3.5,8.8-3.5,14c0,5.2,1.2,9.9,3.5,14
			c2.4,4.1,5.6,7.4,9.8,9.7c4.2,2.3,9,3.5,14.3,3.5c8.2,0,15.1-3.1,20.7-9.2l9.3,8.8c-3.6,4.2-8.1,7.4-13.3,9.6
			c-5.3,2.2-11.1,3.3-17.4,3.3C505.3,163.1,498.3,161.3,492,157.9z"/>
		<path class="st5" d="M630.4,162l-15.8-22.7c-0.7,0.1-1.7,0.1-3,0.1h-17.5V162h-14.4V84.6h31.8c6.7,0,12.5,1.1,17.5,3.3
			c5,2.2,8.8,5.4,11.4,9.5c2.7,4.1,4,9,4,14.7c0,5.8-1.4,10.8-4.3,15c-2.8,4.2-6.9,7.3-12.2,9.4l17.8,25.4H630.4z M625.3,100.7
			c-3.2-2.7-8-4-14.3-4h-16.8v30.8H611c6.3,0,11-1.3,14.3-4c3.2-2.7,4.9-6.5,4.9-11.4C630.1,107.2,628.5,103.4,625.3,100.7z"/>
		<path class="st5" d="M697.6,157.9c-6.3-3.4-11.3-8.2-14.9-14.3c-3.6-6.1-5.4-12.9-5.4-20.4c0-7.5,1.8-14.3,5.4-20.4
			c3.6-6.1,8.6-10.8,14.9-14.3c6.3-3.4,13.4-5.1,21.3-5.1c7.9,0,15,1.7,21.3,5.1c6.3,3.4,11.3,8.2,14.9,14.2
			c3.6,6,5.4,12.9,5.4,20.5c0,7.6-1.8,14.4-5.4,20.5c-3.6,6-8.6,10.8-14.9,14.2c-6.3,3.4-13.5,5.1-21.3,5.1
			C711,163.1,703.9,161.3,697.6,157.9z M732.8,147c4.1-2.3,7.4-5.6,9.7-9.7c2.4-4.2,3.5-8.8,3.5-14c0-5.2-1.2-9.8-3.5-14
			c-2.4-4.2-5.6-7.4-9.7-9.7c-4.1-2.3-8.8-3.5-13.9-3.5c-5.2,0-9.8,1.2-13.9,3.5c-4.1,2.3-7.4,5.6-9.7,9.7c-2.4,4.2-3.5,8.8-3.5,14
			c0,5.2,1.2,9.8,3.5,14c2.4,4.2,5.6,7.4,9.7,9.7c4.1,2.3,8.8,3.5,13.9,3.5C724,150.5,728.7,149.3,732.8,147z"/>
		<path class="st5" d="M908.6,84.6L882.9,162h-15.3l-19.1-57.3L829.1,162h-15.4l-25.6-77.4H803l19.2,58.8l20-58.8h13.3l19.6,59.1
			l19.8-59.1H908.6z"/>
	</g>
	<g>
		<path class="st5" d="M495.5,210.3h-12.9l-2.5,6h-6.6l12.4-27.8h6.3l12.4,27.8H498L495.5,210.3z M493.5,205.4l-4.4-10.6l-4.4,10.6
			H493.5z"/>
		<path class="st5" d="M544,188.4h12.6c3,0,5.7,0.6,8,1.7c2.3,1.2,4.1,2.8,5.4,4.9c1.3,2.1,1.9,4.5,1.9,7.3c0,2.8-0.6,5.2-1.9,7.3
			c-1.3,2.1-3.1,3.7-5.4,4.9c-2.3,1.2-5,1.7-8,1.7H544V188.4z M556.3,210.9c2.8,0,5-0.8,6.6-2.3c1.7-1.5,2.5-3.6,2.5-6.3
			c0-2.6-0.8-4.7-2.5-6.3c-1.7-1.5-3.9-2.3-6.6-2.3h-5.9v17.2H556.3z"/>
		<path class="st5" d="M639,188.4l-12,27.8h-6.3l-12-27.8h6.9l8.5,19.8l8.6-19.8H639z"/>
		<path class="st5" d="M695.1,210.3h-12.9l-2.5,6h-6.6l12.4-27.8h6.3l12.4,27.8h-6.7L695.1,210.3z M693,205.4l-4.4-10.6l-4.4,10.6
			H693z"/>
		<path class="st5" d="M769,188.4v27.8h-5.3l-13.8-16.9v16.9h-6.3v-27.8h5.3l13.8,16.9v-16.9H769z"/>
		<path class="st5" d="M817.6,214.9c-2.3-1.2-4.1-2.9-5.4-5.1c-1.3-2.2-2-4.6-2-7.4c0-2.8,0.7-5.2,2-7.4c1.3-2.2,3.1-3.9,5.4-5.1
			c2.3-1.2,4.9-1.8,7.7-1.8c2.4,0,4.6,0.4,6.5,1.3c1.9,0.8,3.6,2.1,4.9,3.7l-4.1,3.8c-1.9-2.2-4.2-3.3-7-3.3c-1.7,0-3.3,0.4-4.6,1.1
			c-1.3,0.8-2.4,1.8-3.2,3.2c-0.8,1.3-1.1,2.9-1.1,4.6c0,1.7,0.4,3.3,1.1,4.6c0.8,1.3,1.8,2.4,3.2,3.2c1.3,0.8,2.9,1.1,4.6,1.1
			c2.8,0,5.1-1.1,7-3.3l4.1,3.8c-1.3,1.6-3,2.8-4.9,3.7c-2,0.8-4.1,1.3-6.5,1.3C822.5,216.7,819.9,216.1,817.6,214.9z"/>
		<path class="st5" d="M899,211.1v5.2h-21.5v-27.8h21v5.2h-14.6v6h12.9v5h-12.9v6.4H899z"/>
	</g>
</g>
<g id="Regla" class="st6">
</g>
</svg>
