<svg xmlns="http://www.w3.org/2000/svg" xmlns:xlink="http://www.w3.org/1999/xlink" width="421" height="117.522" viewBox="0 0 421 117.522">
  <defs>
    <clipPath id="clip-path">
      <rect id="Rectángulo_30" data-name="Rectángulo 30" width="421" height="117.522" fill="none"/>
    </clipPath>
  </defs>
  <g id="Grupo_9" data-name="Grupo 9" transform="translate(-472.5 -387.478)">
    <g id="Grupo_8" data-name="Grupo 8" transform="translate(472.5 387.477)">
      <g id="Grupo_7" data-name="Grupo 7" transform="translate(0 0)" clip-path="url(#clip-path)">
        <path id="Trazado_8" data-name="Trazado 8" d="M118.939.294c38.048-4.523,43.068,52.842,7.524,56.532C87.295,60.892,82.932,4.576,118.939.294m2.65,11.328c-22.09,1.124-20.478,35.625,2.339,33.96C145.549,44,143.692,10.5,121.589,11.622" transform="translate(70.801 0.029)" fill="#393939"/>
        <path id="Trazado_9" data-name="Trazado 9" d="M57.068,34.269C94.6,30.32,99.874,86.778,64.6,90.818,24.59,95.4,21.03,38.062,57.068,34.269M72.709,50.953c-13.948-15-39.005,4.6-25.948,22.011,13.9,18.529,42.219-4.52,25.948-22.011" transform="translate(24.141 25.571)" fill="#393939"/>
        <path id="Trazado_10" data-name="Trazado 10" d="M230.76,34.042c.719.688-3.258,10.95-4.814,12.254H208.878V56.8h16.63c-.544,2.031-3.081,10.186-4.359,10.958-2.192,1.322-11.643-.219-12.276.415l.005,11.384H230.76l-3.5,11.378H197.5V34.042Z" transform="translate(148.231 25.549)" fill="#393939"/>
        <path id="Trazado_11" data-name="Trazado 11" d="M142.925,84.441c-.285.487-8.593,4.945-9.917,5.4-14.622,4.98-31.035-2.67-36.173-17.3C88.749,49.49,111.1,27.851,134,36.24c2.733,1,10.185,4.637,8.616,8.023a49.491,49.491,0,0,1-6.332,6.052c-1.632.415-4.436-2.241-6.407-2.95-15.62-5.614-29.129,10.95-20.32,24.7,4.063,6.342,10.892,8.312,18.1,7.172,3.286-.522,5.789-4.093,8.614-3.326,1.427.389,7.716,6.719,6.652,8.534" transform="translate(71.41 25.814)" fill="#393939"/>
        <path id="Trazado_12" data-name="Trazado 12" d="M250.536,39.6c2.675,2.979,4.341,7.972,4.676,11.949-2.948-.506-8.31.784-10.827-.105-1.845-.653-.921-5.63-7.121-5.225a5.434,5.434,0,0,0-4.369,7.968c1.378,2.8,11.4,4.942,14.734,7.14,16.413,10.808,3.463,34.113-15.2,29.2-6.458-1.7-12.688-10.372-11.354-17.1,2.857.438,7.392-.695,9.931.142,1.719.567,1.819,3.414,3.228,4.644,4.408,3.853,10.633-.966,8.583-6.831-1.145-3.272-20.413-4.9-21.733-17.642C219.287,36.43,239.672,27.5,250.536,39.6" transform="translate(165.789 25.54)" fill="#393939"/>
        <path id="Trazado_13" data-name="Trazado 13" d="M209.389,90.184,175.254,61.3V89.746c0,1.969-12.254,1.969-12.254,0v-54.7l3.105.833c4.219,5.731,43.284,37.766,43.284,40.742Z" transform="translate(122.337 26.299)" fill="#393939"/>
        <path id="Trazado_14" data-name="Trazado 14" d="M127.5,91.061l24.954-56.022,25.812,56.022H166.012c-3.821-8.754-7.424-18.767-11.809-27.175-.476-.914-.079-2.207-1.749-1.714-.469.138-3.793,8.564-3.751,9.052.173,1.992,5.847,9.379,4.182,11.081-2.113.455-8.147-.7-9.49.147-.926.579-3.174,8.609-3.641,8.609Z" transform="translate(95.693 26.297)" fill="#393939"/>
        <path id="Trazado_15" data-name="Trazado 15" d="M0,56.552l24.945-56L49.887,56.546C46.61,56.054,39.77,57.8,37.58,55.295L24.945,27.659c-6.048,8.264-3.116,11.863.439,20.131-8.828,1.775-8.448-3.119-12.7,6.174a16.671,16.671,0,0,0-.429,2.587Z" transform="translate(0 0.413)" fill="#0b9440"/>
        <path id="Trazado_16" data-name="Trazado 16" d="M107.274.042,102.9,12.3h-14V56.934H77.515V12.3h-14c-.375-4.438,3.611-7.709,3.5-12.254Z" transform="translate(47.648 0.031)" fill="#393939"/>
        <path id="Trazado_17" data-name="Trazado 17" d="M50.254,44.712H72.135V57.841H38V.073c1.891.261,12.254-.889,12.254,1.313Z" transform="translate(28.52 -0.001)" fill="#393939"/>
        <path id="Trazado_18" data-name="Trazado 18" d="M82.878,34.042V79.556h22.757V90.934H71.5V34.042Z" transform="translate(53.663 25.549)" fill="#393939"/>
        <path id="Trazado_19" data-name="Trazado 19" d="M12.254,34.542C17.311,49.036,25.02,62.727,30.463,77.2c.268,1.926-4.793,13.339-5.518,13.344L0,34.542Z" transform="translate(0 25.924)" fill="#0b9440"/>
        <path id="Trazado_20" data-name="Trazado 20" d="M37.143,34.618c-3.491,9.679-7.662,19.319-12.1,28.591-.389.814-2.193,6.137-3.646,4.665.144-4.653-4.46-9.213-4.42-13.584C17,52.575,24.724,35.668,25.757,35.04c2.183-1.329,8.565.068,11.385-.422" transform="translate(12.744 25.854)" fill="#0b9440"/>
        <path id="Trazado_21" data-name="Trazado 21" d="M193.878,34.542V64.3c-1.528.382-1.749-.632-2.631-1.308-1.183-.907-8.747-8.079-8.747-8.758V34.542Z" transform="translate(136.973 25.924)" fill="#393939"/>
      </g>
    </g>
  </g>
</svg>
