<svg xmlns="http://www.w3.org/2000/svg" xmlns:xlink="http://www.w3.org/1999/xlink" width="146.565" height="59.291" viewBox="0 0 146.565 59.291">
  <defs>
    <clipPath id="clip-path">
      <rect id="Rectángulo_13" data-name="Rectángulo 13" width="146.565" height="59.291" fill="#151e1d"/>
    </clipPath>
  </defs>
  <g id="Grupo_14" data-name="Grupo 14" clip-path="url(#clip-path)">
    <path id="Trazado_8" data-name="Trazado 8" d="M32.528,40.152q-.323-.5-.735-1.23c-.277-.488-.572-1.038-.885-1.656s-.618-1.248-.908-1.9L17.521,7.485H15.683L2.514,36.478q-.734,1.669-1.356,2.774A8.134,8.134,0,0,1,.125,40.791v.092H4.811v-.092a.87.87,0,0,1-.09-.261,2.18,2.18,0,0,1-.046-.49,5.515,5.515,0,0,1,.39-2.03c.261-.67.5-1.287.735-1.849l3.494-8.031,6.342-14.576,6.458,14.486,3.722,8.3a12.7,12.7,0,0,1,.745,2.133,7.048,7.048,0,0,1,.2,1.563,3.887,3.887,0,0,1-.023.41,1.271,1.271,0,0,1-.069.341v.092h6.3v-.092a7.126,7.126,0,0,1-.436-.639" transform="translate(-0.013 -0.763)" fill="#151e1d"/>
    <path id="Trazado_9" data-name="Trazado 9" d="M32.528,40.152q-.323-.5-.735-1.23c-.277-.488-.572-1.038-.885-1.656s-.618-1.248-.908-1.9L17.521,7.485H15.683L2.514,36.478q-.734,1.669-1.356,2.774A8.134,8.134,0,0,1,.125,40.791v.092H4.811v-.092a.87.87,0,0,1-.09-.261,2.18,2.18,0,0,1-.046-.49,5.515,5.515,0,0,1,.39-2.03c.261-.67.5-1.287.735-1.849l3.494-8.031,6.342-14.576,6.458,14.486,3.722,8.3a12.7,12.7,0,0,1,.745,2.133,7.048,7.048,0,0,1,.2,1.563,3.887,3.887,0,0,1-.023.41,1.271,1.271,0,0,1-.069.341v.092h6.3v-.092A7.126,7.126,0,0,1,32.528,40.152Z" transform="translate(-0.013 -0.763)" fill="#151e1d"/>
    <path id="Trazado_10" data-name="Trazado 10" d="M15.461,35.685l.731-5.515a.256.256,0,0,1,.506-.008l.907,5.489,4.417-3.383a.256.256,0,0,1,.364.352l-3.241,4.523,5.516.731a.256.256,0,0,1,.008.506l-5.49.907L22.561,43.7a.255.255,0,0,1-.351.363l-4.523-3.24-.732,5.515a.256.256,0,0,1-.506.008l-.906-5.489-4.417,3.383a.256.256,0,0,1-.364-.352L14,39.368l-5.515-.731a.256.256,0,0,1-.008-.506l5.489-.906-3.383-4.417a.256.256,0,0,1,.352-.363Z" transform="translate(-0.843 -3.053)" fill="#151e1d"/>
    <path id="Trazado_11" data-name="Trazado 11" d="M50.177,9.245,72.483,32.808V17.672q0-1.827-.043-3.192t-.13-2.365q-.086-1-.206-1.666a11.1,11.1,0,0,0-.249-1.118V9.245h3.855v.086a9.813,9.813,0,0,0-.239,1.118q-.108.667-.195,1.666t-.13,2.365q-.043,1.366-.043,3.192V40.506h-.758L52.039,16.964V31.669q0,1.828.043,3.192t.13,2.356q.085.987.195,1.654a9.854,9.854,0,0,0,.238,1.119v.085H48.79v-.085a11.353,11.353,0,0,0,.25-1.119q.119-.665.206-1.654t.13-2.356q.043-1.365.043-3.192v-14q0-1.827-.043-3.192t-.13-2.365q-.086-1-.206-1.666a11.328,11.328,0,0,0-.25-1.118V9.245Z" transform="translate(-4.975 -0.943)" fill="#151e1d"/>
    <path id="Trazado_12" data-name="Trazado 12" d="M50.177,9.245,72.483,32.808V17.672q0-1.827-.043-3.192t-.13-2.365q-.086-1-.206-1.666a11.1,11.1,0,0,0-.249-1.118V9.245h3.855v.086a9.813,9.813,0,0,0-.239,1.118q-.108.667-.195,1.666t-.13,2.365q-.043,1.366-.043,3.192V40.506h-.758L52.039,16.964V31.669q0,1.828.043,3.192t.13,2.356q.085.987.195,1.654a9.854,9.854,0,0,0,.238,1.119v.085H48.79v-.085a11.353,11.353,0,0,0,.25-1.119q.119-.665.206-1.654t.13-2.356q.043-1.365.043-3.192v-14q0-1.827-.043-3.192t-.13-2.365q-.086-1-.206-1.666a11.328,11.328,0,0,0-.25-1.118V9.245Z" transform="translate(-4.975 -0.943)" fill="#151e1d"/>
    <path id="Trazado_13" data-name="Trazado 13" d="M103.161,11.118a42.719,42.719,0,0,0-4.613.226q-2.057.226-3.552.484-1.732.322-3.1.709l.628-3.482c.173.013.434.029.78.042s.733.029,1.158.042.874.027,1.343.032l1.332.023c.419.005.79.013,1.115.021s.559.01.7.01h12.366c.144,0,.379,0,.7-.01s.7-.015,1.114-.021l1.332-.023c.47-.005.918-.017,1.343-.032s.813-.027,1.159-.042.606-.029.779-.042l.628,3.482q-1.386-.385-3.119-.709-1.493-.259-3.552-.484a42.714,42.714,0,0,0-4.612-.226V31.65q0,1.829.054,3.193t.13,2.355q.075.989.195,1.655a11.412,11.412,0,0,0,.249,1.118v.086h-5.175V39.97a10.078,10.078,0,0,0,.238-1.118q.108-.667.195-1.655t.129-2.355q.044-1.365.044-3.193Z" transform="translate(-9.37 -0.923)" fill="#151e1d"/>
    <path id="Trazado_14" data-name="Trazado 14" d="M103.161,11.118a42.719,42.719,0,0,0-4.613.226q-2.057.226-3.552.484-1.732.322-3.1.709l.628-3.482c.173.013.434.029.78.042s.733.029,1.158.042.874.027,1.343.032l1.332.023c.419.005.79.013,1.115.021s.559.01.7.01h12.366c.144,0,.379,0,.7-.01s.7-.015,1.114-.021l1.332-.023c.47-.005.918-.017,1.343-.032s.813-.027,1.159-.042.606-.029.779-.042l.628,3.482q-1.386-.385-3.119-.709-1.493-.259-3.552-.484a42.714,42.714,0,0,0-4.612-.226V31.65q0,1.829.054,3.193t.13,2.355q.075.989.195,1.655a11.412,11.412,0,0,0,.249,1.118v.086h-5.175V39.97a10.078,10.078,0,0,0,.238-1.118q.108-.667.195-1.655t.129-2.355q.044-1.365.044-3.193Z" transform="translate(-9.37 -0.923)" fill="#151e1d"/>
    <path id="Trazado_15" data-name="Trazado 15" d="M156.921,16.743q0-1.827-.043-3.193t-.13-2.365q-.086-1-.195-1.666a9.634,9.634,0,0,0-.238-1.118V8.316h3.855V8.4a11.327,11.327,0,0,0-.25,1.118,16.6,16.6,0,0,0-.194,1.666q-.077,1-.131,2.365t-.053,3.193v11.61a13.847,13.847,0,0,1-.888,5.245,9.332,9.332,0,0,1-2.47,3.558,9.719,9.719,0,0,1-3.79,2.021,17.477,17.477,0,0,1-4.83.634,18.937,18.937,0,0,1-4.884-.6,10.561,10.561,0,0,1-3.942-1.945,9.124,9.124,0,0,1-2.631-3.484,12.768,12.768,0,0,1-.953-5.214V16.743q0-1.827-.043-3.193t-.13-2.365q-.086-1-.206-1.666a11.323,11.323,0,0,0-.25-1.118V8.316h5.2V8.4a11.1,11.1,0,0,0-.249,1.118q-.119.667-.206,1.666t-.13,2.365q-.043,1.367-.043,3.193V28.8a10.1,10.1,0,0,0,.769,4.224,6.984,6.984,0,0,0,2.025,2.645,7.413,7.413,0,0,0,2.858,1.365,14.009,14.009,0,0,0,6.54,0,7.319,7.319,0,0,0,2.848-1.365,7.044,7.044,0,0,0,2.014-2.645,10.1,10.1,0,0,0,.769-4.224ZM141.826,2.1a2.009,2.009,0,0,1,.151-.774A1.9,1.9,0,0,1,142.4.694a1.984,1.984,0,0,1,.628-.419,2.025,2.025,0,0,1,.79-.15,2.052,2.052,0,0,1,.779.15,1.957,1.957,0,0,1,.639.419,1.94,1.94,0,0,1,.422.635,1.993,1.993,0,0,1,.152.774,1.993,1.993,0,0,1-.152.774,1.936,1.936,0,0,1-.422.634,1.913,1.913,0,0,1-.639.418,2.02,2.02,0,0,1-.779.152,1.994,1.994,0,0,1-.79-.152,1.937,1.937,0,0,1-.628-.418,1.9,1.9,0,0,1-.423-.634,2.009,2.009,0,0,1-.151-.774m7.969,0a1.993,1.993,0,0,1,.152-.774,1.912,1.912,0,0,1,.422-.635,1.957,1.957,0,0,1,.639-.419,2.1,2.1,0,0,1,1.559,0,1.976,1.976,0,0,1,.639.419,1.924,1.924,0,0,1,.421.635,1.993,1.993,0,0,1,.152.774,1.993,1.993,0,0,1-.152.774,1.9,1.9,0,0,1-1.061,1.053,2.078,2.078,0,0,1-1.559,0,1.9,1.9,0,0,1-1.061-1.053A1.993,1.993,0,0,1,149.8,2.1" transform="translate(-13.716 -0.013)" fill="#151e1d"/>
    <path id="Trazado_16" data-name="Trazado 16" d="M156.921,16.743q0-1.827-.043-3.193t-.13-2.365q-.086-1-.195-1.666a9.634,9.634,0,0,0-.238-1.118V8.316h3.855V8.4a11.327,11.327,0,0,0-.25,1.118,16.6,16.6,0,0,0-.194,1.666q-.077,1-.131,2.365t-.053,3.193v11.61a13.847,13.847,0,0,1-.888,5.245,9.332,9.332,0,0,1-2.47,3.558,9.719,9.719,0,0,1-3.79,2.021,17.477,17.477,0,0,1-4.83.634,18.937,18.937,0,0,1-4.884-.6,10.561,10.561,0,0,1-3.942-1.945,9.124,9.124,0,0,1-2.631-3.484,12.768,12.768,0,0,1-.953-5.214V16.743q0-1.827-.043-3.193t-.13-2.365q-.086-1-.206-1.666a11.323,11.323,0,0,0-.25-1.118V8.316h5.2V8.4a11.1,11.1,0,0,0-.249,1.118q-.119.667-.206,1.666t-.13,2.365q-.043,1.367-.043,3.193V28.8a10.1,10.1,0,0,0,.769,4.224,6.984,6.984,0,0,0,2.025,2.645,7.413,7.413,0,0,0,2.858,1.365,14.009,14.009,0,0,0,6.54,0,7.319,7.319,0,0,0,2.848-1.365,7.044,7.044,0,0,0,2.014-2.645,10.1,10.1,0,0,0,.769-4.224ZM141.826,2.1a2.009,2.009,0,0,1,.151-.774A1.9,1.9,0,0,1,142.4.694a1.984,1.984,0,0,1,.628-.419,2.025,2.025,0,0,1,.79-.15,2.052,2.052,0,0,1,.779.15,1.957,1.957,0,0,1,.639.419,1.94,1.94,0,0,1,.422.635,1.993,1.993,0,0,1,.152.774,1.993,1.993,0,0,1-.152.774,1.936,1.936,0,0,1-.422.634,1.913,1.913,0,0,1-.639.418,2.02,2.02,0,0,1-.779.152,1.994,1.994,0,0,1-.79-.152,1.937,1.937,0,0,1-.628-.418,1.9,1.9,0,0,1-.423-.634A2.009,2.009,0,0,1,141.826,2.1Zm7.969,0a1.993,1.993,0,0,1,.152-.774,1.912,1.912,0,0,1,.422-.635,1.957,1.957,0,0,1,.639-.419,2.1,2.1,0,0,1,1.559,0,1.976,1.976,0,0,1,.639.419,1.924,1.924,0,0,1,.421.635,1.993,1.993,0,0,1,.152.774,1.993,1.993,0,0,1-.152.774,1.9,1.9,0,0,1-1.061,1.053,2.078,2.078,0,0,1-1.559,0,1.9,1.9,0,0,1-1.061-1.053A1.993,1.993,0,0,1,149.8,2.1Z" transform="translate(-13.716 -0.013)" fill="#151e1d"/>
    <path id="Trazado_17" data-name="Trazado 17" d="M1.963,62.343l-.647-6.751a.612.612,0,0,0-.408-.54l-.137-.067L.8,54.872H3.5l-.022.113-.25.09a.473.473,0,0,0-.339.529l.339,5,2.085-4.141-.1-.844a.618.618,0,0,0-.418-.54l-.25-.09.022-.113H7.323l-.022.113-.306.112a.442.442,0,0,0-.317.529l.556,5,2.255-5.007a.365.365,0,0,0-.227-.54l-.226-.09.022-.113h1.666l-.022.113-.271.09a1.05,1.05,0,0,0-.374.213,1.16,1.16,0,0,0-.25.349L6.813,62.343h-.8l-.623-5.288L2.756,62.343Z" transform="translate(-0.079 -5.595)" fill="#151e1d"/>
    <path id="Trazado_18" data-name="Trazado 18" d="M11.277,62.313l-.068-.067,1.032-4.906q.09-.427.159-.77c.045-.23.094-.486.147-.771a.509.509,0,0,0-.374-.641l-.181-.057.022-.112,2.164-.63.079.079-.771,3.589a6.109,6.109,0,0,1,1.208-.973,2.318,2.318,0,0,1,1.184-.389.834.834,0,0,1,.6.22.9.9,0,0,1,.233.682,2.82,2.82,0,0,1-.046.489c-.031.169-.068.344-.113.524l-.567,2.294c-.031.143-.061.265-.091.366a.9.9,0,0,0-.046.242c0,.157.068.236.2.236a1.5,1.5,0,0,0,.828-.495l.1.1a2.923,2.923,0,0,1-.737.753,1.751,1.751,0,0,1-1.053.338.86.86,0,0,1-.579-.175.608.608,0,0,1-.2-.489,2.287,2.287,0,0,1,.057-.489c.039-.169.084-.344.137-.524l.51-1.98c.053-.2.1-.388.142-.557a1.87,1.87,0,0,0,.062-.433c0-.262-.124-.394-.374-.394a2.487,2.487,0,0,0-1.462.9l-.34,1.563q-.147.686-.255,1.243t-.21,1.165Z" transform="translate(-1.143 -5.542)" fill="#151e1d"/>
    <path id="Trazado_19" data-name="Trazado 19" d="M20.307,62.675a1.834,1.834,0,0,1-1.383-.551,2.161,2.161,0,0,1-.533-1.563,3.839,3.839,0,0,1,.947-2.538,3.335,3.335,0,0,1,1.036-.8,2.842,2.842,0,0,1,1.281-.294,1.652,1.652,0,0,1,1.094.321,1.06,1.06,0,0,1,.38.85,1.256,1.256,0,0,1-.413.867,3.841,3.841,0,0,1-1.162.771,7.3,7.3,0,0,1-1.757.523,1.684,1.684,0,0,0,.339,1.136,1.166,1.166,0,0,0,.907.36,1.622,1.622,0,0,0,.9-.264,2.819,2.819,0,0,0,.691-.624l.113.078a3.916,3.916,0,0,1-.584.832,3.115,3.115,0,0,1-.822.647,2.11,2.11,0,0,1-1.031.253m1.269-5.445a.958.958,0,0,0-.561.225,2.6,2.6,0,0,0-.567.612,3.777,3.777,0,0,0-.442.89,3.906,3.906,0,0,0-.209,1.063,3.824,3.824,0,0,0,1.774-.89,1.757,1.757,0,0,0,.527-1.247.708.708,0,0,0-.147-.5.492.492,0,0,0-.374-.157" transform="translate(-1.875 -5.804)" fill="#151e1d"/>
    <path id="Trazado_20" data-name="Trazado 20" d="M24.07,62.585l-.113-.079.86-4.118a.6.6,0,0,0-.033-.434.658.658,0,0,0-.306-.231l-.17-.078.022-.112,1.972-.62.113.1-.306,1.857a5.337,5.337,0,0,1,.556-.979,3.26,3.26,0,0,1,.669-.7,1.169,1.169,0,0,1,.7-.264.837.837,0,0,1,.567.186.614.614,0,0,1,.216.489.73.73,0,0,1-.188.517.654.654,0,0,1-.5.2.946.946,0,0,1-.476-.129,1.756,1.756,0,0,1-.442-.376,2.594,2.594,0,0,0-.681.759,8.568,8.568,0,0,0-.522,1.018l-.112.517c-.084.4-.163.8-.239,1.192s-.151.8-.226,1.2Z" transform="translate(-2.443 -5.803)" fill="#151e1d"/>
    <path id="Trazado_21" data-name="Trazado 21" d="M31.085,62.675a1.835,1.835,0,0,1-1.383-.551,2.161,2.161,0,0,1-.533-1.563,3.839,3.839,0,0,1,.947-2.538,3.335,3.335,0,0,1,1.036-.8,2.842,2.842,0,0,1,1.281-.294,1.652,1.652,0,0,1,1.094.321,1.06,1.06,0,0,1,.38.85,1.256,1.256,0,0,1-.413.867,3.841,3.841,0,0,1-1.162.771,7.3,7.3,0,0,1-1.757.523,1.684,1.684,0,0,0,.339,1.136,1.166,1.166,0,0,0,.907.36,1.622,1.622,0,0,0,.9-.264,2.819,2.819,0,0,0,.691-.624l.113.078a3.916,3.916,0,0,1-.584.832,3.115,3.115,0,0,1-.822.647,2.11,2.11,0,0,1-1.031.253m1.269-5.445a.958.958,0,0,0-.561.225,2.6,2.6,0,0,0-.567.612,3.777,3.777,0,0,0-.442.89,3.907,3.907,0,0,0-.209,1.063,3.824,3.824,0,0,0,1.774-.89,1.757,1.757,0,0,0,.527-1.247.708.708,0,0,0-.147-.5.492.492,0,0,0-.374-.157" transform="translate(-2.974 -5.804)" fill="#151e1d"/>
    <path id="Trazado_22" data-name="Trazado 22" d="M38.793,62.52a.9.9,0,0,1-.584-.186.654.654,0,0,1-.233-.545,2.968,2.968,0,0,1,.045-.489q.046-.264.1-.568l.782-3.556h-.94L38,57.041,38.408,57a1.526,1.526,0,0,0,.555-.158,1.748,1.748,0,0,0,.454-.348L40.5,55.4h.171l-.318,1.543h1.236l-.057.235H40.3l-.782,3.747c-.031.143-.053.265-.067.365a1.75,1.75,0,0,0-.022.253.244.244,0,0,0,.067.181.206.206,0,0,0,.147.067.6.6,0,0,0,.34-.128,4.556,4.556,0,0,0,.454-.389l.136.112a3.592,3.592,0,0,1-.736.777,1.632,1.632,0,0,1-1.043.359" transform="translate(-3.871 -5.648)" fill="#151e1d"/>
    <path id="Trazado_23" data-name="Trazado 23" d="M41.717,62.313l-.068-.067,1.032-4.906q.09-.427.159-.77c.045-.23.094-.486.147-.771a.509.509,0,0,0-.374-.641l-.181-.057.022-.112,2.164-.63.079.079-.771,3.589a6.109,6.109,0,0,1,1.208-.973,2.318,2.318,0,0,1,1.184-.389.834.834,0,0,1,.6.22.9.9,0,0,1,.233.682,2.821,2.821,0,0,1-.046.489c-.031.169-.068.344-.113.524l-.567,2.294c-.031.143-.061.265-.091.366a.9.9,0,0,0-.046.242c0,.157.068.236.2.236a1.5,1.5,0,0,0,.828-.495l.1.1a2.923,2.923,0,0,1-.737.753,1.751,1.751,0,0,1-1.053.338.86.86,0,0,1-.579-.175.608.608,0,0,1-.2-.489,2.287,2.287,0,0,1,.057-.489c.039-.169.084-.344.136-.524l.51-1.98c.053-.2.1-.388.142-.557a1.87,1.87,0,0,0,.062-.433c0-.262-.124-.394-.374-.394a2.487,2.487,0,0,0-1.462.9l-.34,1.563q-.147.686-.255,1.243t-.21,1.165Z" transform="translate(-4.246 -5.542)" fill="#151e1d"/>
    <path id="Trazado_24" data-name="Trazado 24" d="M50.747,62.675a1.834,1.834,0,0,1-1.383-.551,2.161,2.161,0,0,1-.533-1.563,3.839,3.839,0,0,1,.947-2.538,3.335,3.335,0,0,1,1.036-.8,2.842,2.842,0,0,1,1.281-.294,1.652,1.652,0,0,1,1.094.321,1.06,1.06,0,0,1,.38.85,1.256,1.256,0,0,1-.413.867,3.841,3.841,0,0,1-1.162.771,7.3,7.3,0,0,1-1.757.523,1.684,1.684,0,0,0,.339,1.136,1.166,1.166,0,0,0,.907.36,1.622,1.622,0,0,0,.9-.264,2.819,2.819,0,0,0,.691-.624l.113.078a3.916,3.916,0,0,1-.584.832,3.115,3.115,0,0,1-.822.647,2.11,2.11,0,0,1-1.031.253m1.269-5.445a.958.958,0,0,0-.561.225,2.6,2.6,0,0,0-.567.612,3.777,3.777,0,0,0-.442.89,3.906,3.906,0,0,0-.209,1.063,3.824,3.824,0,0,0,1.774-.89,1.757,1.757,0,0,0,.527-1.247.708.708,0,0,0-.147-.5.492.492,0,0,0-.374-.157" transform="translate(-4.979 -5.804)" fill="#151e1d"/>
    <path id="Trazado_25" data-name="Trazado 25" d="M58.7,62.419a1.326,1.326,0,0,1-.9-.3,1.131,1.131,0,0,1-.346-.9,4.718,4.718,0,0,1,.1-.9q.1-.494.2-.99l.691-3.466a.492.492,0,0,0-.352-.63l-.2-.079.011-.112,2.222-.63.068.079-.76,3.454a4.044,4.044,0,0,1,1.036-.922,2.089,2.089,0,0,1,1.071-.349,1.078,1.078,0,0,1,.823.349,1.709,1.709,0,0,1,.322,1.17,3.572,3.572,0,0,1-.227,1.244,4.727,4.727,0,0,1-.623,1.153,5.215,5.215,0,0,1-.9.951,4.312,4.312,0,0,1-1.076.647,3,3,0,0,1-1.15.236m.091-1.024a.886.886,0,0,0,.113.467.394.394,0,0,0,.362.186,1.507,1.507,0,0,0,1.157-.7,3.259,3.259,0,0,0,.414-.743,5.427,5.427,0,0,0,.295-.957,4.64,4.64,0,0,0,.109-.967,1.894,1.894,0,0,0-.172-.911.518.518,0,0,0-.464-.3,1,1,0,0,0-.573.215,4.156,4.156,0,0,0-.64.585l-.305,1.395q-.136.641-.216,1.074a3.986,3.986,0,0,0-.079.659" transform="translate(-5.857 -5.547)" fill="#151e1d"/>
    <path id="Trazado_26" data-name="Trazado 26" d="M65.981,62.675a2.478,2.478,0,0,1-1.078-.231,1.759,1.759,0,0,1-.771-.7,2.255,2.255,0,0,1-.283-1.186,3.9,3.9,0,0,1,.243-1.373,3.818,3.818,0,0,1,.685-1.165,3.267,3.267,0,0,1,1.032-.8,2.845,2.845,0,0,1,1.281-.294,2.408,2.408,0,0,1,1.071.231,1.774,1.774,0,0,1,.748.692,2.271,2.271,0,0,1,.277,1.181,3.887,3.887,0,0,1-.244,1.368,3.818,3.818,0,0,1-.68,1.169,3.3,3.3,0,0,1-1.019.81,2.734,2.734,0,0,1-1.264.3m.136-.225a.855.855,0,0,0,.64-.321,2.852,2.852,0,0,0,.5-.855,5.921,5.921,0,0,0,.33-1.182,7.457,7.457,0,0,0,.112-1.288,3.019,3.019,0,0,0-.192-1.294.569.569,0,0,0-.5-.36.919.919,0,0,0-.668.315,2.749,2.749,0,0,0-.533.843,5.734,5.734,0,0,0-.351,1.171,6.666,6.666,0,0,0-.125,1.282,2.7,2.7,0,0,0,.227,1.322.651.651,0,0,0,.555.366" transform="translate(-6.51 -5.804)" fill="#151e1d"/>
    <path id="Trazado_27" data-name="Trazado 27" d="M71.582,62.413a1.1,1.1,0,0,1-.8-.348,1.7,1.7,0,0,1-.346-1.216,3.324,3.324,0,0,1,.226-1.182,5.1,5.1,0,0,1,.607-1.131,5.634,5.634,0,0,1,.861-.961,4.1,4.1,0,0,1,1-.67,2.416,2.416,0,0,1,1.019-.242,1.362,1.362,0,0,1,.431.067l.171-.843a.544.544,0,0,0-.374-.686l-.25-.1.022-.112,2.2-.63.079.079-1.394,6.548c-.022.12-.04.22-.051.3a1.584,1.584,0,0,0-.017.232c0,.157.065.235.193.235a.785.785,0,0,0,.368-.139A2.023,2.023,0,0,0,76,61.189l.125.112a2.643,2.643,0,0,1-.737.781,1.67,1.67,0,0,1-.986.331.744.744,0,0,1-.589-.242.9.9,0,0,1-.216-.624,3.43,3.43,0,0,1,.034-.451,4.434,4.434,0,0,1-1.015.951,1.892,1.892,0,0,1-1.036.366m.238-1.923A1.4,1.4,0,0,0,72,61.3a.563.563,0,0,0,.476.247q.521,0,1.2-.788c.008-.038.016-.078.023-.123l.691-3.32a.961.961,0,0,0-.669-.259,1.107,1.107,0,0,0-.527.13,1.7,1.7,0,0,0-.459.366,2.863,2.863,0,0,0-.471.781,5.62,5.62,0,0,0-.329,1.058,5.371,5.371,0,0,0-.119,1.1" transform="translate(-7.182 -5.542)" fill="#151e1d"/>
    <path id="Trazado_28" data-name="Trazado 28" d="M76.766,65.092a1.043,1.043,0,0,1-.674-.215.685.685,0,0,1-.267-.563.646.646,0,0,1,.209-.489.729.729,0,0,1,.515-.2.991.991,0,0,1,.669.269,1,1,0,0,0,.471.259.616.616,0,0,0,.481-.135,3.143,3.143,0,0,0,.3-.242c.094-.085.19-.181.288-.286l.068-.067q-.17-1.2-.34-2.318T78.138,58.8a5.012,5.012,0,0,0-.113-.63.649.649,0,0,0-.119-.264.211.211,0,0,0-.154-.061.454.454,0,0,0-.255.1,1.585,1.585,0,0,0-.323.348l-.147-.146q.793-1.226,1.609-1.227a.689.689,0,0,1,.618.282,2,2,0,0,1,.244.9q.113,1.047.216,2t.181,2.008a16.753,16.753,0,0,0,.669-1.863q.272-.927.533-2.008a3.039,3.039,0,0,1,.414-1.068.717.717,0,0,1,.595-.282.676.676,0,0,1,.443.158.513.513,0,0,1,.192.416,1.269,1.269,0,0,1-.108.523c-.071.163-.172.362-.3.6s-.253.476-.4.732-.313.539-.51.855q-.318.494-.674,1.063t-.833,1.231l-.55.732a8.618,8.618,0,0,1-.72.821,4.617,4.617,0,0,1-.923.776,1.8,1.8,0,0,1-.958.294" transform="translate(-7.731 -5.8)" fill="#151e1d"/>
    <path id="Trazado_29" data-name="Trazado 29" d="M87.913,62.506l-1.383.079-.091-.079.873-4.141a.483.483,0,0,0-.317-.619l-.2-.1.022-.112,2.109-.619.1.1-.238,1.216a5.722,5.722,0,0,1,1.179-.951,2.229,2.229,0,0,1,1.122-.355.853.853,0,0,1,.6.22.883.883,0,0,1,.238.682,1.694,1.694,0,0,1-.012.2c-.007.067-.015.138-.022.213a5.538,5.538,0,0,1,1.15-.962,2.16,2.16,0,0,1,1.116-.355.834.834,0,0,1,.6.22.9.9,0,0,1,.232.682,2.731,2.731,0,0,1-.045.489c-.031.169-.068.344-.113.524l-.59,2.407c-.03.12-.057.223-.079.305a.823.823,0,0,0-.034.213c0,.157.064.236.192.236a.7.7,0,0,0,.381-.14,3.306,3.306,0,0,0,.459-.388l.113.112a2.842,2.842,0,0,1-.419.5,2.328,2.328,0,0,1-.607.422,1.746,1.746,0,0,1-.776.169.855.855,0,0,1-.577-.175.606.606,0,0,1-.2-.489,2.181,2.181,0,0,1,.057-.489c.037-.169.083-.344.136-.524l.464-1.9q.069-.291.119-.539a2.1,2.1,0,0,0,.051-.406c0-.261-.121-.394-.363-.394a2.176,2.176,0,0,0-1.315.778.175.175,0,0,0-.017.05.263.263,0,0,0-.006.062l-.317,1.463q-.125.6-.238,1.192c-.075.4-.154.8-.238,1.2l-1.371.079-.091-.079.76-3.567c.03-.149.057-.29.079-.421a2.08,2.08,0,0,0,.034-.344q0-.37-.34-.37a2.184,2.184,0,0,0-1.36.731l-.351,1.575q-.125.6-.239,1.192c-.075.4-.151.8-.226,1.2" transform="translate(-8.813 -5.803)" fill="#151e1d"/>
    <path id="Trazado_30" data-name="Trazado 30" d="M98.932,62.675a1.834,1.834,0,0,1-1.383-.551,2.161,2.161,0,0,1-.533-1.563,3.851,3.851,0,0,1,.947-2.538A3.335,3.335,0,0,1,99,57.22a2.845,2.845,0,0,1,1.281-.294,1.652,1.652,0,0,1,1.094.321,1.06,1.06,0,0,1,.38.85,1.256,1.256,0,0,1-.413.867,3.841,3.841,0,0,1-1.162.771,7.3,7.3,0,0,1-1.757.523,1.684,1.684,0,0,0,.339,1.136,1.166,1.166,0,0,0,.907.36,1.622,1.622,0,0,0,.9-.264,2.819,2.819,0,0,0,.691-.624l.113.078a3.916,3.916,0,0,1-.584.832,3.115,3.115,0,0,1-.822.647,2.11,2.11,0,0,1-1.031.253M100.2,57.23a.958.958,0,0,0-.561.225,2.6,2.6,0,0,0-.567.612,3.741,3.741,0,0,0-.441.89,3.873,3.873,0,0,0-.21,1.063,3.824,3.824,0,0,0,1.774-.89,1.757,1.757,0,0,0,.527-1.247.708.708,0,0,0-.147-.5.492.492,0,0,0-.374-.157" transform="translate(-9.891 -5.804)" fill="#151e1d"/>
    <path id="Trazado_31" data-name="Trazado 31" d="M104.611,62.675a1.835,1.835,0,0,1-1.383-.551,2.161,2.161,0,0,1-.533-1.563,3.851,3.851,0,0,1,.947-2.538,3.335,3.335,0,0,1,1.036-.8,2.845,2.845,0,0,1,1.281-.294,1.652,1.652,0,0,1,1.094.321,1.06,1.06,0,0,1,.38.85,1.256,1.256,0,0,1-.413.867,3.842,3.842,0,0,1-1.162.771,7.3,7.3,0,0,1-1.757.523,1.684,1.684,0,0,0,.339,1.136,1.166,1.166,0,0,0,.907.36,1.622,1.622,0,0,0,.9-.264,2.819,2.819,0,0,0,.692-.624l.113.078a3.917,3.917,0,0,1-.584.832,3.115,3.115,0,0,1-.822.647,2.11,2.11,0,0,1-1.031.253m1.269-5.445a.958.958,0,0,0-.561.225,2.6,2.6,0,0,0-.567.612,3.777,3.777,0,0,0-.442.89,3.907,3.907,0,0,0-.209,1.063,3.824,3.824,0,0,0,1.774-.89,1.758,1.758,0,0,0,.527-1.247.708.708,0,0,0-.147-.5.492.492,0,0,0-.374-.157" transform="translate(-10.471 -5.804)" fill="#151e1d"/>
    <path id="Trazado_32" data-name="Trazado 32" d="M109.53,62.52a.9.9,0,0,1-.584-.186.654.654,0,0,1-.233-.545,2.967,2.967,0,0,1,.045-.489q.046-.264.1-.568l.782-3.556h-.94l.033-.135.409-.045a1.526,1.526,0,0,0,.555-.158,1.763,1.763,0,0,0,.454-.348l1.088-1.092h.171l-.318,1.543h1.236l-.057.235h-1.236l-.782,3.747c-.031.143-.053.265-.067.365a1.747,1.747,0,0,0-.022.253.244.244,0,0,0,.067.181.206.206,0,0,0,.147.067.6.6,0,0,0,.34-.128,4.462,4.462,0,0,0,.453-.389l.136.112a3.591,3.591,0,0,1-.736.777,1.632,1.632,0,0,1-1.043.359" transform="translate(-11.083 -5.648)" fill="#151e1d"/>
    <path id="Trazado_33" data-name="Trazado 33" d="M114.024,62.676a2.128,2.128,0,0,1-1.157-.281.9.9,0,0,1-.441-.8.665.665,0,0,1,.192-.473.658.658,0,0,1,.5-.2q.567,0,.7.686l.068.315a1.4,1.4,0,0,0,.141.383.353.353,0,0,0,.335.146.658.658,0,0,0,.5-.236.934.934,0,0,0,.216-.653,1.068,1.068,0,0,0-.2-.607,2.948,2.948,0,0,0-.663-.642,3.682,3.682,0,0,1-.748-.748,1.528,1.528,0,0,1-.284-.928,1.584,1.584,0,0,1,.243-.861,1.707,1.707,0,0,1,.709-.619,2.449,2.449,0,0,1,1.1-.231,2.032,2.032,0,0,1,1.162.293.882.882,0,0,1,.425.754.591.591,0,0,1-.147.41.565.565,0,0,1-.442.163q-.544,0-.736-.653l-.113-.315a.792.792,0,0,0-.137-.315.318.318,0,0,0-.25-.09.543.543,0,0,0-.374.2.868.868,0,0,0-.193.625,1.22,1.22,0,0,0,.243.736,3.46,3.46,0,0,0,.732.692,3.05,3.05,0,0,1,.73.72,1.481,1.481,0,0,1,.233.843,1.431,1.431,0,0,1-.272.844,1.885,1.885,0,0,1-.794.612,3.149,3.149,0,0,1-1.281.231" transform="translate(-11.463 -5.804)" fill="#151e1d"/>
    <path id="Trazado_34" data-name="Trazado 34" d="M121.7,62.52a.9.9,0,0,1-.584-.186.654.654,0,0,1-.233-.545,2.967,2.967,0,0,1,.045-.489q.046-.264.1-.568l.782-3.556h-.94l.033-.135.409-.045a1.526,1.526,0,0,0,.555-.158,1.763,1.763,0,0,0,.454-.348l1.088-1.092h.171l-.318,1.543H124.5l-.057.235H123.2l-.782,3.747c-.031.143-.053.265-.067.365a1.751,1.751,0,0,0-.022.253.244.244,0,0,0,.067.181.206.206,0,0,0,.147.067.6.6,0,0,0,.34-.128,4.556,4.556,0,0,0,.454-.389l.136.112a3.592,3.592,0,0,1-.736.777,1.632,1.632,0,0,1-1.043.359" transform="translate(-12.323 -5.648)" fill="#151e1d"/>
    <path id="Trazado_35" data-name="Trazado 35" d="M124.621,62.313l-.068-.067,1.032-4.906q.09-.427.159-.77c.045-.23.094-.486.147-.771a.509.509,0,0,0-.374-.641l-.18-.057.022-.112,2.164-.63.079.079-.771,3.589a6.109,6.109,0,0,1,1.208-.973,2.318,2.318,0,0,1,1.184-.389.834.834,0,0,1,.6.22.9.9,0,0,1,.233.682,2.82,2.82,0,0,1-.046.489c-.031.169-.068.344-.113.524l-.567,2.294c-.031.143-.061.265-.091.366a.9.9,0,0,0-.046.242c0,.157.068.236.2.236a1.5,1.5,0,0,0,.828-.495l.1.1a2.938,2.938,0,0,1-.737.753,1.751,1.751,0,0,1-1.053.338.86.86,0,0,1-.579-.175.608.608,0,0,1-.2-.489,2.288,2.288,0,0,1,.057-.489c.039-.169.084-.344.137-.524l.51-1.98c.053-.2.1-.388.142-.557a1.871,1.871,0,0,0,.062-.433c0-.262-.124-.394-.374-.394a2.487,2.487,0,0,0-1.462.9l-.34,1.563q-.147.686-.255,1.243t-.21,1.165Z" transform="translate(-12.699 -5.542)" fill="#151e1d"/>
    <path id="Trazado_36" data-name="Trazado 36" d="M133.651,62.675a1.835,1.835,0,0,1-1.383-.551,2.161,2.161,0,0,1-.533-1.563,3.851,3.851,0,0,1,.947-2.538,3.335,3.335,0,0,1,1.036-.8A2.845,2.845,0,0,1,135,56.926a1.652,1.652,0,0,1,1.094.321,1.06,1.06,0,0,1,.38.85,1.256,1.256,0,0,1-.413.867,3.841,3.841,0,0,1-1.162.771,7.3,7.3,0,0,1-1.757.523,1.684,1.684,0,0,0,.339,1.136,1.166,1.166,0,0,0,.907.36,1.622,1.622,0,0,0,.9-.264,2.819,2.819,0,0,0,.691-.624l.113.078a3.917,3.917,0,0,1-.584.832,3.115,3.115,0,0,1-.822.647,2.11,2.11,0,0,1-1.031.253m1.269-5.445a.958.958,0,0,0-.561.225,2.6,2.6,0,0,0-.567.612,3.777,3.777,0,0,0-.442.89,3.906,3.906,0,0,0-.209,1.063,3.824,3.824,0,0,0,1.774-.89,1.757,1.757,0,0,0,.527-1.247.708.708,0,0,0-.147-.5.492.492,0,0,0-.374-.157" transform="translate(-13.431 -5.804)" fill="#151e1d"/>
    <path id="Trazado_37" data-name="Trazado 37" d="M141.612,62.676a2.128,2.128,0,0,1-1.157-.281.9.9,0,0,1-.441-.8.665.665,0,0,1,.192-.473.658.658,0,0,1,.5-.2q.567,0,.7.686l.068.315a1.4,1.4,0,0,0,.141.383.353.353,0,0,0,.335.146.658.658,0,0,0,.5-.236.934.934,0,0,0,.216-.653,1.067,1.067,0,0,0-.2-.607,2.947,2.947,0,0,0-.663-.642,3.683,3.683,0,0,1-.748-.748,1.528,1.528,0,0,1-.284-.928,1.584,1.584,0,0,1,.243-.861,1.707,1.707,0,0,1,.709-.619,2.449,2.449,0,0,1,1.1-.231,2.032,2.032,0,0,1,1.162.293.882.882,0,0,1,.425.754.592.592,0,0,1-.147.41.565.565,0,0,1-.442.163q-.544,0-.736-.653l-.113-.315a.792.792,0,0,0-.137-.315.318.318,0,0,0-.25-.09.543.543,0,0,0-.374.2.868.868,0,0,0-.193.625,1.22,1.22,0,0,0,.243.736,3.46,3.46,0,0,0,.732.692,3.049,3.049,0,0,1,.73.72,1.482,1.482,0,0,1,.233.843,1.432,1.432,0,0,1-.272.844,1.885,1.885,0,0,1-.794.612,3.149,3.149,0,0,1-1.281.231" transform="translate(-14.275 -5.804)" fill="#151e1d"/>
    <path id="Trazado_38" data-name="Trazado 38" d="M147.433,62.675a2.478,2.478,0,0,1-1.078-.231,1.759,1.759,0,0,1-.771-.7,2.255,2.255,0,0,1-.283-1.186,3.9,3.9,0,0,1,.243-1.373,3.819,3.819,0,0,1,.685-1.165,3.267,3.267,0,0,1,1.032-.8,2.845,2.845,0,0,1,1.281-.294,2.408,2.408,0,0,1,1.071.231,1.774,1.774,0,0,1,.748.692,2.271,2.271,0,0,1,.277,1.181A3.886,3.886,0,0,1,150.4,60.4a3.817,3.817,0,0,1-.68,1.169,3.3,3.3,0,0,1-1.019.81,2.734,2.734,0,0,1-1.264.3m.136-.225a.855.855,0,0,0,.64-.321,2.852,2.852,0,0,0,.5-.855,5.92,5.92,0,0,0,.33-1.182,7.455,7.455,0,0,0,.112-1.288,3.019,3.019,0,0,0-.192-1.294.569.569,0,0,0-.5-.36.919.919,0,0,0-.668.315,2.749,2.749,0,0,0-.533.843,5.734,5.734,0,0,0-.351,1.171,6.666,6.666,0,0,0-.125,1.282,2.7,2.7,0,0,0,.227,1.322.652.652,0,0,0,.555.366" transform="translate(-14.815 -5.804)" fill="#151e1d"/>
    <path id="Trazado_39" data-name="Trazado 39" d="M152.931,62.675a1.007,1.007,0,0,1-.664-.231.847.847,0,0,1-.277-.691,3.172,3.172,0,0,1,.057-.563q.058-.3.126-.6l.5-2.216a.521.521,0,0,0-.308-.641l-.215-.09.012-.124,2.142-.608.1.09-.794,3.443c-.046.188-.084.357-.114.507a2.085,2.085,0,0,0-.046.415.469.469,0,0,0,.114.355.406.406,0,0,0,.3.108,1.175,1.175,0,0,0,.577-.186,4.361,4.361,0,0,0,.737-.579,1.388,1.388,0,0,1,.033-.146l.387-1.812c.06-.292.119-.586.174-.882s.112-.6.164-.9l1.429-.417.124.1-.894,4.084a2.973,2.973,0,0,0-.091.62c0,.157.067.235.2.235a.593.593,0,0,0,.34-.128,3.737,3.737,0,0,0,.442-.388l.136.135a3.419,3.419,0,0,1-.718.759,1.554,1.554,0,0,1-.992.343.769.769,0,0,1-.583-.242.955.955,0,0,1-.233-.691,2.547,2.547,0,0,1,.022-.326,6.537,6.537,0,0,1-1.138.922,2.019,2.019,0,0,1-1.049.337" transform="translate(-15.497 -5.803)" fill="#151e1d"/>
    <path id="Trazado_40" data-name="Trazado 40" d="M159.545,62.414a.877.877,0,0,1-.594-.191.688.688,0,0,1-.221-.551,3.284,3.284,0,0,1,.045-.489c.03-.19.075-.436.136-.736l.647-3.105q.09-.427.153-.777t.142-.788a.494.494,0,0,0-.363-.607L159.3,55.1l.022-.113,2.221-.63.068.078-1.394,6.526c-.022.112-.042.212-.057.3a1.289,1.289,0,0,0-.022.22c0,.164.072.247.215.247a1.537,1.537,0,0,0,.828-.506l.112.09a3.453,3.453,0,0,1-.713.759,1.6,1.6,0,0,1-1.032.343" transform="translate(-16.184 -5.542)" fill="#151e1d"/>
  </g>
</svg>
