<svg xmlns="http://www.w3.org/2000/svg" xmlns:xlink="http://www.w3.org/1999/xlink" width="84.173" height="75.958" viewBox="0 0 84.173 75.958">
  <defs>
    <clipPath id="clip-path">
      <rect id="Rectángulo_290" data-name="Rectángulo 290" width="84.173" height="75.958" fill="none"/>
    </clipPath>
  </defs>
  <g id="Grupo_313" data-name="Grupo 313" clip-path="url(#clip-path)">
    <path id="Trazado_568" data-name="Trazado 568" d="M9.387,11.455a9.422,9.422,0,0,1-.922.448,5.636,5.636,0,0,1-1.081.329,6.331,6.331,0,0,1-1.259.118,6.157,6.157,0,0,1-2.467-.482,5.794,5.794,0,0,1-1.91-1.31A5.73,5.73,0,0,1,.53,8.64,6.37,6.37,0,0,1,.107,6.316,6.4,6.4,0,0,1,.563,3.89,5.91,5.91,0,0,1,1.848,1.93,6.066,6.066,0,0,1,3.775.619,5.934,5.934,0,0,1,6.142.146,6.135,6.135,0,0,1,7.866.383a6.353,6.353,0,0,1,1.487.642l-.271.541A5.684,5.684,0,0,0,7.722.94a5.326,5.326,0,0,0-3.668.194,5.478,5.478,0,0,0-1.741,1.2,5.609,5.609,0,0,0-1.6,3.981,5.821,5.821,0,0,0,.381,2.1,5.336,5.336,0,0,0,1.09,1.758A5.022,5.022,0,0,0,3.9,11.362a5.631,5.631,0,0,0,2.239.431,5.189,5.189,0,0,0,1.6-.237,6.222,6.222,0,0,0,1.343-.608Z" transform="translate(-0.045 -0.061)"/>
    <path id="Trazado_569" data-name="Trazado 569" d="M21.562.38h7.252V.937h-6.66V6.008h6v.575h-6v5.173h6.9v.558H21.562Z" transform="translate(-9.059 -0.159)"/>
    <path id="Trazado_570" data-name="Trazado 570" d="M49.944,12.408,40.478,1.336l.152-.169.017,10.987h-.575V0h.034l9.5,11.173-.186.017L49.4.22h.575V12.408Z" transform="translate(-16.836 0)"/>
    <path id="Trazado_571" data-name="Trazado 571" d="M62.2.38h7.793V.937h-3.6V12.314H65.8V.937H62.2Z" transform="translate(-26.131 -0.159)"/>
    <path id="Trazado_572" data-name="Trazado 572" d="M83.294.379a4.536,4.536,0,0,1,1.225.177,3.626,3.626,0,0,1,1.175.575,3.046,3.046,0,0,1,.879,1.023,3.121,3.121,0,0,1,.338,1.5,4.046,4.046,0,0,1-.2,1.276,3.087,3.087,0,0,1-.642,1.108,3.137,3.137,0,0,1-1.149.786,4.587,4.587,0,0,1-1.758.3H81.3v5.19h-.591V.379Zm-.186,6.17a4.07,4.07,0,0,0,1.581-.262,2.531,2.531,0,0,0,.972-.684,2.611,2.611,0,0,0,.507-.921,3.389,3.389,0,0,0,.152-.989A2.684,2.684,0,0,0,86.1,2.6a2.65,2.65,0,0,0-.617-.87,2.919,2.919,0,0,0-.938-.583A3.236,3.236,0,0,0,83.361.937H81.3V6.549Zm1.64.2,3.364,5.562h-.676L84.055,6.769Z" transform="translate(-33.908 -0.159)"/>
    <path id="Trazado_573" data-name="Trazado 573" d="M96.917,6.265A5.969,5.969,0,0,1,97.39,3.89,6.228,6.228,0,0,1,98.7,1.938,6.073,6.073,0,0,1,100.644.619,5.947,5.947,0,0,1,103,.146a5.843,5.843,0,0,1,2.358.482,6.347,6.347,0,0,1,1.952,1.319A6.174,6.174,0,0,1,108.64,3.89a5.9,5.9,0,0,1,.482,2.375,5.851,5.851,0,0,1-.482,2.358,6.242,6.242,0,0,1-1.319,1.944,6.131,6.131,0,0,1-1.944,1.31A5.981,5.981,0,0,1,103,12.35a6.064,6.064,0,0,1-4.3-1.733,5.926,5.926,0,0,1-1.31-1.927,6.1,6.1,0,0,1-.473-2.426m.591.017a5.48,5.48,0,0,0,1.6,3.9,5.584,5.584,0,0,0,1.75,1.184,5.273,5.273,0,0,0,2.113.431,5.417,5.417,0,0,0,2.155-.431,5.666,5.666,0,0,0,1.767-1.184,5.6,5.6,0,0,0,1.2-1.758,5.325,5.325,0,0,0,.44-2.155,5.287,5.287,0,0,0-.44-2.139A5.888,5.888,0,0,0,106.9,2.352a5.538,5.538,0,0,0-1.758-1.208,5.453,5.453,0,0,0-4.31.009A5.483,5.483,0,0,0,99.08,2.377,5.7,5.7,0,0,0,97.922,4.16a5.521,5.521,0,0,0-.414,2.122" transform="translate(-40.718 -0.061)"/>
    <path id="Trazado_574" data-name="Trazado 574" d="M9.387,46.436a9.422,9.422,0,0,1-.922.448,5.635,5.635,0,0,1-1.081.329,6.331,6.331,0,0,1-1.259.118,6.157,6.157,0,0,1-2.467-.482,5.794,5.794,0,0,1-1.91-1.31A5.73,5.73,0,0,1,.53,43.621a6.638,6.638,0,0,1,.034-4.75,5.91,5.91,0,0,1,1.284-1.961A6.066,6.066,0,0,1,3.775,35.6a5.924,5.924,0,0,1,2.367-.473,6.135,6.135,0,0,1,1.725.237,6.353,6.353,0,0,1,1.487.642l-.271.541a5.684,5.684,0,0,0-1.36-.626,5.326,5.326,0,0,0-3.668.194,5.478,5.478,0,0,0-1.741,1.2A5.609,5.609,0,0,0,.715,41.3a5.821,5.821,0,0,0,.381,2.1,5.336,5.336,0,0,0,1.09,1.758A5.022,5.022,0,0,0,3.9,46.343a5.631,5.631,0,0,0,2.239.431,5.189,5.189,0,0,0,1.6-.237,6.222,6.222,0,0,0,1.343-.608Z" transform="translate(-0.045 -14.758)"/>
    <path id="Trazado_575" data-name="Trazado 575" d="M22.065,43.323a3.83,3.83,0,0,0,.448,1.91,3.076,3.076,0,0,0,1.217,1.217,3.568,3.568,0,0,0,1.749.423,3.62,3.62,0,0,0,1.758-.423,3.014,3.014,0,0,0,1.217-1.217,3.891,3.891,0,0,0,.44-1.91V35.361h.591v8a4.325,4.325,0,0,1-.532,2.215,3.532,3.532,0,0,1-1.437,1.386,4.318,4.318,0,0,1-2.037.474,4.371,4.371,0,0,1-2.045-.474A3.47,3.47,0,0,1,22,45.571a4.382,4.382,0,0,1-.524-2.215v-8h.591Z" transform="translate(-9.022 -14.856)"/>
    <path id="Trazado_576" data-name="Trazado 576" d="M41.967,35.361h.591V46.737h6.677v.558H41.967Z" transform="translate(-17.632 -14.856)"/>
    <path id="Trazado_577" data-name="Trazado 577" d="M54.881,35.361h7.793v.558h-3.6V47.295h-.592V35.918h-3.6Z" transform="translate(-23.057 -14.856)"/>
    <path id="Trazado_578" data-name="Trazado 578" d="M73.9,43.323a3.83,3.83,0,0,0,.448,1.91,3.076,3.076,0,0,0,1.217,1.217,3.571,3.571,0,0,0,1.749.423,3.619,3.619,0,0,0,1.758-.423,3.011,3.011,0,0,0,1.217-1.217,3.891,3.891,0,0,0,.44-1.91V35.361h.591v8a4.325,4.325,0,0,1-.532,2.215,3.532,3.532,0,0,1-1.437,1.386,4.318,4.318,0,0,1-2.036.474,4.37,4.37,0,0,1-2.045-.474,3.463,3.463,0,0,1-1.437-1.386,4.376,4.376,0,0,1-.524-2.215v-8H73.9Z" transform="translate(-30.797 -14.856)"/>
    <path id="Trazado_579" data-name="Trazado 579" d="M96.383,35.36a4.536,4.536,0,0,1,1.225.177,3.626,3.626,0,0,1,1.175.575,3.047,3.047,0,0,1,.879,1.023,3.121,3.121,0,0,1,.338,1.5,4.046,4.046,0,0,1-.2,1.276,3.087,3.087,0,0,1-.642,1.108,3.128,3.128,0,0,1-1.15.786,4.584,4.584,0,0,1-1.758.3h-1.86v5.19H93.8V35.36ZM96.2,41.53a4.07,4.07,0,0,0,1.581-.262,2.531,2.531,0,0,0,.972-.684,2.611,2.611,0,0,0,.507-.921,3.389,3.389,0,0,0,.152-.989,2.684,2.684,0,0,0-.22-1.091,2.65,2.65,0,0,0-.617-.87,2.918,2.918,0,0,0-.938-.583,3.236,3.236,0,0,0-1.184-.211H94.388V41.53Zm1.64.2,3.364,5.562h-.676L97.144,41.75Z" transform="translate(-39.407 -14.856)"/>
    <path id="Trazado_580" data-name="Trazado 580" d="M110.3,46.9l4.987-12.475h.05l5,12.475h-.659l-4.53-11.528.406-.186L110.888,46.9Zm2.248-4.75h5.562l.135.541h-5.815Z" transform="translate(-46.339 -14.464)"/>
    <path id="Trazado_581" data-name="Trazado 581" d="M132.626,35.361h.591V46.737h6.677v.558h-7.269Z" transform="translate(-55.72 -14.856)"/>
    <path id="Trazado_582" data-name="Trazado 582" d="M75.672,74.1a4.2,4.2,0,0,0-6.061.009,4.483,4.483,0,0,0-.9,4.767,4.34,4.34,0,0,0,2.29,2.333,4.2,4.2,0,0,0,1.69.338,4.05,4.05,0,0,0,1.649-.338,4.227,4.227,0,0,0,1.344-.93,4.407,4.407,0,0,0,1.234-3.094,4.27,4.27,0,0,0-.338-1.69,4.624,4.624,0,0,0-.912-1.395" transform="translate(-28.731 -30.594)"/>
    <path id="Trazado_583" data-name="Trazado 583" d="M12.129,82.154A4.162,4.162,0,0,0,11,82H9.357v3.347h1.774a3.412,3.412,0,0,0,1.132-.178,1.746,1.746,0,0,0,.811-.558,1.479,1.479,0,0,0,.3-.955,1.35,1.35,0,0,0-.355-1,2.008,2.008,0,0,0-.9-.507" transform="translate(-3.931 -34.452)"/>
    <path id="Trazado_584" data-name="Trazado 584" d="M12.357,75.8a1.872,1.872,0,0,0,.414-1.208,1.434,1.434,0,0,0-.524-1.234,2.331,2.331,0,0,0-1.42-.389H9.357v3.347h1.69a1.582,1.582,0,0,0,1.31-.516" transform="translate(-3.931 -30.655)"/>
    <path id="Trazado_585" data-name="Trazado 585" d="M33.782,74.016a4.08,4.08,0,0,0-1.352-.946,4.206,4.206,0,0,0-4.708.946,4.352,4.352,0,0,0-.9,1.411,4.569,4.569,0,0,0-.321,1.716,4.409,4.409,0,0,0,.329,1.707,4.34,4.34,0,0,0,2.29,2.333,4.191,4.191,0,0,0,1.69.338,4.05,4.05,0,0,0,1.649-.338,4.169,4.169,0,0,0,1.344-.938,4.49,4.49,0,0,0,.9-1.395,4.409,4.409,0,0,0,.329-1.707,4.357,4.357,0,0,0-.338-1.725,4.726,4.726,0,0,0-.913-1.4" transform="translate(-11.132 -30.557)"/>
    <path id="Trazado_586" data-name="Trazado 586" d="M0,82.539H76.919v-18.2H0Zm11.114-4.686a3.041,3.041,0,0,1-.938,1.091,4.018,4.018,0,0,1-1.335.617,6.141,6.141,0,0,1-1.555.194H3.448V67.449H6.812a5.1,5.1,0,0,1,2.967.761,2.649,2.649,0,0,1,1.09,2.333,2.993,2.993,0,0,1-1.586,2.78,3.93,3.93,0,0,1,1.56,1.116,2.722,2.722,0,0,1,.617,1.783,3.509,3.509,0,0,1-.346,1.631m14.317-1.792a6.373,6.373,0,0,1-3.381,3.347,6.41,6.41,0,0,1-4.877,0,6.323,6.323,0,0,1-1.995-1.335,6.254,6.254,0,0,1-1.352-1.994,6.161,6.161,0,0,1-.49-2.46,6.013,6.013,0,0,1,.49-2.417,6.585,6.585,0,0,1,1.352-2.012,6.32,6.32,0,0,1,2-1.378,6.189,6.189,0,0,1,4.868,0,6.421,6.421,0,0,1,2.012,1.378A6.625,6.625,0,0,1,25.431,71.2a5.933,5.933,0,0,1,.5,2.417,6.031,6.031,0,0,1-.5,2.442M35.3,78.141a3.413,3.413,0,0,1-1.4,1.276,4.761,4.761,0,0,1-2.214.473,6.75,6.75,0,0,1-1.513-.169,7.494,7.494,0,0,1-1.394-.465,8.37,8.37,0,0,1-1.217-.667l.879-1.538a5.625,5.625,0,0,0,.93.558,6.235,6.235,0,0,0,1.081.405,4,4,0,0,0,1.048.153,3.178,3.178,0,0,0,1.04-.177,2.013,2.013,0,0,0,.862-.567,1.492,1.492,0,0,0,.346-1.031,1.4,1.4,0,0,0-.3-.9,2.682,2.682,0,0,0-.786-.651,7.715,7.715,0,0,0-1.065-.5q-.575-.22-1.167-.491a5.641,5.641,0,0,1-1.107-.667,3.155,3.155,0,0,1-.837-.972,2.878,2.878,0,0,1-.321-1.42,3.2,3.2,0,0,1,.474-1.758,3.374,3.374,0,0,1,1.31-1.183,4.4,4.4,0,0,1,1.935-.473,6.951,6.951,0,0,1,2.223.313,7.959,7.959,0,0,1,1.631.752l-.744,1.5a9.857,9.857,0,0,0-1.4-.583,4.534,4.534,0,0,0-1.42-.245,2.327,2.327,0,0,0-1.445.406,1.324,1.324,0,0,0-.533,1.116,1.243,1.243,0,0,0,.364.887,3.209,3.209,0,0,0,.947.659q.583.279,1.225.532a9.9,9.9,0,0,1,1.107.482,4.36,4.36,0,0,1,.989.685,2.865,2.865,0,0,1,.693,1.005,3.811,3.811,0,0,1,.253,1.479,3.372,3.372,0,0,1-.481,1.766m15.492,1.614H45.229a6.374,6.374,0,0,1-1.315.135,6.2,6.2,0,0,1-2.451-.482,6.314,6.314,0,0,1-1.994-1.335,6.235,6.235,0,0,1-1.352-1.994,6.162,6.162,0,0,1-.491-2.46,6.014,6.014,0,0,1,.491-2.417,6.564,6.564,0,0,1,1.352-2.012,6.311,6.311,0,0,1,2-1.378,6.189,6.189,0,0,1,4.868,0,6.43,6.43,0,0,1,2.012,1.378A6.634,6.634,0,0,1,49.721,71.2a5.924,5.924,0,0,1,.5,2.417,6.022,6.022,0,0,1-.5,2.442,6.4,6.4,0,0,1-1.167,1.784h2.241Zm11.985-4.378a4.34,4.34,0,0,1-.642,2.358,4.421,4.421,0,0,1-1.725,1.589,5.408,5.408,0,0,1-4.817,0,4.317,4.317,0,0,1-2.35-3.947V67.449h1.961v7.877a2.471,2.471,0,0,0,.38,1.335A2.78,2.78,0,0,0,58,77.98a2.956,2.956,0,0,0,1.454-.355,2.692,2.692,0,0,0,1.014-.964,2.509,2.509,0,0,0,.372-1.335V67.449h1.944Zm11.579,4.378h-8.4V67.449h8.165v1.893H67.935v3.279h5.51v1.893h-5.51v3.347h6.423Z" transform="translate(0 -27.032)"/>
    <path id="Trazado_587" data-name="Trazado 587" d="M0,117.808H70.041v-18.2H0Zm54.953-11.5a6.589,6.589,0,0,1,1.352-2.012,6.339,6.339,0,0,1,2-1.378,6.2,6.2,0,0,1,4.868,0,6.44,6.44,0,0,1,2.012,1.378,6.639,6.639,0,0,1,1.369,2.012,5.938,5.938,0,0,1,.5,2.417,6.034,6.034,0,0,1-.5,2.442,6.4,6.4,0,0,1-1.369,2,6.332,6.332,0,0,1-2.012,1.344,6.41,6.41,0,0,1-4.877,0,6.323,6.323,0,0,1-1.995-1.335,6.241,6.241,0,0,1-1.352-1.995,6.157,6.157,0,0,1-.49-2.459,6.018,6.018,0,0,1,.49-2.417m-9.906-3.752,3.249,8.086,3.107-8.086h2.315l-5.51,12.881L42.7,102.552Zm-6.643,0h1.978v12.306H38.4Zm-10.733,0H35.9v1.893H32.725v10.413H30.764V104.445H27.671Zm-5.8-.507h.118l5.443,12.813H25.169l-1.134-2.891H19.546l-1.189,2.891H16.43Zm-18.425.085h.1l8.839,8.711-.033-8.288h1.961V115.3h-.05l-8.873-8.6.049,8.163H3.448Z" transform="translate(0 -41.85)"/>
    <path id="Trazado_588" data-name="Trazado 588" d="M36.509,111.287l-1.6,3.894h3.13Z" transform="translate(-14.666 -46.755)"/>
    <path id="Trazado_589" data-name="Trazado 589" d="M98.672,115.227a4.328,4.328,0,0,0,1.369.938,4.191,4.191,0,0,0,1.69.338,4.052,4.052,0,0,0,1.649-.338,4.163,4.163,0,0,0,1.344-.938,4.47,4.47,0,0,0,.9-1.395,4.578,4.578,0,0,0-.009-3.432,4.726,4.726,0,0,0-.913-1.4,4.09,4.09,0,0,0-1.352-.947,4.2,4.2,0,0,0-4.708.947,4.361,4.361,0,0,0-.9,1.411,4.569,4.569,0,0,0-.321,1.716,4.409,4.409,0,0,0,.329,1.707,4.318,4.318,0,0,0,.921,1.395" transform="translate(-40.93 -45.254)"/>
  </g>
</svg>
