<svg xmlns="http://www.w3.org/2000/svg" viewBox="0 0 448.74 138.68"><defs><style>.cls-1,.cls-2{fill:#535252;stroke:#535252;}.cls-2{stroke-miterlimit:10;}</style></defs><g id="Capa_8" data-name="Capa 8"><g id="Group_35" data-name="Group 35"><path id="Path_33" data-name="Path 33" class="cls-1" d="M.5,69.35a68.84,68.84,0,1,1,68.85,68.83h-.72A68.83,68.83,0,0,1,.5,69.35m5.34-22c1-.56,2-1.22,3-1.84L38.89,26.56c.58-.37,1.23-.63,1.82-1,5.56-3.28,11.16-6.49,17-9.31a69.64,69.64,0,0,1,15.93-5.72,40.59,40.59,0,0,1,13-.71,49.84,49.84,0,0,1,10.1,2.25,92.25,92.25,0,0,1,15.63,7.06c1.44.8,2.85,1.66,4.28,2.49,0,0,.08,0,.09,0a.06.06,0,0,0,0-.07c-.12-.14-.24-.27-.37-.4A67.21,67.21,0,0,0,64.53,2.27,65.72,65.72,0,0,0,54,3.85,67.52,67.52,0,0,0,7,44a29.75,29.75,0,0,0-1.21,3.31s0,0,0,0l0,0,0-.05M135.68,80.46c.17-1.08.31-2.09.44-3.11a68.09,68.09,0,0,0,.39-11.24,66.92,66.92,0,0,0-8.08-28.92c-.14-.25-.2-.33-.45-.09a39.78,39.78,0,0,1-9,6.32,44.15,44.15,0,0,1-18.68,4.76,54.2,54.2,0,0,1-11.51-.84,88.16,88.16,0,0,1-14-3.71,172.18,172.18,0,0,1-19.59-8.46c-4.86-2.39-9.7-4.83-14.54-7.26a.63.63,0,0,0-.72,0c-3.8,2.29-7.56,4.64-11.31,7-7.59,4.76-15.19,9.53-23,13.88a1,1,0,0,0-.52.65A67.83,67.83,0,0,0,2.7,60.17c-.11.76-.18,1.52-.28,2.37.45-.37.82-.71,1.21-1a63.92,63.92,0,0,1,11.06-7,63.13,63.13,0,0,1,14.24-5,46.18,46.18,0,0,1,15.14-1.07,63.34,63.34,0,0,1,12,2.43,125.33,125.33,0,0,1,13.13,4.87A145.37,145.37,0,0,1,89.74,66.23a.93.93,0,0,0,.39.15c1.81.28,3.61.62,5.4,1,4.48.94,9,1.79,13.43,2.92A123.5,123.5,0,0,1,132.83,79c1,.46,1.9.94,2.86,1.48m-.33,1.9a.39.39,0,0,0-.25-.37c-.5-.28-1-.58-1.51-.84-2.39-1.21-4.82-2.32-7.28-3.38A116.77,116.77,0,0,0,114.2,73.4c-4.28-1.3-8.6-2.36-13-3.24-3.68-.75-7.34-1.58-11-2.17a1.69,1.69,0,0,0-1.06.15c-1.38.68-2.78,1.32-4.16,2q-4.47,2.13-9,4.07c-3.2,1.37-6.44,2.64-9.73,3.77q-2.65.9-5.35,1.65c-2,.55-3.93,1-5.93,1.42s-4.26.75-6.43.95c-1.38.13-2.78.26-4.16.28A66.22,66.22,0,0,1,36.25,82c-1.25-.13-2.51-.26-3.76-.42-1.43-.19-2.85-.44-4.27-.67-2.6-.4-5.18-.9-7.73-1.52a45.05,45.05,0,0,1-9-3.18,78.91,78.91,0,0,1-9-5c-.08,0-.17-.16-.27-.11s0,.18,0,.28c0,1.56.14,3.11.29,4.66.17,1.74.41,3.47.71,5.19A64.9,64.9,0,0,0,5.3,89.94a61.13,61.13,0,0,0,2.24,6A66.66,66.66,0,0,0,15,109c1.17,1.59,2.39,3.13,3.7,4.61.6.68,1.22,1.34,1.83,2,.19.2.28.18.46.05.61-.45,1.21-.91,1.84-1.32Q28,111,33.13,107.76c1.84-1.18,3.66-2.41,5.53-3.52,2.05-1.24,4.11-2.46,6.17-3.68q3.7-2.2,7.56-4.18c3.2-1.67,6.46-3.22,9.8-4.61a95.21,95.21,0,0,1,11.74-4.06c2.17-.59,4.35-1.09,6.57-1.48,2-.35,4-.63,6-.81q2.39-.19,4.77-.27c1.89-.05,3.76,0,5.64.12,1.15.07,2.3.14,3.44.27,1.72.18,3.44.44,5.15.74a76,76,0,0,1,18.61,5.81,66.25,66.25,0,0,1,6.48,3.36c.74.44.55.41.83-.27a65.41,65.41,0,0,0,3.4-10.57c.17-.74.33-1.5.49-2.25M86.81,118.47c1,0,2.1,0,3.15-.06,2.09-.09,4.16-.25,6.23-.47s4-.52,5.91-.89a76.86,76.86,0,0,0,20.44-6.93,2.22,2.22,0,0,0,.8-.69,67.44,67.44,0,0,0,6.75-11.2c.46-1,.47-1-.47-1.51a73,73,0,0,0-7.76-3.89,74.21,74.21,0,0,0-22-5.7c-1.77-.18-3.54-.3-5.31-.35a65.27,65.27,0,0,0-7,.19q-2.92.23-5.82.69A74.78,74.78,0,0,0,71,90.23a103.77,103.77,0,0,0-13.57,5.43c-3.67,1.76-7.27,3.68-10.8,5.71-2.1,1.21-4.18,2.44-6.25,3.71-.28.18-.26.26,0,.42a114.9,114.9,0,0,0,10.82,5.41,95.81,95.81,0,0,0,14.26,4.85,90.28,90.28,0,0,0,10.69,2q3.15.39,6.3.57c1.44.09,2.89.15,4.34.1M41.94,26.75l.37.21c4.93,2.45,9.84,5,14.79,7.37a177.13,177.13,0,0,0,16.8,7.29,84.16,84.16,0,0,0,17.25,4.47,52,52,0,0,0,9.58.47,44.35,44.35,0,0,0,9.58-1.49,39.16,39.16,0,0,0,16.81-9.36.41.41,0,0,0,.14-.57l0-.06a69.87,69.87,0,0,0-4.75-6.95,7.84,7.84,0,0,0-1.63-1.77,113.51,113.51,0,0,0-15.58-9A67.58,67.58,0,0,0,91.83,12.4a40,40,0,0,0-11.27-1.13,42.91,42.91,0,0,0-7.89,1.15,70.49,70.49,0,0,0-14.46,5.39c-5.08,2.47-10,5.24-14.85,8.09l-1.42.85M87.87,67l-.29-.19c-2.94-1.78-5.93-3.46-9-5-5.6-2.74-11.3-5.25-17.16-7.43A68.05,68.05,0,0,0,43.63,50a42.6,42.6,0,0,0-9.17.12A62.48,62.48,0,0,0,7.19,60.86,28.09,28.09,0,0,0,2.43,64.8a.7.7,0,0,0-.23.46c0,1.11-.07,2.21-.14,3.31a.76.76,0,0,0,.37.72A57.62,57.62,0,0,0,8,72.65a51.55,51.55,0,0,0,14.73,5.63c3.37.68,6.76,1.27,10.19,1.74,2.43.32,4.88.57,7.34.66a56.73,56.73,0,0,0,6.65-.12A64.81,64.81,0,0,0,55,79.42a97.46,97.46,0,0,0,16.68-5.14c4.76-1.89,9.41-4,14-6.23L87.89,67m32.62,46c-.18-.07-.27,0-.37.07a76,76,0,0,1-7.29,2.86,81.38,81.38,0,0,1-14.79,3.42q-4.28.57-8.6.72c-1.92.06-3.84.06-5.77,0-1.6-.07-3.2-.18-4.78-.31-2.7-.24-5.38-.62-8-1.11a96.58,96.58,0,0,1-17.72-5.13,110.69,110.69,0,0,1-14.31-7,.69.69,0,0,0-.83,0l-9.13,5.77a53.2,53.2,0,0,0-6.54,4.52c-.37.32-.37.31,0,.64a67.69,67.69,0,0,0,6,5.22,66.87,66.87,0,0,0,36.51,13.78,54,54,0,0,0,5.83.13c1.54-.06,3.07-.12,4.61-.25a62.47,62.47,0,0,0,7.33-1,66.31,66.31,0,0,0,15.56-5.17,67.63,67.63,0,0,0,12.55-7.77,68.92,68.92,0,0,0,8.7-8.12c.37-.41.71-.83,1.08-1.25"/><path id="Path_34" data-name="Path 34" class="cls-2" d="M.5,69.35a68.84,68.84,0,1,1,68.85,68.83h-.72A68.83,68.83,0,0,1,.5,69.35Zm5.34-22c1-.56,2-1.22,3-1.84L38.89,26.56c.58-.37,1.23-.63,1.82-1,5.56-3.28,11.16-6.49,17-9.31a69.64,69.64,0,0,1,15.93-5.72,40.59,40.59,0,0,1,13-.71,49.84,49.84,0,0,1,10.1,2.25,92.25,92.25,0,0,1,15.63,7.06c1.44.8,2.85,1.66,4.28,2.49,0,0,.08,0,.09,0a.06.06,0,0,0,0-.07c-.12-.14-.24-.27-.37-.4A67.21,67.21,0,0,0,64.53,2.27,65.72,65.72,0,0,0,54,3.85,67.52,67.52,0,0,0,7,44a29.75,29.75,0,0,0-1.21,3.31s0,0,0,0l0,0ZM135.68,80.47c.17-1.08.31-2.1.44-3.12a67.93,67.93,0,0,0,.39-11.23,66.83,66.83,0,0,0-8.09-28.93c-.13-.25-.19-.32-.44-.09a40,40,0,0,1-9,6.32,44,44,0,0,1-18.68,4.76,54.2,54.2,0,0,1-11.51-.84,86.8,86.8,0,0,1-14-3.7,174,174,0,0,1-19.59-8.47c-4.86-2.39-9.7-4.83-14.54-7.26a.63.63,0,0,0-.72,0c-3.8,2.29-7.56,4.64-11.31,7-7.59,4.76-15.19,9.53-23,13.88a1,1,0,0,0-.52.65A67.83,67.83,0,0,0,2.7,60.17c-.11.76-.18,1.52-.28,2.37.45-.37.82-.71,1.21-1a63.92,63.92,0,0,1,11.06-7,63.13,63.13,0,0,1,14.24-5,46.18,46.18,0,0,1,15.14-1.07,63.34,63.34,0,0,1,12,2.43,125.33,125.33,0,0,1,13.13,4.87A145.37,145.37,0,0,1,89.74,66.23a.93.93,0,0,0,.39.15c1.81.28,3.61.62,5.4,1,4.48.94,9,1.79,13.43,2.92A123.5,123.5,0,0,1,132.83,79c.94.46,1.89.94,2.85,1.49Zm-.34,1.89a.38.38,0,0,0-.24-.37c-.51-.28-1-.58-1.52-.84q-3.57-1.8-7.28-3.37a115.13,115.13,0,0,0-12.12-4.37c-4.27-1.3-8.59-2.37-13-3.25-3.67-.74-7.33-1.57-11-2.16a1.6,1.6,0,0,0-1,.15c-1.38.68-2.78,1.32-4.17,2q-4.47,2.13-9,4.08Q71.13,76.27,66.2,78c-1.77.61-3.55,1.15-5.35,1.66-2,.54-3.93,1-5.93,1.41s-4.26.76-6.43,1c-1.39.12-2.78.26-4.16.28A68.28,68.28,0,0,1,36.24,82c-1.26-.14-2.51-.27-3.76-.43-1.43-.18-2.85-.44-4.27-.66-2.6-.41-5.18-.9-7.74-1.52a45.91,45.91,0,0,1-9-3.18,79.63,79.63,0,0,1-9-5c-.09-.06-.17-.17-.27-.12s0,.19,0,.28c0,1.56.15,3.11.3,4.67.17,1.74.4,3.47.71,5.18A66.57,66.57,0,0,0,5.28,90q1,3,2.24,6A67,67,0,0,0,15,109c1.17,1.59,2.39,3.13,3.69,4.6.6.69,1.23,1.35,1.84,2,.18.2.28.19.46.06.61-.45,1.2-.91,1.84-1.32,3.41-2.21,6.84-4.41,10.26-6.61,1.85-1.18,3.66-2.41,5.54-3.52,2.05-1.23,4.11-2.46,6.16-3.67q3.72-2.2,7.56-4.19c3.21-1.66,6.47-3.22,9.8-4.61a96.32,96.32,0,0,1,11.74-4c2.17-.59,4.36-1.1,6.57-1.49q3-.53,6-.8c1.59-.14,3.19-.23,4.78-.27,1.88-.06,3.76,0,5.64.12,1.15.07,2.3.14,3.44.26,1.72.19,3.44.44,5.14.74a76.78,76.78,0,0,1,18.63,5.81,66.25,66.25,0,0,1,6.48,3.36c.74.44.55.41.83-.27a65.41,65.41,0,0,0,3.4-10.57c.17-.75.33-1.5.49-2.25ZM86.81,118.47c1,0,2.1,0,3.15-.06,2.09-.09,4.16-.25,6.23-.47s4-.52,5.91-.89a76.86,76.86,0,0,0,20.44-6.93,2.22,2.22,0,0,0,.8-.69,67.44,67.44,0,0,0,6.75-11.2c.46-1,.47-1-.47-1.51a73,73,0,0,0-7.76-3.89,74.21,74.21,0,0,0-22-5.7c-1.77-.18-3.54-.3-5.31-.35a65.27,65.27,0,0,0-7,.19q-2.92.23-5.82.69A74.78,74.78,0,0,0,71,90.23a103.77,103.77,0,0,0-13.57,5.43c-3.67,1.76-7.27,3.68-10.8,5.71-2.1,1.21-4.18,2.44-6.25,3.71-.28.18-.26.26,0,.42a114.9,114.9,0,0,0,10.82,5.41,95.81,95.81,0,0,0,14.26,4.85,90.28,90.28,0,0,0,10.69,2q3.15.39,6.3.57A41.86,41.86,0,0,0,86.81,118.47ZM41.94,26.75l.37.21c4.93,2.45,9.84,5,14.79,7.37a177.13,177.13,0,0,0,16.8,7.29,84.16,84.16,0,0,0,17.25,4.47,52,52,0,0,0,9.58.47,44.35,44.35,0,0,0,9.58-1.49,39.16,39.16,0,0,0,16.81-9.36.41.41,0,0,0,.14-.57l0-.06a69.87,69.87,0,0,0-4.75-6.95,7.84,7.84,0,0,0-1.63-1.77,113.51,113.51,0,0,0-15.58-9A67.58,67.58,0,0,0,91.83,12.4a40,40,0,0,0-11.27-1.13,42.91,42.91,0,0,0-7.89,1.15,70.49,70.49,0,0,0-14.46,5.39c-5.08,2.47-10,5.24-14.85,8.09C42.9,26.17,42.44,26.44,41.94,26.75ZM87.87,67l-.29-.19c-2.94-1.78-5.93-3.46-9-5-5.6-2.74-11.3-5.25-17.16-7.43A68.05,68.05,0,0,0,43.63,50a42.6,42.6,0,0,0-9.17.12A62.48,62.48,0,0,0,7.19,60.86,28.09,28.09,0,0,0,2.43,64.8a.7.7,0,0,0-.23.46c0,1.11-.07,2.21-.14,3.31a.76.76,0,0,0,.37.72A57.62,57.62,0,0,0,8,72.65a51.55,51.55,0,0,0,14.73,5.63c3.37.68,6.76,1.27,10.19,1.74,2.43.32,4.88.57,7.34.66a56.73,56.73,0,0,0,6.65-.12A64.81,64.81,0,0,0,55,79.42a97.46,97.46,0,0,0,16.68-5.14c4.76-1.89,9.41-4,14-6.23Zm32.64,46c-.18-.07-.27,0-.37.07a76,76,0,0,1-7.29,2.86,81.38,81.38,0,0,1-14.79,3.42q-4.28.57-8.6.72c-1.92.06-3.84.06-5.77,0-1.6-.07-3.2-.18-4.78-.31-2.7-.24-5.38-.62-8-1.11a96.58,96.58,0,0,1-17.72-5.13,110.69,110.69,0,0,1-14.31-7,.69.69,0,0,0-.83,0l-9.13,5.77a53.2,53.2,0,0,0-6.54,4.52c-.37.32-.37.31,0,.64a67.69,67.69,0,0,0,6,5.22,66.87,66.87,0,0,0,36.51,13.78,54,54,0,0,0,5.83.13c1.54-.06,3.07-.12,4.61-.25a62.47,62.47,0,0,0,7.33-1,66.31,66.31,0,0,0,15.56-5.17,67.63,67.63,0,0,0,12.55-7.77,68.92,68.92,0,0,0,8.7-8.12Z"/><path id="Path_35" data-name="Path 35" class="cls-1" d="M116.65,21.58s.07,0,0,.08-.06,0-.1,0l.06-.06"/><path id="Path_36" data-name="Path 36" class="cls-2" d="M116.65,21.58s.07,0,0,.08-.06,0-.1,0Z"/><path id="Path_37" data-name="Path 37" class="cls-1" d="M5.84,47.3l0,.05,0,0,0,0,0,0"/><path id="Path_38" data-name="Path 38" class="cls-2" d="M5.84,47.3l0,.05,0,0,0,0Z"/><path id="Path_39" data-name="Path 39" class="cls-1" d="M195.89,46.5c-1.48,6.19-5.7,12-15.21,12-10.21,0-16.3-7.29-16.3-18.74,0-10.32,5.93-19.15,16.76-19.15s14.34,7.69,14.75,12.24H189a7.6,7.6,0,0,0-8-6.51c-6,0-9.47,5.2-9.47,13.18,0,8.13,3.36,13.28,9.28,13.28,4.31,0,6.79-2.34,8.15-6.35Zm39.24-7c0,10.53-6.09,19-17.23,19-10.53,0-16.86-8-16.86-18.88s6.26-19,17.28-19c10.17,0,16.81,7.52,16.81,18.87Zm-26.92.07c0,7.75,3.77,13.22,9.95,13.22S228,47.59,228,39.64,224.45,26.39,218,26.39s-9.81,5.07-9.81,13.21ZM242.9,21.51h6.72c.1,1,.27,3.59.27,5.33a11.17,11.17,0,0,1,10.43-6.18,9.84,9.84,0,0,1,9.89,6.3,12.33,12.33,0,0,1,11.45-6.3c6,0,11.42,3.55,11.42,13.26V57.69h-6.86V34.77c0-4-1.44-8.2-6.79-8.2-5.57,0-8,4.12-8,10.37V57.69h-6.84V35c0-4.48-1.24-8.4-6.65-8.4s-8.1,4.27-8.1,11V57.69H243V30.84c0-3.12,0-6.36-.07-9.33Zm89.86,25.65c0,3.52,0,8.18.07,10.53H326c-.14-.95-.21-3.1-.24-5.18-1.85,3.93-5.28,6-10.77,6-6.34,0-12-3.31-12-13.28V21.51H310V43.8c0,4.6,1.45,8.77,7.12,8.77,6.25,0,8.69-3.44,8.69-12.12V21.51h7Zm10.31-25.65h6.78c.17,1,.28,4.6.27,5.69,1.4-2.95,4.35-6.54,11.22-6.54S373.4,25,373.4,34.47V57.69h-7V35.33c0-5.18-2-8.73-7.3-8.73-6.32,0-9,4.64-9,11.74V57.69h-7V30.63c0-3.13,0-6.34-.08-9.12Zm45.18,19.42c0,6.81,3.46,11.89,9.38,11.89,5.42,0,7.15-2.71,8.26-5.26h7c-1.4,4.59-5.29,11-15.49,11-11.48,0-16.22-9.18-16.22-18.53,0-10.88,5.5-19.36,16.62-19.36,11.81,0,15.71,9.29,15.71,17.27a27.52,27.52,0,0,1-.1,3Zm18.23-4.74h0c-.07-5.61-2.81-10.15-8.74-10.15s-8.69,4.21-9.28,10.15Zm19.17,11.05c1,3.75,3.8,5.94,8.48,5.94,5,0,6.95-2.11,6.95-5.19s-1.64-4.62-8.22-6.22c-10.62-2.59-12.73-5.84-12.73-10.79,0-5.16,3.76-10.33,13.37-10.33S447,26.17,447.4,31.19h-6.72c-.48-2.15-2.08-5.26-7.48-5.26-4.72,0-6.15,2.25-6.15,4.47,0,2.53,1.42,3.78,7.9,5.32,11.19,2.64,13.29,6.4,13.29,11.76,0,6.27-4.94,11.06-14.34,11.06-9.68,0-14.26-4.84-15.16-11.3Z"/><path id="Path_40" data-name="Path 40" class="cls-1" d="M195.89,109c-1.48,6.19-5.7,12-15.21,12-10.21,0-16.3-7.29-16.3-18.74,0-10.31,5.93-19.15,16.76-19.15s14.34,7.69,14.75,12.25H189a7.6,7.6,0,0,0-8-6.51c-6,0-9.47,5.2-9.47,13.18s3.36,13.27,9.28,13.27c4.31,0,6.79-2.34,8.15-6.34Zm39.24-7c0,10.52-6.09,19-17.23,19-10.53,0-16.86-8-16.86-18.88s6.26-19,17.28-19C228.49,83.2,235.13,90.72,235.13,102.07Zm-26.92.07c0,7.75,3.77,13.21,9.95,13.21s9.81-5.22,9.81-13.18S224.45,88.93,218,88.93s-9.81,5.07-9.81,13.21Zm39.14,7.64c1,3.74,3.8,5.93,8.47,5.93,5,0,6.95-2.11,6.95-5.19s-1.64-4.62-8.21-6.22c-10.62-2.59-12.74-5.84-12.74-10.79,0-5.16,3.77-10.33,13.38-10.33s13.45,5.52,13.89,10.54h-6.72c-.47-2.15-2.08-5.26-7.47-5.26-4.73,0-6.15,2.24-6.15,4.47,0,2.53,1.41,3.78,7.9,5.32,11.18,2.64,13.28,6.4,13.28,11.76,0,6.27-4.93,11.06-14.33,11.06-9.69,0-14.27-4.85-15.17-11.3Zm31.71-25.73V73.55h7v10.5h7.81v5.57H286v20.54c0,3.37.85,5,4.07,5a14.33,14.33,0,0,0,3-.26v5.12a17.81,17.81,0,0,1-5.67.67c-5.9,0-8.36-3.08-8.36-9.15V89.62h-6.13V84.05Zm25.53,19.42c0,6.81,3.46,11.88,9.38,11.88,5.42,0,7.15-2.7,8.26-5.26h7c-1.39,4.59-5.29,11-15.49,11-11.48,0-16.22-9.18-16.22-18.52,0-10.88,5.5-19.36,16.62-19.36,11.81,0,15.72,9.29,15.72,17.26a27.44,27.44,0,0,1-.11,3Zm18.23-4.74h0c-.07-5.62-2.81-10.16-8.74-10.16s-8.69,4.22-9.28,10.16Zm14.8-14.68h6.84c.11,1,.21,4,.21,7.18a12.54,12.54,0,0,1,12.07-8v6.87c-7.39.14-12.07,3.65-12.07,12.94v17.22h-7V93.88c0-4.78,0-7.69-.07-9.83Zm56.68,18c0,10.52-6.09,19-17.23,19-10.53,0-16.86-8-16.86-18.87s6.26-19,17.28-19c10.17,0,16.81,7.52,16.81,18.87Zm-26.92.07c0,7.75,3.77,13.21,9.95,13.21s9.82-5.22,9.82-13.18-3.52-13.24-10-13.24-9.81,5.07-9.81,13.21Zm39.14,7.64c1,3.75,3.8,5.93,8.48,5.93,5,0,6.94-2.11,6.94-5.19s-1.64-4.62-8.21-6.22C403.11,101.71,401,98.46,401,93.51c0-5.16,3.76-10.32,13.37-10.32s13.45,5.51,13.89,10.53h-6.71c-.48-2.15-2.09-5.26-7.48-5.26-4.73,0-6.15,2.24-6.15,4.48,0,2.52,1.41,3.77,7.9,5.31,11.18,2.64,13.28,6.4,13.28,11.76,0,6.28-4.93,11.06-14.33,11.06-9.69,0-14.27-4.84-15.16-11.3Z"/></g></g></svg>