<svg xmlns="http://www.w3.org/2000/svg" width="130.492" height="130.717" viewBox="0 0 130.492 130.717"><g id="Group_190" data-name="Group 190" transform="translate(792 -139)"><g id="Ellipse_10" data-name="Ellipse 10" transform="translate(-792 139)" fill="#fff" stroke="#707070" stroke-width="1"><circle cx="65.246" cy="65.246" r="65.246" stroke="none"></circle><circle cx="65.246" cy="65.246" r="64.746" fill="none"></circle></g><g id="logo-cuellonegro_negro" transform="translate(-792 139.319)"><path id="Path_276" data-name="Path 276" d="M65.2,0a65.2,65.2,0,1,0,65.194,65.2A65.2,65.2,0,0,0,65.2,0ZM1.069,65.2A64.13,64.13,0,1,1,65.2,129.334,64.129,64.129,0,0,1,1.069,65.2Z" transform="translate(0)" fill="#1e1e1e"></path><g id="Group_62" data-name="Group 62" transform="translate(2.724 2.724)"><path id="Path_277" data-name="Path 277" d="M156.232,93.21c0-.156,0-.312-.006-.468,0-.04,0-.079,0-.118,0-.173-.007-.347-.011-.521,0-.124-.007-.247-.011-.371s-.008-.244-.012-.366c0-.019,0-.037,0-.056,0-.121-.009-.241-.015-.36,0-.047,0-.094-.006-.141l-.016-.326c0-.04,0-.079-.007-.118-.006-.118-.012-.235-.02-.353q-.038-.654-.091-1.306c-.01-.125-.02-.25-.031-.374-.016-.187-.033-.374-.05-.561-.01-.113-.022-.226-.034-.339q-.027-.286-.06-.57c-.009-.091-.019-.181-.03-.272-.015-.131-.03-.261-.046-.392s-.029-.235-.044-.352-.026-.206-.04-.309c-.022-.171-.045-.34-.069-.51h0q-.037-.261-.076-.52l-.005-.039q-.038-.255-.078-.509t-.077-.483c-.007-.04-.014-.08-.02-.12-.026-.153-.052-.306-.079-.458-.03-.173-.061-.346-.093-.52q-.1-.533-.205-1.062c-.035-.175-.071-.349-.108-.524-.027-.127-.054-.253-.082-.38-.022-.1-.044-.206-.068-.309q-.1-.437-.2-.872-.063-.26-.126-.517-.127-.517-.264-1.03-.064-.24-.129-.479c-.005-.019-.01-.038-.017-.057-.044-.162-.09-.325-.136-.487-.052-.185-.106-.37-.16-.554s-.11-.368-.165-.552v0q-.167-.551-.346-1.1s0,0,0,0c-.039-.122-.079-.244-.119-.365-.078-.234-.157-.467-.237-.7l-.009-.026c-.079-.227-.158-.453-.239-.679-.042-.117-.084-.234-.127-.351s-.085-.233-.129-.35-.086-.233-.131-.349-.088-.232-.133-.348-.09-.232-.135-.347-.09-.231-.137-.346-.092-.231-.139-.346l-.141-.344c-.094-.229-.19-.458-.288-.685s-.2-.454-.3-.681c-.05-.113-.1-.225-.151-.339s-.1-.225-.153-.338-.1-.225-.155-.337l-.157-.335c-.052-.111-.105-.224-.158-.334q-.159-.334-.323-.666-.081-.166-.165-.332-.329-.662-.676-1.313l-.174-.326-.176-.325q-1.374-2.52-2.968-4.9-.265-.4-.536-.786h0c-.181-.261-.363-.521-.548-.778s-.371-.515-.56-.77-.379-.508-.571-.76q-.432-.568-.877-1.124-.3-.371-.6-.737c-.1-.123-.2-.245-.3-.366q-.457-.546-.927-1.081-.781-.893-1.6-1.756-.611-.646-1.241-1.275-.419-.419-.848-.83t-.863-.815c-.145-.135-.291-.268-.437-.4q-.877-.8-1.786-1.563-.181-.154-.365-.3-.548-.456-1.107-.9c-.124-.1-.248-.2-.373-.293q-.375-.292-.754-.579-.759-.573-1.535-1.124-.388-.275-.781-.545t-.789-.533c-.2-.135-.409-.27-.615-.4l-.309-.2c-.1-.067-.207-.133-.311-.2q-.6-.379-1.208-.743l-.045-.027c-.308-.185-.618-.366-.93-.546q-.171-.1-.344-.2c-.213-.121-.428-.241-.643-.359l-.414-.226-.416-.223-.418-.22-.42-.218c-.225-.116-.449-.229-.675-.341s-.453-.224-.681-.333-.456-.218-.685-.325q-.687-.321-1.384-.626l-.463-.2q-.292-.125-.586-.247-.264-.11-.528-.217t-.531-.212q-.221-.087-.442-.172l-.181-.07q-.935-.358-1.885-.685c-.3-.1-.6-.205-.908-.306l-.456-.148-.458-.145q-.734-.228-1.475-.439l-.488-.137-.149-.041c-.159-.043-.319-.086-.479-.128q-.56-.149-1.125-.286c-.251-.062-.5-.121-.754-.179l-.473-.107c-.158-.036-.316-.07-.474-.1s-.317-.068-.475-.1l-.477-.1-.493-.1-.156-.03-.5-.091c-.256-.046-.513-.09-.77-.132s-.515-.084-.774-.124c-.19-.029-.38-.057-.569-.084l-.027,0c-.174-.025-.347-.05-.521-.072-.149-.02-.3-.04-.447-.058l-.335-.042-.44-.052c-.169-.019-.338-.038-.507-.056l-.673-.068c-.168-.017-.337-.031-.506-.046l-.178-.015c-.168-.015-.335-.028-.5-.041l-.446-.032-.349-.023-.4-.024q-.264-.016-.529-.028l-.269-.012q-.4-.018-.8-.03l-.322-.01-.482-.011c-.223,0-.447-.007-.671-.009l-.539,0-.539,0c-.224,0-.448,0-.671.009-.2,0-.4.009-.6.015s-.4.012-.6.02c-.16.006-.319.012-.479.02l-.178.008q-.568.027-1.133.066h-.01q-.594.039-1.186.091c-.2.017-.4.035-.592.053l-.673.068-.507.056L86,31.768c-.176.022-.352.044-.527.067l-.109.015c-.174.024-.347.047-.521.072a.252.252,0,0,0-.027,0c-.19.027-.38.056-.569.084q-.388.06-.774.124-.58.1-1.155.2c-.128.024-.256.047-.383.072l-.383.074-.477.1c-.158.032-.317.066-.475.1l-.474.1q-.238.052-.474.107-.377.087-.754.179t-.75.188c-.25.064-.5.13-.747.2l-.372.1q-.558.154-1.111.319-.368.11-.736.224l-.366.116c-.244.077-.487.156-.729.237l-.363.122q-1.089.368-2.16.776l-.356.137-.355.138q-.248.1-.5.2l-.069.028-.5.2q-.264.11-.526.222c-.175.074-.35.15-.524.225q-.347.153-.694.309-.518.235-1.032.479c-.229.108-.456.218-.683.329q-.68.333-1.352.682l-.279.145-.394.21-.328.177q-.341.185-.678.374L63,39.382c-.209.118-.416.238-.623.358l-.385.225-.3.177c-.216.129-.43.259-.644.391s-.427.265-.639.4l-.318.2q-.317.2-.631.41c-.21.138-.418.277-.626.418s-.414.282-.621.425l-.462.323c-.172.123-.345.245-.515.368s-.342.248-.512.373l-.339.252q-.45.337-.9.682-.556.432-1.1.875A62.989,62.989,0,0,0,48.22,51q-.48.512-.951,1.036-.376.419-.744.843t-.729.857l-.239.288q-.358.435-.709.875t-.693.887q-.342.447-.677.9t-.662.912c-.013.02-.027.039-.042.058-.088.124-.177.25-.264.375q-.525.752-1.029,1.521l-.251.385c-.165.257-.33.516-.493.776l-.009.015c-.132.213-.265.427-.4.642s-.259.43-.387.647q-.671,1.136-1.3,2.3l-.178.333q-.176.334-.348.671l-.171.338c-.057.112-.114.225-.17.339s-.112.226-.168.339q-.208.426-.41.854t-.4.862l-.156.346-.153.347-.151.349-.149.35c-.1.233-.2.467-.292.7s-.191.471-.284.708c-.046.118-.093.237-.138.355q-.138.355-.272.713c-.044.119-.089.239-.132.359q-.2.538-.385,1.081c-.042.12-.083.241-.124.362s-.082.242-.122.364-.08.241-.119.362-.084.258-.124.387c-.033.1-.065.2-.1.308-.01.029-.018.058-.027.088-.071.228-.14.456-.209.686-.034.113-.067.227-.1.342-.038.131-.077.264-.114.4q-.1.371-.205.742c-.034.124-.067.249-.1.373s-.065.249-.1.373-.064.25-.095.375q-.04.158-.078.316-.057.228-.111.459t-.1.447c-.035.15-.068.3-.1.449q-.107.487-.207.976c-.02.1-.039.191-.058.287s-.034.169-.05.254q-.068.337-.129.675c-.031.169-.061.338-.091.507-.024.131-.046.264-.068.4q-.05.285-.094.569c-.011.069-.022.137-.032.2q-.112.721-.208,1.448-.074.56-.138,1.124c-.017.149-.033.3-.049.446-.008.072-.016.144-.023.217-.015.139-.029.279-.042.42s-.029.3-.042.445c-.005.064-.011.128-.017.192-.01.111-.018.221-.028.332-.005.07-.01.139-.017.209q-.042.554-.075,1.111c-.007.116-.014.232-.02.348,0,.042,0,.084-.007.125l-.016.325c0,.047,0,.094-.006.141-.006.12-.01.24-.015.36l0,.055c0,.124-.009.248-.012.373s-.008.243-.011.365c0,.173-.009.346-.011.52,0,.04,0,.081,0,.122,0,.155-.005.311-.006.466q0,.277,0,.555,0,.322,0,.643c0,.215.005.428.01.642,0,.166.007.333.012.5,0,.077,0,.153.007.229,0,.134.009.268.014.4,0,.115.009.23.014.345l0,.056q.02.46.047.917c.005.082.01.165.016.246.01.183.024.366.037.548s.028.386.044.578.032.383.049.574c.005.05.01.1.015.151.013.151.028.3.044.454,0,.044.008.086.013.129q.024.24.05.479c.007.062.013.124.021.185q.026.245.057.489t.061.484c.011.093.024.185.036.278l0,.02c.023.169.045.337.07.5a.1.1,0,0,1,0,.016c.03.2.059.407.091.61.023.154.047.308.072.462.017.113.037.225.055.339,0,.01,0,.019.005.029.035.215.072.429.11.643.013.076.027.152.041.228s.032.177.049.265c.024.128.047.255.072.383.017.092.035.185.053.276s.032.167.05.25.032.159.049.238c.029.142.057.283.088.424.023.108.046.216.07.324q.093.43.192.856c.023.1.045.195.069.292.03.125.06.251.091.376s.055.225.084.338c.005.023.011.047.018.071.028.114.057.227.086.341s.065.255.1.382.065.243.1.365q.077.289.158.576c.03.109.061.218.092.326.011.038.023.077.033.115q.068.232.137.465.1.334.2.667c.044.145.091.291.137.435.005.018.011.037.018.056.026.084.054.17.082.254q.125.393.259.783l.091.269q.264.772.549,1.533c.042.112.084.224.126.336q.274.725.568,1.44c.048.118.1.235.145.353q.291.7.6,1.4l.156.346q.312.692.642,1.374l.144.3.036.072c.05.1.1.207.153.311.168.339.34.676.514,1.011.05.1.1.191.151.287q.188.359.381.715.18.332.365.662c.016.027.031.055.046.083q.347.616.706,1.226h0q.277.467.561.929l.06.1.162.26q.3.479.607.953c.137.211.274.42.413.628s.28.416.421.623l.213.309.215.309q.541.768,1.1,1.521.253.338.51.673.773,1,1.584,1.976.92,1.1,1.89,2.16l.39.421q.392.419.79.831.2.206.4.411h0a62.784,62.784,0,0,0,9.714,8.052q.239.161.48.319.315.206.631.41.654.419,1.318.823t1.34.79q.45.257.905.508.5.273,1,.538c.223.118.447.234.671.349s.45.229.676.341l.339.167.341.165.342.164q.342.162.687.321l.346.158.346.155c.347.155.7.306,1.046.454l.351.147.353.145.353.143q.354.142.709.279l.334.128c.131.05.261.1.392.148l.346.128q.359.132.72.259l.361.126.363.124.363.122c.243.081.486.159.729.237l.245.077c.075.024.151.047.226.07l.263.08.368.111q.392.116.786.228.533.15,1.07.292l.373.1.375.095.375.093q.376.091.754.179l.474.107.474.1c.158.034.317.068.475.1l.477.1.383.074c.127.025.255.049.383.072q1.3.242,2.615.427l.335.046.341.045.342.044.342.042q.342.042.687.078.393.042.788.08l.37.034.371.032.372.03.287.022.19.013.641.042.374.021c.1.006.2.01.3.015l.276.013c.133.006.266.012.4.017l.4.014.235.007.267.007.378.008q.565.01,1.134.01t1.134-.01l.378-.008.267-.007.235-.007.4-.014c.134,0,.267-.01.4-.017l.276-.013c.1,0,.2-.009.3-.015l.374-.021c.214-.013.427-.026.641-.042l.19-.013.287-.022.372-.03.371-.032.37-.034q.394-.038.788-.08.345-.037.687-.078l.342-.042c.114-.014.228-.028.342-.044l.341-.045.335-.046q.343-.048.686-.1.776-.119,1.544-.256l.5-.091.156-.03.493-.1.477-.1c.158-.032.317-.066.475-.1s.317-.068.474-.1l.473-.107c.284-.065.567-.133.848-.2l.411-.1.023-.006c.277-.071.554-.142.829-.217.14-.037.28-.075.42-.114q.418-.115.834-.236l.453-.133.037-.011.431-.131c.153-.047.306-.094.459-.143q.483-.153.963-.313l.4-.136.452-.157c.271-.094.541-.191.81-.29l.09-.033.447-.167.446-.17q.667-.256,1.327-.529l.439-.183q.658-.277,1.307-.568l.432-.2q.431-.2.859-.4l.427-.205q.3-.145.594-.292t.591-.3l.085-.044.419-.218.418-.22q.416-.222.83-.451t.823-.463q.409-.235.814-.475c.136-.08.27-.161.4-.242l.4-.245q.6-.37,1.2-.752l.394-.257q.59-.386,1.17-.787.774-.531,1.531-1.089.568-.415,1.125-.846.372-.286.739-.577.735-.581,1.452-1.187,1.076-.9,2.108-1.86l.343-.319q.534-.5,1.057-1.013c.174-.171.346-.342.519-.515s.343-.347.514-.521q.511-.525,1.009-1.061h0q.5-.538.984-1.085.244-.276.482-.552.719-.83,1.408-1.686h0q.461-.572.906-1.152t.88-1.173q.213-.29.421-.583.419-.585.823-1.18.2-.3.4-.6c.076-.115.151-.229.226-.344q.388-.59.759-1.19c.083-.133.165-.267.247-.4q.492-.8.959-1.623c.06-.1.119-.209.178-.314q.178-.315.351-.632c.116-.211.231-.423.344-.635s.225-.427.337-.641c.056-.107.111-.214.165-.322s.125-.245.187-.369q.106-.212.211-.424t.208-.426c.051-.106.1-.213.154-.32.1-.214.2-.428.3-.644.05-.107.1-.215.148-.323.066-.144.131-.288.2-.433.049-.109.1-.217.144-.326.1-.218.191-.435.283-.654.047-.109.093-.218.138-.328q.08-.191.158-.381c.02-.048.04-.1.06-.145q.162-.4.319-.8.087-.222.172-.444t.16-.42c.015-.037.029-.076.043-.114.1-.269.2-.539.3-.81q.081-.225.159-.451t.151-.437c.012-.034.024-.069.036-.1.041-.122.082-.243.122-.365q.091-.277.181-.554c.005-.014.01-.028.014-.043l.157-.5c.009-.027.017-.055.025-.083q.089-.286.175-.574c.058-.2.116-.393.172-.588.044-.154.088-.307.131-.461.021-.073.042-.147.061-.221.046-.167.092-.334.137-.5.053-.2.1-.4.156-.6q.153-.6.294-1.2a.038.038,0,0,0,0,0q.071-.3.138-.6c.037-.163.073-.326.108-.49.015-.065.029-.131.043-.2q.055-.261.109-.525c.042-.2.082-.406.121-.608s.077-.407.115-.611.071-.4.106-.593c0-.018.006-.037.01-.055q.05-.29.1-.581.05-.308.1-.617t.091-.619q.037-.255.07-.51c0-.016,0-.032.006-.048.01-.071.019-.141.027-.212.022-.158.041-.316.06-.474.023-.188.045-.376.066-.565.005-.045.01-.091.015-.136q.03-.262.056-.526c0-.021,0-.042.006-.063.018-.174.035-.349.051-.525,0-.037.006-.072.01-.109.017-.195.035-.391.05-.588s.031-.4.045-.6q.02-.264.035-.53c.006-.079.01-.159.015-.239.018-.306.035-.615.048-.923l0-.056c.005-.114.01-.229.014-.345.005-.133.01-.266.014-.4,0-.075.005-.151.007-.225.005-.168.009-.335.012-.5,0-.214.008-.427.01-.642s0-.428,0-.643q0-.278,0-.555Zm-13.1-28.344c.621-.092.87-.1.971.069.1.156,0,.351-.288.761-.7.977-6.081,7.912-8.024,10.563-1.157,1.571-1.1,2.216-.986,2.636a4.3,4.3,0,0,0,.366.766c.083.137.112.23-.005.3-.141.083-.264-.049-.644-.689l-.073-.123-.082-.137c-.03-.051-.062-.1-.095-.16l-.051-.086-.073-.124-.034-.057c-.083-.138-.171-.288-.264-.447-.04-.068-.081-.137-.122-.208s-.084-.143-.127-.217l-.2-.34-.138-.237-.1-.17-.1-.173-.2-.354-.082-.144-.018-.032c-.049-.086-.1-.172-.147-.26-.165-.317-.292-.527-.171-.6.1-.064.18-.015.3.146a.327.327,0,0,0,.488-.077l2.825-3.554a.2.2,0,0,0,.02-.244l-2.289-3.832c-.054-.088-.1-.1-.23-.073l-3.007.537a3.827,3.827,0,0,0-1.206.371c-.312.181-.444.468-.127,1l.151.259a1.186,1.186,0,0,1,.059.105l.015.033c0,.01.008.02.011.03s.005.019.007.028a.049.049,0,0,1,0,.016.091.091,0,0,1,0,.015.11.11,0,0,1,0,.03.05.05,0,0,1,0,.012c0,.005,0,.009-.006.013a.033.033,0,0,1-.006.01.1.1,0,0,1-.013.016l-.017.016-.026.018c-.137.084-.23,0-.346-.19-.327-.552-.718-1.323-1.035-1.855-.112-.185-.732-1.1-1.264-2-.127-.225-.157-.347-.02-.43.1-.058.181-.015.259.122a5.254,5.254,0,0,0,.357.513c.571.732,1.352.713,2.415.541l13.373-2.123ZM131.923,52.151l-3.089-2.421c-.1-.079-.2-.158-.309-.239-.052-.04-.105-.08-.159-.119l-.163-.118-.115-.082-.047-.033h0l-.007-.005c-.046-.032-.092-.064-.138-.095l-.02-.013h0c-.049-.033-.1-.065-.145-.1,0,0,0,0,0,0l-.006,0,0,0-.01-.006h0c-.042-.028-.083-.054-.124-.079l-.051-.031-.01-.006-.01-.007-.01-.006-.021-.013-.02-.011h0l-.083-.049-.082-.046c-.054-.03-.109-.059-.162-.087s-.107-.054-.16-.078l-.078-.036c-.052-.024-.1-.044-.155-.064s-.1-.037-.15-.052-.1-.03-.145-.041-.094-.021-.139-.028a2.3,2.3,0,0,0-1.816.561c-.2.2-.312.21-.41.137s-.058-.175.083-.366c.288-.361,1.65-1.611,2.094-2.021.2-.195.332-.225.425-.151a6.334,6.334,0,0,0,.541.6c1.449,1.235,2.22,1.811,2.865,2.318l4.807,3.768c.156.122.229.254.171.333a.919.919,0,0,1-.361.2c-4.944,1.825-10.172,3.553-15.043,5.2l3.876,3.04c1.61,1.26,2.528,1.347,3.153,1.069a3.664,3.664,0,0,0,.878-.532c.151-.131.259-.2.352-.131.127.1.073.234-.225.615a12.659,12.659,0,0,1-1.821,1.674c-.3.225-.507.264-.8.044-2.625-2.065-5.212-4.217-8.4-6.716-.171-.131-.229-.253-.141-.361s.195-.156.6-.292c4.945-1.723,10.069-3.456,14.784-5.125Zm-27.987-.073c.03-.093.127-.122.357-.044a3.779,3.779,0,0,0,.7.156c.41.049.644-.332.908-.859.361-.762.874-2.265,1.464-4.008l1.132-3.333c.977-2.88,1.162-3.412,1.328-4.032.18-.659.131-1.015-.449-1.357a3.813,3.813,0,0,0-.722-.307c-.205-.073-.307-.151-.259-.283a.16.16,0,0,1,.012-.03s0,0,0-.005a.073.073,0,0,1,.012-.017s0,0,0-.005l0,0,0,0,.01-.007h0l.01-.006.01-.005.011,0,.023-.006h0l.014,0a.248.248,0,0,1,.057,0l.019,0,.028,0a1.628,1.628,0,0,1,.248.064c.512.176,1.054.38,1.528.541.487.186.922.357,1.181.445.609.2,4.377,1.483,4.749,1.591a7.331,7.331,0,0,0,.849.161l.041,0c.053,0,.108,0,.161.005a.244.244,0,0,1,.037,0l.052.005h.013l.028.006c.093.034.088.117.054.21-.044.137-.219.332-.566,1.181-.084.185-.406,1.005-.522,1.225-.049.088-.127.185-.264.142s-.137-.151-.078-.322a2.159,2.159,0,0,0,.118-.722c0-.024,0-.049,0-.072a.142.142,0,0,0,0-.019c0-.01,0-.018,0-.028s0-.033-.007-.049,0-.027-.007-.041v0c0-.012-.006-.025-.01-.037a.642.642,0,0,0-.025-.079c-.005-.013-.01-.026-.017-.039a.6.6,0,0,0-.041-.077c-.008-.013-.017-.025-.025-.038s-.018-.026-.029-.039-.043-.051-.068-.078l-.04-.039-.033-.03,0,0h0l-.01-.009-.022-.018-.009-.007h0l-.01-.009-.033-.026-.047-.034h0l-.005,0-.032-.023-.013-.009h0l-.006,0-.02-.013-.028-.017h0l-.016-.01-.042-.026h0l0,0-.049-.029-.01-.005h0a.383.383,0,0,0-.041-.024l-.025-.014h0l-.015-.009-.048-.026-.04-.021-.042-.021h0a.042.042,0,0,0-.01-.005l-.064-.033,0,0h0l-.083-.04-.031-.015h0a.065.065,0,0,0-.016-.008l-.037-.016-.042-.017-.016-.007-.028-.011-.016-.006-.033-.013h0l-.012-.005-.175-.069h0l-.042-.017-.027-.01-.028-.01-.033-.013-.01,0-.017-.007-.018-.006h0l-.035-.014-.109-.041h0c-.023-.01-.047-.018-.071-.027l-.029-.01h0L114.346,41l-.013,0h0l-.051-.02-.105-.039-.054-.019h0l-.053-.02-.38-.139-.095-.034-.191-.07-.083-.03-.1-.036-.072-.025-.023-.009-.081-.029c-.2-.071-.359-.128-.459-.161l-.04-.014c-.093-.034-.151.015-.195.142l-1.63,4.8c-.044.131-.049.215.064.253.414.142,2.6.883,3.046.991a1.4,1.4,0,0,0,1.005.024c.185-.108.292-.171.386-.142.077.024.122.083.083.195s-.215.391-.62,1.333c-.151.376-.464,1.113-.507,1.245-.054.151-.123.361-.293.3a.16.16,0,0,1-.117-.23,5.157,5.157,0,0,0,.161-.708,1.051,1.051,0,0,0,0-.189c0-.011,0-.023,0-.035a.241.241,0,0,0-.005-.035c0-.014-.006-.029-.01-.044a.4.4,0,0,0-.01-.041.378.378,0,0,0-.013-.042.408.408,0,0,0-.016-.042.284.284,0,0,0-.017-.042,1.009,1.009,0,0,0-.067-.118.144.144,0,0,0-.011-.017.082.082,0,0,0-.009-.012h0a.055.055,0,0,0-.006-.009.069.069,0,0,0-.01-.013l0,0a.341.341,0,0,0-.024-.029c-.022-.026-.046-.052-.072-.078l-.032-.031-.034-.03c-.024-.02-.049-.04-.076-.06l-.041-.029h0l-.01-.008-.033-.022h0l-.018-.012,0,0-.012-.008-.012-.007h0a.3.3,0,0,0-.036-.022l-.062-.036-.019-.01-.02-.01L113.2,47.5l-.085-.041-.017-.008h0a.017.017,0,0,0-.007,0l-.047-.021-.01,0h0l0,0-.022-.009h0l-.014-.006-.014-.005h0l-.014-.006-.054-.021-.046-.018-.049-.019L112.7,47.3l-.084-.032-.044-.016h0l-.034-.013-.1-.038-.044-.017-.025-.01-.028-.01h0l-.049-.018-.1-.037-.1-.037-.052-.019-.105-.037-.339-.121-.085-.03-.156-.055-.07-.024-.447-.157-.047-.017-.045-.016-.032-.011-.261-.091c-.092-.035-.142.034-.176.151l-.513,1.494c-.214.649-.83,2.382-.995,2.939-.406,1.323-.2,1.713,1.732,2.367a5.231,5.231,0,0,0,1.86.381c.571-.064.932-.381,1.332-1.118.1-.2.171-.254.3-.21.151.053.1.2.034.39a15.635,15.635,0,0,1-.957,2.021c-.3.449-.474.39-1.191.146-1.425-.483-2.455-.874-3.265-1.172s-1.381-.532-1.948-.727c-.21-.069-.629-.21-1.088-.346-.434-.147-.942-.279-1.318-.406-.249-.083-.361-.185-.318-.322ZM87.225,36.2c1.059.024,2.2.117,2.9.137.5.01,1.459-.02,2.46,0,.239.005.459.054.459.2s-.127.176-.307.171l-.143,0h-.077l-.087,0c-.042,0-.082,0-.12.009l-.075.01-.058.01-.028.006-.027.007-.014,0-.013,0-.026.008-.032.013a.386.386,0,0,0-.06.03.191.191,0,0,0-.026.017.546.546,0,0,0-.05.039.509.509,0,0,0-.037.037.35.35,0,0,0-.023.028.127.127,0,0,0-.014.018.44.44,0,0,0-.026.044.185.185,0,0,0-.011.023.169.169,0,0,0-.013.031c0,.008-.006.016-.008.024a.028.028,0,0,0,0,.012.15.15,0,0,0-.008.026.568.568,0,0,0-.013.078c0,.017,0,.037,0,.055a5.9,5.9,0,0,0,.42,1.557l3.2,9.176h.078l.022-.05.022-.05.023-.055c.008-.018.016-.037.024-.057,0,0,0,0,0,0l.1-.236c.009-.021.017-.042.027-.063l.028-.064h0c.009-.022.018-.044.028-.066s.018-.044.029-.067.019-.046.03-.07.019-.045.03-.068a.005.005,0,0,1,0,0l.061-.142q.077-.181.161-.376l.033-.077.047-.109.021-.05.026-.06.044-.1c.017-.042.036-.084.054-.126l.017-.04v0l.032-.074.041-.093v0a.165.165,0,0,1,.01-.022l.1-.237c.012-.029.024-.057.037-.086v0l.067-.155a.227.227,0,0,1,.01-.021v0c.032-.074.064-.148.1-.224l.059-.136v0c.007-.014.013-.029.019-.043l.011-.025.01-.023.119-.277h0c.013-.03.026-.062.04-.092l.04-.093v0l.017-.039.145-.337.184-.427.017-.037c.014-.034.029-.067.044-.1.046-.108.092-.215.139-.323.037-.086.074-.171.111-.257q.081-.191.164-.38l.081-.189.081-.188c.175-.406.345-.8.507-1.181l.074-.173.187-.437.084-.2.121-.285.039-.091.179-.424c.012-.027.023-.053.034-.08l.065-.154.04-.1.063-.148.035-.084c.009-.021.017-.041.025-.061s.017-.039.024-.058l.05-.12c.013-.033.026-.064.039-.095s.028-.068.04-.1l.03-.072c.027-.066.05-.124.071-.176a2.488,2.488,0,0,0,.2-.736.394.394,0,0,0-.249-.391,2.708,2.708,0,0,0-.8-.117c-.176-.01-.337-.035-.337-.171.01-.161.191-.195.571-.185,1,.03,1.835.108,2.1.118.342.01,1.279-.024,1.885-.01.259,0,.414.049.414.19s-.126.176-.326.171a1.755,1.755,0,0,0-.986.214c-.268.176-.576.507-1.152,1.772-.83,1.859-1.4,2.928-2.543,5.359-1.361,2.885-2.362,5.042-2.831,6.032-.547,1.142-.678,1.464-.962,1.455-.259-.01-.371-.288-.727-1.245l-4.71-12.358c-.43-1.118-.767-1.342-1.479-1.562a2.766,2.766,0,0,0-.781-.1c-.181,0-.239-.068-.235-.19.005-.157.225-.171.527-.161ZM68.819,41.535c1-.361,2.2-.742,2.6-.888.635-.23,2.045-.81,2.63-1.025a6.352,6.352,0,0,1,3.749-.464,3.484,3.484,0,0,1,2.226,2.109c.507,1.391.4,2.879-.932,5.12,2.44,1.494,4.935,3.309,6.472,4.066a3.989,3.989,0,0,0,2.572.507,3.352,3.352,0,0,0,.552-.137c.151-.054.249-.024.278.068.054.147-.058.235-.288.318l-1.786.654a4.044,4.044,0,0,1-2.143.381,9.582,9.582,0,0,1-3.582-1.816c-1.138-.762-3.051-2.338-3.4-2.533a.414.414,0,0,0-.386-.005l-1.649.561a.136.136,0,0,0-.092.2l.092.264c.644,1.748,1.186,3.231,1.572,3.983.253.527.522.9,1.112.771.293-.069.722-.185.947-.264.156-.058.244-.03.283.064.049.131-.064.239-.307.326-1.093.4-2.5.855-2.787.957-.352.132-1.518.625-2.269.9-.245.088-.4.078-.445-.054-.034-.092.02-.18.239-.264a2.8,2.8,0,0,0,.655-.322c.351-.21.292-.659.165-1.234-.195-.82-.742-2.3-1.371-4.037l-1.216-3.3c-1.049-2.86-1.24-3.383-1.5-3.973-.273-.625-.532-.874-1.2-.776a4.165,4.165,0,0,0-.756.215c-.2.078-.332.078-.38-.054S68.535,41.643,68.819,41.535ZM53.308,52.073c.424-.332.9-.668,1.3-.971.42-.3.805-.567,1.025-.737.507-.386,3.671-2.817,3.959-3.06.278-.264.507-.488.61-.615a1.579,1.579,0,0,1,.21-.259c.073-.064.141-.014.2.069a12.333,12.333,0,0,0,.659,1.132c.108.171.61.893.728,1.108a.226.226,0,0,1-.024.3c-.112.083-.205.029-.318-.112a2.139,2.139,0,0,0-.532-.5c-.327-.2-.635-.268-1.5.245-.292.175-1.992,1.425-2.3,1.664-.077.063-.077.131.01.244l3.08,4.021c.083.112.151.166.244.093.357-.268,2.182-1.674,2.519-1.982.356-.322.556-.551.581-.824.015-.21.015-.337.1-.4a.132.132,0,0,1,.205.044c.077.093.2.4.766,1.254.225.333.663,1.006.751,1.113.1.127.23.3.088.41a.158.158,0,0,1-.253-.03,4.906,4.906,0,0,0-.5-.522c-.322-.259-.727-.326-1.361.059-.327.2-1.913,1.391-2.294,1.683-.077.058-.049.132.024.23l.962,1.259c.41.537,1.518,2.012,1.889,2.46.032.04.064.078.1.116l.046.055c.077.09.151.17.224.24.015.015.029.029.044.042l.054.049.053.046.07.054c.024.017.046.033.07.048a1.23,1.23,0,0,0,.139.077c.024.01.047.02.071.029a.681.681,0,0,0,.071.023.671.671,0,0,0,.072.017h0c.023,0,.047.007.071.009a.711.711,0,0,0,.076,0,3.43,3.43,0,0,0,1.768-.933,5.163,5.163,0,0,0,1.353-1.333,1.729,1.729,0,0,0-.191-1.728c-.1-.195-.122-.283-.005-.371s.225.029.347.19A16.156,16.156,0,0,1,69.7,58c.2.5.064.61-.542,1.069-1.191.912-2.089,1.552-2.787,2.059-.708.488-1.215.854-1.683,1.215-.181.137-.527.406-.9.713-.366.283-.751.629-1.073.874-.205.156-.357.195-.44.083-.058-.078-.034-.176.151-.322a3.2,3.2,0,0,0,.532-.5c.264-.307.078-.712-.21-1.225-.434-.732-1.4-1.986-2.514-3.446l-2.143-2.8c-1.85-2.416-2.191-2.865-2.611-3.349-.448-.517-.77-.673-1.381-.38a4.074,4.074,0,0,0-.649.425c-.181.137-.3.176-.386.068s0-.229.239-.41Zm-9.382,11.89A19.249,19.249,0,0,1,45.615,61.6c.484-.6.971-1.049,1.333-1.532.137-.176.264-.191.361-.127.142.083.312.259.889.659.547.38,1.494.942,1.816,1.181.244.176.361.3.263.449-.083.137-.239.088-.478-.059a2.877,2.877,0,0,0-1.977-.3,6.007,6.007,0,0,0-3.188,2.816,5.245,5.245,0,0,0-.912,3.856,6.7,6.7,0,0,0,3.456,4.285c4.061,2.489,7.971.64,9.376-1.649.928-1.513,1.323-2.543.957-3.7a3.342,3.342,0,0,0-.767-1.274c-.244-.219-.292-.292-.2-.429s.214-.078.351.005a18.325,18.325,0,0,1,2.036,1.766.694.694,0,0,1,.219.747A11.4,11.4,0,0,1,57.656,71.6a10.045,10.045,0,0,1-5.452,4.71,7.936,7.936,0,0,1-9.786-5.842,8.736,8.736,0,0,1,1.508-6.5ZM37.918,109.74a7.619,7.619,0,0,1-.694-1.762,7.437,7.437,0,1,1,14.4-3.719,7.793,7.793,0,0,1,.244,1.879l-4.075,1.054a3.61,3.61,0,0,0,.161-2.3,3.708,3.708,0,1,0-5.93,3.787ZM41.09,119.4a4.975,4.975,0,0,1,2.167-6.692l8.59-4.4c.058.145.118.289.178.433l0,0c.044.1.088.209.133.312a.447.447,0,0,0,.018.043c.021.05.043.1.064.149.042.1.084.194.128.291.02.047.041.093.063.139q.158.353.324.7c.039.084.08.168.12.252.02.044.041.086.062.129.037.077.074.153.111.229q.18.368.368.734l-8.493,4.343a1.217,1.217,0,1,0,1.108,2.167l8.561-4.364c.644,1.089,1.327,2.143,2.059,3.168l-8.879,4.525A4.969,4.969,0,0,1,41.09,119.4Zm11.041,14.628a58.549,58.549,0,0,1-5.188-6.164L47,127.82l10.943-9.245a43.679,43.679,0,0,0,5.11,6.1L60.6,127.585l-3.124-3.7-1.157.981,2.1,2.489-2.865,2.426-2.109-2.495-1.161.982,3.4,4.021Zm13.115,6.286-2.816,2.172a58.039,58.039,0,0,1-6.507-4.871l8.869-11.309c.937.83,1.9,1.625,2.909,2.377l-6.614,8.4,4.158,3.226Zm7.575,7.463a56.851,56.851,0,0,1-7.331-3.456l6.154-13.012c1.079.634,2.182,1.23,3.319,1.771l-4.553,9.639,4.753,2.261Zm18.432-4.075q0,.067-.005.133c0,.03,0,.061,0,.091s-.005.079-.008.118a.026.026,0,0,1,0,.009q-.007.091-.016.183,0,.038-.008.076c0,.05-.01.1-.017.147s-.013.1-.021.145c0,.022-.006.044-.01.065-.008.052-.017.1-.026.156s-.022.122-.035.182-.021.1-.033.154-.028.118-.043.176-.029.111-.044.166-.027.1-.042.144-.02.067-.03.1c-.015.049-.031.1-.047.144s-.039.115-.061.171-.042.114-.064.17c-.044.112-.091.224-.141.333-.024.055-.05.109-.077.163s-.052.108-.08.162c0,0,0,0,0,0q-.081.158-.17.311-.043.078-.091.154c-.031.051-.063.1-.1.152s-.064.1-.1.149-.066.1-.1.147q-.155.218-.326.425c-.024.031-.05.062-.077.092l0,0-.067.077-.085.1c-.04.044-.08.087-.122.131-.082.085-.166.17-.252.252-.043.042-.086.083-.131.121s-.084.077-.128.114l-.017.014c-.042.037-.084.072-.125.105s-.092.076-.138.112-.094.074-.142.109-.1.071-.145.1-.093.066-.14.1-.1.069-.157.1-.1.064-.151.095-.1.063-.155.091-.1.059-.157.087c-.105.057-.212.112-.32.165s-.218.1-.329.149l-.167.068c-.057.023-.113.044-.17.064s-.114.042-.171.061-.115.038-.173.056-.117.036-.176.052-.117.033-.177.048l-.118.03-.084.02-.012,0c-.039.01-.08.018-.121.026l-.082.017-.124.024-.183.03c-.059.009-.118.017-.178.024l-.136.016-.1.01-.118.01-.084.006c-.05,0-.1.007-.153.01s-.113.005-.17.006l-.191,0a7.424,7.424,0,0,1,0-14.848c.125,0,.25,0,.373.01l.085.005c.084,0,.166.01.248.019l.072.007c.107.01.214.024.319.04l.069.01.083.014.1.017.1.018.057.011.1.022.1.022.035.008.108.027c.119.03.238.064.354.1l.123.039.181.062h0c.06.021.119.043.178.067.039.015.079.03.118.047a.043.043,0,0,1,.017.007l.054.021.017.008.088.038c.058.025.116.051.173.078.114.054.228.111.339.17.163.086.321.179.477.277A7.494,7.494,0,0,1,90.2,139.7c.041.066.079.133.117.2.023.04.044.08.066.121.059.111.117.225.171.339l.053.115c.018.039.036.077.051.117s.033.077.049.117.032.079.047.118c.037.091.07.182.1.274.01.028.02.057.029.085a.1.1,0,0,1,.006.017c.011.035.023.07.034.106.017.054.033.108.049.163l.008.027c.016.054.03.108.044.163.009.03.017.061.023.093a.247.247,0,0,1,.006.027c.009.034.017.069.024.1s.017.075.024.112.016.076.023.114l.021.114c.007.038.013.076.019.114s.01.065.015.1a.044.044,0,0,1,0,.01c.013.087.024.175.033.264v0h0c0,.026.006.051.008.077s0,.027,0,.041c0,.037.007.076.01.113.005.071.01.142.013.213,0,.055.005.111.006.166s0,.127,0,.192,0,.128,0,.191Zm2.511-11.539a38.741,38.741,0,0,1-5.37-.373q-.718-.1-1.428-.227c-.158-.029-.315-.057-.472-.088q-.47-.09-.937-.191-.234-.051-.466-.1-.464-.107-.924-.225t-.916-.248q-.683-.195-1.356-.413-.448-.146-.892-.3-.665-.234-1.319-.493t-1.3-.539q-.428-.187-.85-.385-.846-.394-1.668-.829-1.214-.641-2.375-1.364-.46-.286-.91-.585t-.892-.609c-.184-.13-.367-.26-.548-.393-.091-.066-.181-.132-.272-.2q-.542-.4-1.068-.823l-.262-.212q-1.464-1.191-2.8-2.519-1.29-1.277-2.455-2.671-.291-.349-.574-.7-.565-.71-1.1-1.448-.3-.415-.588-.836c-.064-.094-.128-.188-.192-.283h0c-.127-.19-.252-.38-.374-.571s-.245-.384-.366-.578q-.24-.388-.471-.782-.1-.172-.2-.346-.2-.346-.39-.7h0q-.255-.466-.5-.942-.214-.417-.416-.84h0q-.4-.829-.755-1.676c-.06-.142-.118-.283-.177-.426-.044-.106-.086-.213-.129-.32-.064-.16-.127-.322-.188-.484s-.122-.324-.182-.487q-.159-.433-.307-.873a38.426,38.426,0,0,1,36.38-50.714q.994,0,1.976.05c.315.017.63.037.944.06q.807.06,1.605.155c.258.03.515.063.771.1q.845.115,1.676.269.291.052.581.111a37.756,37.756,0,0,1,4.428,1.164q.39.127.777.264h0c.267.094.534.191.8.292a38.009,38.009,0,0,1,4.784,2.194q.386.21.767.429a38.6,38.6,0,0,1,14.2,14.2q.219.38.429.767a38.064,38.064,0,0,1,2.193,4.784c.1.265.2.532.292.8v0q.136.386.265.778a37.9,37.9,0,0,1,1.163,4.427q.059.29.111.581.153.832.269,1.676c.036.256.069.514.1.771q.1.8.155,1.605c.023.313.044.628.06.944q.05.982.05,1.976a38.36,38.36,0,0,1-2.018,12.316q-.149.439-.307.873c-.06.164-.12.326-.182.487s-.124.324-.188.484c-.043.107-.085.214-.129.32-.058.143-.117.284-.177.426q-.358.849-.755,1.676h0q-.2.424-.416.841-.242.475-.5.942h0q-.191.351-.39.7-.1.174-.2.346-.231.393-.471.782-.18.291-.366.578t-.374.57h0c-.064.1-.127.19-.191.284q-.289.422-.588.836-.533.736-1.1,1.448-.285.354-.574.7-1.165,1.392-2.455,2.671-1.338,1.327-2.8,2.519l-.262.212q-.528.42-1.068.823l-.272.2q-.273.2-.548.393-.441.311-.892.609t-.91.585q-1.159.722-2.375,1.364-.823.433-1.668.829-.422.2-.85.385-.641.281-1.3.539t-1.319.493q-.444.155-.892.3-.672.218-1.356.413-.456.129-.916.248t-.924.225q-.232.054-.466.1-.467.1-.937.191c-.157.03-.314.059-.472.088q-.709.127-1.428.227a38.743,38.743,0,0,1-5.37.373Zm10.582,11.3h0l1.89,6.872c-1.265.279-2.543.517-3.837.708l-3.885-14.135,10.455,4.2-1.626-5.929c1.245-.406,2.465-.87,3.656-1.381l1.23,4.49,2.729,9.938-10.611-4.758Zm14.818,2.366-7.228-12.456a43.508,43.508,0,0,0,7.121-4.129l2.455,2.9-4.334,2.514.791,1.357,2.923-1.694,1.952,3.363-2.923,1.7.79,1.361h0l4.715-2.738,1.005,3.587a57.813,57.813,0,0,1-7.268,4.236Zm17.474-12.685a7.67,7.67,0,1,1-12.661-8.605,8.486,8.486,0,0,1,3.866-3.124l2.065,3.383a4.622,4.622,0,0,0-2.718,1.924,3.807,3.807,0,1,0,6.243,4.241,4.778,4.778,0,0,0,.522-.995l-3.119-2.119,2.288-3.368,5.535,3.763A13.877,13.877,0,0,1,136.639,133.149Zm8.3-12.231-6.009-.717-.244.434,4.856,2.762c-.663,1.113-1.367,2.207-2.1,3.27l-12.613-7.16,2.738-4.827a4.84,4.84,0,0,1,9,1.732l6.2.747Q145.916,119.071,144.936,120.918Zm5.5-15.134c0,.043,0,.084,0,.126,0,.075-.007.149-.013.223-.01.137-.023.272-.04.406-.005.045-.011.091-.018.136a.026.026,0,0,1,0,.009c0,.029-.008.057-.013.085s-.009.057-.014.085-.009.053-.014.08c-.021.113-.044.225-.07.337-.01.048-.023.1-.035.144s-.03.121-.048.18c-.009.032-.018.064-.028.1-.014.048-.029.095-.044.142s-.03.094-.046.141c-.062.184-.131.363-.206.54-.05.118-.1.234-.16.349-.029.057-.057.114-.087.171l-.091.168q-.14.249-.3.487c-.035.053-.071.105-.107.158-.073.1-.148.205-.225.3-.019.025-.039.05-.059.075a.933.933,0,0,1-.059.073q-.241.294-.51.561c-.066.066-.134.131-.2.195l-.094.085a0,0,0,0,1,0,0c-.024.023-.05.045-.076.066a.435.435,0,0,1-.037.032s0,0,0,0a.007.007,0,0,1,0,0h0l-.142.118-.149.118c-.05.038-.1.077-.152.114s-.1.075-.155.11-.1.073-.158.106-.106.069-.16.1c-.108.067-.218.131-.329.192s-.225.12-.34.176c-.057.028-.115.055-.173.081s-.111.05-.165.072c-.111.048-.224.092-.338.133s-.229.08-.345.117c-.058.018-.117.036-.176.052s-.118.033-.177.048-.089.023-.134.033l-.1.023-.079.017-.09.018c-.095.019-.191.037-.288.051l-.063.01c-.112.017-.226.031-.34.043L143.6,113l-.031,0-.117.008h-.025l-.091,0h-.015l-.066,0h-.012c-.023,0-.048,0-.072,0l-.161,0a7.449,7.449,0,0,1-.755-.038l-.151-.017-.082-.01c-.028,0-.056-.007-.083-.011l-.118-.017-.155-.027c-.051-.009-.1-.019-.153-.03s-.113-.023-.169-.037l-.011,0c-.06-.013-.119-.028-.178-.044-.119-.03-.237-.064-.353-.1s-.232-.075-.345-.117q-.342-.125-.666-.282c-.055-.026-.109-.052-.162-.08s-.106-.055-.158-.084-.105-.057-.157-.087-.1-.059-.154-.091-.1-.062-.152-.095-.1-.064-.149-.1-.1-.067-.147-.1-.1-.069-.145-.105-.094-.071-.14-.107l-.14-.114c-.046-.037-.091-.075-.136-.114l-.134-.119c-.044-.039-.088-.08-.131-.122s-.086-.083-.127-.124-.084-.084-.124-.127-.083-.086-.121-.131a7.342,7.342,0,0,1-.854-1.143c-.029-.045-.056-.091-.082-.138s-.065-.116-.1-.173-.057-.105-.084-.159-.045-.09-.066-.134l-.027-.056-.01-.02c-.019-.037-.037-.077-.053-.115-.05-.11-.1-.221-.141-.333-.023-.057-.044-.113-.064-.17s-.041-.114-.061-.171-.038-.115-.056-.173-.036-.117-.052-.176-.029-.1-.042-.154-.03-.118-.044-.178-.027-.121-.04-.182q-.01-.046-.018-.091c-.006-.03-.012-.06-.017-.091-.009-.05-.017-.1-.025-.149-.005-.03-.01-.059-.014-.09-.017-.108-.03-.218-.041-.327,0-.024-.005-.049-.007-.073-.009-.084-.015-.168-.019-.252,0-.03,0-.06-.005-.091-.006-.118-.009-.236-.009-.355,0-.055,0-.11,0-.164,0-.015,0-.03,0-.045a.094.094,0,0,1,0-.016q0-.063.005-.125a.182.182,0,0,1,0-.022c0-.043,0-.085.008-.127s0-.06.006-.09a.066.066,0,0,1,0-.013c0-.037.005-.075.01-.112a.171.171,0,0,1,0-.021c0-.016,0-.03,0-.045a.118.118,0,0,1,0-.017c.005-.05.01-.1.017-.148s.016-.124.025-.185.017-.1.026-.156.017-.093.026-.14.014-.073.022-.109c.011-.053.024-.107.036-.16s.025-.107.039-.159.03-.118.048-.178.034-.117.052-.175.03-.095.045-.142c.008-.024.017-.048.024-.071.014-.044.03-.088.047-.131s.036-.1.056-.147c.007-.019.014-.037.022-.056.015-.04.031-.079.048-.118,0-.009.008-.017.011-.026.023-.052.045-.1.069-.156.048-.11.1-.218.156-.325a7.178,7.178,0,0,1,.662-1.062c.035-.048.07-.095.109-.142a6.831,6.831,0,0,1,.467-.539c.04-.044.083-.086.124-.127s.084-.084.127-.124c.086-.083.174-.163.264-.239.044-.04.091-.078.137-.115l.1-.077.056-.044.155-.118c.039-.03.078-.058.118-.085.1-.071.2-.137.3-.2.05-.033.1-.065.152-.095s.09-.055.135-.08l.066-.037c.036-.022.073-.042.11-.061.052-.03.105-.057.158-.084s.107-.054.162-.08.1-.045.144-.067l.027-.012c.026-.013.052-.024.078-.035l.015-.006.086-.037c.1-.044.209-.085.316-.124.057-.022.114-.042.171-.061a7.086,7.086,0,0,1,.7-.2l.149-.032.056-.011.077-.015.108-.02.157-.026c.123-.018.247-.035.372-.047a7.54,7.54,0,0,1,1.518,0c.124.013.249.029.372.047.06.009.119.019.178.03l.155.03.139.03.1.022c.043.01.084.019.126.03l.074.019c.123.032.245.067.365.106.038.011.078.024.117.038.066.023.132.046.2.071a.569.569,0,0,1,.054.02l.163.064a7.537,7.537,0,0,1,.793.379l.095.053.095.056q.188.111.369.232l0,0,.174.122c.059.043.118.086.175.13s.115.088.171.134.112.092.167.139q.165.142.321.292c.052.05.1.1.154.153l.15.158c.073.08.145.161.216.245.035.041.07.083.1.125s.069.084.1.128.088.116.131.174a7.521,7.521,0,0,1,.47.735c.036.064.071.128.1.192.067.13.131.261.191.394.016.033.03.067.044.1l.043.1c.029.068.056.137.082.205.013.035.026.069.038.1.035.1.068.192.1.29.01.03.018.059.028.09s.025.085.037.128l.008.026c.012.044.024.089.036.134s.03.118.044.178.028.12.039.181c.025.12.047.243.066.366s.035.247.047.372c.007.063.012.125.017.188s.009.114.011.171.005.111.006.166c0,.023,0,.047,0,.071,0,.054,0,.109,0,.164s0,.128,0,.191Z" transform="translate(-31.29 -31.29)" fill="#1f1f1f"></path><path id="Path_278" data-name="Path 278" d="M514.886,142.426c-.249.371-.468.532-1.215.81a5.424,5.424,0,0,1-1.5.337c-.151-.01-.219-.069-.292-.279l-2.1-5.711c-.054-.151-.044-.239.073-.327a4.362,4.362,0,0,1,.966-.44c1.112-.41,3.158-.283,4.139,2.382a3.5,3.5,0,0,1-.073,3.226Z" transform="translate(-468.103 -127.471)" fill="#1f1f1f"></path><path id="Path_279" data-name="Path 279" d="M1226.292,436.865l-3.329,4.081c-.039.044-.1.058-.151-.03l-1.884-3.158c-.043-.073,0-.122.073-.146l5.178-.937c.078-.024.185-.044.215.01s-.043.122-.1.18h0Z" transform="translate(-1117.361 -401.366)" fill="#1f1f1f"></path><path id="Path_280" data-name="Path 280" d="M599.352,1281.278a3.746,3.746,0,1,1-3.748-3.748A3.746,3.746,0,0,1,599.352,1281.278Z" transform="translate(-543.066 -1169.052)" fill="#1f1f1f"></path><path id="Path_281" data-name="Path 281" d="M1279.246,845.634a3.748,3.748,0,1,1-3.748-3.744A3.749,3.749,0,0,1,1279.246,845.634Z" transform="translate(-1163.775 -771.332)" fill="#1f1f1f"></path><path id="Path_282" data-name="Path 282" d="M1209.76,1010.992l-.234.4-3.446-1.958.234-.4a1.981,1.981,0,1,1,3.445,1.957Z" transform="translate(-1103.821 -923.009)" fill="#1f1f1f"></path></g><g id="Group_63" data-name="Group 63" transform="translate(29.54 29.779)"><path id="Path_283" data-name="Path 283" d="M409.71,371.622q-.06-.36-.128-.716c-.011-.063-.023-.124-.036-.187-.021-.11-.043-.218-.065-.327a35.145,35.145,0,0,0-2.832-8.337q-.248-.512-.513-1.013-.114-.217-.232-.432c-.1-.182-.2-.362-.3-.542q-.1-.171-.2-.341c-.037-.065-.075-.131-.114-.2-.071-.122-.145-.244-.218-.365s-.148-.243-.224-.364a35.625,35.625,0,0,0-9.564-10.157q-.346-.245-.7-.484a35.3,35.3,0,0,0-3.315-1.985q-.368-.195-.743-.381-.772-.383-1.564-.73c-.262-.115-.527-.226-.792-.335q-.657-.268-1.326-.51c-.233-.085-.467-.167-.7-.246a34.839,34.839,0,0,0-3.519-.99c-.184-.043-.367-.083-.553-.121q-.358-.076-.72-.143-.329-.063-.661-.117A35.444,35.444,0,0,0,339.37,377.53c0,.835.03,1.66.084,2.48.742.092,1.488.2,2.245.356,6.272,1.22,11.4,4.227,13.916,7.731,3.817,4.91,6.769,7.048,11.006,8.62.1-.035.366-.146.464-.181a22.191,22.191,0,1,1,20.363-39.218c1.161.728,1.9,1.435,1.972,2.558,0,0,.031.152.077.411l.039.018a.5.5,0,0,1,.074.044.2.2,0,0,1,.044.03l.044.03c3.988,4.027,1.084,6.311,1.084,6.311-.459-1.454-4.115-2.45-4.115-2.45-.125-.023-.245-.049-.359-.075l-.2-.048-.04-.01c-.043-.011-.084-.023-.126-.036l-.1-.03c-.064-.02-.125-.04-.185-.061h0l-.077-.028-.074-.029-.067-.027a1.723,1.723,0,0,1-1.089-.941c0-.01-.008-.022-.011-.033s-.009-.027-.012-.041-.011-.045-.016-.068-.007-.037-.01-.055a1.627,1.627,0,0,1,.347-1.079.522.522,0,0,0,.062-.115.48.48,0,0,0,.019-.06c.008-.037.006-.076.016-.114a.52.52,0,0,1,.045-.117.667.667,0,0,1,.215-.22,5.03,5.03,0,0,1,1.606-.541c.087-.019.175-.034.268-.049a.457.457,0,0,0,.083-.02l.279-.044c.01,0,.019-.005.034-.005l.468-.073c.059,0,.112-.01.172-.019.107-.015.21-.03.307-.039l.039,0,.036,0,.035,0,.069-.007.041,0,.215-.021.054-.005.01,0h.015a.405.405,0,0,0,.142-.391c-.064-.752-.346-.5-1.411-1.039a22.112,22.112,0,0,0-7.185-2.821c.191.375.371.893.6,1.019,2.138,1.118,4.5,2.543,4.861,3.354a3.857,3.857,0,0,0-.805.313c-.146-.391-.6-.835-.947-.835-.62,0-1.664-.318-1.664.214,0,.494,1.572,1,1.825,1.655a2.022,2.022,0,0,0-.273.771c-.5.305-.985.426-1.306.105a.716.716,0,0,1-.1-.122,1.038,1.038,0,0,1-.062-.106c-.007-.012-.013-.026-.019-.039s-.017-.037-.024-.056a.945.945,0,0,1-.036-.1,2.256,2.256,0,0,1-.084-.346,3.926,3.926,0,0,0-.145-.591l-.029-.084c-.028-.078-.057-.157-.09-.235s-.067-.157-.1-.235c-.073-.157-.154-.312-.242-.467-.1-.177-.211-.352-.327-.525q-.084-.123-.17-.243c-.072-.1-.147-.2-.224-.3s-.155-.2-.235-.293l-.194-.23c-.065-.076-.132-.151-.2-.225l-.2-.22c-1.15-1.234-2.4-2.212-2.79-2.614-.537-.039-1.084-.064-1.63-.064-11.924.005-21.6,9.215-21.6,20.578,0,9.014,5.335,17.342,13.774,20.153a24.2,24.2,0,0,1,3.749-1.034,28.273,28.273,0,0,1,8.476-.5c.181.018.362.038.541.061s.359.046.535.072.351.054.524.084l.259.046c.172.031.341.065.51.1.252.053.5.111.748.172q.244.061.483.129h0l.3.088q.3.09.6.19c2.832.958,4.983,2.528,6.023,4.564.056.109.108.218.158.328.017.037.033.073.049.111s.041.1.061.149c.026.066.051.133.076.2a6.2,6.2,0,0,1,.233.828,7.781,7.781,0,0,1-1.8,6.32,1.668,1.668,0,0,1-1.392.747c-.092,0-.649-.092-.79-.122-2.879-.517-5.174-1.142-6.584-1.445a42.962,42.962,0,0,1-12.446-4.935c-1.333-.888-2.318-.078-.649.855a39.541,39.541,0,0,0,7.727,3.114c.156.054.1.254-.108.21-.1-.019-.2-.041-.3-.064-.138-.03-.282-.063-.432-.1l-.228-.056-.118-.03-.24-.062c-.122-.031-.246-.065-.373-.1s-.257-.071-.389-.109l-.2-.057-.407-.121-.208-.064-.423-.133c-.1-.03-.191-.061-.287-.092l-.145-.048-.292-.1a37.765,37.765,0,0,1-4.72-1.933,34.515,34.515,0,0,1-5.3-3.48c-1.434-.9-1.361.453.166,1.552a27.884,27.884,0,0,0,4.021,2.528q.59.326,1.267.625.272.12.554.236l.288.115q1.18.464,2.581.874.323.1.656.188l.359.1c.241.065.487.13.737.193,1.375.351,2.878.68,4.5,1,.195.029.137.244-.107.214a42.393,42.393,0,0,1-22.643-9.873c-3.914-3.47-3.261-.64-.991,1.191,4.617,3.724,10.831,6.569,18.269,8.356.142.039.088.253-.107.219-2.738-.488-11.782-2.919-17.312-6a26.255,26.255,0,0,1-8.766-7.844c-.786-.947-1.011-.005-.752.859q3.544,10.089,24.365,13.3a.249.249,0,0,1,.057.017.129.129,0,0,1,.038.026.108.108,0,0,1,.013.016.057.057,0,0,1,.01.017.1.1,0,0,1,.007.036.089.089,0,0,1-.009.039h0a.112.112,0,0,1-.09.067.091.091,0,0,1-.027,0q-10.081-.542-16.766-3.944c.835.737,1.713,1.44,2.621,2.1a55.17,55.17,0,0,0,11.915,2.7c.21.014.165.21-.1.21-2.153.088-4.569.049-7.214-.093a35.173,35.173,0,0,0,16.17,3.9,35.682,35.682,0,0,0,5.833-.478q.437-.073.872-.156t.864-.177c.144-.031.287-.064.43-.1q.428-.1.852-.208l.275-.072c.183-.048.365-.1.547-.15q.544-.154,1.083-.326.555-.176,1.1-.371.364-.129.725-.266t.717-.282q.179-.072.356-.146h0a35.238,35.238,0,0,0,3.568-1.735q.432-.24.856-.493l.282-.17q.282-.171.559-.346t.552-.357q.274-.182.545-.366l.286-.2c.191-.133.379-.269.567-.406q.423-.308.835-.628l.308-.242q.46-.366.907-.745.223-.191.444-.384c.147-.129.292-.259.438-.391l.288-.265.253-.238q.356-.338.7-.685t.684-.7q.225-.238.446-.479l.219-.243c.109-.122.218-.245.325-.368q.483-.555.944-1.131.2-.256.4-.515.4-.518.781-1.053.191-.266.376-.537c.124-.18.246-.362.366-.545.05-.077.1-.155.151-.232q.225-.349.443-.7t.427-.712h0c.093-.16.185-.32.276-.481h0q.272-.483.529-.976.128-.247.253-.5t.246-.5a35.193,35.193,0,0,0,1.773-4.418s0,0,0,0c.067-.206.132-.414.2-.622s.124-.417.185-.627q.059-.211.117-.423.114-.422.218-.847a35.754,35.754,0,0,0,.517-14.335ZM372.721,385.7s-1-.2-1.977-.5c-.278-.088-.556-.185-.81-.287h.01a10.855,10.855,0,0,1-6.9-10.353c0-6.017,4.49-10.9,10.025-10.9a9.387,9.387,0,0,1,1.235.084l-.01.014c1.367,1.1,3.265,3.129,5.193,4.442a13.565,13.565,0,0,1-2.792-1.172,16.467,16.467,0,0,1-2.489-1.717,9.957,9.957,0,0,0-1.757.156c-.07.014-.139.028-.209.044l-.2.045-.191.048-.185.05-.178.052a9.751,9.751,0,0,0-6.856,8.469c-.005.065-.01.131-.015.2s-.008.139-.011.209c-.006.146-.01.293-.01.441,0,.077,0,.152,0,.229a9.893,9.893,0,0,0,7.853,9.336c.145.029.291.054.437.076,0,0,1.856.36,2.751.628.128.037.256.077.383.117l.2.065h0q.231.076.46.157.4.141.8.3.505.2,1,.424c.117.053.233.107.35.163a22.092,22.092,0,0,1,2.1,1.142q.29.179.574.366.709.469,1.381.988A26.721,26.721,0,0,0,372.721,385.7Zm19.588-9.459q-.54-.218-1.07-.457-.353-.159-.7-.327c-.232-.112-.46-.227-.689-.345s-.453-.239-.677-.362-.447-.25-.666-.38q-.991-.582-1.927-1.239-.312-.218-.618-.446-.46-.341-.9-.7-.3-.239-.587-.485t-.574-.5q-.283-.255-.56-.515t-.547-.53c-.179-.179-.358-.361-.533-.545a16.143,16.143,0,0,1,3.71-3.548,3.091,3.091,0,0,1,1.835-.41,5.257,5.257,0,0,1,2.568,1.4c.073.117.131.215.258.254a.286.286,0,0,0,.092.015c.112,2.777,1.43,4.261,3.51,5.969a2.063,2.063,0,0,1,.893,1.562,1.818,1.818,0,0,1-1.81,1.816,2.484,2.484,0,0,1-1.005-.225Zm4.887,20.593a2.168,2.168,0,0,1-.058.224c-.012.04-.026.079-.041.118a2.02,2.02,0,0,1-.087.2c-.013.026-.027.052-.041.077-.028.051-.057.1-.091.149h0c-.021.033-.043.064-.065.094a2.3,2.3,0,0,1-.5.485l-.084.056c-.037.023-.074.046-.112.067l-.077.041c-.032.017-.064.031-.1.046s-.076.032-.115.047h0l-.071.025-.073.024-.075.021a2.146,2.146,0,0,1-.543.069,2.174,2.174,0,0,1-1.862-3.3c.013-.023.027-.044.042-.066.029-.044.059-.086.09-.127.015-.021.031-.042.049-.062h0c.025-.031.051-.061.077-.09a2.206,2.206,0,0,1,.443-.37,2.3,2.3,0,0,1,.308-.161h0c.03-.014.061-.026.091-.037a2.252,2.252,0,0,1,.693-.135h.063a2.183,2.183,0,0,1,.331.025c.057.009.111.019.166.032s.109.028.162.044l.064.022.063.023c.042.016.084.034.124.052.021.009.041.019.061.029h0l.082.043.07.04a2.223,2.223,0,0,1,.618.557c.024.031.048.064.07.1a2.234,2.234,0,0,1,.123.207c.015.027.028.055.041.083a2.09,2.09,0,0,1,.118.316c.016.054.029.108.04.164a2.175,2.175,0,0,1,0,.874Z" transform="translate(-339.37 -342.11)" fill="#1f1f1f" fill-rule="evenodd"></path><path id="Path_284" data-name="Path 284" d="M974.923,953.048a.663.663,0,0,1-.215.561.463.463,0,0,1-.273.063.9.9,0,0,1-.381-.053.051.051,0,0,1-.024-.044v-1.181s.01-.034.03-.039a.918.918,0,0,1,.239-.024c.385,0,.625.269.625.718Z" transform="translate(-918.786 -899.214)" fill="#1f1f1f" fill-rule="evenodd"></path><path id="Path_285" data-name="Path 285" d="M958.719,945.206a1.131,1.131,0,0,0,.434-.834.644.644,0,0,0-.249-.488,1.129,1.129,0,0,0-.663-.161c-.112,0-.386.015-.425.015-.019,0-.249-.015-.4-.015-.044,0-.059.009-.059.029s.01.024.03.024a.429.429,0,0,1,.117.01c.122.024.151.083.161.2s0,.22,0,.781v.635c0,.347,0,.635-.015.786-.014.1-.034.181-.107.195a.358.358,0,0,1-.107.015c-.024,0-.03.009-.03.02s.019.029.058.029c.108,0,.333-.01.333-.01.024,0,.253.01.453.01.039,0,.054-.01.054-.029s-.005-.02-.024-.02c-.035,0-.112-.01-.166-.015-.107-.014-.127-.092-.142-.195-.019-.151-.019-.44-.019-.786v-.088s.01-.024.024-.024h.444a.154.154,0,0,1,.049.024c.074.093.239.337.391.533a1.915,1.915,0,0,0,.493.532.746.746,0,0,0,.386.068h.035a1.968,1.968,0,1,1,.073-.073.771.771,0,0,1-.376-.249C959.256,945.9,959.012,945.587,958.719,945.206Z" transform="translate(-902.709 -890.723)" fill="#1f1f1f" fill-rule="evenodd"></path></g></g></g></svg>