<?xml version="1.0" encoding="UTF-8"?>
<svg id="Group_115" xmlns="http://www.w3.org/2000/svg" xmlns:xlink="http://www.w3.org/1999/xlink" version="1.1" viewBox="0 0 145.3 135.3">
  <!-- Generator: Adobe Illustrator 29.2.1, SVG Export Plug-In . SVG Version: 2.1.0 Build 116)  -->
  <defs>
    <style>
      .st0 {
        fill: #00c7a1;
      }

      .st1 {
        fill: #0080ff;
      }
    </style>
  </defs>
  <g id="Group_82">
    <path id="Path_271" class="st0" d="M62.6,112.3c.3,0,.7,0,1-.3.2-.2.4-.5.3-.8,0-.3,0-.6-.3-.7-.2-.2-.5-.3-.8-.2h-1.4v2h1.2ZM64.7,115.4h-.8l-1-2.4h-1.5v2.4h-.7v-5.6h2.2c.3,0,.7,0,1,.2.3.1.5.3.6.5.3.5.3,1.1,0,1.6,0,.2-.2.4-.4.5-.2.1-.3.2-.5.3l1.1,2.6Z"/>
    <path id="Path_272" class="st0" d="M66.3,115.4v-5.6h3.5v.6h-2.8v1.8h2.5v.6h-2.5v1.9h2.9v.6h-3.6Z"/>
    <path id="Path_273" class="st0" d="M73.6,115.4c-.4,0-.9-.1-1.3-.3-.4-.2-.7-.6-.8-1-.4-1-.4-2.1,0-3.1.2-.4.5-.8.8-1,.4-.2.8-.4,1.3-.3.3,0,.5,0,.8.1.2,0,.5.2.7.4.2.2.3.4.5.6.1.2.2.4.2.7h-.8c0-.2-.1-.4-.2-.6-.1-.2-.3-.3-.5-.4-.2-.1-.4-.2-.6-.2-.6,0-1.2.4-1.4,1-.1.4-.2.8-.2,1.3,0,.3,0,.7.1,1,0,.3.2.5.3.7.1.2.3.3.5.4.2,0,.4.1.7.1.2,0,.4,0,.6-.1.2,0,.3-.2.4-.3.1-.1.2-.3.3-.4,0-.1,0-.3,0-.4v-.5s-1.3,0-1.3,0v-.5h2.1v2.9h-.5v-.9c-.1.2-.2.3-.4.5-.2.1-.3.3-.6.3-.2,0-.5.1-.8.1"/>
    <rect id="Rectangle_197" class="st0" x="77.6" y="109.7" width=".7" height="5.6"/>
    <path id="Path_274" class="st0" d="M82.8,108.1h.8l-1.1,1.1h-.6l.8-1.1ZM82.3,114.8c.3,0,.6,0,.9-.2.3-.2.5-.4.6-.7.1-.4.2-.8.2-1.3,0-.4,0-.9-.2-1.3-.1-.3-.3-.6-.6-.7-.5-.3-1.2-.3-1.8,0-.3.2-.5.4-.6.8-.1.4-.2.8-.2,1.3,0,.4,0,.9.2,1.3.1.3.3.6.6.7.3.2.6.2.9.2M82.3,115.4c-.5,0-.9-.1-1.3-.3-.4-.2-.7-.6-.8-1-.4-1-.4-2.1,0-3.1.2-.4.5-.8.8-1,.8-.5,1.8-.5,2.6,0,.4.2.7.6.8,1,.2.5.3,1,.3,1.6,0,.5,0,1.1-.3,1.6-.2.4-.5.7-.8,1-.4.2-.8.4-1.3.3"/>
    <path id="Path_275" class="st0" d="M89.9,109.7h.7v5.6h-.6l-3-4.4v4.4h-.7v-5.6h.7l3,4.4v-4.4Z"/>
    <path id="Path_276" class="st0" d="M95.4,110.4v4.4h.5c.4,0,.8,0,1.2-.2.3-.1.6-.4.8-.7.4-.8.4-1.8,0-2.6-.2-.3-.4-.5-.8-.7-.4-.1-.8-.2-1.2-.2h-.5ZM94.7,109.7h1.3c.6,0,1.1.1,1.7.3.4.2.7.5.9.9.2.5.3,1,.3,1.5,0,.5,0,1.1-.3,1.6-.2.4-.6.8-1,1-.5.2-1.1.3-1.7.3h-1.2v-5.6Z"/>
    <path id="Path_277" class="st0" d="M100.5,115.4v-5.6h3.5v.6h-2.8v1.8h2.5v.6h-2.5v1.9h2.9v.6h-3.6Z"/>
    <path id="Path_278" class="st0" d="M60.7,119.2h.7v5h2.7v.6h-3.4v-5.6Z"/>
    <path id="Path_279" class="st0" d="M67.5,124.2c.3,0,.6,0,.9-.2.3-.2.5-.4.6-.7.1-.4.2-.8.2-1.3,0-.4,0-.9-.2-1.3-.1-.3-.3-.6-.6-.7-.5-.3-1.2-.3-1.8,0-.3.2-.5.4-.6.8-.1.4-.2.8-.2,1.3,0,.4,0,.9.2,1.3.1.3.3.6.6.7.3.2.6.2.9.2M67.5,124.9c-.5,0-.9-.1-1.3-.3-.4-.2-.7-.6-.8-1-.4-1-.4-2.1,0-3.1.2-.4.5-.8.8-1,.8-.5,1.8-.5,2.6,0,.4.2.7.6.8,1,.2.5.3,1,.3,1.6,0,.5,0,1.1-.3,1.6-.2.4-.5.7-.8,1-.4.2-.8.3-1.3.3"/>
    <path id="Path_280" class="st0" d="M73.3,124.9c-.3,0-.5,0-.8-.1-.2,0-.5-.2-.7-.3-.2-.1-.4-.3-.5-.5-.1-.2-.2-.4-.3-.7h.8c0,.2.1.4.3.5.1.1.3.3.5.3.2,0,.4.1.7.1.2,0,.5,0,.7-.1.2,0,.4-.2.5-.3.1-.1.2-.3.2-.5,0-.2,0-.3-.1-.4,0-.1-.2-.2-.3-.3-.2,0-.3-.2-.5-.2l-1.1-.3c-.4,0-.7-.2-1-.5-.2-.2-.4-.6-.4-.9,0-.3,0-.6.3-.9.2-.3.4-.5.7-.6.3-.1.7-.2,1-.2.4,0,.8,0,1.1.2.3.1.5.3.7.6.2.2.2.5.2.8h-.7c0-.2,0-.4-.2-.6-.1-.1-.3-.3-.5-.3-.2,0-.4-.1-.6-.1-.2,0-.3,0-.5,0-.1,0-.3,0-.4.2-.1,0-.2.2-.3.3,0,.1-.1.3,0,.4,0,.2,0,.4.2.5.2.2.5.3.8.3l1.1.3c.2,0,.5.1.7.3.2.1.3.2.4.4,0,.1.2.3.2.5,0,.2,0,.3,0,.5,0,.3,0,.5-.3.8-.2.2-.4.4-.7.6-.4.1-.7.2-1.1.2"/>
    <path id="Path_281" class="st0" d="M79.2,119.2h.7v5h2.7v.6h-3.4v-5.6Z"/>
    <path id="Path_282" class="st0" d="M85.3,122.6h1.9l-1-2.7-1,2.7ZM83.8,124.8l2-5.6h.8l2,5.6h-.7l-.6-1.5h-2.3l-.6,1.5h-.7Z"/>
    <path id="Path_283" class="st0" d="M91.9,124.9c-.4,0-.9-.1-1.3-.3-.4-.2-.7-.6-.8-1-.4-1-.4-2.1,0-3.1.2-.4.5-.8.8-1,.4-.2.8-.4,1.3-.3.3,0,.5,0,.8.1.2,0,.5.2.7.4.2.2.3.4.5.6.1.2.2.4.2.7h-.8c0-.4-.3-.8-.7-1-.2-.1-.4-.2-.6-.2-.6,0-1.2.4-1.4,1-.1.4-.2.8-.2,1.3,0,.3,0,.7.1,1,0,.3.2.5.3.7.1.2.3.3.5.4.2,0,.4.1.7.1.2,0,.4,0,.6-.1.2,0,.3-.2.4-.3.1-.1.2-.3.3-.4,0-.1,0-.3.1-.4v-.5s-1.3,0-1.3,0v-.5h2.1v2.9h-.5v-.9c-.1.2-.2.3-.4.5-.2.1-.3.3-.6.3-.2,0-.5.1-.8.1"/>
    <path id="Path_284" class="st0" d="M98.1,124.2c.3,0,.6,0,.9-.2.3-.2.5-.4.6-.7.1-.4.2-.8.2-1.3,0-.4,0-.9-.2-1.3-.1-.3-.3-.6-.6-.7-.5-.3-1.2-.3-1.8,0-.3.2-.5.4-.6.8-.1.4-.2.8-.2,1.3,0,.4,0,.9.2,1.3.1.3.3.6.6.7.3.2.6.2.9.2M98.1,124.9c-.5,0-.9-.1-1.3-.3-.4-.2-.7-.6-.8-1-.4-1-.4-2.1,0-3.1.2-.4.5-.8.8-1,.8-.5,1.8-.5,2.6,0,.4.2.7.6.8,1,.2.5.3,1,.3,1.6,0,.5,0,1.1-.3,1.6-.2.4-.5.7-.8,1-.4.2-.8.3-1.3.3"/>
    <path id="Path_285" class="st0" d="M103.9,124.9c-.3,0-.5,0-.8-.1-.2,0-.5-.2-.7-.3-.2-.1-.4-.3-.5-.5-.1-.2-.2-.4-.3-.7h.8c0,.2.1.4.3.5.1.1.3.3.5.3.2,0,.4.1.7.1.2,0,.5,0,.7-.1.2,0,.4-.2.5-.3.1-.1.2-.3.2-.5,0-.2,0-.3-.1-.4,0-.1-.2-.2-.3-.3-.2,0-.3-.2-.5-.2l-1.1-.3c-.4,0-.7-.2-1-.5-.2-.2-.4-.6-.4-.9,0-.3,0-.6.3-.9.2-.3.4-.5.7-.6.3-.1.7-.2,1-.2.4,0,.8,0,1.1.2.3.1.5.3.7.6.2.2.2.5.2.8h-.7c0-.2,0-.4-.2-.6-.1-.1-.3-.3-.5-.3-.2,0-.4-.1-.6-.1-.2,0-.3,0-.5,0-.1,0-.3,0-.4.2-.1,0-.2.2-.3.3,0,.1-.1.3-.1.4,0,.2,0,.4.2.5.2.2.5.3.8.3l1.1.3c.2,0,.5.1.7.3.2.1.3.2.4.4,0,.1.2.3.2.5,0,.2,0,.3,0,.5,0,.3,0,.5-.3.8-.2.2-.4.4-.7.6-.4.1-.7.2-1.1.2"/>
    <path id="Path_286" class="st1" d="M81.2,54.1c0,14.9-12.1,27.1-27.1,27.1-14.9,0-27.1-12.1-27.1-27.1,0-14.9,12.1-27.1,27.1-27.1,14.9,0,27.1,12.1,27.1,27.1"/>
    <path id="Path_287" class="st1" d="M40.6,121.7c0,7.5-6.1,13.5-13.5,13.5s-13.5-6.1-13.5-13.5c0-7.5,6.1-13.5,13.5-13.5,7.5,0,13.5,6.1,13.5,13.5h0"/>
    <path id="Path_288" class="st0" d="M67.6,13.5c0,7.5-6.1,13.5-13.5,13.5-7.5,0-13.5-6.1-13.5-13.5,0-7.5,6.1-13.5,13.5-13.5,7.5,0,13.5,6.1,13.5,13.5"/>
    <path id="Path_289" class="st0" d="M27.1,108.2c14.9,0,27.1-12.1,27.1-27.1H0c0,14.9,12.1,27.1,27.1,27.1h0"/>
    <path id="Path_290" class="st1" d="M61.2,101.1v-12.8h9.2v2.5h-6.1v2.6h5.2v2.5h-5.2v2.7h6.2v2.5h-9.2Z"/>
    <path id="Path_291" class="st1" d="M84.3,101.1h-3.8l-2.6-4.3-2.6,4.3h-3.2l4.2-6.5-4.1-6.3h3.7l2.3,3.8,2.3-3.8h3.2l-3.9,5.9,4.5,6.9Z"/>
    <path id="Path_292" class="st1" d="M89,94.3h2.2c.5,0,1-.2,1.3-.6.3-.4.5-.9.5-1.4,0-.5-.2-1-.6-1.3-.4-.3-.8-.5-1.3-.5h-2.2v3.8ZM86,101.1v-12.8h4.9c.9,0,1.7.2,2.5.5.7.3,1.3.8,1.8,1.5.8,1.4.9,3.1,0,4.5-.4.6-.9,1.1-1.6,1.4-.8.3-1.6.5-2.4.5h-2.3v4.5h-3Z"/>
    <path id="Path_293" class="st1" d="M97.7,88.2h3v10.3h5.4v2.5h-8.4v-12.8Z"/>
    <path id="Path_294" class="st1" d="M113.2,98.8c1.1,0,2.1-.7,2.4-1.7.3-.8.4-1.6.3-2.4,0-.8,0-1.7-.3-2.4-.2-.5-.5-1-1-1.3-.9-.6-2-.6-2.9,0-.5.3-.8.8-1,1.4-.3.8-.4,1.6-.4,2.4,0,.8,0,1.6.4,2.4.2.5.5,1,1,1.3.4.3.9.4,1.4.4M113.2,101.2c-1.1,0-2.2-.2-3.2-.8-.9-.5-1.6-1.3-2.1-2.3-1-2.2-1-4.8,0-7,.5-1,1.2-1.8,2.1-2.3,1-.6,2.1-.8,3.2-.8,1.1,0,2.2.3,3.2.8.9.5,1.6,1.3,2.1,2.3,1,2.2,1,4.8,0,7-.5.9-1.2,1.7-2.1,2.3-1,.6-2.1.8-3.2.8"/>
    <path id="Path_295" class="st1" d="M126.5,94.1c1,0,1.8-.7,1.9-1.7,0,0,0,0,0,0,0-.5-.2-.9-.5-1.3-.3-.3-.8-.5-1.3-.5h-2.3v3.6h2.2ZM131.6,101.1h-3.1l-2-4.7h-2.2v4.7h-3v-12.8h5.6c.9,0,1.8.1,2.6.5.6.3,1.1.8,1.5,1.4.3.6.5,1.3.5,2,0,.6,0,1.2-.3,1.7-.2.4-.4.8-.8,1.2-.3.3-.7.6-1.1.8l2.3,5.2Z"/>
    <path id="Path_296" class="st1" d="M137.7,95.7h3l-1.5-4.6-1.5,4.6ZM133,101.1l4.6-12.8h3.1l4.6,12.8h-3l-.9-2.7h-4.3l-1,2.7h-3Z"/>
  </g>
</svg>