<svg xmlns="http://www.w3.org/2000/svg" id="Capa_1" viewBox="0 0 560 140"><defs><style>      .st0 {        fill: #00a99d;      }      .st1 {        fill: #0071bc;      }    </style></defs><g><path class="st1" d="M84.3,98.6c3.3,0,6-2.7,6-6v-7.9c0-3.3-2.7-6-6-6,0,0,0,0,0,0H31.6c-3.3,0-6-2.7-6-6v-40.5c0-3.3,2.7-6,6-6h52.6s0,0,0,0c3.3,0,6-2.7,6-6v-7.9c0-3.3-2.7-6-6-6H11.1c-3.3,0-6,2.7-6,6v117.2c0,3.3,2.7,6,6,6h8.5c3.3,0,6-2.7,6-6v-24.6c0-3.3,2.7-6,6-6h52.6s0,0,0,0Z"></path><path class="st0" d="M126.9,6h-8.5c-3.3,0-6,2.7-6,6v24.6c0,3.3-2.7,6-6,6h-52.6s0,0,0,0c-3.3,0-6,2.7-6,6v7.9c0,3.3,2.7,6,6,6,0,0,0,0,0,0h52.6c3.3,0,6,2.7,6,6v40.5c0,3.3-2.7,6-6,6h-52.6s0,0,0,0c-3.3,0-6,2.7-6,6v7.9c0,3.3,2.7,6,6,6h73.1c3.3,0,6-2.7,6-6V12.1c0-3.3-2.7-6-6-6Z"></path></g><g><path d="M216.9,22.9h9v20.9c0,2.9,1,5.3,3.1,7.4,2,2,4.5,3.1,7.4,3.1s5.4-1,7.4-3.1c2-2,3.1-4.5,3.1-7.4v-20.9h9v20.4c0,5.4-1.9,10-5.7,13.8-3.8,3.8-8.4,5.7-13.8,5.7s-10-1.9-13.8-5.7-5.7-8.4-5.7-13.8v-20.4Z"></path><path d="M274.7,26.6c2.5-2.2,5.5-3.6,9-4.2,3.4-.6,6.7-.2,9.8,1,3.3,1.3,5.9,3.4,7.9,6.3,2.2,3.2,3.3,7.1,3.3,11.6v20.5h-9v-20.5c0-3.3-1.1-5.9-3.3-7.8-1.9-1.7-4.3-2.6-7.2-2.6s-5.2.9-7.2,2.6c-2.2,1.9-3.3,4.5-3.3,7.7v20.5h-9V22.9h9v3.7Z"></path><path d="M343.6,57.4c-2.6,2.4-5.7,4-9.4,4.6-3.6.6-7,.3-10.4-1-3.5-1.4-6.2-3.6-8.3-6.6-2.3-3.3-3.4-7.4-3.4-12.1s1.1-8.8,3.4-12.1c2.1-3,4.9-5.2,8.3-6.5,3.3-1.3,6.8-1.6,10.4-1,3.6.6,6.8,2.1,9.4,4.6V4.7h9v57.1h-9v-4.4ZM324,34.6c-1.8,2.1-2.8,4.7-2.8,7.7s.9,5.6,2.8,7.7c2,2.3,4.8,3.5,8.3,3.5s6.2-1.2,8.3-3.5c1.8-2.1,2.8-4.7,2.8-7.7s-.9-5.6-2.8-7.7c-2.1-2.3-4.9-3.5-8.4-3.5s-6.2,1.2-8.3,3.5Z"></path><path d="M391.9,57.4c-2.6,2.4-5.7,4-9.4,4.6-3.6.6-7,.3-10.4-1-3.5-1.4-6.2-3.6-8.3-6.6-2.3-3.3-3.4-7.4-3.4-12.1s1.1-8.8,3.4-12.1c2.1-3,4.9-5.2,8.3-6.5,3.3-1.3,6.8-1.6,10.4-1,3.6.6,6.8,2.1,9.4,4.6v-4.4h9v38.9h-9v-4.4ZM389,50c1.8-2.1,2.8-4.7,2.8-7.7s-.9-5.6-2.8-7.7c-2-2.3-4.8-3.5-8.3-3.5s-6.2,1.2-8.3,3.5c-1.8,2.1-2.8,4.7-2.8,7.7s.9,5.6,2.8,7.7c2.1,2.3,4.9,3.5,8.4,3.5s6.2-1.2,8.3-3.5Z"></path><path d="M442.8,57.2c-1.9,1.8-4,3.1-6.4,4.1-2.4.9-4.8,1.4-7.4,1.4-5.6,0-10.4-2-14.3-5.9s-5.9-8.7-5.9-14.3,2-10.3,5.9-14.3,8.7-5.9,14.3-5.9,5,.5,7.4,1.4c2.4,1,4.5,2.3,6.4,4.1l-5.7,6.2c-2.3-2.1-5-3.2-8.1-3.2s-6.1,1.2-8.4,3.5-3.5,5.1-3.5,8.3,1.2,6.1,3.5,8.4c2.3,2.3,5.1,3.5,8.4,3.5s5.8-1.1,8.1-3.2l5.7,6.1Z"></path><path d="M459,7.5c1.1,1.1,1.6,2.3,1.6,3.9s-.5,2.8-1.6,3.9-2.4,1.6-3.8,1.6-2.8-.5-3.9-1.6-1.6-2.3-1.6-3.9.5-2.8,1.6-3.9,2.3-1.6,3.9-1.6,2.8.5,3.8,1.6ZM450.7,22.9h9v38.9h-9V22.9Z"></path><path d="M488.3,22.3c5.6,0,10.4,2,14.3,5.9,3.9,4,5.9,8.7,5.9,14.3s-2,10.3-5.9,14.3-8.7,5.9-14.3,5.9-10.3-2-14.3-5.9c-4-3.9-5.9-8.7-5.9-14.3s2-10.4,5.9-14.3c3.9-3.9,8.7-5.9,14.3-5.9ZM480,34.7c-1.8,2.1-2.8,4.7-2.8,7.7s.9,5.6,2.8,7.7c2,2.3,4.8,3.5,8.3,3.5s6.2-1.2,8.3-3.5c1.8-2.1,2.8-4.7,2.8-7.7s-.9-5.6-2.8-7.7c-2.1-2.3-4.9-3.5-8.4-3.5s-6.2,1.2-8.3,3.5ZM502,5.9l-9.7,11h-9.1l6.7-11h12.1Z"></path><path d="M524.9,26.6c2.5-2.2,5.5-3.6,9-4.2,3.4-.6,6.7-.2,9.8,1,3.3,1.3,5.9,3.4,7.9,6.3,2.2,3.2,3.3,7.1,3.3,11.6v20.5h-9v-20.5c0-3.3-1.1-5.9-3.3-7.8-1.9-1.7-4.3-2.6-7.2-2.6s-5.2.9-7.2,2.6c-2.2,1.9-3.3,4.5-3.3,7.7v20.5h-9V22.9h9v3.7Z"></path><path d="M242.1,104.5c-4.8-2.1-8.9-1.5-12.2,1.8s-3,4.4-3.1,7.3v20.5h-9v-38.9h9v5.4c3.6-6.4,9.8-7.9,18.8-4.3l-3.6,8.2Z"></path><path d="M248.5,95.2h9v20.9c0,2.9,1,5.3,3.1,7.4,2,2,4.5,3.1,7.4,3.1s5.4-1,7.4-3.1c2-2,3.1-4.5,3.1-7.4v-20.9h9v20.4c0,5.4-1.9,10-5.7,13.8-3.8,3.8-8.4,5.7-13.8,5.7s-10-1.9-13.8-5.7c-3.8-3.8-5.7-8.4-5.7-13.8v-20.4Z"></path><path d="M307.8,134.2h-9v-54.1l9-1.8v16.9h11.5v8h-11.5v31Z"></path><path d="M335.1,79.9c1.1,1.1,1.6,2.3,1.6,3.9s-.5,2.8-1.6,3.9-2.4,1.6-3.8,1.6-2.8-.5-3.9-1.6c-1.1-1.1-1.6-2.3-1.6-3.9s.5-2.8,1.6-3.9,2.3-1.6,3.9-1.6,2.8.5,3.8,1.6ZM326.9,95.2h9v38.9h-9v-38.9Z"></path><path d="M347.7,78.3h9v55.9h-9v-55.9Z"></path><path d="M368.6,78.3h9v55.9h-9v-55.9Z"></path><path d="M417.9,129.7c-2.6,2.4-5.7,4-9.4,4.6-3.6.6-7,.3-10.4-1-3.5-1.4-6.2-3.6-8.3-6.6-2.3-3.3-3.4-7.4-3.4-12.1s1.1-8.8,3.4-12.1c2.1-3,4.9-5.2,8.3-6.5,3.3-1.3,6.8-1.6,10.4-1,3.6.6,6.8,2.1,9.4,4.6v-4.4h9v38.9h-9v-4.4ZM415,122.4c1.8-2.1,2.8-4.7,2.8-7.7s-.9-5.6-2.8-7.7c-2-2.3-4.8-3.5-8.3-3.5s-6.2,1.2-8.3,3.5c-1.8,2.1-2.8,4.7-2.8,7.7s.9,5.6,2.8,7.7c2.1,2.3,4.9,3.5,8.4,3.5s6.2-1.2,8.3-3.5Z"></path><path d="M461,104.5c-4.8-2.1-8.9-1.5-12.2,1.8-2,2-3,4.4-3.1,7.3v20.5h-9v-38.9h9v5.4c3.6-6.4,9.8-7.9,18.8-4.3l-3.6,8.2Z"></path><path d="M206.6,5.9h-31.9c-1.5,0-2.6,1.2-2.6,2.6v51.1c0,1.5,1.2,2.6,2.6,2.6h3.7c1.5,0,2.6-1.2,2.6-2.6v-10.7c0-1.5,1.2-2.6,2.6-2.6h22.9s0,0,0,0c1.5,0,2.6-1.2,2.6-2.6v-3.5c0-1.4-1.2-2.6-2.6-2.6,0,0,0,0,0,0h-22.9c-1.4,0-2.6-1.2-2.6-2.6v-17.7c0-1.4,1.2-2.6,2.6-2.6h22.9s0,0,0,0c1.4,0,2.6-1.2,2.6-2.6v-3.5c0-1.5-1.2-2.6-2.6-2.6Z"></path><path d="M206.6,78.3h-31.9c-1.5,0-2.6,1.2-2.6,2.6v51.1c0,1.5,1.2,2.6,2.6,2.6h3.7c1.5,0,2.6-1.2,2.6-2.6v-10.7c0-1.5,1.2-2.6,2.6-2.6h22.9s0,0,0,0c1.5,0,2.6-1.2,2.6-2.6v-3.5c0-1.4-1.2-2.6-2.6-2.6,0,0,0,0,0,0h-22.9c-1.4,0-2.6-1.2-2.6-2.6v-17.7c0-1.4,1.2-2.6,2.6-2.6h22.9s0,0,0,0c1.4,0,2.6-1.2,2.6-2.6v-3.5c0-1.5-1.2-2.6-2.6-2.6Z"></path></g></svg>