<?xml version="1.0" encoding="UTF-8"?>
<svg id="Layer_1" xmlns="http://www.w3.org/2000/svg" xmlns:xlink="http://www.w3.org/1999/xlink" version="1.1" viewBox="0 0 370 110">
  <!-- Generator: Adobe Illustrator 29.2.1, SVG Export Plug-In . SVG Version: 2.1.0 Build 116)  -->
  <defs>
    <style>
      .st0 {
        fill: #74a5d1;
      }

      .st1 {
        fill: #c6dae4;
      }

      .st2 {
        fill: #f3f5f2;
      }

      .st3 {
        fill: #73908c;
      }

      .st4 {
        fill: #b2a847;
      }

      .st5 {
        fill: #b7d4e2;
      }

      .st6 {
        fill: #fff;
      }

      .st7 {
        fill: #ecf1f3;
      }

      .st8 {
        fill: #728f8b;
      }

      .st9 {
        fill: #6f8d8a;
      }

      .st10 {
        fill: #87a09d;
      }

      .st11 {
        fill: #6e8c88;
      }

      .st12 {
        fill: #748e8c;
      }

      .st13 {
        fill: #abd5e3;
      }
    </style>
  </defs>
  <g>
    <path class="st5" d="M4.7,68.7c-.4-1-.5-2.1-.8-3.2-.3-1.2-.5-2.5-.6-3.8,0-1.2-.3-2.4-.3-3.6s0-1.5,0-2.3c0-1.5,0-2.9.2-4.4,0-1.3.2-2.7.4-4,.3-1.9.7-3.8,1.2-5.6.6-2.2,1.4-4.4,2.2-6.5.9-2.2,2-4.3,3.2-6.3,1.4-2.3,3-4.6,4.8-6.7,1.1-1.3,2.2-2.6,3.5-3.8,2.2-2,4.4-3.9,6.8-5.5,2.4-1.6,4.8-3,7.4-4.2,3.6-1.7,7.4-2.9,11.3-3.6,1.6,0,3.1-.2,4.5-.4,2.7-.3,5.4-.2,8.1-.2s2.3.2,3.4.3c1.9.2,3.8.6,5.7,1,2.7.7,5.4,1.5,7.9,2.7,3.1,1.4,6,3,8.8,4.9,1.4,1,2.8,2.1,4.1,3.2,1.2,1.1,2.4,2.2,3.6,3.3,1.2,1.3,2.4,2.7,3.5,4,1.5,1.9,2.9,4,4.1,6.1,1.2,2,2.1,4.1,3,6.2.9,2.4,1.8,4.9,2.4,7.4.4,1.6.6,3.1.9,4.7.2,1.5.3,2.9.4,4.4,0,1.4,0,2.8,0,4.2,0,1.4-.2,2.7-.3,4.1-.2,2.1-.6,4.1-1.1,6.2,0,.4,0,.9-.4,1.2-.3,0-.5-.3-.7-.4-.4-.2-.6-.6-1.1-.7-.2-.3,0-.7,0-1s-.3-.8-.3-1.2c0-1.4-.7-2.5-1.6-3.4-.2-.2-.3-.6-.6-.7-.5-.3-.9-.7-1.5-1-.3-.2-.7-.3-1-.5-.9-.6-1.9-1-2.9-1.3-.2,0-.5,0-.7,0-.3.2-.7.2-1,.4s-.7.2-.9.4h0c0,0-.2,0-.3-.2-1-.8-2-1.6-3-2.4-.7-.6-1.4-1-2-1.6h.4c0,0,.2,0,.2,0h0q0,.2,0,0h-.2c0-.2-.2-.2-.2-.2,0-.2-.2-.3-.3-.4-.9-.6-1.7-1.3-2.6-1.9-2.1-1.5-4.2-3.1-6.3-4.6-.3-.2-.7-.6-1.2-.6,0-.2-.2-.3-.4-.3h0c0,0-.2,0-.3,0h0c0,0-.2,0-.3,0,0-.2-.4-.3-.6-.4-.4-.2-.8-.3-1.3-.3h0c-.2,0-.5,0-.8,0h0c-.5,0-1,.2-1.5.5-.8.4-1.4.9-2.2,1.3-2.8,1.8-5.3,4.1-7.7,6.3-1,.9-1.9,2-2.9,3s-.8.7-1.1,1.2c-.4,0-.6.3-.8.8h0c-.2,0-.3,0-.4.2-.3.3-.5.6-.8.9-1.5,1.6-3.1,3-4.8,4.4-.5.4-1,.7-1.5,1.1-.7.2-1.4.5-2.1.5-1.8.2-3.3-.3-4.8-1.3-1.4-.9-2.5-2.1-3.6-3.3-1.4-1.5-2.7-3-4.2-4.4-1-.9-2-1.6-3.3-2-.7-.2-1.4-.2-2.1-.3s-1.3,0-1.9,0c-1.3.2-2.4.9-3.5,1.5-1.4.8-2.5,2-3.8,3.1-.8.7-1.6,1.4-2.4,2.1-.6.5-1.2,1-1.9,1.5-.2,0-.3,0-.4.2h0c-.2,0-.3,0-.5.2-1.3.8-2.6,1.5-3.9,2.2-1,.6-2.1,1.2-3.1,1.9-.3.5-.6.9-1,.9h0ZM85.8,55.6h0c0,.2.2.2.2.2q0,0,0,0h0c0,0-.2,0-.3,0q.1,0,0,0h0Z"/>
    <path class="st0" d="M97.8,80.6c-1,1.9-2.3,3.8-3.6,5.6-1.9,2.5-3.9,4.8-6.2,7-3.1,2.9-6.6,5.4-10.4,7.4-3.7,2-7.5,3.5-11.5,4.5-1.9.5-3.9.9-5.9,1.1-1.8.2-3.6.3-5.4.4-2,0-4.1,0-6.1-.2-5.8-.6-11.4-2.1-16.8-4.7-4.6-2.2-8.8-5-12.5-8.5-4-3.8-7.5-8.1-10.1-12.9-.1-.1-.2-.3-.3-.5,1.1,0,2.1.2,3.2.2,1.5,0,2.9.2,4.4.3,2,0,3.9,0,5.9,0,4.5,0,9.1,0,13.6,0,3.4,0,6.9,0,10.3,0,1.7,0,3.5,0,5.2,0s4.9,0,7.3,0h9.3c.7,0,1.3,0,2,0h10.6c0,0,.2.4.4,0,.3,0,.5,0,.8,0,2,0,4.1,0,6.1,0,1.4,0,2.8,0,4.2,0,1.8,0,3.6.2,5.5.2h0ZM26,88.4c0,0,0,.2.1.3,0,.2,0,.3.2.5.3.3.6.6,1,.8.8.4,1.7.5,2.6.6.8,0,1.6,0,2.4-.2.4,0,.8-.2,1.2-.3,1.3-.6,2.7-.8,4.1-.8s2.2.2,3.3.3c1.1,0,2.1.3,3.2.4,1,0,1.8-.2,2.6-.6.7-.4,1.2-1.6,1-2.3-.2-.7-.7-1.1-1.3-1.2-.5,0-.9-.2-1.4-.2-1,0-1.8-.4-2.5-1.1-.4-.4-.7-.8-1.2-1.1-.7-.4-1.4-.8-2.2-.5-.6,0-1.1.2-1.6.3-1,0-1.8,0-2.7.5-1.8.7-3.6,1.2-5.4,1.9-1.2.4-2.3.9-3.2,1.8q0,0-.1-.2t-.1.2c-.4,0-.4.5,0,.9h0ZM41.9,94.6c0,.2.2.4.5.5-.2-.3-.3-.4-.5-.5,0-.4-.2-.7,0-1.1.5-.4,1-.8,1.6-1,0,.2,0,.3-.2.4-.2.3-.4.6-.5.9-.2.6,0,1,.5,1.4,0,0,0,0,.2,0,1.3.3,2.6,0,3.8,0,.5,0,.9-.2,1.4-.2.6,0,1.2-.2,1.8-.4h.2q0,0,0,0c.6,0,1.2,0,1.8-.3h0c1.2,0,2.3-.4,3.5-.3.3,0,.5,0,.8-.2.6-.2.8-1.2.4-1.8-.3-.4-.6-.6-.9-.9-.7-.7-1.5-1.2-2.5-1.4-.7-.2-1.5-.2-2.2-.3h-.4c-.2,0-.4,0-.6,0-1,0-2,.3-3,.6-.8.2-1.5.5-2.2,1-.2,0-.4.2-.6.2-.3,0-.5.2-.8.3,0,.2-.6.5-1.1.8-.4.3-1,.5-1.3,1-.3.6-.3.8.2,1.3h0Z"/>
    <path class="st11" d="M84.7,55.1c.6.6,1.3,1.1,2,1.6,1,.8,2,1.6,3,2.4,0,0,.2.2.3.2-.7.7-.8.7-1.4,0h0c-.9-.9-1.7-1.8-2.6-2.5-.7-.6-1.6-.9-2.3-1.6-.4-.3-.8-.6-1.3-.9h0c0,0,0,0,0,0-.7-.7-1.5-1-2.5-.7-.6,0-1.1.5-1.7.5-.4.4-.9.6-1.3.9-1.1,1.2-1.7,2.6-2.4,4,0,0,0,.2,0,.2,0,.8-.4,1.5-.7,2.2-.2.5-.3.9-.4,1.4-.2,1.3-.7,2.7-.7,4.1s-.2,1.6,0,2.4c0,.3,0,.6,0,.9,0,.6.2,1.3.3,1.9.3,1,.7,2,1.3,2.9.8,1.2,1.7,2.1,3,2.8.9.6,1.9,1,2.9,1.5,0,0,0,.2.2.3-.2.2-.4,0-.6,0h-3.4c-.2,0-.4,0-.6,0h-.3c0,0-.2,0-.4,0-1.1,0-2.3,0-3.4,0h-14.3c-1.7,0-3.4-.2-5.1,0h-.2c-.2-.2-.5,0-.7,0h-2.8c-1.3,0-2.7,0-4,0-.8-.2-1.6,0-2.5,0s-.8,0-1.2,0c0,0-.3,0-.4,0-1.3,0-2.5,0-3.8,0-.7,0-1.5,0-2.2,0-1.2,0-2.4,0-3.6,0-2.4,0-4.8,0-7.1-.3-1.8-.2-3.5,0-5.3-.3h-.7c-.3,0-.6,0-.9,0-.1,0-.2,0-.4,0-1.1,0-2.2-.2-3.2-.2s-2.8,0-4.3,0-.6-.2-.8-.6c-1.1-2.3-2-4.8-2.8-7.2,0-.3-.3-.5-.3-.8,0,0,.3-.2.5-.2.7-.3,1.3-.8,2.1-1,.4,0,.7-.4,1.2-.5.4,0,.8-.2,1.1-.5.7-.5,1.5-.9,2.2-1.4,1.7-1.1,3.2-2.4,4.7-3.8.8-.7,1.6-1.3,2.4-1.9.2-.2.4-.3.6-.4,1.3-1,2.6-2.1,3.9-3,1.8-1.3,3.8-1.4,5.6-.2,2.6,1.5,4.9,3.4,7,5.6.7.7,1.3,1.4,2.1,2,.5.4.9.8,1.4,1.2.6.5,1.2.7,1.9,1,1.2.5,2.3.8,3.6.6,1.9-.3,3.6-1.1,5.1-2.2s2.6-2.5,3.8-3.9c1.3-1.5,2.6-3.1,4-4.5,2.4-2.5,5-4.9,7.8-7,1.2-.9,2.3-1.8,3.7-2.4h.4c1.2-.3,2.3,0,3.4.4s2.1.9,3.1,1.6c2.6,1.6,5,3.5,7.4,5.4.2.2.5.5.9.7h0Z"/>
    <path class="st7" d="M69.4,47.1c-1.3.6-2.5,1.5-3.7,2.4-2.8,2.1-5.4,4.4-7.8,7-1.4,1.5-2.7,3-4,4.5-1.2,1.4-2.3,2.8-3.8,3.9-1.5,1.1-3.2,1.9-5.1,2.2-1.2.2-2.4,0-3.6-.6-.7-.3-1.3-.6-1.9-1-.5-.4-.9-.8-1.4-1.2-.8-.6-1.4-1.3-2.1-2-2.1-2.2-4.4-4.1-7-5.6-1.9-1.1-3.8-1.1-5.6.2-1.3,1-2.6,2-3.9,3-.2.2-.4.3-.6.4-.8.6-1.6,1.2-2.4,1.9-1.5,1.4-3,2.7-4.7,3.8-.7.4-1.5.9-2.2,1.4-.3.2-.7.3-1.1.5-.4,0-.8.4-1.2.5-.7.3-1.3.7-2.1,1-.2,0-.3,0-.5.2-.2-.2-.2-.5-.2-.8.4,0,.7-.4,1.1-.5.6,0,1.1-.3,1.7-.6,1.5-.7,2.9-1.6,4.3-2.5.5-.3,1.1-.7,1.5-1.2h0c.2,0,.3,0,.4-.2.6-.5,1.2-1,1.9-1.5.8-.7,1.6-1.4,2.4-2.1,1.2-1.1,2.3-2.3,3.8-3.1,1.1-.7,2.2-1.4,3.5-1.5.6,0,1.3-.2,1.9,0,.7,0,1.4,0,2.1.3,1.2.4,2.3,1.1,3.3,2,1.5,1.4,2.8,2.9,4.2,4.4,1.1,1.2,2.2,2.4,3.6,3.3,1.4,1,3.1,1.4,4.8,1.3.7,0,1.4-.3,2.1-.5h.2c1.3-.7,2.7-1.5,3.8-2.6s1.7-1.8,2.5-2.7c.4-.4.8-.8,1-1.3h0c.3-.2.5-.5.8-.8.2-.5.7-.8,1.1-1.2,1-1,1.9-2.1,2.9-3,2.4-2.2,4.9-4.4,7.7-6.3.7-.5,1.4-1,2.2-1.3.5-.2.9-.4,1.5-.4h0c.2,0,.5,0,.8,0h0c.4,0,.9.2,1.3.4,0,0-.2,0-.3,0-.6-.3-1.2-.2-1.8-.2-.6-.3-1.1-.2-1.6.2h0Z"/>
    <path class="st12" d="M51.7,80.2c-1.7,0-3.5,0-5.2,0-3.4.2-6.9,0-10.3,0-4.5.2-9.1,0-13.6,0s-3.9,0-5.9,0c-1.5,0-2.9-.2-4.4-.3-1.1,0-2.1-.2-3.2-.2-.3-.3-.4-.8-.6-1.2.2-.2.3,0,.4,0,1.7,0,3.5.2,5.2.3,2.1,0,4.3.3,6.4.3,2.4,0,4.8,0,7.1.3,1.3,0,2.5,0,3.8,0,2,0,3.9,0,5.8.2,2,0,4,0,6,0,1.2,0,2.4,0,3.6,0h1.3c1-.2,2,0,2.9,0,.2,0,.5,0,.7.2h0Z"/>
    <path class="st9" d="M100.7,67.7c.4,0,.7.4,1.1.7.2,0,.4.4.7.4,0,.2,0,.4,0,.6-.9,3.4-2.2,6.7-3.8,9.8h0c-1.3,0-2.6.3-3.9.2-.2,0-.5,0-.7,0h0c.2,0,.2,0,.3-.3.2-.5.6-1,1-1.4l.7-.7c0,0,.2-.2.3-.4.5-.2.7-.6,1-.9.6-.6,1.2-1.2,1.6-2s.2-.4.3-.5c.3-.3.5-.6.5-1s0-.2.2-.3c.2-.2.2-.5.3-.8.3-1.2.3-2.3.5-3.3h0Z"/>
    <path class="st8" d="M97.8,80.6c-1.8,0-3.6,0-5.4-.2-1.4,0-2.8,0-4.2,0-2-.2-4.1,0-6.1,0s-.5,0-.8,0v-.2h0c1.7,0,3.3,0,5-.2,1.9,0,3.9,0,5.8-.2h1.5c.6,0,1.2-.2,1.8,0,.8,0,1.7,0,2.5,0,.2,0,.3,0,.3.2-.1.4-.3.8-.5,1.1h0Z"/>
    <path class="st7" d="M47.5,80h-.3c0,0,0,0,0,0h-.3c0-.2-.2-.2-.4-.2h-1.6c-.2,0-.4,0-.6,0,1.3,0,2.7,0,4,0h2.8c.2,0,.5,0,.7,0h-3.9c0-.1-.2-.2-.3.2Z"/>
    <path class="st10" d="M98.3,79.6c0-.2,0-.3-.3-.2-.8.2-1.7,0-2.5,0s-1.2,0-1.8,0c0-.2,0-.3.2-.4.2.2.4,0,.7,0,1.3,0,2.6-.2,3.9,0,0,.1,0,.2-.2.4Z"/>
    <path class="st2" d="M100.7,67.7c-.2,1-.2,2.1-.5,3.2,0,.3,0,.6-.3.8s0,.2-.2.3c0,.4-.2.8-.5,1-.2,0-.2.4-.3.5-.2,0-.2,0-.2-.3.2-.4.4-.8.6-1.2.2-.5.5-1,.5-1.6,0-.7.3-1.3.4-2.1,0-1.3,0-2.6-.5-3.8-.3-.9-.7-1.6-1.3-2.2-1.3-1.2-2.8-2.2-4.4-3-.3-.2-.7-.3-1.1-.3-.5,0-1,0-1.5,0-.4.2-.9.3-1.3.6-.8.4-.8.5-.3,1.2q0,0,0,.2c.3.6.7,1.2.7,1.9s0,.3,0,.5c.3.6.3,1.3.2,1.9,0,.6-.2,1.2-.4,1.8,0,0,0,.2-.2.2h-.2v-.2c0-.7.4-1.2.3-1.9,0-.4,0-.8,0-1.3,0-.3-.2-.5-.3-.8-.2-.8-.5-1.6-.9-2.3,0-.2-.2-.5-.5-.5s0,0,0-.2c0,0,0-.2,0-.3-.4-.5-.8-1-1.3-1.5-.8-.7-1.6-1.4-2.5-2s-1.8-1.1-2.7-1.8c-1.5-1.1-3.5-.7-4.7.3-1.3,1.1-2.1,2.5-2.6,4.1-.3,1-.7,2-.9,2.9-.4,1.2-.7,2.4-.9,3.6-.2,1-.3,2-.2,3,0,1.8.4,3.6,1.2,5.3.6,1.2,1.3,2.2,2.4,2.9.2.2.5.3.7.5h0c-1.2-.6-2.2-1.5-3-2.7-.6-.9-1-1.8-1.3-2.9-.2-.6-.2-1.2-.3-1.9,0-.3,0-.6,0-.9-.2-.8,0-1.6,0-2.4,0-1.4.4-2.7.7-4.1,0-.5.2-.9.4-1.4.2-.7.5-1.4.7-2.2,0,0,0-.2,0-.2.7-1.4,1.3-2.9,2.4-4s.9-.6,1.3-.9c.6,0,1.1-.4,1.7-.5.8,0,1.6,0,2.2.6,0,0,.2,0,.3,0h.2c.5.3,1,.6,1.3,1,.7.7,1.6,1,2.3,1.6.9.8,1.8,1.6,2.6,2.4h0c.6.8.7.8,1.4,0h0c.3-.3.7-.2.9-.4.3-.2.7-.2,1-.4.2,0,.5,0,.7,0,1,.3,2,.7,2.9,1.3.3.2.6.3,1,.5.5.3.9.7,1.5,1,.3,0,.4.5.6.7.9,1,1.5,2.1,1.6,3.4,0,.4.3.8.3,1.2.2.9.1,1.2.2,1.5h0Z"/>
    <path class="st1" d="M69.4,47.1c.5-.4,1-.5,1.6-.5s1.2,0,1.8.2c0,0,.2,0,.3,0,.3,0,.5,0,.6.4,0,0,.2,0,.3,0h0c0,0,.2,0,.3,0h0c0,.2.2.3.4.3.5,0,.8.4,1.2.6,2.1,1.5,4.2,3.1,6.3,4.6.9.6,1.7,1.3,2.6,1.9,0,0,.3.2.3.4h-.4c-.4-.2-.7-.5-1-.8-2.4-1.9-4.8-3.7-7.4-5.4-1-.6-2-1.2-3.1-1.6-1.1-.4-2.2-.7-3.4-.4-.1.2-.3.2-.4.2h0Z"/>
    <path class="st3" d="M13.4,63.9c-.4.5-1,.9-1.5,1.2-1.5.9-2.9,1.8-4.4,2.5-.5.3-1.1.5-1.7.6,1-.7,2.1-1.3,3.1-1.9,1.3-.8,2.6-1.5,3.9-2.2.2,0,.4-.2.6-.2h0Z"/>
    <path class="st10" d="M54.8,59.4c-.2.5-.7.9-1,1.3-.8.9-1.6,1.8-2.5,2.7s-2.4,1.8-3.8,2.6h-.2c.4-.4,1-.7,1.5-1.1,1.7-1.3,3.3-2.8,4.8-4.4.3-.3.5-.6.8-.9.1,0,.2-.2.4-.2Z"/>
    <path class="st10" d="M55.5,58.7c-.2.3-.4.6-.8.8.2-.5.4-.7.8-.8Z"/>
    <path class="st7" d="M74.7,47.6c-.2,0-.3,0-.4-.3.1,0,.3.1.4.3Z"/>
    <path class="st3" d="M13.7,63.7c-.1,0-.2.2-.4.2,0-.2.3-.2.4-.2Z"/>
    <path class="st1" d="M85.1,55.1c0,0,.2,0,.2,0h0c0,0-.2,0-.2,0h0Z"/>
    <path class="st7" d="M74,47.2c0,0-.2,0-.3,0,.1,0,.2,0,.3,0Z"/>
    <path class="st1" d="M86,55.8c0,0,.2,0,.3,0h0c-.2,0-.3,0-.3,0h0Z"/>
    <path class="st7" d="M74.3,47.3c0,0-.2,0-.3,0,0,0,.2,0,.3,0Z"/>
    <path class="st1" d="M85.5,55.4h0Z"/>
    <path class="st1" d="M86,55.8h0c0-.2,0,0,0,0h0Z"/>
    <path class="st1" d="M86.2,55.9s.1,0,0,0c.1,0,0,0,0,0h0Z"/>
    <path class="st1" d="M71.8,46.4h0s0,0,0,0Z"/>
    <path class="st1" d="M70.9,46.3h0c0,.1,0,.1,0,0Z"/>
    <path class="st1" d="M85.5,55.4h0q0-.1,0,0h0Z"/>
    <path class="st1" d="M85.8,55.6h0Z"/>
    <path class="st9" d="M26.1,87.1c.9-.9,2.1-1.3,3.2-1.8,1.8-.7,3.7-1.2,5.4-1.9.9-.4,1.8-.6,2.7-.5,0,0-.2.2-.4.2-1.3.7-2.7,1.1-4,1.7-.9.3-1.8.6-2.7.9-.4,0-.8.2-1.2.4-.8,0-1.4.4-2.1.6.8,0,1.6-.3,2.4-.6,1.3-.4,2.6-.8,3.8-1.3,1.2-.4,2.4-.9,3.5-1.4.5-.2,1.1-.5,1.7-.5.9.3,1.7.7,2.4,1.4.3.3.6.5.9.8.6.5,1.2.9,2,1.1.7,0,1.5.2,2.2.3.6,0,1,.2,1.3.7,0,.9-.4,1.6-1.3,1.9-.6.2-1.3.4-2,.3-.9,0-1.7-.2-2.6-.3-.9,0-1.8-.3-2.8-.3-.8-.3-1.6-.3-2.4-.2-1.3,0-2.5.5-3.6,1-.4.2-.8.4-1.3.4h-1.3c-.7,0-1.4,0-2-.3-.1-.2-.2,0-.4,0s-.2,0-.2,0c0-.2-.1-.3-.2-.4-.7-.4-1.1-1.1-1-2h0Z"/>
    <path class="st9" d="M43.3,95.2c-.6-.3-.7-.7-.5-1.4,0-.3.2-.7.5-.9,0,0,.2-.2.2-.4h0c.2,0,.4,0,.5-.3h0q0,0,.2,0c.7-.5,1.6-.8,2.4-1.2,1.4-.7,2.9-.9,4.4-1.1.5,0,1,0,1.4,0,.7,0,1.4.2,2.1.5,1,.4,2,.9,2.7,1.9.2.4.2.6-.2.8-.4.2-.8.3-1.2.3s-.9,0-1.4,0c-.8,0-1.6.3-2.3.4-.6.2-1.1.2-1.6.4-.6,0-1.2.2-1.8.4-1.8.5-3.6.8-5.4.6h0Z"/>
    <path class="st7" d="M50.6,94.2c.4-.2.9-.3,1.4-.4.8-.2,1.5-.4,2.3-.4.5,0,.9,0,1.4,0s.8,0,1.2-.3c.4-.2.4-.5.2-.8-.6-1-1.6-1.4-2.7-1.9-.7-.3-1.4-.4-2.1-.5h-1.4c-1.5,0-3,.4-4.4,1.1-.8.4-1.6.7-2.4,1.2q0,0-.2,0h0c-.2,0-.4,0-.5.3h0c-.6.2-1.2.5-1.6,1v-.2c.3-.5.8-.7,1.3-1,.4-.3.9-.6,1.4-.8.2,0,.5-.3.8-.3.2,0,.4,0,.6-.2.7-.5,1.4-.8,2.2-1,1-.3,1.9-.6,3-.6s.4,0,.6,0c0,0,.3,0,.4,0,.7.2,1.5.2,2.2.3,1,.2,1.8.7,2.5,1.4.3.3.7.6.9.9.4.6.2,1.6-.4,1.8-.2,0-.5.2-.8.2-1.2,0-2.3.3-3.5.3h0c-.6.3-1.2.3-1.8.3,0,0,0,0,0,0h-.2c-.2-.2-.2-.3-.2-.4h0Z"/>
    <path class="st7" d="M38.7,88.9c.9,0,1.8.2,2.8.3.9,0,1.7.2,2.6.3.7,0,1.3,0,2-.3.9-.3,1.3-1,1.3-1.9s0-.6-.2-.8c-.4-.3-.8-.6-1.3-.7-.4,0-.8,0-1.3,0s-1.1,0-1.5-.5c-.4-.3-.8-.6-1.1-1-.6-.7-1.3-1.2-2.2-1.3-.2-.2-.5,0-.6-.2.8-.3,1.5,0,2.2.5.4.3.8.7,1.2,1.1.7.8,1.5,1.1,2.5,1.1s1,0,1.4.2c.7.2,1.1.6,1.3,1.2.2.8-.3,1.9-1,2.3-.8.5-1.6.7-2.6.6-1.1,0-2.1-.3-3.2-.4-1.1,0-2.2-.3-3.3-.3-.3-.2-.6,0-1-.2h2Z"/>
    <path class="st7" d="M75.4,79.8h1.1c.4,0,.8,0,1.2,0h-7.1c0,0-.3,0-.3,0-.7,0-1.3,0-2,0h-7.9c-.2-.2-.3-.2-.5,0h-.9c-.2-.2-.4,0-.5,0h-1.9c0-.2-.3,0-.5,0h-1.3c-.5,0-.9,0-1.4,0s-.9,0-1.3,0c1.7,0,3.4,0,5.1,0,.9,0,1.8,0,2.7,0h11.6c1.1,0,2.3,0,3.4,0,.3,0,.4,0,.5,0h0Z"/>
    <path class="st1" d="M38.7,88.9h-2c.4.2.8,0,1,.2-1.4,0-2.8.2-4.1.8-.4.2-.8.3-1.2.3-.3,0-.7,0-1,0,.5,0,.9-.3,1.3-.4,1.2-.5,2.4-.9,3.6-1,.8-.1,1.6-.1,2.4.2h0Z"/>
    <path class="st1" d="M50.6,94.2v.3c-.6.3-1.2.4-1.8.4s-.9.2-1.4.2c-1.3.2-2.6.4-3.8,0,0,0-.2,0-.2,0,1.9,0,3.7,0,5.5-.6.5,0,1.1-.2,1.7-.3h0Z"/>
    <path class="st1" d="M39.1,82.6c.2.2.5,0,.6.2-.4,0-.8,0-1.2,0-.6,0-1.2.3-1.7.5-1.2.5-2.3,1-3.5,1.4,0,0-.2,0-.2,0,1.3-.6,2.7-1,4-1.7,0,0,.2-.2.4-.2.5,0,1-.2,1.6-.2h0Z"/>
    <path class="st10" d="M56.5,80h1.9c.2,0,.4,0,.5,0-2.4.2-4.8,0-7.3,0-.2-.2-.5,0-.8,0,.5-.2,1,0,1.6,0h4.1Z"/>
    <path class="st5" d="M31.3,90.2c.3.2.7,0,1,0-.8.2-1.6.2-2.4.2-.9,0-1.8-.2-2.6-.6-.4-.2-.7-.5-1-.8-.1,0-.2-.3-.2-.5h0c.1,0,.2.2.3.3.2.4.6.6,1,.8.1,0,.2,0,.2,0,.1.2.2,0,.4,0,.7.3,1.3.3,2,.3h1.3Z"/>
    <path class="st12" d="M70.2,80.1c0,0,.2,0,.3,0h9.7c.2,0,.4,0,.6,0h-10.6Z"/>
    <path class="st10" d="M80.9,80.1c-.2-.2-.4,0-.6,0h-2.6c-.4-.2-.8,0-1.2,0h-.8c.2-.2.4,0,.6,0h3.4c.2,0,.4,0,.6,0,0,0,0,0,0,0,.2,0,.3.3.5.2.2,0,.2.2.4.3h0v.2c-.2.2-.3-.2-.4-.2h0Z"/>
    <path class="st1" d="M41.8,93.3v.2c0,.4,0,.7,0,1.1h0c-.5-.5-.5-.7,0-1.3h0Z"/>
    <path class="st5" d="M26,88.4c-.3-.4-.3-.8,0-1.3h0v1.3h0Z"/>
    <path class="st5" d="M41.9,94.6c.2,0,.3.2.4.5-.2,0-.4-.2-.4-.5h0Z"/>
    <path class="st6" d="M59.9,80.1c.2-.2.3-.2.5,0h-.5Z"/>
    <path class="st5" d="M26.1,88.6c-.1,0-.1,0-.1-.2h0c.1,0,.1,0,.1.2h0Z"/>
    <path class="st5" d="M26,87.1q0,0,.1-.2t.1.2h-.2Z"/>
    <path class="st1" d="M50.8,94.5s0,0,0,0c0,0,0,.2,0,0Z"/>
    <path class="st6" d="M56.5,80c-1.3,0-2.7,0-4,0s-1.1,0-1.6,0c-.9-.2-1.9-.3-2.9,0h-.5c0-.3.3-.2.6-.2h4.1c.4.2.9,0,1.3,0s.9,0,1.4,0c.4,0,.8,0,1.3,0,0,0,.2,0,.3,0h0Z"/>
    <path class="st1" d="M77.1,77.8h0c.6.2,1.2.5,1.9.8.3.3.7.4.9.7h0c-1-.5-2-.9-2.9-1.5h0Z"/>
    <path class="st4" d="M82,54.2c0,0-.2,0-.3,0-.7-.5-1.4-.6-2.2-.6,1-.2,1.8,0,2.5.7h0Z"/>
    <path class="st5" d="M80,79.3s0-.1,0,0c0,0,.2,0,.4.2,0,0,0,0,0,0-.2,0-.2-.2-.3-.3h0Z"/>
    <path class="st10" d="M75.4,79.8h-.4c0-.1.3-.1.4,0Z"/>
    <path class="st4" d="M82.2,54.3h0Z"/>
    <path class="st6" d="M47.1,79.9c0,0,0,0,0,0h0Z"/>
    <path class="st4" d="M90.4,67.6l.2-.2c0-.6.3-1.2.4-1.8,0-.6,0-1.3-.2-1.9,0-.2,0-.3,0-.5,0-.7-.4-1.3-.7-1.9,0,0,0,0,0-.2q-.5-.8.3-1.2c.4-.2.8-.4,1.3-.6.5-.2,1-.2,1.5,0,.4,0,.7.2,1.1.3,1.6.8,3.1,1.8,4.4,3,.7.6,1.1,1.4,1.3,2.2.4,1.2.6,2.5.5,3.8,0,.7-.2,1.4-.4,2.1-.3.6-.7,1.2-1.1,1.8-.9,1.4-1.9,2.7-2.9,4,0,.2-.3.3-.2.6h0c0,0,0,0,0,0h0c0,.2-.2.2-.2.4-.4.5-.8,1.1-1,1.7h0c0,.2-.2.3-.2.5h-.2s0,0,0,0c-.3-.6-.8-1-1.4-1.2h0c0-.2-.2-.2-.4-.3,0,0-.2,0-.2,0-.4-.5-.9-.7-1.4-1-.2-.2-.4-.4-.6-.5-.2-.2-.4-.6-.8-.6h0c0-.3-.2-.4-.4-.6-.4-.4-.8-.9-1.2-1.4,0-.2-.3-.4-.5-.5.6-.9,1.4-1.7,2-2.5.5-1,1.2-2,1.5-3.3h0Z"/>
    <path class="st1" d="M98.7,73.3c0,.2,0,.3.2.3-.4.8-1,1.4-1.6,2s-.5.7-1,.9h0c0-.3.2-.3.3-.4.8-.9,1.6-1.8,2.2-2.8h0Z"/>
    <path class="st10" d="M94,79.1c.3-.6.6-1.2,1-1.7.2,0,.2,0,.2-.3h0c0,0,0-.2,0-.2h0c.2,0,.2-.2.4-.2,0,0,0,0,.2.2-.2.2-.4.5-.7.7-.4.4-.8.9-1,1.4,0,0,0,.2-.3,0h0Z"/>
    <path class="st1" d="M96,76.8c0,0,0,0-.2-.2,0,0,.2-.2.4-.3h0c0,.3-.1.4-.3.5Z"/>
    <path class="st5" d="M93.5,79.5h0c-.4,0-.8,0-1.3,0-1.9,0-3.9,0-5.8.2-1.7,0-3.3,0-5,0h0c1.3,0,2.6,0,3.9-.2,2.3,0,4.6,0,6.8-.2,0,0,.2,0,.2,0-.3-.5-.7-.8-1.1-1.3h0c0,0,.2,0,.2,0,0,.2.2.3.4.3h0c0,.8.5,1.1,1.2,1.2.2,0,.3,0,.4,0h0Z"/>
    <path class="st5" d="M81.4,79.8h0c0,0,0,0,0,0h0Z"/>
    <path class="st4" d="M81.4,79.8h0c-.2,0-.2,0-.4-.2,0-.3-.4-.5-.5-.8,0,0-.2-.2-.3-.2-.3,0-.7,0-1,0-.6-.3-1.2-.6-1.9-.9-.2-.2-.5-.3-.7-.5-1.1-.8-1.9-1.8-2.4-2.9-.8-1.7-1.1-3.4-1.2-5.3,0-1,0-2,.2-3,.2-1.2.5-2.4.9-3.6.3-1,.7-2,.9-2.9.5-1.6,1.3-3,2.6-4.1,1.2-1,3.2-1.4,4.7-.3.9.6,1.8,1.2,2.7,1.8.9.6,1.7,1.2,2.5,2,.5.4.9,1,1.3,1.5,0,0,.2.2,0,.3,0,0,0,.2,0,.2.3,0,.4.3.5.5.4.7.8,1.5.9,2.3,0,.3.3.5.3.8,0,.4,0,.8,0,1.3,0,.7-.2,1.3-.3,1.9v.2c-.2.4-.3.8-.6,1.2-.6,1-1.2,2-2,2.9-.4.5-.9.9-1.2,1.5h-.2c-.2-.3-.4-.7-.4-1,0-.7-.3-1.4-.4-2.2,0-1.1,0-2.3,0-3.4,0-.4,0-.8.2-1.2.3-.6.4-1.2.6-1.8.3-.4.5-.8.7-1.3,0,0,0-.2,0-.3q0,0,0,0h0c0,.2,0,.3,0,.4-.5.3-.7.8-.9,1.3,0,0,0,.2-.2.3-.7,1.5-1.1,3-1.3,4.7,0,.6,0,1.2.2,1.8,0,1.2.4,2.3,1,3.4,0,.2-.3.4-.5.6s-.4.4-.5.7h0c0,0,0,0,0,0h0c-.4.3-.7.6-1,1-.2.3-.6.4-.7.9h0q0,0,0,0h0c0,0,0,0,0,0h0c-.3.2-.5.4-.6.8h0c0,0-.2,0-.2.3h0c0,0,0,.2,0,.2h0c-.3,0-.3.2-.2.4,0,.2-.3.4-.3.7-.2-.2-.2,0,0,0h0ZM87.5,61.6h0Z"/>
    <path class="st3" d="M96.3,76.4c-.2,0-.3.2-.4.3,0,0-.2.3-.4.2,0-.2,0-.4.2-.6,1-1.3,2-2.6,2.9-4,.4-.6.7-1.2,1.1-1.8,0,.6-.3,1.1-.5,1.6,0,.4-.4.8-.6,1.2-.6,1-1.3,1.9-2.2,2.7,0,.1,0,.2,0,.4h0Z"/>
    <path class="st7" d="M86.5,73.1c.3-.6.8-1,1.2-1.5.7-.9,1.4-1.9,2-2.9.2-.4.4-.8.6-1.2h.2c-.3,1.2-1,2.3-1.8,3.2-.7.8-1.4,1.6-2,2.5h0c0,.1,0,0,0,0h0Z"/>
    <path class="st0" d="M38.6,83c.4-.2.8,0,1.2,0,.9.2,1.6.6,2.2,1.3.3.4.8.7,1.1,1,.4.4,1,.4,1.5.5.4,0,.8,0,1.3,0s1,.3,1.3.7c.2.2.3.5.2.8-.3-.4-.8-.6-1.3-.7-.7,0-1.5,0-2.2-.3-.8-.2-1.4-.5-2-1.1-.3-.3-.6-.5-.9-.8-.7-.7-1.5-1-2.4-1.4h0Z"/>
    <path class="st5" d="M33.1,84.8c0,0,0,0,.2,0-1.2.5-2.5.9-3.8,1.3h-.3c.4-.2.8-.3,1.2-.4.9-.4,1.8-.7,2.7-1Z"/>
    <path class="st0" d="M26,87.1h.1c-.1.9.3,1.6,1,2.2.2,0,.3.2.2.4-.4,0-.8-.4-1-.8-.1,0-.1-.2-.3-.3,0,0,0-.2-.1-.2,0-.5,0-.9,0-1.3h0Z"/>
    <path class="st10" d="M29.3,86.2h.3c-.8.3-1.6.5-2.4.6.6-.2,1.3-.6,2.1-.6Z"/>
    <path class="st0" d="M28,89.9c-.2,0-.3,0-.4,0,.2-.1.3-.1.4,0Z"/>
    <path class="st0" d="M43.4,92.6c0-.3.3-.2.5-.3-.1.2-.3.3-.5.3Z"/>
    <path class="st0" d="M43.9,92.3c0,0,0,0,.2,0-.1,0-.1,0-.2,0Z"/>
    <path class="st12" d="M79,78.6c.3,0,.7,0,1,0s.2,0,.3.2c.2.3.4.5.5.8-.2,0-.3-.2-.5-.2,0,0-.2-.2-.4-.2-.2-.4-.6-.4-.9-.7h0Z"/>
    <path class="st2" d="M86.5,73.1v.2c0,.2,0,.3,0,.4.3.6.8,1,1.2,1.4.2.3.5.5.9.6h0c0,.4.4.5.8.6.2,0,.5.3.6.5,0,0,0,0-.2.2-.2,0-.4-.3-.6-.3-1.3-.6-2.4-1.5-3.1-2.7,0,0,0-.2-.2-.3-.7-1-.9-2.2-1-3.4,0-.6-.3-1.2-.2-1.8.2-1.6.6-3.2,1.3-4.7,0,0,0-.2.2-.3h.2c-.2.6-.3,1.3-.6,1.8-.2.4,0,.8-.2,1.2-.3,1.1-.3,2.2,0,3.4,0,.7.3,1.4.4,2.2,0,.4.3.7.4,1-.1.1,0,0,0,0h0Z"/>
    <path class="st10" d="M88.6,75.8c-.4,0-.6-.3-.9-.6-.4-.5-.9-.8-1.2-1.4,0,0,0-.3,0-.4h0c.2,0,.4.3.5.5.3.5.8,1,1.2,1.4.2,0,.4.2.4.5h0Z"/>
    <path class="st12" d="M93.5,79.5h-.2c-.7,0-1.1-.4-1.2-1.2.6.2,1.1.5,1.4,1.2Z"/>
    <path class="st1" d="M89.8,77c0,0,.2,0,.2-.2.5.3,1,.6,1.4,1h0c-.5-.1-1-.4-1.5-.8h0Z"/>
    <path class="st10" d="M89.4,76.4c-.3,0-.7-.2-.8-.6.4,0,.6.3.8.6Z"/>
    <path class="st12" d="M92.1,78.3c-.2,0-.4,0-.4-.3.1,0,.3,0,.4.3Z"/>
    <path class="st3" d="M95.3,77.1c0,.2,0,.2-.2.3,0,0,0-.2.2-.3Z"/>
    <path class="st3" d="M95.5,76.9h0,0Z"/>
    <path class="st3" d="M95.4,77h0q0,0,0,0Z"/>
    <path class="st11" d="M89.8,77c.5.3,1,.7,1.5,1,.4.4.8.8,1.1,1.3,0,.2-.2,0-.2,0-2.3,0-4.6,0-6.8.2-1.3,0-2.6,0-3.9,0,0-.3.2-.5.3-.7,0,0,.2-.3.2-.4h0c0,0,0-.2,0-.2h0c0,0,.2,0,.2-.3h0c.2-.2.6-.4.6-.8h0c0,0,0,0,0,0h0c0,0,0,0,0,0h0c.7-.5,1.1-1.2,1.7-1.8h0c0,0,0-.2,0-.2h0c.3,0,.4-.2.5-.4.2-.2.3-.5.6-.6.8,1.2,1.8,2.1,3.1,2.7.3,0,.5.1.7.2h0Z"/>
    <path class="st1" d="M86.1,74c-.3,0-.4.4-.6.6s-.3.4-.5.4c0-.3.2-.5.5-.7.2-.2.4-.4.5-.6,0,0,0,0,0,.3h0Z"/>
    <path class="st1" d="M84.8,75.1h0c-.6.7-1,1.4-1.7,1.9,0-.4.5-.6.7-.9.3-.4.6-.7,1-1h0Z"/>
    <path class="st1" d="M86.4,63.5h-.2c.2-.5.4-1,.9-1.3h0c-.2.5-.4.9-.7,1.3Z"/>
    <path class="st5" d="M82.9,77.3c0,.4-.4.5-.6.8,0-.4.3-.6.6-.8Z"/>
    <path class="st5" d="M81.9,78.6c0,0-.2.3-.2.4-.1-.2-.1-.3.2-.4Z"/>
    <path class="st5" d="M82.3,78c0,.2,0,.2-.2.3,0-.1,0-.2.2-.3Z"/>
    <path class="st1" d="M87.1,62.3c0,0,0-.2,0-.3h0c0,0,0,.2,0,.3h0Z"/>
    <path class="st5" d="M82,78.3c0,0,0,.2,0,.2,0,0,0,0,0-.2Z"/>
    <path class="st1" d="M85,75c0,0,0,0,0,0,0,0,0,0,0,0Z"/>
    <path class="st1" d="M87.2,62s.1,0,0,0c.1,0,.1,0,0,0h0Z"/>
    <path class="st1" d="M83.2,77c0,0,0,0,0,0,0,0,0,0,0,0Z"/>
    <path class="st1" d="M83,77.1c0,0,0,0,0,0h0Z"/>
    <path class="st1" d="M87.5,61.6h0Z"/>
    <path class="st1" d="M87.5,61.6h0Z"/>
  </g>
  <g>
    <path class="st13" d="M165.2,31.1v3.6c0,2.8.6,4.8,1.8,6.2s2.9,2.1,5,2.1,3.4-.5,4.4-1.5,1.6-2.2,1.6-3.7h2.8c0,.9-.2,1.8-.5,2.6-.4.9-.9,1.7-1.6,2.5-.7.8-1.6,1.4-2.8,1.9s-2.5.7-4.1.7c-2.9,0-5.2-.9-6.9-2.8-1.7-1.9-2.5-4.5-2.5-8.1v-3.6c0-3.5.9-6.2,2.6-8.1s4-2.9,6.9-2.9,2.8.2,3.9.7c1.2.5,2.1,1.1,2.8,1.9s1.3,1.7,1.6,2.6c.4,1,.6,1.9.6,2.9h-2.8c0-1.5-.6-2.8-1.6-3.9s-2.6-1.7-4.5-1.7-3.6.7-4.8,2.2c-1.3,1.5-1.9,3.6-1.9,6.4Z"/>
    <path class="st13" d="M193.6,25.9c2.4,0,4.3.7,5.8,2.2s2.2,3.5,2.2,6.1v3c0,2.6-.8,4.6-2.2,6.1s-3.4,2.2-5.8,2.2-4.3-.7-5.8-2.2-2.2-3.5-2.2-6.1v-3c0-2.5.8-4.5,2.3-6s3.3-2.3,5.7-2.3h0ZM188.3,34.4v2.4c0,1.2.2,2.3.6,3.2.4.9,1,1.6,1.8,2.1s1.7.7,2.8.7c1.6,0,2.9-.6,3.8-1.6.9-1.1,1.4-2.6,1.4-4.4v-2.4c0-1.8-.5-3.3-1.4-4.4s-2.2-1.6-3.8-1.6-2.8.5-3.8,1.7-1.4,2.5-1.4,4.3h0Z"/>
    <path class="st13" d="M207.6,45.1v-18.9h2.8v2.9h.1c.3-.8.9-1.6,1.7-2.2s2-1,3.6-1,.6,0,1.1.1v2.6c-.3,0-.8-.1-1.4-.1-1.1,0-2,.2-2.8.6s-1.4,1-1.7,1.7-.6,1.5-.6,2.3v11.9h-2.8Z"/>
    <path class="st13" d="M229.8,45.4c-2.7,0-4.5-1-5.4-3.1h-.1v9.4h-2.8v-25.5h2.7v3h.1c.3-.9,1-1.7,2-2.3s2.2-.9,3.7-.9c2.2,0,4,.7,5.3,2.2,1.3,1.4,2,3.4,2,5.9v3.5c0,2.5-.7,4.4-2,5.9-1.5,1.2-3.3,1.9-5.5,1.9h0ZM229.4,42.9c1.5,0,2.7-.5,3.6-1.6.9-1.1,1.4-2.6,1.4-4.6v-2.1c0-2-.5-3.5-1.4-4.6s-2.1-1.6-3.7-1.6-2.8.5-3.7,1.5-1.4,2.4-1.4,4.1v3.5c0,1.5.5,2.8,1.4,3.8s2.2,1.6,3.8,1.6Z"/>
    <path class="st13" d="M250,25.9c2.4,0,4.3.7,5.8,2.2,1.5,1.5,2.2,3.5,2.2,6.1v3c0,2.6-.8,4.6-2.2,6.1s-3.4,2.2-5.8,2.2-4.3-.7-5.8-2.2-2.2-3.5-2.2-6.1v-3c0-2.5.8-4.5,2.3-6s3.4-2.3,5.7-2.3h0ZM244.8,34.4v2.4c0,1.2.2,2.3.6,3.2s1,1.6,1.8,2.1,1.7.7,2.8.7c1.6,0,2.9-.6,3.8-1.6.9-1.1,1.4-2.6,1.4-4.4v-2.4c0-1.8-.5-3.3-1.4-4.4s-2.2-1.6-3.8-1.6-2.8.5-3.8,1.7-1.4,2.5-1.4,4.3h0Z"/>
    <path class="st13" d="M264,45.1v-18.9h2.8v2.9h.1c.3-.8.9-1.6,1.7-2.2s2-1,3.5-1,.6,0,1.1.1v2.6c-.3,0-.8-.1-1.5-.1-1.1,0-2,.2-2.8.6s-1.4,1-1.7,1.7-.5,1.5-.5,2.3v11.9h-2.7Z"/>
    <path class="st13" d="M282.9,45.4c-.9,0-1.7,0-2.5-.4-.8-.3-1.4-.7-2-1.2-.5-.5-1-1.1-1.3-1.8s-.5-1.5-.5-2.4.2-2.1.7-2.9c.5-.8,1.2-1.5,2.3-1.9s2.2-.7,3.6-.7h5.1v-1.9c0-1.3-.4-2.2-1.1-2.8-.7-.6-1.8-.9-3.1-.9-2.2,0-3.5.8-4,2.3h-2.7c.1-1.6.8-2.8,2-3.6,1.2-.8,2.8-1.2,4.8-1.2s3.7.5,5,1.5,1.9,2.6,1.9,4.7v13h-2.8v-2.6h-.1c-1,1.8-2.9,2.8-5.3,2.8h0ZM283.6,42.9c1.4,0,2.5-.4,3.4-1.2s1.4-1.9,1.4-3.1v-2.2h-5c-1.3,0-2.2.3-2.8.9-.6.6-.9,1.3-.9,2.3s.4,1.9,1.2,2.5c.7.6,1.6.8,2.7.8h0Z"/>
    <path class="st13" d="M296.8,37.3v-3.3c0-2.5.7-4.4,2.1-5.9s3.3-2.2,5.7-2.2,3.9.6,5.1,1.7,1.9,2.4,2,3.8h-2.8c-.1-.3-.2-.6-.3-.9s-.4-.6-.7-1c-.3-.3-.7-.6-1.3-.8-.6-.2-1.2-.3-2-.3-1.6,0-2.8.5-3.7,1.5s-1.3,2.4-1.3,4.1v3.2c0,1.1.2,2.1.6,2.9.4.8,1,1.5,1.7,1.9.8.4,1.6.7,2.6.7,2.5,0,3.9-.9,4.4-2.6h2.8c-.1,1.4-.7,2.7-1.9,3.7-1.2,1.1-3,1.6-5.3,1.6s-4.3-.7-5.7-2.2-2-3.5-2-5.9h0Z"/>
    <path class="st13" d="M316.8,20.3c0-.6.2-1.1.6-1.5s.9-.6,1.5-.6,1.1.2,1.5.6.6.9.6,1.5-.1.8-.3,1.1-.4.6-.8.7c-.3.2-.7.3-1.1.3-.6,0-1.1-.2-1.5-.6-.3-.4-.5-.9-.5-1.5h0ZM317.5,45.1v-18.9h2.8v18.9h-2.8Z"/>
    <path class="st13" d="M334.5,25.9c2.4,0,4.3.7,5.8,2.2s2.2,3.5,2.2,6.1v3c0,2.6-.8,4.6-2.2,6.1s-3.4,2.2-5.8,2.2-4.3-.7-5.8-2.2-2.2-3.5-2.2-6.1v-3c0-2.5.8-4.5,2.3-6s3.4-2.3,5.7-2.3h0ZM329.3,34.4v2.4c0,1.2.2,2.3.6,3.2s1,1.6,1.8,2.1,1.7.7,2.8.7c1.6,0,2.9-.6,3.8-1.6.9-1.1,1.4-2.6,1.4-4.4v-2.4c0-1.8-.5-3.3-1.4-4.4s-2.2-1.6-3.8-1.6-2.8.5-3.8,1.7-1.4,2.5-1.4,4.3h0ZM334,23.1l4.3-6.4h2.9l-5,6.4h-2.2Z"/>
    <path class="st13" d="M348.2,45.1v-18.9h2.8v3.5h.2c.8-2.5,2.7-3.8,5.7-3.8s3.5.5,4.7,1.6,1.7,2.6,1.7,4.6v13h-2.8v-12.1c0-1.5-.4-2.7-1.1-3.5s-1.8-1.2-3.1-1.2-3,.6-3.9,1.7-1.4,2.6-1.4,4.4v10.6h-2.8Z"/>
  </g>
  <g>
    <path class="st13" d="M161.6,95.5v-38h24.9v6.8h-16.9v9.9h15.4v6.5h-15.4v14.8h-8Z"/>
    <path class="st13" d="M219.3,95.5h-7.4v-4.7h-.5c-.7,1.7-1.7,3-3.1,3.9-1.4.9-3.2,1.4-5.4,1.4s-3-.2-4.2-.7-2.3-1.2-3.2-2.1-1.6-2.1-2-3.4c-.5-1.3-.7-2.8-.7-4.5v-19h7.7v17c0,4,1.8,6.1,5.3,6.1s3.4-.6,4.4-1.7,1.5-2.7,1.5-4.6v-16.8h7.7v29.1h-.1Z"/>
    <path class="st13" d="M236.8,59.5v7.2h6v6h-6v13.1c0,1.3.3,2.2.9,2.8.6.6,1.5.9,2.9.9h1.2c.3,0,.7,0,1,0v5.8c-.5,0-1,.2-1.7.2-.7,0-1.4,0-2.1,0-1.8,0-3.3-.2-4.5-.4-1.2-.3-2.3-.8-3-1.4-.8-.6-1.4-1.5-1.7-2.5-.4-1-.5-2.2-.5-3.6v-14.8h-4.5v-6h4.5v-7.2h7.5Z"/>
    <path class="st13" d="M249.2,66.4h7.4v4.6h.5c.2-.7.5-1.4,1-2s1-1.2,1.7-1.6,1.4-.8,2.2-1.1,1.7-.4,2.6-.4,1.1,0,1.6,0,1,.2,1.4.3v7c-.2,0-.4,0-.7-.2s-.6-.1-.9-.1-.7,0-1,0h-1c-1,0-2,.2-2.9.4s-1.6.7-2.2,1.3-1.1,1.3-1.5,2.1c-.3.8-.5,1.7-.5,2.7v16.1h-7.7v-29.1h0Z"/>
    <path class="st13" d="M285.6,96.1c-2.2,0-4.2-.3-6-1s-3.3-1.7-4.5-3-2.2-2.9-2.8-4.8-1-4-1-6.4.3-4.5,1-6.3,1.6-3.5,2.8-4.8c1.2-1.3,2.7-2.3,4.5-3s3.8-1,6-1,4.2.3,6,1,3.3,1.7,4.5,3,2.2,2.9,2.8,4.8c.7,1.9,1,4,1,6.3s-.3,4.5-1,6.4c-.6,1.9-1.6,3.5-2.8,4.8s-2.7,2.3-4.5,3c-1.8.6-3.8,1-6,1h0ZM285.6,89.8c2,0,3.6-.8,4.8-2.3s1.7-3.7,1.7-6.6-.1-2.6-.4-3.7-.7-2-1.3-2.8c-.5-.8-1.2-1.3-2-1.7-.8-.4-1.7-.6-2.7-.6s-1.9.2-2.7.6c-.8.4-1.5,1-2,1.7-.5.8-1,1.7-1.2,2.8s-.4,2.3-.4,3.7c0,2.8.5,5,1.7,6.6.8,1.6,2.4,2.3,4.5,2.3h0Z"/>
    <path class="st13" d="M306.1,66.4h7.4v4.7h.5c.7-1.7,1.7-2.9,3.2-3.9,1.5-.9,3.2-1.4,5.4-1.4,3.2,0,5.7.9,7.4,2.8,1.7,1.9,2.5,4.6,2.5,8.1v18.8h-7.7v-17c0-2-.4-3.5-1.3-4.6s-2.2-1.5-4-1.5-1.7.2-2.4.4c-.7.3-1.3.7-1.8,1.3s-.9,1.2-1.1,2-.4,1.7-.4,2.6v16.7h-7.7v-29h0Z"/>
    <path class="st13" d="M352.8,96.1c-2.2,0-4.2-.3-6-1s-3.3-1.7-4.5-3-2.2-2.9-2.8-4.8-1-4-1-6.4.3-4.5,1-6.3,1.6-3.5,2.8-4.8c1.2-1.3,2.7-2.3,4.5-3s3.8-1,6-1,4.2.3,6,1,3.3,1.7,4.5,3,2.2,2.9,2.8,4.8c.7,1.9,1,4,1,6.3s-.3,4.5-1,6.4c-.6,1.9-1.6,3.5-2.8,4.8s-2.7,2.3-4.5,3c-1.8.6-3.8,1-6,1h0ZM352.8,89.8c2,0,3.6-.8,4.8-2.3s1.7-3.7,1.7-6.6-.1-2.6-.4-3.7-.7-2-1.3-2.8c-.5-.8-1.2-1.3-2-1.7-.8-.4-1.7-.6-2.7-.6s-1.9.2-2.7.6c-.8.4-1.5,1-2,1.7-.5.8-1,1.7-1.2,2.8s-.4,2.3-.4,3.7c0,2.8.5,5,1.7,6.6.9,1.6,2.4,2.3,4.5,2.3h0Z"/>
  </g>
  <rect class="st13" x="126.7" y="1.9" width="2" height="106.2"/>
</svg>