<svg enable-background="new 0 0 260 160" viewBox="0 0 260 160" xmlns="http://www.w3.org/2000/svg"><path d="m59.2 96.31v44.33l13.79 12.48c.79.71 2.06.71 2.85 0l13.05-11.81v-45z" fill="#581945"/><path d="m50.18 53.61v64.08l13.79 18.04c.79 1.03 2.06 1.03 2.85 0l13.05-17.07v-65.05z" fill="#c7143b" opacity=".87"/><path d="m79.86 69.7v-48.97l-13.79-13.79c-.79-.79-2.06-.79-2.85 0l-13.04 13.04v49.72z" fill="#c7143b"/><path d="m88.88 66.63v-37.53l-13.79-10.56c-.79-.6-2.06-.6-2.85 0l-13.05 10v38.1h29.69z" fill="#fbbf07" opacity=".87"/><path d="m79.86 96.31h37.16l10.46-13.79c.6-.79.6-2.06 0-2.85l-9.9-13.05h-37.72z" fill="#fbbf07"/><path d="m59.2 104.83h40.46l11.39-13.79c.65-.79.65-2.06 0-2.85l-10.78-13.05h-41.07z" fill="#911443" opacity=".87"/><path d="m79.86 66.63h-58.13l-16.36 13.79c-.93.79-.93 2.06 0 2.85l15.48 13.05h59.01z" fill="#911443"/><g fill="#581945"><path d="m79.86 58.58h-49.79l-14.02 13.79c-.8.79-.8 2.06 0 2.85l13.26 13.05h50.55z" opacity=".87"/><path d="m134.82 55.55c-.16 0-.31-.04-.46-.12s-.22-.2-.22-.36v-10.83c0-.13.05-.24.15-.32.1-.09.23-.13.39-.14h3.04c.64 0 1.22.12 1.74.35s.92.6 1.22 1.1.45 1.18.45 2.03v.15c0 .85-.15 1.53-.46 2.04s-.72.88-1.25 1.11-1.12.35-1.77.35h-2.17v4.17c0 .16-.07.28-.21.36-.12.07-.28.11-.45.11zm.68-5.78h2.17c.67 0 1.19-.19 1.56-.56.38-.38.56-.95.56-1.72v-.19c0-.78-.19-1.36-.56-1.73-.38-.37-.9-.56-1.56-.56h-2.17z"/><path d="m146.82 55.55c-.17 0-.33-.04-.47-.12s-.21-.2-.21-.36v-10.04h-2.61c-.14 0-.25-.06-.34-.19s-.13-.28-.13-.45c0-.15.04-.29.11-.42.08-.13.19-.19.35-.19h6.57c.16 0 .28.06.35.19.08.13.11.27.11.42 0 .16-.04.31-.11.44-.08.13-.19.2-.35.2h-2.61v10.03c0 .16-.07.28-.21.36-.12.09-.28.13-.45.13z"/><path d="m153.89 55.55c-.16 0-.31-.04-.46-.12s-.22-.2-.22-.36v-10.83c0-.16.07-.28.22-.35.15-.08.3-.11.46-.11.17 0 .33.04.47.11.14.08.21.19.21.35v10.82c0 .16-.07.28-.21.36-.14.09-.3.13-.47.13z"/><path d="m134.91 75.57c-.17 0-.33-.04-.48-.13-.15-.08-.23-.21-.23-.38v-11.33c0-.17.08-.29.23-.37s.31-.12.48-.12c.18 0 .34.04.49.12s.22.2.22.37v11.34c0 .17-.07.3-.22.38s-.31.12-.49.12z"/><path d="m142.9 75.67c-.69 0-1.3-.12-1.85-.36s-.98-.63-1.3-1.17-.48-1.25-.48-2.14v-5.08c0-.89.16-1.6.48-2.14s.75-.93 1.3-1.17 1.15-.36 1.81-.36c.74 0 1.39.13 1.93.38.55.25.97.6 1.28 1.05s.46.98.46 1.59c0 .27-.06.45-.19.55-.12.1-.3.14-.52.14-.19 0-.35-.04-.49-.11-.13-.07-.21-.2-.22-.38-.05-.39-.15-.73-.3-1.02-.16-.29-.39-.51-.71-.67s-.72-.24-1.21-.24c-.7 0-1.24.19-1.63.58s-.58.99-.58 1.81v5.08c0 .82.19 1.43.58 1.81.39.39.93.58 1.63.58s1.24-.19 1.64-.58c.39-.39.59-.99.59-1.81v-1.72h-2.01c-.16 0-.28-.06-.36-.19-.08-.12-.13-.26-.13-.4 0-.15.04-.28.13-.4.08-.12.2-.19.36-.19h2.94c.16 0 .28.05.36.15s.13.23.13.37v2.38c0 .89-.16 1.6-.48 2.14s-.76.93-1.31 1.17c-.54.23-1.16.35-1.85.35z"/><path d="m150.65 75.57c-.16 0-.3-.04-.44-.13-.13-.08-.2-.21-.2-.38v-11.33c0-.17.08-.29.23-.37s.31-.12.48-.12c.18 0 .34.04.49.12s.22.2.22.37v10.56h4.62c.16 0 .27.06.35.19.07.13.11.28.11.45 0 .16-.04.3-.11.44s-.19.2-.35.2z"/><path d="m159.91 75.57c-.16 0-.3-.04-.44-.13-.13-.08-.2-.21-.2-.38v-11.32c0-.17.07-.3.2-.38.14-.08.28-.13.44-.13h6.01c.18 0 .31.07.38.2.07.14.11.28.11.42 0 .17-.04.32-.13.46-.08.13-.21.2-.36.2h-5.23v4.29h2.63c.16 0 .28.06.36.19.08.12.13.26.13.42 0 .14-.04.26-.11.39-.07.12-.2.19-.38.19h-2.63v4.3h5.23c.16 0 .28.06.36.19s.13.28.13.46c0 .15-.04.29-.11.42-.07.14-.2.2-.38.2h-6.01z"/><path d="m172.24 75.71c-.72 0-1.35-.11-1.89-.33s-.96-.48-1.25-.78-.44-.57-.44-.8c0-.11.03-.23.09-.35s.14-.22.24-.3.19-.13.3-.13c.13 0 .27.07.4.2s.29.3.49.48c.2.19.45.35.77.48.31.13.73.2 1.23.2.47 0 .88-.08 1.23-.23s.62-.38.82-.69.3-.7.3-1.17c0-.48-.1-.88-.3-1.18s-.47-.56-.8-.76-.69-.38-1.08-.54-.78-.32-1.18-.48-.76-.37-1.09-.61-.59-.55-.79-.94c-.2-.38-.3-.87-.3-1.45 0-.62.11-1.13.34-1.54.22-.41.52-.73.89-.96s.77-.4 1.21-.5c.43-.1.86-.14 1.27-.14.3 0 .62.02.96.07s.66.11.96.2.55.21.74.35.29.31.29.5c0 .09-.02.19-.07.31s-.11.23-.2.32c-.09.1-.2.14-.34.14-.12 0-.28-.05-.46-.16s-.42-.21-.72-.32-.69-.16-1.17-.16c-.4 0-.78.06-1.14.17-.35.11-.64.3-.84.56-.21.26-.31.6-.31 1.03 0 .4.1.74.3 1s.47.47.79.64c.33.17.69.32 1.08.46s.79.3 1.18.49.76.41 1.09.68.6.62.8 1.05.3.98.3 1.63c0 .81-.16 1.48-.48 2s-.76.91-1.31 1.16c-.55.27-1.19.4-1.91.4z"/><path d="m179.85 75.57c-.17 0-.33-.04-.48-.13-.15-.08-.23-.21-.23-.38v-11.33c0-.17.08-.29.23-.37s.31-.12.48-.12c.18 0 .34.04.49.12s.22.2.22.37v11.34c0 .17-.07.3-.22.38-.14.08-.31.12-.49.12z"/><path d="m184.27 75.57c-.11 0-.24-.03-.38-.08s-.25-.12-.34-.21c-.08-.09-.13-.19-.13-.3 0-.04.01-.09.02-.13l3.46-11.22c.04-.17.15-.29.32-.37s.35-.12.54-.12c.2 0 .39.04.56.13.17.08.28.21.32.36l3.44 11.22c.02.05.03.08.03.12 0 .11-.05.21-.14.3-.1.09-.21.16-.35.22-.13.06-.26.08-.39.08-.12 0-.23-.03-.32-.08s-.15-.13-.19-.24l-.76-2.51h-4.44l-.73 2.51c-.03.11-.1.19-.19.24-.08.06-.19.08-.33.08zm1.61-4h3.78l-1.89-6.34z"/><path d="m197.89 75.71c-.72 0-1.35-.11-1.89-.33s-.96-.48-1.25-.78-.44-.57-.44-.8c0-.11.03-.23.09-.35s.14-.22.24-.3.19-.13.3-.13c.13 0 .27.07.4.2s.29.3.49.48c.2.19.45.35.77.48.31.13.73.2 1.23.2.47 0 .88-.08 1.23-.23s.62-.38.82-.69.3-.7.3-1.17c0-.48-.1-.88-.3-1.18s-.47-.56-.8-.76-.69-.38-1.08-.54-.78-.32-1.18-.48-.76-.37-1.09-.61-.59-.55-.79-.94c-.2-.38-.3-.87-.3-1.45 0-.62.11-1.13.34-1.54.22-.41.52-.73.89-.96s.77-.4 1.21-.5c.43-.1.86-.14 1.27-.14.3 0 .62.02.96.07s.66.11.96.2.55.21.74.35.29.31.29.5c0 .09-.02.19-.07.31s-.11.23-.2.32c-.09.1-.2.14-.34.14-.12 0-.28-.05-.46-.16s-.42-.21-.72-.32-.69-.16-1.17-.16c-.4 0-.78.06-1.14.17-.35.11-.64.3-.84.56-.21.26-.31.6-.31 1.03 0 .4.1.74.3 1s.47.47.79.64c.33.17.69.32 1.08.46s.79.3 1.18.49.76.41 1.09.68.6.62.8 1.05.3.98.3 1.63c0 .81-.16 1.48-.48 2s-.76.91-1.31 1.16c-.56.27-1.19.4-1.91.4z"/><path d="m134.91 96.38c-.17 0-.33-.04-.48-.13-.15-.08-.23-.21-.23-.38v-11.34c0-.13.05-.25.16-.34s.24-.14.41-.15h3.19c.67 0 1.28.12 1.82.36s.97.63 1.28 1.16.47 1.24.47 2.13v.15c0 .89-.16 1.6-.48 2.13s-.76.92-1.31 1.16-1.17.36-1.86.36h-2.28v4.37c0 .17-.07.3-.22.38-.13.1-.29.14-.47.14zm.71-6.06h2.28c.7 0 1.24-.2 1.64-.59.39-.39.59-1 .59-1.81v-.2c0-.82-.2-1.43-.59-1.81-.39-.39-.94-.58-1.64-.58h-2.28z"/><path d="m143.83 96.38c-.11 0-.24-.03-.38-.08s-.25-.12-.34-.21c-.08-.09-.13-.19-.13-.3 0-.05.01-.09.02-.14l3.46-11.22c.04-.17.15-.29.32-.37s.35-.12.54-.12c.2 0 .39.04.56.13.17.08.28.21.32.36l3.44 11.22c.02.05.03.08.03.12 0 .11-.05.21-.14.3-.1.09-.21.16-.35.22-.13.06-.26.08-.39.08-.12 0-.23-.03-.32-.08s-.15-.13-.19-.24l-.76-2.51h-4.44l-.73 2.51c-.03.11-.1.19-.19.24-.08.06-.19.09-.33.09zm1.61-4h3.78l-1.89-6.34z"/><path d="m156.47 96.38c-.18 0-.34-.04-.49-.13-.15-.08-.22-.21-.22-.38v-10.51h-2.73c-.15 0-.26-.07-.35-.2s-.13-.29-.13-.47c0-.16.04-.3.12-.44.08-.13.2-.2.37-.2h6.88c.17 0 .29.07.37.2s.12.28.12.44c0 .17-.04.32-.12.46s-.2.21-.37.21h-2.73v10.51c0 .17-.07.3-.22.38-.16.09-.32.13-.5.13z"/><path d="m169.71 96.41c-.13 0-.26-.06-.36-.17-.11-.11-.2-.24-.28-.39l-2.53-4.94h-1.96v4.96c0 .17-.07.3-.22.38s-.31.13-.49.13c-.17 0-.33-.04-.48-.13-.15-.08-.23-.21-.23-.38v-11.34c0-.13.05-.25.14-.34.1-.09.22-.14.36-.15h3.09c.69 0 1.31.1 1.88.31s1.02.56 1.36 1.05.51 1.16.51 2.02c0 .69-.11 1.25-.33 1.7s-.52.8-.9 1.05-.81.43-1.28.53l2.5 4.74c.02.05.04.09.05.13s.02.08.02.11c0 .12-.04.24-.13.35-.08.11-.19.2-.32.27-.13.08-.26.11-.4.11zm-5.13-6.68h2.18c.7 0 1.26-.17 1.69-.51s.64-.91.64-1.7c0-.8-.21-1.36-.64-1.7-.43-.33-.99-.5-1.69-.5h-2.18z"/><path d="m174.34 96.38c-.17 0-.33-.04-.48-.13-.15-.08-.23-.21-.23-.38v-11.34c0-.17.08-.29.23-.37s.31-.12.48-.12c.18 0 .34.04.49.12s.22.2.22.37v11.34c0 .17-.07.3-.22.38-.15.09-.31.13-.49.13z"/><path d="m179.53 96.38c-.17 0-.33-.04-.48-.13-.15-.08-.23-.21-.23-.38v-11.13c0-.26.08-.44.23-.54s.31-.15.48-.15c.18 0 .33.03.46.1s.25.17.35.3c.11.13.21.3.31.5l2.67 5.08 2.67-5.08c.11-.2.22-.37.33-.5s.23-.23.35-.3c.13-.07.28-.1.45-.1.19 0 .36.05.5.15s.21.28.21.54v11.14c0 .17-.07.3-.22.38s-.31.13-.49.13-.34-.04-.49-.13c-.15-.08-.22-.21-.22-.38v-8.86l-2.56 4.79c-.08.13-.16.23-.25.3-.09.06-.19.09-.29.09-.08 0-.17-.03-.26-.08-.1-.06-.18-.16-.26-.3l-2.55-4.86v8.92c0 .17-.07.3-.22.38-.14.08-.31.12-.49.12z"/><path d="m195.12 96.48c-.69 0-1.3-.12-1.85-.36s-.98-.63-1.3-1.16-.48-1.25-.48-2.15v-5.08c0-.9.16-1.62.48-2.15s.75-.92 1.3-1.16 1.16-.36 1.85-.36 1.3.12 1.86.36c.55.24.99.63 1.31 1.16s.48 1.25.48 2.15v5.08c0 .9-.16 1.62-.48 2.15s-.76.92-1.31 1.16-1.17.36-1.86.36zm0-1.28c.7 0 1.24-.19 1.64-.58.39-.39.59-.99.59-1.81v-5.08c0-.82-.2-1.43-.59-1.81-.39-.39-.94-.58-1.64-.58s-1.24.19-1.63.58-.58.99-.58 1.81v5.08c0 .82.19 1.43.58 1.81s.93.58 1.63.58z"/><path d="m203.12 96.38c-.17 0-.33-.04-.48-.13-.15-.08-.23-.21-.23-.38v-11.34c0-.18.08-.31.23-.38s.31-.11.48-.11c.18 0 .33.03.46.1.12.07.24.17.34.3s.2.3.3.5l4.18 8.22v-8.62c0-.17.08-.29.23-.37s.31-.12.48-.12c.18 0 .34.04.49.12s.22.2.22.37v11.34c0 .17-.07.3-.22.38s-.31.13-.49.13-.35-.06-.5-.19c-.15-.12-.28-.28-.38-.46l-4.4-8.49v8.62c0 .17-.07.3-.22.38-.15.09-.31.13-.49.13z"/><path d="m214.3 96.38c-.17 0-.33-.04-.48-.13-.15-.08-.23-.21-.23-.38v-11.34c0-.17.08-.29.23-.37s.31-.12.48-.12c.18 0 .34.04.49.12s.22.2.22.37v11.34c0 .17-.07.3-.22.38-.14.09-.31.13-.49.13z"/><path d="m218.72 96.38c-.11 0-.24-.03-.38-.08s-.25-.12-.34-.21c-.08-.09-.13-.19-.13-.3 0-.05.01-.09.02-.14l3.46-11.22c.04-.17.15-.29.32-.37s.35-.12.54-.12c.2 0 .39.04.56.13.17.08.28.21.32.36l3.44 11.22c.02.05.03.08.03.12 0 .11-.05.21-.14.3-.1.09-.21.16-.35.22-.13.06-.26.08-.39.08-.12 0-.23-.03-.32-.08s-.15-.13-.19-.24l-.76-2.51h-4.44l-.73 2.51c-.03.11-.1.19-.19.24-.08.06-.19.09-.33.09zm1.61-4h3.78l-1.89-6.34z"/><path d="m230.04 96.38c-.16 0-.3-.04-.44-.13-.13-.08-.2-.21-.2-.38v-11.34c0-.17.08-.29.23-.37s.31-.12.48-.12c.18 0 .34.04.49.12s.22.2.22.37v10.57h4.62c.16 0 .27.06.35.19.07.13.11.28.11.45 0 .16-.04.3-.11.44-.07.13-.19.2-.35.2z"/><path d="m239.31 96.38c-.16 0-.3-.04-.44-.13-.13-.08-.2-.21-.2-.38v-11.32c0-.17.07-.3.2-.38.14-.08.28-.13.44-.13h6.01c.18 0 .31.07.38.2s.11.28.11.42c0 .17-.04.32-.13.46-.08.13-.21.2-.36.2h-5.23v4.29h2.63c.16 0 .28.06.36.19.08.12.13.26.13.42 0 .13-.04.26-.11.39-.07.12-.2.19-.38.19h-2.63v4.3h5.23c.16 0 .28.06.36.19s.13.28.13.46c0 .15-.04.29-.11.42s-.2.2-.38.2h-6.01z"/><path d="m251.64 96.51c-.72 0-1.35-.11-1.89-.33s-.96-.48-1.25-.78-.44-.57-.44-.8c0-.11.03-.23.09-.35s.14-.22.24-.3.19-.13.3-.13c.13 0 .27.07.4.2.13.14.29.3.49.48.2.19.45.35.77.48.31.14.73.2 1.23.2.47 0 .88-.08 1.23-.23s.62-.38.82-.69.3-.7.3-1.17c0-.48-.1-.88-.3-1.18s-.47-.56-.8-.76-.69-.38-1.08-.54-.78-.32-1.18-.48-.76-.37-1.09-.61-.59-.55-.79-.94c-.2-.38-.3-.87-.3-1.45 0-.62.11-1.13.34-1.54.22-.41.52-.73.89-.96.37-.24.77-.4 1.21-.5.43-.1.86-.14 1.27-.14.3 0 .62.02.96.07s.66.11.96.2.55.21.74.35.29.31.29.5c0 .09-.02.19-.07.31s-.11.23-.2.32c-.09.1-.2.14-.34.14-.12 0-.28-.05-.46-.16s-.42-.21-.72-.32-.69-.16-1.17-.16c-.4 0-.78.06-1.14.17-.35.11-.64.3-.84.56-.21.26-.31.6-.31 1.03 0 .41.1.74.3 1s.47.47.79.64.69.32 1.08.46.79.3 1.18.49.76.41 1.09.68.6.62.8 1.05.3.98.3 1.63c0 .81-.16 1.48-.48 2s-.76.91-1.31 1.16c-.56.28-1.19.4-1.91.4z"/><path d="m134.84 117.19c-.19 0-.35-.05-.46-.14-.12-.1-.18-.21-.18-.35v-11.35c0-.13.06-.25.18-.35s.27-.14.46-.14h2.99c.69 0 1.3.12 1.86.36.55.24.99.63 1.31 1.16s.48 1.25.48 2.15v4.98c0 .9-.16 1.62-.48 2.15s-.76.92-1.31 1.16-1.17.36-1.86.36h-2.99zm.78-1.29h2.21c.7 0 1.24-.19 1.64-.58.39-.39.59-.99.59-1.81v-4.98c0-.82-.2-1.43-.59-1.81-.39-.39-.94-.58-1.64-.58h-2.21z"/><path d="m145.76 117.19c-.16 0-.3-.04-.44-.13-.13-.08-.2-.21-.2-.38v-11.32c0-.17.07-.3.2-.38.14-.08.28-.13.44-.13h6.01c.18 0 .31.07.38.2s.11.28.11.42c0 .17-.04.32-.13.46-.08.13-.21.2-.36.2h-5.23v4.29h2.63c.16 0 .28.06.36.19.08.12.13.26.13.42 0 .13-.04.26-.11.39-.07.12-.2.19-.38.19h-2.63v4.3h5.23c.16 0 .28.06.36.19s.13.28.13.46c0 .15-.04.29-.11.42s-.2.2-.38.2h-6.01z"/><path d="m163.39 117.29c-.65 0-1.25-.12-1.81-.36-.55-.24-.99-.63-1.32-1.17s-.49-1.25-.49-2.14v-5.08c0-.89.17-1.6.5-2.14s.77-.93 1.32-1.17 1.15-.36 1.81-.36c.76 0 1.42.13 1.96.39s.96.61 1.25 1.05.44.94.44 1.49c0 .32-.06.52-.18.62s-.3.15-.53.15-.4-.04-.51-.13c-.12-.09-.18-.21-.19-.35-.01-.17-.04-.36-.09-.58s-.15-.43-.3-.64-.37-.38-.66-.51-.67-.2-1.14-.2c-.72 0-1.27.19-1.66.58s-.58.99-.58 1.81v5.08c0 .82.2 1.43.59 1.81.39.39.96.58 1.7.58.47 0 .85-.07 1.12-.2.28-.13.48-.3.62-.51.13-.2.23-.42.29-.65s.1-.45.12-.65c.01-.17.08-.29.2-.37s.29-.12.51-.12c.24 0 .41.05.53.16s.18.32.18.63c0 .55-.15 1.05-.45 1.51s-.72.82-1.27 1.08c-.56.25-1.21.39-1.96.39z"/><path d="m170.94 117.19c-.17 0-.33-.04-.48-.13-.15-.08-.23-.21-.23-.38v-11.34c0-.17.08-.29.23-.37s.31-.12.48-.12c.18 0 .34.04.49.12s.22.2.22.37v4.86h4.57v-4.86c0-.17.08-.29.23-.37s.31-.12.48-.12c.18 0 .34.04.49.12s.22.2.22.37v11.34c0 .17-.07.3-.22.38s-.31.13-.49.13c-.17 0-.33-.04-.48-.13-.15-.08-.23-.21-.23-.38v-5.3h-4.57v5.3c0 .17-.07.3-.22.38-.14.08-.31.13-.49.13z"/><path d="m182.13 117.19c-.17 0-.33-.04-.48-.13-.15-.08-.23-.21-.23-.38v-11.34c0-.17.08-.29.23-.37s.31-.12.48-.12c.18 0 .34.04.49.12s.22.2.22.37v11.34c0 .17-.07.3-.22.38s-.31.13-.49.13z"/><path d="m187.26 117.19c-.16 0-.3-.04-.44-.13-.13-.08-.2-.21-.2-.38v-11.34c0-.17.08-.29.23-.37s.31-.12.48-.12c.18 0 .34.04.49.12s.22.2.22.37v10.56h4.62c.16 0 .27.06.35.19.07.13.11.28.11.45 0 .16-.04.3-.11.44-.07.13-.19.2-.35.2h-5.4z"/><path d="m199.09 117.29c-.69 0-1.3-.12-1.85-.36s-.98-.63-1.3-1.16-.48-1.25-.48-2.15v-5.08c0-.9.16-1.62.48-2.15s.75-.92 1.3-1.16 1.16-.36 1.85-.36 1.3.12 1.86.36c.55.24.99.63 1.31 1.16s.48 1.25.48 2.15v5.08c0 .9-.16 1.62-.48 2.15s-.76.92-1.31 1.16c-.56.24-1.18.36-1.86.36zm0-1.29c.7 0 1.24-.19 1.64-.58.39-.39.59-.99.59-1.81v-5.08c0-.82-.2-1.43-.59-1.81-.39-.39-.94-.58-1.64-.58s-1.24.19-1.63.58-.58.99-.58 1.81v5.08c0 .82.19 1.43.58 1.81.39.39.93.58 1.63.58z"/><path d="m207.02 117.19c-.16 0-.3-.04-.44-.13-.13-.08-.2-.21-.2-.38v-11.32c0-.17.07-.3.2-.38.14-.08.28-.13.44-.13h6.01c.18 0 .31.07.38.2s.11.28.11.42c0 .17-.04.32-.13.46-.08.13-.21.2-.36.2h-5.23v4.29h2.63c.16 0 .28.06.36.19.08.12.13.26.13.42 0 .13-.04.26-.11.39-.07.12-.2.19-.38.19h-2.63v4.3h5.23c.16 0 .28.06.36.19s.13.28.13.46c0 .15-.04.29-.11.42s-.2.2-.38.2h-6.01zm2.21-14.09c-.13 0-.25-.06-.35-.19-.1-.12-.15-.25-.15-.39 0-.18.07-.3.22-.37l1.97-1.05c.07-.02.12-.03.17-.03.15 0 .26.06.35.18.08.12.13.25.13.4 0 .18-.08.31-.24.4l-1.91.98c-.03.01-.06.03-.09.04-.04.02-.07.03-.1.03z"/></g></svg>