<?xml version="1.0" encoding="UTF-8"?>
<svg id="Capa_1" xmlns="http://www.w3.org/2000/svg" xmlns:xlink="http://www.w3.org/1999/xlink" version="1.1" viewBox="0 0 360 88">
  <!-- Generator: Adobe Illustrator 29.2.1, SVG Export Plug-In . SVG Version: 2.1.0 Build 116)  -->
  <defs>
    <style>
      .st0 {
        fill: #f5c902;
      }

      .st1 {
        fill: #b8e1f3;
      }
    </style>
  </defs>
  <path class="st0" d="M34,18.2v-5.1h-5.3l1.4-9h-6.1l-1.4,9h-6.2l1.4-9h-6.2l-1.4,9h-6.2v5.1h5.4l-1.1,7.2H2.2v5.1h5.4l-1.4,9h6.2l1.4-9h6.2l-1.4,9h6.1l1.4-9h6.1v-5.1h-5.3l1.1-7.2h6ZM20.7,25.4h-6.2l1.1-7.2h6.2l-1.1,7.2Z"/>
  <polygon class="st1" points="35.1 4.1 35.1 9.8 38.3 9.8 38.3 39.5 46.1 39.5 46.1 9.8 46.1 4.1 38.3 4.1 35.1 4.1"/>
  <path class="st1" d="M68.5,13.6c-1.9-.8-4.1-1.2-6.9-1.2h-3c-1.1,0-2.1.1-3.1.1-1,.1-1.9.1-2.7.2v6.6c1-.1,2.1-.1,3.4-.2,1.2,0,2.5-.1,3.6-.1h2.8c1.4,0,2.5.3,3.1,1s1,1.7,1,3.1h-4.7c-2.4,0-4.4.3-6.3.9-1.8.6-3.2,1.5-4.2,2.8-1,1.2-1.5,2.8-1.5,4.8s.4,3.3,1.2,4.6,1.9,2.3,3.4,2.9c1.4.7,3.1,1,5,1s3.4-.3,4.7-1c1.3-.7,2.3-1.6,3-2.9.3-.6.6-1.2.8-1.9v5.1h6.2v-16.2c0-2.5-.5-4.5-1.5-6-1-1.6-2.4-2.8-4.3-3.6M64.3,34.4c-.7.3-1.5.5-2.4.5-1.4,0-2.4-.3-3.1-1-.7-.7-1.1-1.5-1.1-2.6s.4-2,1.1-2.7c.7-.7,1.8-1,3.1-1h4.9v2.1c-.1,1.3-.4,2.3-.8,3.1-.5.7-1,1.2-1.7,1.6"/>
  <path class="st1" d="M100,18.6c0-.3-.3-.6-.4-1-.9-1.8-2.1-3.2-3.7-4.1-1.6-.9-3.4-1.4-5.6-1.4s-3.5.3-5,1-2.8,1.6-3.9,2.8-2,2.6-2.5,4.2c-.6,1.6-.9,3.4-.9,5.2v1.1c0,1.9.3,3.6.8,5.2.6,1.6,1.4,3,2.4,4.2s2.3,2.1,3.8,2.8,3.1,1,4.9,1,3.9-.4,5.4-1.3c1.5-.9,2.7-2.2,3.6-3.8v2.3c0,1.5-.3,2.8-.9,3.8s-1.6,1.7-2.9,2.2-3,.7-5.1.7-2.4,0-3.8-.2c-1.4,0-2.6-.3-3.7-.4v6.6c1.1.2,2.4.3,3.7.4,1.4,0,2.7,0,4,0,3.6,0,6.6-.5,9-1.4s4.2-2.4,5.3-4.4c1.2-2,1.7-4.6,1.7-7.9V12.9h-6.2v5.7ZM98.7,26.4c0,1.4-.3,2.6-.9,3.6s-1.4,1.8-2.3,2.3c-1,.5-2,.8-3.2.8s-2.4-.3-3.4-.8c-1-.6-1.8-1.4-2.3-2.5-.6-1.1-.8-2.4-.8-3.9s.3-2.8.8-3.9,1.3-1.9,2.3-2.5,2.2-.9,3.4-.9,2.1.2,3.1.7,1.8,1.2,2.4,2.2.9,2.1.9,3.5v1.4Z"/>
  <path class="st1" d="M135.4,16.1c-1.3-1.3-2.8-2.3-4.6-3s-3.8-1.1-6.1-1.1-4.3.4-6.1,1.1c-1.8.7-3.4,1.7-4.6,3-1.3,1.3-2.3,2.7-2.9,4.4-.7,1.7-1,3.4-1,5.3v1.1c0,1.8.3,3.5,1,5.2.6,1.6,1.6,3.1,2.9,4.4,1.3,1.3,2.8,2.3,4.6,3,1.8.7,3.9,1.1,6.2,1.1s4.4-.4,6.3-1.1c1.8-.7,3.3-1.7,4.6-3,1.2-1.3,2.2-2.7,2.8-4.4.6-1.6,1-3.4,1-5.2v-1.1c0-1.8-.3-3.6-1-5.3-.9-1.7-1.8-3.2-3.1-4.4M130.7,30.2c-.5,1.2-1.3,2.1-2.3,2.7-1,.6-2.3,1-3.8,1s-2.7-.3-3.7-1c-1-.6-1.8-1.6-2.3-2.7-.5-1.2-.8-2.5-.8-3.9s.3-2.9.8-4,1.3-2.1,2.4-2.7c1-.7,2.3-1,3.7-1s2.7.3,3.7,1c1,.7,1.8,1.6,2.3,2.7s.8,2.5.8,4-.2,2.7-.8,3.9"/>
  <path class="st1" d="M162.8,25.8c-1.8-1.5-4.4-2.4-7.6-2.7l-2.1-.2c-1.4-.2-2.4-.4-3-.8s-.9-1-.9-1.7.4-1.4,1.1-1.8c.7-.5,1.7-.7,2.9-.7s2.6.3,3.4.9c.8.6,1.2,1.3,1.3,2.2h6.9c-.1-2.8-1.2-5-3.3-6.5s-4.9-2.3-8.3-2.3-4,.3-5.7,1c-1.7.6-3,1.6-3.9,2.9-.9,1.3-1.4,2.8-1.4,4.7s.8,4.2,2.4,5.6c1.6,1.4,4,2.3,7.2,2.6l2.1.2c1.7.2,2.9.5,3.6.9.7.5,1,1.1,1,1.9s-.4,1.5-1.3,2c-.9.5-2,.7-3.4.7s-3.1-.3-4-1-1.4-1.4-1.5-2.3h-6.9c.1,2.8,1.3,5,3.4,6.6,2.1,1.6,5.1,2.4,8.9,2.4s4.5-.4,6.3-1.1c1.8-.7,3.2-1.7,4.1-3,1-1.3,1.5-2.9,1.5-4.6-.1-2.5-1-4.5-2.8-5.9"/>
  <path class="st1" d="M173.6,10.3c1.5,0,2.5-.4,3.2-1.1.7-.8,1-1.7,1-2.9s-.3-2.2-1-2.9c-.7-.8-1.8-1.1-3.2-1.1s-2.5.4-3.2,1.1-1,1.7-1,2.9.3,2.1,1,2.9c.7.7,1.7,1.1,3.2,1.1"/>
  <polygon class="st1" points="167 20.5 167 24.6 170.5 24.6 170.5 39.5 178.3 39.5 178.3 24.6 178.3 20.5 170.5 20.5 167 20.5"/>
  <path class="st1" d="M199.8,12.1h-.3c-2,0-3.8.5-5.2,1.4s-2.5,2.3-3.2,4.1c-.2.6-.4,1.3-.6,2.1v-6.7h-6.2v26.6h7.8v-15.6c0-1.5.4-2.7,1.3-3.6.9-.9,2.1-1.4,3.5-1.4s2.5.4,3.4,1.3c.8.9,1.2,2,1.2,3.5v15.6h7.8v-15.1c0-4.1-.8-7.2-2.5-9.2-1.5-2-3.9-3-7-3"/>
  <path class="st1" d="M230.7,12.1h-.3c-2,0-3.7.5-5,1.4-1.2.9-2.2,2.2-2.9,3.8V4.1h-7.8v35.4h7.8v-15.3c0-1.5.4-2.8,1.3-3.7.9-.9,2.1-1.4,3.5-1.4s2.5.4,3.3,1.3,1.3,2,1.3,3.5v15.6h7.8v-15.1c0-4-.8-7.1-2.3-9.1-1.5-2.2-3.7-3.2-6.7-3.2"/>
  <path class="st1" d="M261.5,28.6c0,1.5-.4,2.7-1.3,3.5-.9.9-2,1.3-3.4,1.3s-2.4-.4-3.3-1.3c-.8-.8-1.2-2-1.2-3.4v-15.8h-7.8v15.4c0,4,.8,7,2.5,9s4,3,7.1,3h.3c2,0,3.7-.4,5.1-1.3,1.4-.9,2.4-2.2,3.1-4,.2-.6.4-1.2.5-1.8v6.3h6.2V12.9h-7.8v15.7h0Z"/>
  <path class="st1" d="M294.4,13.9c-2-1.3-4.4-1.9-7.2-1.9s-4.1.4-5.8,1.1c-1.7.8-3.1,1.8-4.3,3.1-1.1,1.3-2,2.8-2.6,4.4s-.9,3.3-.9,5.1v1c0,1.7.3,3.4.9,5,.6,1.6,1.5,3.1,2.6,4.4,1.2,1.3,2.6,2.4,4.3,3.2,1.7.8,3.7,1.2,6,1.2s4.2-.4,5.9-1.2c1.7-.8,3.1-1.9,4.3-3.3,1.1-1.4,1.9-3,2.3-4.8h-7.1c-.3.8-.9,1.5-1.8,2-.9.6-2.1.8-3.5.8s-2.8-.3-3.8-1c-1-.6-1.7-1.6-2.1-2.7-.3-.7-.4-1.4-.5-2.2h19.4v-2.6c0-2.4-.5-4.7-1.6-6.7-1.1-1.9-2.6-3.6-4.5-4.9M281.6,21.9c.5-1.2,1.2-2.1,2.1-2.7s2.1-.9,3.4-.9,2.4.3,3.3.9,1.6,1.5,2,2.6c.2.6.4,1.3.5,2h-11.9c.2-.7.4-1.3.6-1.9"/>
  <polygon class="st1" points="301.5 4.1 301.5 9.8 304.7 9.8 304.7 39.5 312.5 39.5 312.5 9.8 312.5 4.1 304.7 4.1 301.5 4.1"/>
  <polygon class="st1" points="315.6 4.1 315.6 9.8 318.8 9.8 318.8 39.5 326.6 39.5 326.6 9.8 326.6 4.1 318.8 4.1 315.6 4.1"/>
  <path class="st1" d="M353.3,17.2c-1-1.6-2.4-2.7-4.2-3.5-1.9-.8-4.1-1.2-6.9-1.2h-3c-1.1,0-2.1.1-3.1.1-1,.1-1.9.1-2.7.2v6.6c1-.1,2.1-.1,3.4-.2,1.2,0,2.5-.1,3.6-.1h2.8c1.4,0,2.5.3,3.1,1s1,1.7,1,3.1h-4.8c-2.4,0-4.4.3-6.3.9-1.8.6-3.2,1.5-4.2,2.8-1,1.2-1.5,2.8-1.5,4.8s.4,3.3,1.2,4.6c.8,1.3,1.9,2.3,3.4,2.9,1.4.7,3.1,1,5,1s3.4-.3,4.7-1c1.3-.7,2.3-1.6,3-2.9.3-.6.6-1.2.8-1.9v5.1h6.2v-16.3c0-2.4-.5-4.5-1.5-6M344.8,34.4c-.7.3-1.5.5-2.4.5-1.4,0-2.4-.3-3.1-1s-1.1-1.5-1.1-2.6.4-2,1.1-2.7,1.8-1,3.1-1h4.9v2.1c-.1,1.3-.3,2.4-.8,3.1-.5.7-1,1.2-1.7,1.6"/>
  <path class="st0" d="M112.3,64.5c-.2,0-.3,0-.5-.2,0,0-.2-.3-.2-.5s0-.3.2-.5c0,0,.3-.2.5-.2h1.9c.7,0,1.5,0,2.3,0s1.5,0,1.9,0v-.5c-3.8,0-6,.2-6.7.2s-.3,0-.5-.2c0,0-.2-.3-.2-.5s0-.3.2-.5c0,0,.3-.2.5-.2.6,0,2.8,0,6.6-.2h-7.7c-.2,0-.3,0-.5-.2,0,0-.2-.3-.2-.5s0-.3.2-.5c0,0,.3-.2.5-.2h7.9c0-2.1.2-4,.4-5.7,0-.2,0-.3.3-.5.2,0,.3-.2.5-.2s.3,0,.4.2c0,0,.2.3.2.5,0,0,.3-.2.4-.2v-.6c0-.2,0-.3.2-.5,0,0,.3-.2.5-.2s.3,0,.5.2c0,0,.2.3.2.5,0,.8,0,1.8-.2,3.1-.2,1.5-.3,2.5-.3,2.9v.5h1.1v-2.4h0v-.6h0l.2-.7v-3.5h0v-.8c0,0,0,.3,0,.4h-.5c0,0-.5,0-.5,0h-.6c0,0-.4,0-.4,0h-2.1c0,0-.3.2-.4.2h0v6.6h0c0,0,0,.4,0,.4v.6h-.8v-.4c0,0-.3,0-.4,0h-6.6c0,0,0,0,0,0h-1.1v4.1c0,0,.2.6.2.6v.6h0v.6h1l.5-.2h.9c0,0,1.5,0,1.5,0h.9c0,0,.8,0,.8,0h2.1v.3h.2v.6q0,0,0,0v7.4h4.2v.8h-4.8v-.4h-.3v-7.8h-3.3c0,0-.8,0-.8,0h-1.2c0,0-.5.3-.5.3h-1.4v-.2h-.6v-2.3c0,0-.2-.8-.2-.8h0v-3.8h.3v-.4c0,0,.3,0,.3,0h1.3c0,0,0,0,0,0h6.8c0,0,0-.3,0-.3v-6h0c0,0,0-.5,0-.5h.4c0,0,0-.3,0-.3l.5-.2h.7c0,0,.4,0,.4,0h2.1c0,0,.5,0,.5,0h.6c0,.2,0,.3,0,.4h.8c0,0,0,.9,0,.9v3.5h0c0,0-.2.9-.2.9v2.1h7.5c0,0,.5,0,.5,0h.6l.5.2c0,0,0,.2-.1.3h.5v.9h-.1v.4c-.1,0-.1.8-.1.8v.8h0v1.3h0v.5c-.1,0-.1.4-.1.4h0c0,0-.1.6-.1.6h-.2v.2h-1.3c0,0-.6,0-.6,0h-5.4c0,0-1,0-1,0h-.2v.5c0,0,0,.7,0,.7v.8c0,0,0,1.7,0,1.7h0v1.5c0,0,0,.7,0,.7v.9h0v1.5h-.8v-1h0v-2.9h0v-.8c0,0,0-.8,0-.8v-.8h0v-.8c0,0,0-.7,0-.7h0v-.5c0,0,.3-.7.3-.7h.5c0,0,.7,0,.7,0h1.2c0,0,.8,0,.8,0h5.3c0,0,.4,0,.4,0h0v-.2h0v-.5c.1,0,.1-.7.1-.7h0v-1.3h-.3c-.5,0-1,0-1.4-.2.2,0,.3,0,.4.3.1.2.1.3.1.5s-.1.3-.3.4c-.2,0-.3,0-.5,0,.3,0,.4.4.4.7s-.1.3-.2.5c-.1,0-.3.2-.5.2-1.3,0-3.9,0-7.9,0h-.3c0,2.2,0,4.5.3,6.7,0,.2,0,.4-.2.5,0,0-.3.2-.5.3-.2,0-.4,0-.5-.2,0,0-.2-.3-.2-.5v-.7c-.2.2-.3.3-.6.3v1c0,.2,0,.3-.2.5,0,0-.3.2-.5.2s-.3,0-.5-.2c0,0-.2-.3-.2-.5v-7.5c-3.7-.2-5.8-.3-5.9-.3M129.7,63.4c-2-.4-4.8-.6-8.2-.6v.5h.3c3.9-.1,6.6-.1,7.9,0M122.7,60.2c3.4,0,6.5.4,9.2.7h.2c0-.3,0-.4.1-.6-.1,0-.2,0-.3,0h-1.5c0,0-.5,0-.5,0h-7.2Z"/>
  <path d="M186,73.4v2.1c0,.9-.1.9-1,.9-1.3,0-2.6,0-3.9,0s-1.4-.2-1.6-1.3c-.1-.9-.2-1.8-.3-2.6-.2-2.2-.3-4.3-.6-6.5-.1-1-.4-2-.8-3-.4-.9-.6-.8-1.2,0-.9,1-.9,2.3-1,3.5-.2,2.5-.2,5-.3,7.4,0,.8-.1,1-1,1.1-1.3,0-2.5.2-3.8.3-.8,0-1.2-.5-1.2-1.3.2-3,.2-6.1-.3-9.1-.1-.8-.5-1.5-.9-2.2-.6-.9-.8-.9-1.8-.5-1.3.6-2.6,1.4-3,2.9-.2.8-.1,1.7-.1,2.6.1,1.7.2,3.3.3,5,.1,1,.1,1.9.1,2.9s-.2.9-.9,1c-1.8.2-3.6.5-5.4.7-.5,0-.9,0-.9-.7,0-3.9-.1-7.7,0-11.6,0-1.9.2-3.7.4-5.6.1-.9.3-1.9.4-2.8v-.4q0-1.1,1.1-1.2c1.4,0,2.8,0,4.2,0s1.1.2,1.3,1c3.3-1.3,6.1-.9,8.5,1.9.5-.4.9-.8,1.4-1.2,2.2-1.8,4.7-2,7.3-.9,1.1.5,1.9,1.4,2.4,2.5,1.3,2.5,2,5.3,2.5,8.1.2,1.1.1,2.2.1,3.3v3.9M158,60h-.2c-.2,2.5-.4,4.9-.5,7.4-.1,2.2,0,4.4,0,6.6s.1.8.1,1.3.2.5.6.4c1.3-.2,2.6-.4,4-.6.5,0,.5-.4.4-.7,0-.8-.1-1.6-.1-2.4s-.1-.9-.1-1.3c-.1.9-.1,1.8-.1,2.7s-.6,1.2-1.3.9c-.1,0-.2,0-.3,0q0,0,.1.2c-.4.2-.8.5-1.3.6-.9.3-1.4,0-1.4-1.1.1-3.7.1-7.4.2-11,.1-.9,0-1.9,0-2.9M171.4,73.9c-.1-.5-.2-1-.3-1.5-.1-2.2-.2-4.4-.4-6.5-.2-1.7-.6-3.3-1.5-4.8-.4-.7-1-.9-1.7-.9-1.5,0-3,.5-4.2,1.4-.6.4-.7.8-.5,1.4.8-.6,1.7-1.3,2.5-1.9,1.2-.8,2.6-.6,3.6.5.9,1.1,1.3,2.5,1.4,3.8.1,2.5.1,5,.2,7.5q0,1.2.9,1M183.6,61.7q.1,0,.2,0c-.4-1-.8-2-1.3-3-.9-1.8-2.2-2.9-4.4-2.8-.7,0-1.4,0-2.1.3-1,.3-1.7,1-2.4,1.7.2,0,.4,0,.6-.2.8-.3,1.7-.7,2.5-.9,2.1-.5,4,.4,5,2.1.7,1.1,1.3,2,1.9,2.9M184.4,64.1h-.2c.3,3.7-.1,7.3-.4,11,1,.2,1.1.2,1.1-.8v-7.3c-.1-1.1-.3-2-.5-2.9M176,61.5h-.2c-1,.9-1.8,2-2.3,3.2v.3c.2,1,.5,2,.7,3,.2-.7.2-1.4.3-2.1.2-1.5.2-3,1.4-4.1,0,0,0-.1.1-.3M181.6,65.4c0,0,0,0,0,0-.3-1.6-.6-3.2-1-4.7-.1-.6-.6-.7-1-.8.7,1.9,1.4,3.8,2,5.5M159.8,55.8v.3c0,0,.3.2.4,0,.4,0,.8,0,1.1.3.3.4.7,0,1,0s.1-.7-.1-.7c-.8,0-1.6,0-2.4,0M178,61.2c-.6-1-1.2-.7-1.7,0h1.7ZM174.2,73.7c-.8-.6-1.1-.5-1.5.2.5,0,.9-.2,1.5-.2"/>
  <path d="M194,74.8c.2,1.3.4,2.5.5,3.7.1,1.3.2,2.6.2,4v.4q.2,1.1-.9,1.4c-1.3.3-2.6.7-4,1-1.2.3-1.5.2-1.7-1.1-.2-1.4-.3-2.7-.3-4.1-.1-3.5-.1-7-.1-10.5s.1-5.7.3-8.5c0-1.2.1-2.4.3-3.6,0-.2.4-.6.7-.6,1.3,0,2.6,0,3.9-.2.7,0,1,.3,1,1s0,.2.1.5c.3,0,.6,0,.9-.2,1.3-.5,2.7-.8,4.2-.8,3.1,0,6.1,2.1,6.9,5.1.8,3.2.8,6.4-.7,9.4-.4.7-1,1.4-1.6,1.9-1.8,1.6-3.9,2.5-6.3,2.4-.8,0-1.7-.2-2.4-.7-.3-.2-.6-.3-1-.5M199.8,65.8c-.1-.3-.1-.9-.3-1.5-.2-.8-.6-1-1.3-1-1.3,0-2.4.4-3.5,1.1-.2.2-.4.5-.4.8,0,1.6.1,3.2.2,4.8,0,.2.2.4.3.4,1.2,0,2.4,0,3.3-.8,1.3-.8,1.7-2.1,1.7-3.8M194.2,63.3c-1.3.2-1.7.4-1.7,1.2-.1,1.7-.1,3.3-.1,5s.3,1,.9,1.2c0-.2.1-.3.1-.4-.1-1.6-.2-3.3-.3-4.9,0-.7-.2-1.3.7-1.6.1-.2.2-.3.4-.5M195.5,71.8c1.3.6,3.5,0,4.6-1,1-.9,1.5-3,1-4.1-.8,2.4-1.3,4.7-5.6,5.1M192.9,83.2c.3,0,.8.2.8-.6-.1-1.9-.3-3.7-.4-5.6-.1-.7-.2-1.4-.4-2.1h-.2c0,2.8,0,5.5.2,8.3M192.7,58.7c0-.3.3-.8-.4-.9-.8,0-1.7,0-2.5,0-.1,0-.4.2-.4.3-.1.8-.1,1.5-.1,2.3s.1.2.2.3c.1,0,.2-.2.2-.3v-1.1c.1-.8.7-1.1,1.5-.7.1,0,.3.2.4,0,.3.2.7.1,1.1,0M202.5,62.2c-.4-2-2.5-3.4-4.2-2.8,1.7.4,3.1,1.3,4.2,2.8M191.2,83c-1,.5-1.5.4-1.7-.5,0-.2-.1-.4-.1-.6-.1-.9-.2-1.9-.3-2.8,0,1.6.1,3.1.3,4.7,0,0,.3.3.4.3.7-.2,1.3-.4,2-.6-.3-.2-.4-.3-.6-.5"/>
  <path d="M257.4,59.9v3.4c0,.6.2,1.2.4,1.7.1.3.5.6.7.6.3,0,.7-.4.8-.7.3-.9.4-1.8.5-2.6.3-2.2.4-4.4.7-6.6,0-.2.4-.5.6-.5,1.3,0,2.7,0,4,0s.9.4.9,1c-.1.9-.2,1.8-.2,2.8-.1,2.8-.1,5.6-.3,8.4-.1,2.7-.3,5.3-.6,8-.3,2.1-1,4.1-2.1,5.8-.6,1-1.4,1.9-2.2,2.7-.3.3-.9.5-1.4.6-2.8.3-5.3-.4-7.5-2.2-.3-.3-.5-.7-.7-1-.7-1.5-1.3-3.1-1.9-4.6-.1,0,.1-.5.3-.6.5-.4,1-.8,1.6-1.1.5-.4,1.1-.7,1.6-1,.8-.4,1.1-.3,1.6.5.6,1.2,1.3,2.4,2.1,3.6.1.2.4.4.7.6.5.3,1,0,1.1-.4.4-1.4.7-2.9,1-4.3.1-.6.2-1.2.3-1.9.1-.7,0-.7-.7-.7-1.3,0-2.6,0-3.9-.4-.9-.3-1.4-.9-1.8-1.8-.8-2.2-1.4-4.4-1.4-6.8v-5.5c0-.8.3-1.2,1.1-1.2,1.4,0,2.8,0,4.1,0s.7.3.7.9c-.1.9-.1,2.1-.1,3.4h0ZM264.3,64.9h-.1c-.2,2.1-.3,4.1-.5,6.2-.1,1.4-.2,2.9-.4,4.3-.2,1.8-1.1,3.4-1.9,5-.9,1.7-2.5,2.5-4.5,2.2-2.8-.4-4.6-2.2-5.8-4.6-.2-.3-.3-.7-.3-1.1s.1-.7.3-.8c.2,0,.6,0,.9,0,.1,0,.3.2.4.3-.1,0-.2-.2-.2-.3.3-.2.6-.5,1-.7-.1,0-.2-.3-.4-.6-.8.4-1.4.8-2.1,1.3-.4.2-.6.5-.4,1,.5,1.2,1,2.4,1.6,3.6.1.3.4.6.7.8,1.7,1.4,3.7,1.8,5.8,1.8s1.3-.2,1.7-.8c.4-.5.8-1,1.2-1.5,1.6-2,2.2-4.4,2.5-6.9.3-2.2.3-4.4.5-6.7,0-.8,0-1.6,0-2.5M255.7,56.4c0,.5.1,1,.1,1.4-.1,1.1-.2,2.2-.4,3.3-.2,1.4.2,2.7.8,3.9.1.2.2.3.3.4.1-.3,0-.5,0-.7-.1-.6-.3-1.3-.3-1.9v-5.9c0-.4,0-.7-.5-.5M254,68.5c.2,1.1,3,1.9,4.7,1.2-.9,0-1.7,0-2.5-.3-.8,0-1.5-.6-2.2-.9M264.9,56.4h-3.2c.8.3,1.8,0,2.3,1.1.2-.3.5-.6.9-1.1M252.6,57c.5,0,.9-.3,1.4-.4-.9-.3-1.3,0-1.4.4M260.2,65.6c-.2.3-.4.5-.6.8.8.2.8-.3.6-.8"/>
  <path d="M290.4,75.3c-1.6.8-3.3.9-5,.9-1.6,0-3.2-.5-4.5-1.5-1.1-.8-1.8-2-2.3-3.3-1.1-2.5-1.1-5.1-.8-7.7.1-.7.4-1.4.7-1.9,1.3-2.2,3.1-3.9,5.5-5,1.7-.7,3.4-1.3,5.3-1.2.4,0,.6-.2.6-.6.1-1.3.2-1.4,1.4-1.4,1.4,0,2.8-.2,4.2-.2s.6,0,.8.3c.2.3.1.6-.3.8-.1,0-.2.4-.2.5.1,1.6.3,3.3.4,4.9.1,1,.1,2,.1,3,.1,4.2.2,8.3.2,12.5s-.4,1.4-1.3,1.4-2.1,0-3.1,0c-.4,0-.9,0-1.2-.3-.2-.3-.3-.8-.5-1.2M289.6,65.6h0c.1-.6,0-1.2.1-1.8,0-.4-.2-.6-.6-.6-1.2,0-2.3,0-3.2,1-1.1,1-1.4,2.3-1.6,3.7-.1.8.3,1.3.9,1.7.7.4,1.4.5,2.1,0,.6-.3,1.1-.7,1.6-1.2.5-.4.8-.9.7-1.6v-1.3M290.2,73.8c-.3,0-.6.2-.9.3-3.7,1.4-7.7.4-9.7-3.8-.3-.7-.5-1.4-.6-2.1-.4-4.4,2.1-7.9,6.3-9.2.4,0,.7-.3,1-.5,1.1-.7,2.3-1.1,3.6-1.1s.6-.2.4-.8c-1,0-2.1,0-3.1.2-3,.6-5.5,2-7.3,4.6-.8,1.1-1.3,2.3-1.3,3.7v1.4c.1,2.3.6,4.5,2,6.3.5.7,1.2,1.2,2,1.5,1.9.8,3.8.8,5.8.4.8,0,1.4-.3,1.8-.9M283.6,65.6s-.1,0-.1,0c-.3.5-.7,1-.9,1.5-1,2.4-.9,3.5,2.1,4.3,2,.5,3.9.5,5.5-1.2.5-.5.5-1,.3-1.6-.7.6-1.4,1.1-2.1,1.7-1.2,1-2.8.7-3.7,0-1.1-.7-1.5-2-1.2-3.4,0-.3,0-.8.1-1.3M294.8,57.4h-.2v.2c.1,3.2.3,6.5.4,9.7,0,1.6,0,3.3-.1,4.9-.1,1.1-.3,2.2-.5,3.3.9.3,1.1,0,1.1-.8v-.6c-.1-3.4-.1-6.9-.2-10.3,0-1.4-.1-2.9-.2-4.3,0-.7-.2-1.4-.3-2.1M293.2,54.7c-2-.3-2.6,0-2.2,1.5.3,0,.6,0,.7,0,.5-.6,1-1,1.5-1.6M287.5,60.6c-.6-.2-1.1,0-1.4.6.4-.3.9-.5,1.4-.6"/>
  <path d="M308.6,70.4c.3,0,.5,0,.6,0,1.7-.2,3.4-.4,5-.6.3,0,.7,0,1,0,.8,0,1.1.4,1.1,1.1.1,1.3.2,2.5.2,3.8s-.2,1-.3,1.5c0,0-.4.2-.6.2-1.8,0-3.5,0-5.3.2-2.9,0-5.8.3-8.7.5h-2.7c-.5,0-1.1-.8-1.1-1.3h0c-.3-2,1.1-3,2-4.2,1.4-2,2.8-4,4.3-5.9.9-1.2,1.8-2.4,2.7-3.5.2-.2.3-.4.5-.7-.3,0-.5,0-.7,0h-6.6c-.7,0-.9-.2-.9-.9v-3.6c0-.9.3-1.1,1.2-1.2,3-.2,5.9-.4,8.9-.6s3.1-.2,4.6-.3c.4,0,.8,0,1.2-.2.8,0,1.3.2,1.2,1v2.6c.5.5.2,1-.1,1.4-.9,1.6-1.9,3.1-2.9,4.7-.4.6-.8,1.3-1.3,1.9-.8.9-1.6,1.8-2.4,2.8-.1.3-.5.8-.9,1.4M312.6,56c.1.3.2.5.2.7,0,.5.2.6.8.5.8,0,1.4.3,1.4,1.1s-.1,1.1-.4,1.6c-.7,1.1-1.4,2.2-2.3,3.2-2.2,2.6-4.6,5.2-6.8,7.8-.3.4-.6.8-1,1.3h1c2.7-.2,5.4-.4,8.2-.6,1.3,0,1.3,0,1.5,1.2,0,0,.1,0,.3,0v-1.5c0-.5-.2-.6-.6-.5-.7,0-1.4.4-2.1.4-1.5,0-2.9.2-4.4.2s-1.2-.8-1-1.1c.5-.7,1.1-1.5,1.7-2.2.9-1.1,1.9-2.3,2.8-3.4.4-.5.7-1,1-1.5.9-1.5,1.8-3,2.7-4.5.1,0,.1-.4.1-.5-.1-.4-.2-.7-.2-1v-1.6c-1.2,0-2,.2-2.9.3M301.2,60c-.3-.6-.3-1.2.3-1.6.1,0,0-.4,0-.4-.6-.2-.8-.7-.9-1.4-.2.2-.3.3-.3.5v2.3c0,.7.4.8.9.6M309.6,59.8q0,0-.1-.2c-1.2,0-2.3.2-3.5.3v.2h1.4c.6,0,1.2-.2,1.4.9.4-.5.6-.9.8-1.2M302.3,75.9h0c-.9-.2-1.9-.4-2.8-.5-.1,0-.2,0-.3.2.1,0,.2.3.3.3h2.8"/>
  <path d="M330.7,75.1c-.6.4-1.1.7-1.6,1-2,1.3-5.7,1.1-7.6-.3-.9-.7-1.5-1.5-1.8-2.6-.4-1.4-.9-2.7-1.3-4.1-.2-.7-.3-1.4-.3-2,0-2.6.1-5.3.3-7.9.1-1,.5-2,.7-3.1.1-.3.1-.6.2-.9.1-.7.2-.9.9-.8,1.3,0,2.6.2,3.8.3.5,0,.7.2.5.8-.8,3.6-1.1,7.3-.9,10.9,0,.8.2,1.6.4,2.3.3,1,1.3,1.5,2.3,1.5,1,0,2.2,0,2.9-.9.6-.6,1-1.3,1-2.3,0-3.3.1-6.6.1-10s.1-1.3.1-1.9.2-.6.6-.6c.8,0,1.5,0,2.3,0s1.1,0,1.7,0c.9,0,1.4.5,1.3,1.4-.5,4.3-.5,8.6-.5,12.9s.4,3.8,1.1,5.5c.1.3.2.5-.2.7-1.2.6-2.5,1.2-3.7,1.9-.6.3-1.1.2-1.7,0-.1,0-.2-.3-.3-.5,0-.3-.1-.9-.3-1.5M319.2,63.8q.1,0,.1-.2c.3-2.3.2-4.7,1.1-6.9.2-.4.4-.8.9-.8s.8.4.8.9v.6c0,2.8-.1,5.6-.1,8.4s.2,1.5.4,2.2h.2c-.1-.6-.1-1.2-.1-1.7,0-1.4-.1-2.9,0-4.3.1-1.9.4-3.9.6-5.8,0-.4,0-.5-.5-.6-.5,0-1.1,0-1.6,0s-.5.2-.6.3c-1.1,2.7-1.2,5.3-1.2,8M329.5,74.4c-3.3.9-6.4.7-8.8-2.3.1,1.4,1.1,2.8,2.2,3.2,1.3.5,2.6.5,4,.3,1,0,1.8-.5,2.6-1.2M323.3,69.7c-.1,0-.1,0-.2,0,.1.2.2.4.3.5,1.1,1.5,3.2,2,4.9,1.1,1-.5,1.9-1.3,2.8-2,.4-.3.5-.7.5-1.2v-10.2c-.1.2-.2.3-.2.5,0,2.9-.1,5.8-.1,8.6s-.6,2-1.3,2.7c-1.1,1.1-2.6,1.3-4.1,1.3s-1.6-.3-2.2-.9c0,0-.2-.3-.4-.5M334.6,62.6h.2c.1-2.2.3-4.4.4-6.6h-.6v6.6ZM331.6,56.5h.1c.3-.1.6-.3,1-.4v-.2c-.3,0-.6-.2-.7,0-.2.1-.3.4-.4.7"/>
  <path d="M226.2,55.6c2.5-.2,4.7.4,6.5,1.9,2.7,2.2,4.3,5,3.9,8.6-.2,2.3-.7,4.5-2,6.3-2.2,3.1-5.1,4.9-9,4.7-4.2-.2-7.3-2.8-8.7-6.9-.7-2.1-.7-4.2-.4-6.3.4-2.4,1.6-4.4,3.2-6.1.5-.5,1.1-.5,1.6-.8,1.6-1.1,3.2-1.8,4.9-1.4M230.3,65.9c.2-2.2-1.6-4.7-4.1-4.5-.3,0-.8.2-1,.5-.5,1-1.1,2-1.4,3.1-.3,1-.2,2.1-.3,3.2-.1,1.5.9,2.3,2.3,2.3,2,0,4.6-1.7,4.5-4.6M226.6,56.7c1.2,0,2.4.3,3.2,1.2.7.6,1.4,1,2.2,1.5,2.2,1.2,3.3,3.3,3,5.6-.2,1.3-.5,2.5-.8,3.8-1,4.4-5.7,7.1-10,5.7-2.3-.8-4.4-1.9-5.7-4.2-.1-.2-.2-.3-.3-.5,0,.3,0,.6.1.9.6,1.5,1.5,2.8,2.9,3.8,4.8,3.3,10.7,1,13.1-3.8.7-1.4.9-2.8,1.1-4.4.5-3.5-1.2-6.5-3.8-8.3-1.5-1-3.1-1.6-5-1.3M228,60.4h0c-.1-.2-.4-.5-.6-.5-1.3,0-2.5,0-3.6.6-.6.3-1,1-1.3,1.7-1.3,2.7-1.6,5.4,0,8.1.9,1.6,2.4,2.3,4.2,2.1,1.8-.2,3.1-1.2,3.9-2.8.1-.2.1-.3.1-.5-.8,1.1-1.9,1.6-3,2.2-1.5.8-2.9.5-4.2-.3-.4-.3-.8-.7-1-1.2-.5-1.9-.4-3.8.2-5.7.3-1,1-1.8,1.3-2.8.2-.8.7-1,1.4-1,.9,0,1.8.1,2.6.1M217.6,66.7c0-.2.1-.3.1-.5.1-2,1-3.7,2.1-5.3.4-.6.7-1.3,1-2.1-1.9.8-3.7,5.3-3.2,7.9"/>
  <path d="M139,72.3v-10.7c0-1.7.1-3.5.1-5.2-.1-2.2.2-4.4.5-6.5.1-.6.1-1.2.3-1.7.1-.2.4-.5.7-.5,1.6,0,3.1,0,4.6,0,.6,0,.9.3.9,1-.1,3.8-.2,7.5-.3,11.3,0,.9,0,1.7-.1,2.6-.2,3.1-.3,6.3-.5,9.4-.1,1.1,0,2.2,0,3.3s-.5,1.5-1.4,1.6c-1.4,0-2.8.2-4.3.2s-.5-.3-.5-.5c-.1-1-.1-2-.1-3v-1.3h.1ZM144.9,48.9c-.4.3-.5,10.7-.2,11.4.4-3.9.2-7.6.2-11.4M142.8,53.1c-.6,3.5-.3,7,0,10.5v-10.5ZM140.6,52.2c-.4.9-.6,6.5-.3,7.3.1-1.2.2-2.4.2-3.6.1-1.2.1-2.4.1-3.7M140.8,49.3h2.1c-.1-.2-.1-.5-.2-.5h-1.7c-.2,0-.2.4-.2.5"/>
  <path d="M339.1,56.9c.2-2.4.4-4.8.7-7.1.1-.6.1-1.1.3-1.7.1-.2.4-.5.7-.5,1.6,0,3.1,0,4.6,0,.6,0,.9.3.9,1-.1,3.8-.2,7.5-.3,11.3,0,.8,0,1.7-.1,2.5-.2,3.2-.3,6.3-.5,9.5-.1,1.1,0,2.2,0,3.3s-.5,1.5-1.4,1.6c-1.4,0-2.8.2-4.3.2s-.4-.2-.5-.4c-.1-.4-.2-.7-.2-1.1,0-4.7.1-9.4.1-14.1,0-1.5,0-3.1,0-4.6h0M344.8,48.9c-.3.4-.3,10.7-.1,11.3.5-3,.5-10.9.1-11.3M342.9,63.6v-10.5c-.6,3.5-.3,7,0,10.5M340.3,59.6h.2c.1-2.4.2-4.8.3-7.3h-.3c-.4,2.4-.1,4.8-.2,7.3M340.9,49.3h2.1c-.1-.2-.1-.5-.2-.5h-1.7c0,0-.2.3-.2.5"/>
  <path d="M208.3,61.2v-3.3c0-.4.2-.5.5-.7,1.5-.4,3-.7,4.6-.7s1.5,0,1.5,1.4c0,3.4.1,6.7.1,10.1s.1,4.3.1,6.5.1.8.1,1.2-.1.7-.5.7c-1.8.2-3.6.4-5.4.6-.5,0-.5-.4-.5-.8-.1-2-.1-4-.2-6-.1-2.9-.2-5.9-.3-9h0M211.8,59.4s0-.1,0,0c.1-.7.3-1.1,1-1,.6,0,.8.5.8,1s.1,1.3.2,1.9c0-1,.1-2.1,0-3.1,0,0-.3-.4-.5-.4-1.2.2-2.4.4-3.6.6-.1,0-.3.3-.3.5s.2.3.3.4c.3.2.6.4,1,.5.3-.2.6-.3,1.1-.4M210.6,76c-.2-1.2-.4-2.3-.5-3.3-.1,1-.1,2,0,3.1,0,0,.3.1.5.2M212.3,75.7h.1c.4-.3.1-.8.1-1.3s-.1-1.1-.1-1.7h-.1v3Z"/>
  <path d="M148.1,61.2v-3.2c0-.4.2-.6.6-.7,1.5-.4,3-.7,4.6-.7s1.5,0,1.5,1.4c0,3.4.1,6.7.1,10.1s.1,4.4.1,6.6v.4c.1,1.2.1,1.3-1.1,1.5-1.5.2-3.1.4-4.7.5-.5,0-.5-.4-.5-.7-.1-1.4-.1-2.8-.1-4.2-.1-3.2-.3-6.4-.4-9.6-.1-.4-.1-.9-.1-1.4h0M153.5,61.2s.1,0,0,0c.1-1,.1-2,0-3.1,0-.2-.3-.5-.5-.5-1.2.2-2.4.4-3.6.6-.1,0-.3.3-.3.5s.1.3.2.4c.3.2.7.4,1,.6.3,0,.7-.2,1.1-.4.2-.8.4-1.1,1-1,.7,0,.8.6.8,1.1.2.6.3,1.2.3,1.8M150.3,76c-.2-1.3-.4-2.3-.6-3.4h-.1c0,1.1,0,2.1.1,3,.1.2.5.3.6.4M152.1,75.8c.1,0,.3-.2.3-.3-.1-.9-.1-1.9-.2-2.8h-.1v3.1Z"/>
  <path d="M151,55.8c-2.2,0-3.8-1.6-3.8-3.8s.1-1.7.6-2.4c.7-.9,2.1-1.3,3.2-1,.9.2,1.7.4,2.4,1,1,.8,1.6,1.8,1.6,3.1s-.7,2.4-2,2.8c-.7.2-1.3.2-2,.3M152.9,50.8c.6,1.1.5,2.2-.2,3.4.6-.2.9-.5,1-1,.3-.9,0-1.7-.8-2.4M151.5,52.4c-.5.2-1,.4-1.5.6.1.3.3.5.7.4.6-.1.9-.4.8-1"/>
  <path d="M211.2,55.8c-2.2,0-3.8-1.6-3.8-3.8s0-1.6.6-2.3c.7-.9,2.1-1.5,3.2-1.1.7.2,1.5.4,2.1.8,1.4.9,2,2.2,1.8,3.8-.1.9-.9,1.9-2,2.2-.6.3-1.2.3-1.9.4M213.2,50.8c.5,1.1.5,2.2-.2,3.4.7-.2.9-.6,1-1.1.2-.8,0-1.6-.8-2.3M210.3,53c.1.4.4.5.8.4.5-.2.7-.5.7-1-.5.2-1,.4-1.5.6"/>
</svg>