<svg fill="none" height="90" viewBox="0 0 164 90" width="164" xmlns="http://www.w3.org/2000/svg"><g fill="#151515"><path d="m156.996 47.5641c-1.171-1.2928-2.186-2.7444-3.037-4.3091-1.613-2.9654-2.604-6.2573-3.613-9.5098-.577-1.8618-1.169-3.7198-1.863-5.5334-.548-1.4338-1.126-2.9959-2.269-3.989-1.934-1.6777-4.805-1.2116-6.233.9753-.359.5487-.606 1.1684-.729 1.8301-.198 1.0528-.191 1.9609-1.294 2.3787-.719.2718-1.498.2845-2.23.5004-.722.2133-1.225.8255-1.909 1.0642-1.464.5119-3.299-.254-4.703-.668-1.78-.5245-3.552-1.1023-5.253-1.8897-.828-.3836-2.011-1.11-2.785-.2159-.207.2387-.287.5372-.437.8153-.241.4445-.626.6642-1.028.8992-.267.1574-.545.3022-.78.5169-.277.2552-.289.4686-.684.3289-.708-.2527-1.544-1.0655-2.078-1.6091-.607-.6185-1.121-1.336-1.562-2.1044-.978-1.7069-1.59-3.6309-2.179-5.5309-.929-2.9946-1.831-6.6992-4.249-8.7008-2.182-1.8072-5.075-1.1366-7.305.1982-.605.3619-1.3094 1.1785-1.9956 1.2471-.6121.061-1.1837.047-1.79.2032-1.2428.3201-2.4045.9995-3.3371 1.9545-1.6489 1.6879-2.187 4.092-2.8245 6.3755-.2419.8661-.4779 1.7335-.7256 2.5984 0-.0038 0-.0076-.0023-.0127-.0602-.2959-.2187-.5969-.3448-.8598-.3101-.6464-.7105-1.2383-1.1617-1.7742-1.0322-1.2281-2.3721-1.9901-3.5998-2.9464-.8169-.6363-1.5355-1.3475-2.077-2.2797-.3587-.6185-.6677-1.2763-1.1502-1.7957-1.6419-1.7641-4.2026-.9868-6.0101.0152-2.9876 1.6573-5.5321 4.0932-7.7202 6.8478-1.0333 1.3018-1.9879 2.4397-3.6172 2.7496-1.4892.2832-2.9159-.0902-4.1158-1.0985-2.2136-1.8606-3.4459-5.0178-6.1292-6.2243-2.5885-1.1634-5.0902.635-6.4151 3.0594-.8481 1.552-1.3168 3.3033-1.9011 4.9822-.6735 1.9342-1.4742 3.8189-2.401 5.6223-.4108.7989-.7822 1.6371-1.5506 2.0714-.737.4166-1.5632.6325-2.3848.729-1.5297.1791-3.2144 0-4.6087-.7468-.8679-.4635-1.2868-1.0147-1.6073-2.0129-.2731-.8484-.5612-1.6917-.8586-2.5311-.4917-1.3856-1.0576-2.7763-1.9613-3.9028-1.6199-2.0193-4.6261-2.8359-6.3768-.5537-.4073.5309-.7012 1.1532-.9569 1.7844-.1088.2692-.2106.5423-.3125.8166-.184.4966-.3332 1.2535-.6491 1.6662-.3564.4661-1.3608.348-1.8988.4534-.5578.108-1.1062.2731-1.6223.5321-2.0932 1.0478-2.9194 3.2792-3.7676 5.4509-.7891 2.0231-1.5204 4.0831-2.6555 5.9131-1.0958 1.7666-2.489 3.2398-4.13094 4.2964-.49987.2921-1.02173.5462-1.56558.7595-.24762.0978-.32167.4344-.08331.6325.20365.1676.49525-.0394.68617-.1105.6989-.2616 1.74261-.9411 1.93238-1.0795 1.85258-1.3513 3.32088-3.2423 4.41898-5.3531.832-1.6015 1.4406-3.3426 2.1002-5.0343.8701-2.2288 1.8028-4.4272 4.1251-5.1359.1065-.033 1.2798-.4559 1.311-.367.0313.0889-1.3966.8052-2.3177 1.5824-.8146.6871-1.5991 1.5164-2.0226 2.5629-.567 1.4046-.6098 2.9756-1.2127 4.3739-.5392 1.2522-1.2311 2.4231-1.9821 3.5344-1.3758 2.0396-2.9726 3.9535-4.73491 5.6007-.31011.2896-.626.5766-.96388.8268-.11803.0876-.3911.1892-.47442.3073-.24183.348.06596.428.33209.3213.55079-.2197 1.11199-.8712 1.54359-1.2827.79493-.7607 1.54823-1.5773 2.26793-2.4231 1.6327-1.9165 3.1775-4.0297 4.2501-6.3869.6121-1.3462.7475-2.7813 1.1779-4.1884.405-1.3272 1.3168-2.2848 2.3212-3.0989.6005-.4876 1.2427-.9118 1.9092-1.2814.4768-.2654.3773-.1575.0417.1867-.2974.3035-.6387.508-.9754.7493-.5022.3607-.81.7366-1.1467 1.2751-.3692.5893-.8008 1.1227-1.1086 1.7602-.2568.5296-.3031 1.002-.3216 1.5989-.0301.9297-.2847 1.6599-.6943 2.4651-.7533 1.4847-1.576 2.9286-2.4577 4.3257-.9292 1.4719-1.9255 2.8917-2.9946 4.2443-.4756.6007-.9651 1.1887-1.4696 1.7615-.13187.1486-.66877.5283-.5681.8217.20828.6058 1.4256-1.1532 1.5656-1.3208.9546-1.1405 1.8548-2.3356 2.7041-3.5725.9304-1.3539 1.7982-2.7585 2.6036-4.2037.6688-1.1989 1.5829-2.5375 1.7055-3.9764.0417-.4839-.0277-.9957.0995-1.4681.0938-.3468.7788-1.5977.8552-1.5533.0763.0445-.0313 1.3399-.0047 1.7717.0278.442.0614.9322-.081 1.3564-.1735.5181-.5068.7404-.8007 1.1303-.2823.3759-.398.7683-.398 1.256 0 .7976.1215 1.5062-.0128 2.3076-.1273.7595-.4929 1.4872-.7451 2.2098-.5103 1.4643-.9894 2.9578-1.7103 4.3193-.221.4178-.4709.8217-.7648 1.1823-.2141.2629-.6804.503-.8297.7824-.059.1092-.1515.1638-.0682.3124.2869.5067 1.3144-.922 1.4452-1.1062.7487-1.0452 1.2485-2.3241 1.6952-3.5496.3043-.8344.5727-1.6828.8805-2.5159.2153-.5829.5184-1.0376.7533-1.5786.4386-1.0135.9315-1.6828 1.7785-2.3305.2731-.2083.5554-.3988.8412-.5842.0509-.033.2824-.2159.4073-.2832-.0081.0318-.0196.0775-.0382.141-.1585.5562-.3112 1.0541-.3448 1.6434-.044.7416.081 1.4668.1134 2.2047.0671 1.5773-.2222 3.1978-.9095 4.5936-.3355.6807-.7637 1.3144-1.2867 1.8364-.118.1181-.5809.3658-.5577.6096.0717.7506 1.2578-.7417 1.3434-.8496.7336-.9322 1.2427-2.0612 1.5343-3.2487.3599-1.4707.2534-2.8511.1759-4.3485-.0428-.8318.0289-1.7285.4062-2.4676.0543-.1067.5126-.8712.6908-.8026.059.0228.1909.9055.2105.9982.7036 3.4049 1.0762 7.1133-.7336 10.207-.0543.0927-1.2809 1.4287-.626 1.4808.2777.0229.6376-.7036.7822-.9284.3356-.5194.6133-1.0807.839-1.6662 1.186-3.0759.737-6.3551.0775-9.5047-.0035-.0152-.1724-.7112-.1169-.7468.1458-.0939 1.0946.616 1.4325.9449.4999.4864.825 1.1252.9975 1.8276.4177 1.6954.0358 3.429.0185 5.1473-.0093.8547.059 1.7107.2025 2.5501.0486.2807.0937 1.2523.3598 1.3678.6526.2832.0209-1.6002-.0034-1.7691-.2662-1.811.0173-3.5446.0358-5.353.0127-1.2612-.1122-2.6823-.9176-3.631-.2707-.32-.781-.6997-.737-.7569.0439-.0571.6965.4331.8446.5499 1.1537.9081 1.9498 2.1717 2.3455 3.697.3969 1.5316.5196 3.2296.4536 4.8197-.022.5245-.0972 1.0312-.2002 1.543-.0069.0368-.1261.3391-.0625.4394.0729.1156.1609.1499.2835.1029.2812-.108.3044-1.0541.3344-1.3056.0961-.7861.0776-1.5849.0371-2.3761-.0729-1.4517-.2326-2.9325-.7429-4.2863-.4548-1.2078-1.2057-2.1908-2.1626-2.9655-.2974-.24-.6075-.466-.9419-.6388-.2951-.1524-.9743-.2324-.9743-.3035s.4547-.2946.5149-.3289c.4466-.254.8875-.5004 1.3955-.555 1.9821-.2147 2.8627 2.3533 3.6206 3.9344.8238 1.7171 1.5308 3.5091 1.9971 5.3849.2153.8623.3854 1.8186.1597 2.7-.0405.1562-.4698.776-.2244.9576.4593.3391.6769-1.0516.7058-1.2802.1782-1.3995-.3009-2.855-.7209-4.1516-.5056-1.5558-1.1571-3.0366-1.8757-4.487-.0405-.0825-.3251-.7531-.4755-1.0083.1446.1638.4397.4813.4975.5372.5126.4889.9882 1.0172 1.4152 1.5964.9615 1.3068 1.6755 2.827 2.0967 4.4424.2163.8268.354 1.6815.4073 2.54.0138.2312-.1053 1.044.0821 1.204.5172.442.3402-1.0808.3321-1.1989-.1666-2.7521-1.1594-5.4229-2.7863-7.5235-.9211-1.1887-2.2657-2.0028-3.0641-3.2918-.4235-.6833-.6526-1.4847-.9349-2.2441-.2777-.7455-.5496-1.4923-.7637-2.2632-.4594-1.6611-.6665-3.4201-.3807-5.1409.0729-.4407.1817-.8763.324-1.2954.0984-.2883.3159-1.0541.5809-1.2294.1978.0127.3957.0254.5936.0368.0439.1753.0868.3506.1307.5258.0174.1448.0104.3061.0093.4496 0 .3861-.007.7658.0139 1.1532.177 3.2194.516 6.5189 1.9277 9.4056.5589 1.1417 1.3735 2.1742 2.4161 2.8054.435.2629.9696.4242 1.4672.4547.4455.0267 1.0425-.0686 1.0425-.0686s.088.7887.0903.8065c.1666 1.3766.5276 2.6378 1.0449 3.9001.3726.9094.7938 1.825.965 2.8118.0463.2667.0775.5525.0741.8255-.0035.2464-.1319.5944-.0972.8268.0127.0876-.0162.1956.0335.2743.5149.8078.714-.8204.7174-1.0388.0081-.4153-.0439-.8319-.1284-1.2357-.0347-.1664-.14-.4192-.1527-.5982-.0105-.1461-.0371-.1981-.0475-.2121.0162.0114.0752.0343.2268-.0152.3888-.1283.9292-.0737 1.3318-.1093.3911-.0343.7811-.0711 1.1722-.1105 2.7678-.2806 5.5553-.7061 8.1935-1.7068 1.2937-.4903 2.4936-1.298 3.859-1.5101 1.2462-.1943 2.0342-.8687 2.946-1.7869.1284-.1295.4999-.5372.5288-.4965.0301.0406-.3136.3924-.4235.5295-.3275.409-.6746.7989-1.0402 1.1672-1.0611 1.0719-2.2541 2.0447-3.5489 2.747-1.5193.823-3.1578 1.4364-4.7407 2.0955-1.3561.5652-2.747 1.0414-4.1737 1.3399-.7394.1549-1.4881.259-2.2402.3086-.1446.0101-.5195-.0661-.6086.127-.2962.6388 1.3631.2616 1.532.24 2.9541-.3658 5.671-1.6154 8.4215-2.775 1.4012-.5905 2.7261-1.27 3.9446-2.2441.5218-.4178 1.0298-.8559 1.5112-1.3284.2881-.2819 1.1571-1.4478 1.2172-1.4033.0602.0444-.3066.6235-.3668.7251-.7093 1.1964-1.4325 2.3089-2.4461 3.2728-.9685.9221-2.0666 1.6764-3.2214 2.2848-1.1062.5829-2.2703 1.0401-3.4633 1.3538-.5264.1384-1.0587.2502-1.5956.3226-.3356.0444-.8713-.0419-1.1803.0863-.214.0889-.3749.1918-.2788.4788.0925.2731.3321.2286.5623.2337.8655.0229 1.7855-.2007 2.622-.4204 2.209-.5816 4.3647-1.6179 6.1929-3.1051 2.1534-1.7514 3.3221-4.0716 4.4977-6.6548.4108-.9017.7012-1.6802 1.6015-2.0714.5195-.2261.9835-.428 1.4255-.8217 1.0889-.9728 1.8317-2.4651 2.7042-3.6525.8528-1.1608 1.6859-2.3406 2.526-3.5129 1.0275-1.4351 2.0446-2.8816 3.0964-4.2964.4571-.6147.9246-1.2204 1.4024-1.8148-.0729.1295-.1434.2578-.2152.3734-.8794 1.4135-1.6952 2.8765-2.4276 4.3891-.6168 1.2738-1.1733 2.5857-1.6258 3.9408-.4964 1.4847-.8898 3.0163-1.5181 4.4438-.6769 1.5367-1.6292 2.7952-3.0316 3.5801-1.2775.7137-2.7794 1.0566-3.9319 2.0244-1.0611.8903-1.8224 2.1615-2.7088 3.2423-.8817 1.0757-2.7609 2.5908-3.9469 3.2423.0139-.0076-1.8931.6934-1.1085.9639.28.0966.9916-.3937 1.2624-.541.5485-.2984 1.9486-1.2116 2.4322-1.6243.9014-.7684 1.6593-1.7031 2.3906-2.6607.4802-.6286.9466-1.2776 1.4892-1.8427.6434-.6706 1.3897-1.0554 2.2032-1.4212 1.2358-.555 2.5202-1.0363 3.5361-2.0269.9442-.9207 1.5737-2.1514 2.0632-3.4125.5126-1.3221.8747-2.7051 1.3364-4.0475.5253-1.5265 1.1826-2.9959 1.9069-4.4196.7464-1.4669 1.5691-2.8854 2.452-4.257.5265-.8179 1.0553-1.6726 1.6616-2.4219.5103-.6312 1.1768-1.1634 1.7889-1.6701.1168-.0965.2488-.221.3529-.3264-.0463.0495-.0926.0991-.1065.1169-.1377.1752-.2591.3708-.383.5575-.3691.5575-.7139 1.1341-1.0414 1.7221-.7185 1.2891-1.3573 2.6327-1.9347 4.0043-1.142 2.7102-1.9277 5.4902-2.6197 8.3706-.3656 1.5227-.7891 3.0747-1.6072 4.3879-.9511 1.5265-2.4033 2.3076-3.8046 3.2347-2.6139 1.7272-4.6169 4.3472-7.2181 6.0922-.7139.4788-1.4718.8877-2.276 1.1468-.1423.0457-.67.0673-.6387.3696.0613.6045 1.4579-.1956 1.6755-.2972 2.6706-1.2395 4.6828-3.6729 6.9299-5.5982 1.2543-1.0744 2.6868-1.8034 3.9759-2.8118 1.0136-.7925 1.775-1.8288 2.313-3.0569.5589-1.2738.8875-2.6479 1.2046-4.0119.3876-1.6663.8158-3.3084 1.3746-4.9162 1.0322-2.9693 2.3571-5.889 4.0742-8.4557.3495-.5219.7175-1.0604 1.1386-1.5176.4849-.5258 1.1653-.884 1.7658-1.2294.1238-.0711.9812-.4572.9685-.5258.0058.0305-.339.5817-.3645.6376-.206.4559-.3309.9575-.376 1.4643-.1458 1.6497 1.1142 3.1343.6815 4.7472-.2337.87-.8192 1.745-1.2358 2.5286-.1122.2121-.2476.4267-.3657.6465.0729-.2756.0845-.5957.1181-.8763.1006-.8408.1377-1.6891.1226-2.5362-.0069-.4039.0776-.9843-.1446-1.3259-.0127-.0203-.0347-.0407-.0602-.0381-.464.0584-.9615.7264-1.2763 1.0579-.464.4889-.8921 1.0185-1.2832 1.5786-.825 1.1862-1.473 2.5197-1.9058 3.9345-.5346 1.7475-.8898 3.4696-1.7079 5.1041-.7486 1.4961-1.6327 2.9197-2.4959 4.3383-1.6639 2.7344-3.5176 5.5106-6.0459 7.3546-1.1536.8408-2.46 1.4542-3.6923 2.1374-.7684.4255-1.5355.8522-2.3039 1.2777-.162.0901-.7926.2971-.8366.5511-.0752.4382.3831.2045.5369.1245.6874-.3581 1.3608-.7544 2.04-1.1316 2.6047-1.4452 5.2094-2.8892 7.814-4.3345.8158-.4521 1.6674-.889 2.3143-1.6154 1.1594-1.3018 1.0171-3.3693 2.4218-4.4641.6133-.4775 1.1883-.8496 1.6674-1.5037.3598-.4915.6503-1.035.9396-1.5773.1654-.3112.3309-.6223.4964-.9347 1.5436-2.9083 3.0895-5.8141 4.6307-8.7237.4455-.8395.8586-1.67.7418-2.6759-.11-.9525-.611-1.7856-.7383-2.7343-.1134-.8484.0417-1.7501.464-2.4778.5774-.9944 2.2842-1.6281 3.0478-.5829.5323.729 1.0102 1.5303 1.4569 2.3254.9303 1.6548 1.5667 3.4099 1.4394 5.3822-.0625.964-.2337 1.9393-.0995 2.9058.1145.823.4941 1.4846.81 2.2263.3703.8687.6804 1.8504.7046 2.8182.0128.5118-.0161.9131-.3679 1.2687-.1747.1778-.9373.9119-1.1236.8839-.0185-.0025-.0312-.0013-.0428.0013-.0046-.0305-.0115-.0686-.0231-.1181-.0313-.1321-.0023-.3709-.0162-.5017-.0336-.3099-.1204-.6096-.2291-.8966-.2361-.6223-.589-1.0795-1.0333-1.5342-.8042-.8217-1.6293-1.5354-1.4383-2.8829.1365-.9639.6561-1.8275.9083-2.761.3934-1.4605.4143-3.0315.0509-4.5021-.1828-.7392-.4605-1.4491-.8181-2.1069-.1157-.2121-.3309-.7989-.5889-.8789-.4652-.1422-.6469 1.1925-.7047 1.4491-.42 1.8656-.3055 3.7071-1.1363 5.4661-.7845 1.6599-1.5077 3.321-2.4542 4.8831-1.0692 1.7666-2.2645 3.4367-3.4471 5.1118-1.0715 1.5176-2.1441 3.0391-3.1126 4.6393-.5068.8369-.9338 1.5393-1.6234 2.2035-.6411.6172-1.2219 1.3043-1.8306 1.9583-2.4253 2.6099-5.5194 3.9485-8.7073 5.0483-.2221.0762-1.1687.2083-1.2601.5029-.0532.1714.022.2807.1667.3238.3355.1016 1.201-.3873 1.5331-.5041.7302-.2553 1.4568-.522 2.1754-.8167 1.3885-.5702 2.7505-1.2433 4.0013-2.1221 1.3237-.9309 2.3837-2.14 3.5003-3.3389.6908-.7416 1.4163-1.4325 2.2702-1.9393.6017-.3568 1.2416-.6375 1.7797-1.1112 1.2184-1.0744 1.6442-2.808 2.6162-4.097 1.377-1.8238 3.3522-1.2358 4.9814-.188 1.3503.8687 2.9159 1.9279 3.6993 3.4658.4802.9424.5774 2.0231.8331 3.0468.1979.7886.4952 1.4605.9384 2.1183.5126.7608 1.1224 1.4478 1.3226 2.3851.1365.6401.2198 1.2624.4501 1.8783.0336.0902.8181 1.9228.9697 1.0795.0382-.2082-.3449-.6807-.4305-.8674-.2291-.4965-.3876-1.0312-.4952-1.5748-.1539-.7785-.1944-1.5799-.1817-2.3736.0324-1.9634.3668-3.9167.6121-5.8585.2222-1.7628.2916-3.7224.8112-5.4141.2962-.9626.9176-1.7348 1.2936-2.6543.2361-.5765.3726-1.195.4212-1.825.1273-1.6853-.4073-3.2931-1.1594-4.7333-.368-.7048-.7776-1.5087-1.296-2.098 0 0-.0335-.0368-.081-.0876.0486.0317.0891.0571.1088.0711.4027.2908.8042.5829 1.1733.9245 1.0587.9792 2.482 2.7826 2.2714 4.4463-.0902.7125-.4096 1.4643-.6005 2.1514-.2002.7176-.4016 1.4338-.6006 2.1514-.4432 1.5913-.6734 3.0391-.6295 4.7054.0463 1.7754-.1828 3.4036-.6005 5.1117-.2522 1.03-.464 2.0638-.5311 3.1306-.0498.781-.0312 1.5659.0312 2.3457.0475.5969.022 1.5887.272 2.1183.1157.2451.3552.3836.5612.1372.2186-.2604-.0324-.9741-.066-1.2344-.2025-1.5507-.2534-3.1217.0081-4.6673.2141-1.2624.6098-2.4765.8146-3.7414.0613-.3798.0787-.7684.1377-1.1468.0984-.6274.2685-.8014.6272-1.2497.4026-.503.7521-1.0579 1.0599-1.6358 1.5725-2.9489 1.9393-6.3589 2.4542-9.6673.2523-1.6217.4941-3.255.9546-4.8247.3217-1.0998.7614-2.4016 1.3724-3.4989.0243-.0444.0497-.0876.0752-.1308.2696-.4673.5716-.894.9118-1.2446.0764-.0787 1.1571-.8001 1.2902-.5778.015.0241-.5462.8191-.567.8509-.4305.6909-.8181 1.416-1.1513 2.1692-.6654 1.5011-1.0854 3.0861-1.1803 4.7536-.1134 1.9926-.1134 4.0005-.4316 5.9728-.3252 2.0117-1.0796 3.8176-2.0411 5.5537-.8355 1.5075-1.8086 2.9401-2.4878 4.5454-.6168 1.4579-1.0611 3.0289-1.2277 4.6278-.088.8421-.1759 1.6993-.1238 2.5477.0208.3314.0578.6604.1041.988.0509.3556.0752 1.0402.2592 1.3564.0983.1689.2013.3289.4165.2502.3992-.1473.1401-.7646.0868-1.0389-.317-1.6192-.4281-3.4557.4756-4.8819.5161-.8128 1.1548-1.7805 1.7195-2.719.1921-.3188.6456-1.1126.7197-1.0745s-.2418.8738-.3576 1.2535c-.2302.7569-.4744 1.5863-.626 2.2136-.4628 1.9177-.8215 3.9256.2176 5.6998.1481.2527.5184.0178.3691-.2362-1.1374-1.9406-.4732-4.2786.0752-6.3081.3645-1.3488.6665-2.7775 1.2543-3.9929s1.0935-2.4892 1.6778-3.7008c.7742-1.604 1.605-3.2169 2.1349-4.9441 1.0981-3.5776.059-7.4397 1.068-11.0135.1215-.433.3402-.8255.4941-1.2382-.015.1067-.0208.2286-.0312.3073-.0833.6846-.1204 1.3767-.1447 2.0663-.0694 1.8974-.0393 3.7986-.0682 5.6972-.0567 3.8456-.3136 7.5566-1.8468 11.0694-1.3978 3.2017-3.3915 6.3449-3.5917 9.9962-.0069.1333-.1191 1.8783.3807 1.2865.1701-.2007.0162-.9055.0266-1.1633.022-.5245.0857-1.0465.1829-1.5596.1643-.8611.4223-1.6967.7266-2.5095 1.3076-3.4963 3.3996-6.5837 4.0465-10.3582.5993-3.5001.4825-7.1069.5195-10.6515.0174-1.6091-.0301-3.3375.361-4.9035.1204-.4826.4039-.795.7371-1.1277.0521-.0508.4455-.5233.5068-.5017s-.4871 1.0224-.6584 2.4842c-.184 1.576.0174 3.0467.2476 4.5961.2858 1.9228.515 3.8557.6574 5.7976.28 3.8379-.2454 7.4942-2.3213 10.6845-.9176 1.4122-1.8919 2.7445-2.3941 4.4145-.2534.8408-.4015 1.7196-.4397 2.6035-.0138.329-.1712 1.4123.103 1.6104.5832.4216.2731-1.0859.3263-1.8796.1412-2.1146.9975-3.8786 2.121-5.5601.9408-1.4084 1.7924-2.808 2.3281-4.4666.5357-1.6573.7977-3.4226.7977-5.1803 0-1.7907-.199-3.5992-.407-5.3721-.209-1.7882-.6325-3.5916-.6904-5.3937-.0486-1.4999.0822-4.0666 1.3274-5.0216.009-.0064.02-.0127.028-.0203-.853 1.7246-.56 4.6317-.194 6.27.697 3.1165 2.805 6.016 1.831 9.3624-.763 2.6175-1.834 5.1486-2.798 7.6823-1.1987 3.147-1.223 7.4561-3.6518 9.8272-.206.2007.0972.5322.302.3315 2.3096-2.2542 2.3119-5.8903 3.3302-8.8773.8726-2.5603 1.9436-5.0394 2.8236-7.5984.833-2.427.809-4.6152-.125-7.0536-.638-1.6637-1.393-3.3249-1.509-5.1575-.096-1.5278-.266-4.2393.908-5.2947.13-.0673.228-.1016.278.075.067.2413-.14.8496-.172 1.1277-.08.677-.117 1.3615-.112 2.0435.022 3.0518.875 6.0935 2.432 8.6233.391.6363.827 1.2408 1.302 1.8047.286.3391.996.8534.564 1.4414-.148.202-.564.3201-.772.4687-1.051.7493-1.899 1.8427-2.396 3.1064-.303.7696-.398 1.6053-.727 2.3635-.3.6883-.585 1.3258-.745 2.0764-.383 1.8009-.213 3.6627-.354 5.4902-.129 1.6663-.608 3.4303-1.8238 4.5365-.2916.2654-.6225.4838-.9812.621-.2198.0838-.5589.0495-.7452.16-.1192.0712-.199.0648-.199.2528 0 .6362 1.6882-.268 1.8687-.4014.9245-.687 1.5295-1.8008 1.8905-2.9387.513-1.6193.439-3.3363.491-5.0242.032-1.0503.098-2.1171.389-3.1255.221-.7696.642-1.4351.861-2.2034.254-.8966.439-1.759.91-2.5616.445-.7582 1.03-1.4173 1.713-1.919.736-.541 1.79-.828 1.005-1.9228-.53-.7391-1.177-1.3512-1.682-2.1247-.407-.6235-.771-1.2814-1.087-1.9659-.73-1.5825-1.207-3.3097-1.4-5.0712-.092-.8458-.121-1.7005-.082-2.5514.023-.5042.069-1.0084.14-1.5075.044-.3048.044-.7379.178-1.0084.19-.3835 1.345-.729 1.714-.6426.312.0737.315.1715.398.5144.168.6883.243 1.4122.324 2.1171.2 1.7424.31 3.4963.504 5.24.084.7518.146 1.5468.401 2.2568.3.8369.919 1.3944 1.329 2.1539.439.809.264 1.6307.493 2.4803.06.2235.162.4369.285.6274.087.1346.471.4293.456.5486-.03.2515-1.161.8586-1.381 1.0351-.534.4318-1.028.9182-1.477 1.4541-.762.9081-1.386 1.9647-1.746 3.1408-.107.3467-.226.7607-.16 1.1328.047.2718.187.4089.308.6452.34.6693.378 1.3512-.103 1.9012-.431.4915-.674.9448-.633 1.6433.046.7938.224 1.5355.165 2.3432-.13 1.7894-.92 3.5103-2.17 4.6698-.1.0927-.673.3848-.495.682.137.2273.353.0063.475-.0838 1-.7404 1.756-1.9876 2.182-3.2055.486-1.3907.47-2.7191.293-4.1682-.1-.8166.213-1.2954.721-1.83.103-.108.346-.4763.456-.442.04.0127-.086.5207.036 1.157.068.3543.208.687.313 1.0287.504 1.6281.507 3.3718.027 5.0089-.239.8153-.594 1.5913-1.059 2.2809-.131.193-.869.8204-.767 1.1392.212.6566 1.261-1.1163 1.383-1.3234.684-1.1734 1.088-2.5362 1.19-3.923.051-.6922.026-1.3906-.082-2.0739-.122-.7747-.449-1.4681-.597-2.2301-.106-.5487.093-2.3229.917-1.3894.215.2438.366.5575.494.8649.327.7874.48 1.6535.695 2.4815.456 1.7577 1.017 3.4811 1.677 5.1588.364.9284.759 1.8428 1.183 2.7407.093.1955.334 1.0693.646 1.0515.554-.0317-.774-2.3444-.892-2.6162-.781-1.8085-1.443-3.6779-1.981-5.5905-.386-1.3767-.551-3.1154-1.416-4.2634-.108-.1423-.43-.381-.423-.4128.007-.0317.13-.0216.236-.0076.375.0508.758.287 1.078.4978.524.3455.976.8128 1.367 1.3259 1.039 1.3653 1.643 3.0633 2.51 4.553.782 1.3449 1.705 2.592 2.738 3.716s2.179 2.1247 3.411 2.9743c.247.1702 1.968 1.5774 2.079.8992.051-.3124-.892-.6591-1.066-.7658-.636-.3924-1.25-.8242-1.84-1.2929-1.31-1.0388-2.5-2.2593-3.536-3.6207-1.092-1.4339-1.902-3.0112-2.722-4.6381-.601-1.1913-1.274-2.3597-2.273-3.1979-.292-.2451-.601-.4749-.945-.6197-.231-.0978-.478-.0877-.524-.1384-.028-.0305.245-.0585.385-.0521.047 0 .092-.0013.138-.0026.918.0229 1.707.5309 2.415 1.1265.567.4763 1.098 1.011 1.637 1.5253 1.251 1.1925 2.585 2.3343 3.758 3.6195.792.8674 1.372 1.9888 2.099 2.9299.772.997 1.574 1.966 2.378 2.9324.087.1042.771 1.0516.828.4166.018-.1994-.286-.4381-.388-.5613-.368-.442-.736-.8852-1.102-1.331-.813-.9931-1.68-1.9863-2.375-3.0848-.631-.9983-1.302-1.8085-2.142-2.6099-1.139-1.0858-2.278-2.1717-3.418-3.2563-.709-.6756-1.424-1.3754-2.289-1.8034-.582-.287-1.2-.4305-1.834-.3137-.429.08-.51.2604-.187-.2044.409-.5881.877-1.1075 1.627-.9297 1.263.2985 1.985 2.0079 3.403 1.8174 1.358-.1816 1.252-1.5291.923-2.6365-.271-.9132-.663-1.7844-.764-2.7471-.051-.4826-.024-.9906-.029-1.4439-.006-.6719-.258-1.0287-.207-1.1418.051-.113.571.1092.734.583.106.3086.104.7467.165 1.0718.176.9398.431 1.8593.71 2.7674.666 2.1691 1.306 4.4463 2.272 6.477.689 1.4478 1.553 2.7965 2.561 3.998.248.2959 1.942 2.4523 2.291 2.0027.21-.2692-.287-.5511-.404-.6565-.561-.5131-1.092-1.0681-1.587-1.6587-1.095-1.3043-2.013-2.7851-2.717-4.3802-.513-1.1595-.882-2.3851-1.275-3.5967-.411-1.2636-.843-2.5209-1.171-3.8138-.124-.4864-.253-.9842-.321-1.4833-.008-.0623-.117-.6477-.029-.7163.111-.0864.563.3442.616.3823.878.6146 1.388 1.4312 1.831 2.4422.717 1.6357 1.04 3.4455 1.801 5.0609.738 1.5685 1.923 2.7216 3.128 3.8545 1.194 1.1227 2.16 2.225 2.798 3.8265.339.8509.602 1.7691.685 2.6975.018.2134-.095.8293.082.9817.522.4458.307-1.2205.286-1.3779-.193-1.3932-.704-2.7763-1.393-3.9612-.336-.5791-.728-1.0897-1.189-1.5532-.236-.2388-.606-.4623-.782-.7518-.154-.254-.151-.1804-.101-.5017.02-.1245.036-.2489.05-.3759.166-1.5012-.041-3.048-.482-4.473-.23-.7442-.527-1.4643-.887-2.1437-.159-.2985-.327-.588-.51-.8687-.202-.3099-.534-.5741-.027-.2032 1.168.8534 2.575 1.3119 3.707 2.2314 2.105 1.7081-.771 3.142-.711 4.9517.03.8865.647 1.6612 1.082 2.3698.476.7748.956 1.5482 1.429 2.3254.553.9068.866 1.999.976 3.0823.031.2972-.103.8966.08 1.1341.192.2502.454.1004.561-.1397.167-.3721.022-1.0198-.034-1.4109-.097-.6719-.265-1.3424-.498-1.9736-.247-.6706-.63-1.2395-.997-1.8364-.44-.7151-.881-1.4301-1.319-2.1464-.108-.1765-.227-.3492-.32-.5372-.404-.8267-.294-1.3868.176-2.1018.403-.6122.832-1.1811.946-1.9495.015-.1041.028-.8115-.006-.8013.085-.0254.634.5867.706.6578.556.5474 1.095 1.1202 1.591 1.7361 1.053 1.3056 1.658 2.6556 1.903 4.3739.226 1.5837.262 3.1966.28 4.7968.001.1334-.028 1.2395.378.7582.23-.2718.027-1.4224.019-1.7717-.017-.7683-.046-1.5379-.104-2.3037-.101-1.3335-.241-2.7598-.779-3.9777-.642-1.4554-1.74-2.6721-2.815-3.7503-.181-.1816-.365-.3582-.549-.5347-.038-.0368-.071-.0686-.101-.0978.275.0369.962.4191 1.137.4877.816.3213 1.586.6934 2.224 1.3538 1.199 1.2408 1.408 3.1827 1.804 4.8514.349 1.472.805 2.9033 1.482 4.2355.079.1549.291.4369.469.7087.062.1066.125.2146.191.3238.053.108.086.2019.082.268-.041.5778-.61.2349-.886.5232-.117.1219-.194.2147-.063.3798.19.24 1.025-.2134 1.207-.2833.555-.212 1.097-.4673 1.618-.7632 1.309-.7455 2.498-1.7552 3.479-2.9655 1.069-1.3221 1.82-2.9413 3.006-4.1516.714-.7277 1.61-1.317 2.561-1.5723.048-.0127.131-.0203.219-.0292-.191.1003-.375.2184-.55.3429-1.163.8293-1.894 2.0955-2.499 3.4341-.756 1.6688-1.407 3.4747-2.859 4.5733-.343.2603-2.969 1.5875-2.824 1.9088.242.5359 2.295-1.0097 2.61-1.2205 1.265-.8458 2.071-2.0307 2.735-3.4646.706-1.5227 1.276-3.2296 2.485-4.3777.679-.6464 1.668-1.2827 2.6-1.0541.38.0928.7.3175.968.6147-.717-.3759-1.744-.1105-2.397.2858-1.032.6261-1.637 1.778-2.084 2.9324-.863 2.2289-1.609 4.7968-3.787 5.8712-.001 0-.004.0013-.005.0026-.002.0012-.005.0025-.008.0038-.016.0076-.024.0203-.03.033-.113.1397-.118.315.083.3886.272.1004.787-.3835.996-.5486.929-.7315 1.591-1.806 2.1-2.9134.537-1.1671.858-2.4473 1.435-3.5916.433-.8623 1.066-1.6776 1.946-1.9951.352-.127.968-.3112 1.34-.1448.383.1714.06.3772-.141.621-.818.9881-1.513 2.0981-1.848 3.3935-.389 1.4973-.47 3.2728-1.533 4.4335-.123.1334-.584.3633-.454.6439.06.1296.173.1194.275.0953.302-.0711.634-.5944.803-.8458.314-.4649.533-.9957.699-1.5418.475-1.5583.566-3.1522 1.417-4.5555.131-.2185 1.088-1.8098 1.359-1.6942.348.1498.049 1.397-.018 1.6789-.457 1.9393-1.957 4.0297-1.122 6.0973.125.3099.597.8255.557.1753-.01-.1639-.222-.456-.27-.6312-.057-.2121-.091-.4445-.103-.6668-.018-.386.028-.7747.106-1.1519.129-.6273.376-1.2065.606-1.7932.295-.7544.899-2.1971.819-3.3058.064.1663.119.3327.166.494.434 1.5113.475 3.1471.588 4.7155.067.9436.128 1.8885.204 2.8309.018.2146-.045.9296.153 1.0693.559.3937.252-1.1925.241-1.3462-.133-1.7209-.221-3.4481-.392-5.1651-.131-1.3094-.357-2.7381-1.108-3.8037-.335-.4775-.764-.8661-1.269-1.1074-.255-.1219-.522-.1968-.796-.2388-.285-.0431-.8.0826-1.007-.1866-.179-.2337-.199-1.1811-.245-1.4758-.069-.4356-.135-.8725-.197-1.3106-.066-.4572-.128-.9144-.19-1.3716-.011-.0826-.1-.4966-.111-.6858.027.0343.056.0724.088.1168.456.602.792 1.2611 1.333 1.7945.516.5093 1.069.9411 1.541 1.5075 1.035 1.2395 1.797 2.7153 2.551 4.1682.943 1.8224 1.646 3.5915 1.669 5.7264.011.8865-.066 1.7932-.281 2.6505-.041.1638-.289.6375-.046.7556.481.235.605-1.4363.635-1.6675.225-1.6954.112-3.4988-.438-5.1079-.47-1.3729-1.199-2.6607-1.883-3.9154-.736-1.35-1.559-2.6759-2.644-3.7199-1.063-1.0223-2.231-2.0891-2.642-3.6576-.274-1.0465-.279-2.2619-.375-3.3439-.069-.7823-.15-1.5723-.182-2.3571-.013-.3163-.055-.7608.056-1.063.043-.1181.58-.8509.878-.6528.123.0813-.004.8585-.008 1.0516-.014.6794.029 1.3589.123 2.0307.209 1.5011.671 2.968 1.367 4.2812.727 1.3716 1.758 2.3127 2.729 3.4582 1.207 1.4249 2.252 3.0798 2.89 4.9022.548 1.5697.813 3.2385 1.066 4.8895.146.9538.27 1.9126.308 2.8804.018.4572.019.9169-.015 1.3729-.021.2908-.224.8064-.136 1.0426.24.6439.449-.1194.494-.461.214-1.6307.003-3.3045-.243-4.9162-.139-.9067-.284-1.8135-.471-2.7089-.011-.0495-.053-.2527-.107-.4686.111.2159.227.4254.257.4928.369.8204 3.474 8.1153 4.221 7.62.312-.2058-.362-.8878-.45-1.0249-.472-.7341-.901-1.5012-1.304-2.2835-.86-1.67-1.592-3.4125-2.374-5.1257-.713-1.5621-1.466-3.109-2.383-4.5403-.881-1.3767-1.993-2.4346-3.012-3.6716-1.06-1.2877-1.792-2.8943-2.194-4.5669-.215-.8941-.336-1.8174-.351-2.7419-.006-.3607-.056-.9081.046-1.2548.106-.3607.216-.4458.504-.4813.25-.0305.655.0533.771.1397.573.4331.212 2.2098.241 2.8829.029.6883.128 1.3754.289 2.0422.344 1.4224.97 2.7635 1.818 3.9039.446.6008.957 1.1456 1.52 1.6129.617.5119 1.368.884 1.927 1.4758.584.6185.759 1.7081 1.046 2.5286.229.6553.47 1.3055.728 1.9469.614 1.5291 1.327 3.0124 2.183 4.3967.428.6909.89 1.3577 1.384 1.9927.284.3657.579.7213.884 1.0655.213.2413.495.7099.777.8344.182.0813.329.1651.481-.0483.292-.4089-.414-.8737-.61-1.0884zm-137.1238-8.8938c-.3205.2921-.6595.5512-.9557.8763-.1597.1753-.3078.3734-.434.5791-.0162.0267-.1029.1791-.1157.1981.0023-.0165.0336-.146.0336-.2552 0-.809-.1956-1.2853.3367-2.0066.2407-.3251.5161-.5601.6827-.9475.3668-.8483.2037-1.811.1458-2.7101-.0486-.762-.0197-1.4897.5057-2.0651.3506-.3835.8539-.6248 1.2554-.9385.0023-.0025.0047-.0051.007-.0076.0023-.0013.0046-.0026.0081-.0038.7706-.682 1.2578-1.585 1.6535-2.5692.184-.4585.3957-.9335.5299-1.4123.0324-.1168.0544-.2045.0683-.268-.0092.061-.0197.1461-.0289.2566-.0266.3111-.0394.6223-.0451.9334-.0186 1.0732.1596 2.2352-.0672 3.2855-.1284.5982-.3945 1.185-.6028 1.7552-.6978 1.9024-1.5031 3.9573-2.975 5.3022zm5.9083-14.1478c-.0845.179-.1609.3632-.2315.5512-.3945 1.0464-.5658 2.1856-.5681 3.3147-.0046 2.4942.8574 4.8412 1.7299 7.1031.0139.0343.1018.2337.14.3327-.0266.0038-.0544.0064-.0845.0115-.1307.0177-.4154-.1766-.5542-.2083-.3935-.0915-.8065-.0737-1.1953.0317-.5994.1613-1.1456.5309-1.686.8433-.4096.2362-.8493.4382-1.2288.729-.3078.1867-.6191.3683-.9199.5664-.2141.141-.0336.0305.0717-.0927.0486-.0571.2303-.348.1528-.2286.3783-.5829.7-1.209.9893-1.8491.4096-.9068.7475-1.8491 1.09-2.7877.3448-.9436.4906-1.7539.4663-2.7724-.0301-1.2649-.1007-2.573.199-3.8087.2199-.9055.7626-1.5545 1.524-1.9431.4223-.2159.2476-.0889.1064.2108zm30.1786-4.3003c.5149.5703.6075 1.3081.7105 2.0778.1076.8026.1539 1.6129.2118 2.4206.0555.7747.2337 1.6319.0254 2.3927-.2141.781-.8354 1.3297-1.1779 2.0345-.2372.489-.331 1.0249-.353 1.5736-.0277.6997.0753 1.3982.0486 2.098-.0347.8877-.3401 1.6281-.7417 2.3838-.3945.7417-.7856 1.4834-1.1629 2.2365-.1724.3441-.3436.6896-.5137 1.035-.0313.0623-.1354.2997-.2176.4864.0972-.4711.1158-1.4846.125-1.6586.0359-.7175.037-1.4376.0451-2.1565.0336-3.1788.272-6.496.8575-9.6139.398-2.1171 1.3839-4.6571.3448-6.7323.6642.3582 1.2774.8433 1.7993 1.4199zm-3.4459-1.8681c.5497.0279 1.0195.1181 1.3041.6769.169.3327.2581.715.3136 1.0884.0798.541-.0683.7201-.4143 1.0299-.2591.2312-.494.4941-.7104.7722-.869 1.1176-1.3122 2.4054-1.4881 3.8507-.3575 2.9337-.2754 5.9842-.3726 8.9408 0-.0191-.0057.0927-.0069.226-.0255-.099-.0474-.179-.0474-.179-.0822-.3556-.1817-.7074-.2824-1.0567-.2106-.7328-.442-1.4617-.5635-2.2199-.2765-1.726.0012-3.4862-.1539-5.221-.1331-1.4948-.6827-3.0861-.5392-4.5873.074-.781.3113-1.6484.6931-2.3126.4478-.7798 1.4846-.9843 2.2679-1.0084zm-4.1158 2.9603c.0197-.0368.0416-.0711.0625-.1066-.0232.1676-.0104.3543-.0104.5219 0 .4699.0416.9411.0196 1.411-.03.6325-.1978 1.1875-.442 1.759-.037.0863-.2858.6591-.3749.8979.0116-.2223-.0613-.7328-.0845-.8395-.0694-.3137-.1978-.5766-.3587-.8408.3333-.9652.6931-1.9227 1.1896-2.8016zm-18.0012 5.0013c.243.3899.4686.7874.6676 1.2065.3935.8281.6989 1.7006.9998 2.5718.6295 1.8288 1.2508 3.6728 1.598 5.5956.0416.2337.0752.4674.1134.7023.0011.0089.0034.0153.0046.0229-.2199-.3823-.4374-.7646-.6538-1.1494-.4235-.7544-.832-1.5214-1.1779-2.3228-.4073-.9423-.7973-1.9203-1.0414-2.9312-.2291-.9499-.2187-1.9278-.353-2.893-.0289-.2109-.0659-.4191-.1157-.6249-.0578-.2413-.236-.4889-.0416-.1791zm3.3626 12.1374c-.0602.4915-1.1907.1524-1.5101.0216-2.1152-.8699-3.1705-3.3833-3.778-5.5956-.6375-2.3203-.9523-4.9644-.8956-7.3889.0024-.1168-.1446-1.3221-.1157-1.3551.0729-.0838.5716.1486.6654.1867.4998.2032 1.0009.5614 1.1594 1.1583.199.7505-.2187 1.8262-.3182 2.5933-.0741.5702-.1169 1.1455-.1157 1.7234.0058 2.079.6248 4.1466 1.7854 5.795.5635.8014 1.2485 1.4961 2.0296 2.0371.2615.1816.5323.3442.8123.489.2684.1384.317.0508.2823.3352zm-1.6709-1.8466c-.7753-.715-1.4094-1.604-1.8792-2.5869-1.0853-2.2708-1.112-4.774-.5982-7.2276.0613-.2896.1296-.583.1342-.8827-.0034-.0673-.0058-.1346-.0092-.2019.3078.2819.4003 1.3767.4408 1.7348.1204 1.049.1481 2.0663.4351 3.0861.6052 2.1476 1.6535 4.078 2.7296 5.9703.1458.2565.4386.7633.6607 1.303-.4165-.0292-1.5169-.8293-1.915-1.1963zm1.9555-2.3025c-.0231-.0952-.1689-.6705-.1689-.6705s.575.6058.899.7785c1.1363.6058 2.4739.8255 3.7283.8407.7197-.0089 1.4336-.0774 2.1371-.2527.1482-.0368.8123-.3289.8355-.3175-.0521-.0254-.773.6845-.913.7785-1.3688.9233-2.8997.8585-4.419.4521-.5948-.1587-1.473-.4-1.8791-.9512-.1285-.1753-.1609-.447-.2187-.6566zm.6862 5.0051c-.0671-.348-.0706-.7277-.1019-1.0808-.059-.6565-.1203-1.3119-.2071-1.9634-.0277-.1968-.1805-.8153-.1805-.8153s.5057.4534.9199.6032c.5612.2032 1.1317.381 1.7149.475.0937.0152.9638.1562 1.2265.0978-.2337.1384-.9407.4889-1.0206.541-.7787.5068-1.4533 1.1773-1.9971 1.9711-.1991.2895-.2535.6832-.3518.1714zm.4304.9906c.324-.7175.8887-1.3856 1.4464-1.8948 1.0136-.9259 2.2471-1.3094 3.4401-1.858 2.4276-1.1164 3.7248-3.8431 4.8448-6.2954.6642-1.4555 1.252-2.9503 1.7646-4.4781.0776-.2311.1539-.4635.2303-.6947.0706-.2159.0278-.4318.184-.2705.2777.2858.14 1.1621.0717 1.5177-.1562.8204-.516 1.5748-.847 2.3228-.7 1.5812-1.4105 3.156-2.1152 4.7346-.6468 1.4491-1.1918 3.1699-2.261 4.318-.884.9487-2.077 1.557-3.0444 2.4092-1.1177.9855-2.1452 2.0853-3.1404 3.2169-.3714-.8852-.9916-2.1018-.5739-3.0277zm1.2057 4.6114c-.133-.3353-.3888-.8052-.3309-1.1303.0648-.3708.5172-.7252.7591-.9881.5426-.5918 1.0992-1.1696 1.6778-1.7195.987-.9386 2.077-1.6485 3.1253-2.488.9894-.7937 1.5714-1.8809 2.1014-3.0709.6306-1.4185 1.2601-2.8359 1.8942-4.2519.1943-.4344.3887-.8674.582-1.3018.0972-.2197.2337-.4572.3436-.6959-.0046.033-.0104.0647-.0162.0965-.0752.3772-.1423.7569-.2094 1.1366-.2511 1.439-.4698 2.9249-1.1768 4.1974-.3147.5664-.7382 1.0566-1.0078 1.6535-.2604.5753-.3518 1.2129-.5346 1.8187-.3657 1.2103-1.2023 2.0929-1.981 2.9972-1.3804 1.6015-3.1057 3.5662-5.2255 3.7503zm2.3941-.1981c-.1909.0178-.4119.0584-.6144.066.5785-.3403 1.1328-.6807 1.6581-1.1189.7371-.6146 1.3631-1.3462 1.9972-2.0815.5589-.6477 1.1536-1.2789 1.6072-2.0231.3564-.5829.5508-1.1963.7197-1.8682.1944-.7759.4664-1.4071.8991-2.0561.6816-1.0224 1.097-2.1082 1.3585-3.3401.1446-.6795.2511-1.3691.3737-2.0549.0104.282.0255.5652.044.8471.1874 2.8893.7348 5.9246-.7197 8.5344-1.3481 2.4181-3.6426 4.2152-6.1165 4.9695-.4016.0445-.8031.0864-1.2057.1258zm8.823-1.8326c-1.0009.3899-2.0215.7035-3.0583.9499-.5785.1385-1.1606.2553-1.7449.3594-.2546.0458-.5091.0877-.7648.127-.1192.0191-.8714.2286-.3206.0623.7869-.2375 1.6142-.9703 2.2506-1.5177.7255-.6248 1.3874-1.3436 1.9474-2.1488.795-1.1418 1.3828-2.4562 1.5274-3.8951.2141-2.1235-.1458-4.2685-.2406-6.3881-.0556-1.2523-.0232-2.4892.4489-3.6538.3147-.776.7429-1.4923 1.0113-2.2911.3032-.9005.2245-1.7768.2245-2.7204 0-.5626 0-1.1404.3252-1.6078.0231-.0343.2881-.3035.4304-.4547-.0092.0369-.0185.0724-.0301.0953-.8238 1.6891-.3136 3.5966-.0555 5.3543.3136 2.1349-.037 4.3066.3078 6.4288.3691 2.2695 1.4105 4.191.8933 6.5697-.4235 1.9507-1.5332 3.7579-3.152 4.732zm3.1612-1.3475c-.5577.1206-1.0773.3759-1.591.635.0011-.0025.0035-.0051.0046-.0089.1065-.1156.2083-.2349.3067-.3569.0995-.1232.1955-.2514.2881-.3822.2372-.3353.4513-.6922.6375-1.0643.3865-.7709.6735-1.6205.8586-2.4752.302-1.3907.2962-2.8309.3448-4.2507.0579-1.7145.1169-3.429.1759-5.1435.0452-1.3386.0648-2.7039.4062-3.9993.2511-.9525.7486-1.8275 1.37-2.5425.1458-.1677.3147-.3061.4605-.4699.0857-.0953.1146-.1766.1308-.2045.0046-.0038.0081-.0064.0127-.0102.0093.0064.0197.0483.0474.1448.088.3035-.1411 1.0249-.2059 1.3437-.3495 1.7234-.7082 3.3985-.913 5.1537-.2383 2.0358-.4501 4.0779-.5126 6.1303-.0555 1.8199.0613 3.6855-.3309 5.4711-.1076.4877-.2546 1.1786-.545 1.5761-.2858.3899-.5369.3658-.9454.4547zm6.8663-5.3848c-.1608.1054-.3922.1511-.5635.2337-.4235.207-.7162.4724-.9708.8915-.7452 1.2332-1.7947 2.2619-2.8257 3.2118-.0497.0445-1.1513.9449-1.1906.8039-.0394-.1422.3911-.7581.4605-.8953.4177-.8192.8215-1.6472 1.2312-2.4702.3969-.7963.8018-1.5849 1.2219-2.366.3216-.5981.6433-1.2141.7787-1.8999.3043-1.5481-.3402-3.1864.5149-4.5999.3391-.5601.7822-1.0503.9963-1.693.2071-.6235.1504-1.2649.0926-1.9113-.0313-.3582-.1678-4.139-.4351-4.1656.1666.0165.4594 1.0426.5346 1.2649.1157.3378.2349.6731.3448 1.0135.2569.795.4825 1.6027.6758 2.4193.685 2.8905 1.2311 6.2179-.0822 9.0056-.184.3912-.4316.9258-.7845 1.157zm2.2032-2.1832c-.3483.5436-.714 1.058-1.1595 1.5088-.3621.367.0533-.1499.1354-.3289.0845-.1842.1609-.3709.2303-.5626.324-.8916.4987-1.8441.5624-2.7991.1469-2.1819-.3183-4.4361-.8552-6.5215-.1457-.5651-.3066-1.1252-.4825-1.6789-.0925-.2909-.1747-.5982-.2927-.8789-.0567-.1359-.1088-.2438-.0706-.2768.0382-.0331.1007.1181.2106.3289.5971 1.1443.8111 2.4562 1.2022 3.7097.324 1.0376.7533 2.032 1.0322 3.0874.1874.7099.3217 1.4516.2962 2.1945-.0312.9284-.3333 1.4796-.8088 2.2162zm3.8948-5.4673c-.6375.8903-1.2751 1.7805-1.9127 2.6708-.199.2756-.3992.5499-.6005.823-.0671.0914-.1331.1816-.2002.273 0-.0013.0011-.0025.0011-.0051-.0543-.0546.0324-.9563.0243-1.0909-.0173-.2794-.0532-.5588-.0995-.8331-.2048-1.2078-.6445-2.333-1.0564-3.4659-.4166-1.148-.8609-2.2847-.7649-2.3241.0949-.0393.3287.7582.8447 1.4288.6503.8445 1.4314 1.3462 2.4404 1.5113.4813.0787.972.0762 1.4545 0 .1411-.0216.5149-.0419.7185-.1715-.273.4014-.5669.7887-.8493 1.1824zm1.4696-2.0523c-.2453.2705-.5578.3937-.8968.4889-.7116.1994-1.4753.2185-2.1904.0343-.714-.1842-1.2694-.6083-1.7554-1.1976-.2707-.3289-.516-.682-.744-1.0465-.0578-.0927-.3286-.522-.2812-.5436.0475-.0228.2858.3277.4305.475 1.6674 1.7133 4.0522 1.8466 6.01 1.0021-.1816.2705-.361.5549-.5727.7874zm-4.2385 12.5057s-.0035.0025-.0047.0038c.0035-.0026.0058-.0051.0093-.0076-.0012.0012-.0035.0025-.0046.0038zm13.3368-11.1799c-.5403 1.0948-1.1443 2.1565-1.716 3.2322-.4721.889-.9442 1.778-1.4163 2.667-.3332.6261-.663 1.2586-1.0946 1.8098-.6191.7912-1.5679 1.1328-2.1638 1.9405-.6584.8916-.7799 2.0828-1.2647 3.0722-.5161 1.0528-1.5089 1.6141-2.4427 2.1336-.339.1892-.6792.3772-1.0194.5651-.2442.1359-.5392.2604-.8169.4026.0358-.0406.0705-.0787.103-.1105.376-.3746.7359-.7683 1.0819-1.1747.6757-.7925 1.3005-1.6358 1.893-2.5058 1.252-1.8364 2.4114-3.7782 3.4968-5.7378.5519-.9957 1.0576-2.0269 1.4232-3.1242.3842-1.1507.5913-2.3635.9871-3.509.7556-2.187 2.0434-4.1009 3.6854-5.5843.103 1.8987.096 4.2355-.7371 5.9221zm8.9654-1.9151c-.0267-1.2561.2638-2.488.1238-3.7465-.2639-2.3635-1.5772-4.3904-2.8095-6.2713-.3101-.4648.0092-.1803.265-.014.339.221.6017.5169.8354.8611.3749.5512.648 1.1735 1.0229 1.7247.3529.5194.8077.9385 1.134 1.4782.3598.5957.6711 1.2357.9777 1.8657.5589 1.148 1.0692 2.3241 1.5957 3.4912.5855 1.3005 1.5447 2.6708.8551 4.1377-.2534.5397-.6329 1.0007-1.0287 1.4198-.3402.362-.8539 1.0465-1.289 1.2459-.2418.1105-.14.2134-.1238-.2184.0104-.2782-.0081-.555-.0428-.8306-.059-.4725-.1701-.9373-.3078-1.3894-.3888-1.2738-1.1768-2.3724-1.2057-3.7554zm-5.7266 8.1267c-.0451.0369-1.2636-.4267-1.4452-.4508-.8598-.1118-1.7091.1333-2.3837.7353-.6943.6185-1.1374 1.5024-1.5714 2.3419-.6422 1.2408-1.2936 2.272-2.4796 2.9464-.2847.1613-.6145.4153-.9153.5143 0 0 0 0-.0012 0 .0336-.1193.2338-.3924.2696-.4533.3078-.5195.6283-1.03.957-1.5355.7949-1.2243 1.635-2.413 2.4739-3.6017 1.6651-2.3559 3.3544-4.7295 4.6493-7.3622.0636-.1296.1539-.4013.177-.3912.0243.0102-.0474.2934-.0602.4077-.0567.5499-.1018 1.1011-.1111 1.6548-.0196 1.1417.0695 2.2835.228 3.4112.0393.282.3969 1.632.2129 1.7844zm1.7519 1.0643c-.2037-.0191-.8274-.4979-.9882-.6541-.2754-.2679-.3078-.7137-.3761-1.082-.1423-.7645-.2557-1.5367-.3286-2.3127-.1273-1.3652-.1365-2.7546.059-4.1135.0822-.569.1933-1.143.3622-1.6904.2071-.6706.5508-1.2751.7533-1.952.1817-.7277.2754-1.4643.3494-2.2123.0764-.7633.0857-1.6841.3819-2.3953.1458-.3492.037-.32.1411-.0241.0672.1905.0579.5017.0648.7049.0105.3137-.0057.6299-.0358.9423-.0579.5931-.1794 1.1709-.3344 1.7412-.368 1.3589-.7973 2.6898-.6573 4.13.0579.5957.1771 1.1849.2789 1.7742.221 1.284.4455 2.5667.6642 3.8507.0833.4864.545 3.3769-.3391 3.2944zm.9071-.8928c.1192-.9055-.0474-1.8187-.2001-2.7077-.2384-1.3843-.4779-2.7686-.7163-4.1529-.2337-1.3602-.243-2.5311.1007-3.8735.2869-1.1176.641-2.1869.7243-3.3541.007-.0901.0579-.8839.0197-1.1125.0741.1892.2893.7595.3298.8738.2684.7569.4304 1.557.4756 2.3673.089 1.6268-.3715 2.9743-.913 4.4513-.4027 1.0986-.5034 2.1679.1875 3.1509.8805 1.2548 2.2609 1.952 2.239 3.7617-.103.6795-.7047.9881-1.1942 1.2993-.2383.1511-.8898.7264-1.1583.6959-.442-.0495.0614-1.0592.1065-1.4008zm6.5181-11.0592c1.0564 1.7767 1.9057 3.8925 1.444 6.0528-.2198 1.0313-.7961 1.8263-1.2427 2.7407-.3471.7112-.5091 1.4605-.6248 2.2517-.2905 1.9799-.5219 3.97-.7811 5.9563-.1238.9462-.2476 1.8923-.3182 2.8448-.0324.4382.081 1.1684-.0567 1.5685-.0104.0292-.0139.0546-.0139.0762-.0243-.0343-.0613-.0775-.1157-.1321-.0752-.0762-.2418-.3543-.3032-.442-.6618-.9474-1.1594-1.8173-1.4174-2.9895-.1909-.8662-.3356-1.7247-.6735-2.5413-.4269-.8954-1.0437-1.6053-1.7622-2.2302.0034.0026-.3634-.3098-.3634-.3035-.0034-.2159.3865-.334.5173-.414.457-.2781.9071-.5715 1.3492-.8776 1.4706-1.0185 2.8997-2.1844 4.154-3.5115.8528-.9017 1.679-2.1019 1.3885-3.4786-.1932-.9195-.744-1.7958-1.1212-2.634-.3842-.8547-.7614-1.7132-1.156-2.5616-.236-.508-.4767-1.0147-.729-1.5138-.0289-.0559-.2106-.4762-.3158-.6502.17.1778.6144.6032.5253.5054.6144.6744 1.1421 1.4847 1.6153 2.2822zm8.1298-6.4834c-.2152.3594-.4142.7303-.5982 1.11-1.6523 3.4087-1.9243 7.3305-2.5572 11.0643-.3228 1.905-.7463 3.7566-1.5609 5.4902-.1991.4229-.4166.8344-.6584 1.2294-.1991.3251-.5589 1.0871-.9061 1.2369-.0069.0026-.0115.0127-.015.0242-.0023-.0394-.0058-.0838-.0104-.1385-.0197-.2324-.0104-.4749-.0174-.7086-.0162-.5906-.0254-1.1748.0162-1.7641.2338-2.1869 1.0692-4.4437 1.6559-6.5456.5126-1.8351 1.0252-3.6703 1.5378-5.5041.3274-1.1735.6317-2.3724 1.1779-3.4519.4929-.9741 1.1941-1.8009 2.0365-2.4219.1296-.0965.3205-.207.3124-.2629.0128.0914-.3587.5537-.4131.6452zm2.9079-.6147c-.4536.7913-.7498 1.6764-.9327 2.587-.3783 1.8796-.2835 3.8227-.3124 5.7341-.0382 2.4295-.4594 4.5403-1.4371 6.7259-.8112 1.8149-1.7357 3.5675-2.5237 5.395-.7857 1.8263-1.7785 3.3922-2.9471 4.9492-.2338.3124-.4745.621-.6932.9474-.0127.0191-.0914.1499-.1643.2718.0232-.1283.0313-.2743.0428-.3264.2234-1.0566.5497-2.0904.9662-3.0747.7464-1.7589 1.8398-3.3159 2.732-4.986.9338-1.7488 1.5991-3.5712 1.8861-5.5804.2823-1.9786.2858-3.9878.4015-5.983.177-2.3888 1.1409-4.6278 2.3686-6.5849.3147-.5029.9257-1.1621 1.1629-1.1621.037 0 .0636.0216.0729.0584.037.1448-.5091.8281-.6237 1.0275zm10.3102 10.0547c-.055-.6566-.22-1.2167-.564-1.759-.349-.5512-.805-1.0236-1.077-1.632-.344-.7683-.396-1.7119-.486-2.5476-.08-.7404-.144-1.4833-.21-2.2263-.129-1.4503-.236-2.9159-.48-4.3497-.038-.2248-.254-1.0313-.126-1.1634.031-.033.1-.0457.185-.0457.006 0 .013 0 .019-.0013.09 0 .2.0153.313.0369 1.72.5524 1.017 6.7488 1.47 8.1991.761 2.446 3.014 4.4768 2.613 7.2682-.124.0318-.251.0661-.386.0978-1.094.2566-1.196-.9893-1.27-1.8758zm-3.693 7.8943c.241-.6845.566-1.3551.964-1.9457.993-1.3754 2.176-2.3304 3.517-3.2524.188-.1296 1.3-.8319 1.403-.6198-.006-.0127-.393.6515-.397.6579-.319.8369 0 1.6878-.612 2.4396-.652.8014-1.639 1.3539-2.554 1.6879-.584.2133-.932.4648-1.323 1.0033-.209.287-.474.8699-.807 1.0096-.702.2947-.298-.6743-.191-.9804zm7.947 1.411c-.804 1.4706-2.354-.4687-3.192-.9894-.545-.3378-1.191-.5169-1.784-.2095-.673.3492-1.033 1.1455-1.487 1.7462-.185.2451-.376.4903-.619.6655-.485.3505-.515-.6172-.727-.8814-.272-.3416-.081-.1854.168-.3111.096-.0483.177-.1181.258-.1905.419-.3747.651-.9335 1.031-1.3462.355-.3874.846-.4725 1.296-.668.486-.2109.949-.4826 1.379-.8078.54-.4076 1.148-.9055 1.355-1.6192.1-.3429.096-.7036.124-1.0579.04-.5004.57-2.0904 1.158-1.1443.288.4636.166 1.2687.167 1.8034.001.4801.055.9398.168 1.4046.239.9932 1.223 2.6607.707 3.6056zm.791-6.8047c-.213-.1194-.432-.2273-.653-.3289-.541-.249-1.093-.4712-1.684-.522-.23-.0191-.433.0013-.631.0368.498-3.4709-2.792-5.6032-2.869-8.9751-.025-1.1366.247-4.5707-.663-6.1074.336.1574.684.3873.91.654.937 1.1049 1.098 2.9096 1.181 4.332.088 1.4808.126 2.9553.595 4.365.424 1.2789 1.108 2.4333 1.857 3.5103.746 1.0744 1.524 2.1501 2.357 3.1458.094.1117.256.2603.226.3035s-.478-.3315-.625-.414zm5.595 4.2456c.923 1.552 1.511 3.3795 1.616 5.2324.025.4369.023.8776-.012 1.3132-.017.2184.063.588-.17.621-.075.0115-.377-.3619-.448-.4318-.672-.6616-1.319-1.369-1.814-2.2034-1.044-1.7577-1.383-3.8913-2.178-5.7785-1.852-4.1136-5.904-6.9025-6.439-11.7018-.206-1.8568-.094-3.725-.753-5.4928-.082-.2197-.257-.5016-.182-.5575.118-.0877.859 1.3474 1.119 1.825.477.8763.86 1.8148 1.203 2.761 1.297 3.5814 1.995 7.6238 4.387 10.5905.523.649 1.117 1.2065 1.771 1.6891.797.5867 1.374 1.2433 1.902 2.1311zm24.465 5.5067s-.01.0051-.016.0077c-.005.0012-.002 0 .016-.0077zm-8.622-6.844c.262-.2845.181-.2667.164.0216-.021.3378-.125.7112-.18 1.049-.092.5702-.282 1.1075-.377 1.6751-.1.5969-.106 1.2116-.243 1.8009-.166.7176-.451 1.4084-.719 2.0854-.613 1.5443-1.274 3.0899-2.049 4.5466-.202-.6185-.349-1.251-.471-1.8962-.101-.541-.355-1.2814-.356-1.8237 0-.4838.536-.7925.797-1.1442.33-.4445.606-.9373.858-1.4377.524-1.0401.939-2.1412 1.467-3.1788.309-.6071.653-1.2078 1.106-1.698zm-8.337-1.3437c.459.1626.921.3163 1.385.4623 1.711.5436 3.894 1.2256 5.269 1.2256.358 0 .539-.1029.587-.0026.048.1004-.374.6033-.426.6998-.25.4648-.472.9474-.689 1.4313-.177.3937-.348.7925-.526 1.1849-.067.1486-.172.5359-.369.5525-.09.0076-.466-.4344-.553-.5309-.957-1.0757-1.507-2.3889-2.61-3.3287-.624-.5321-1.302-.9855-1.949-1.4833-.048-.0356-.183-.1728-.317-.2883.113.0457.213.0825.196.0762zm-2.449-.9804c.65.3137 1.225.7163 1.807 1.1595.959.7303 2.002 1.397 2.872 2.2505.842.8255 1.333 1.9621 2.106 2.8587.152.1753.309.3442.482.4941.202.1778.233.1104.207.4051-.03.3378-.921 1.6218-1.184 1.5354-.214-.0698-.585-1.4173-.688-1.67-.269-.6592-.53-1.3221-.805-1.9787-.399-.955-.862-1.2776-1.766-1.5049-.584-.1461-.769-.6503-1.138-1.1443-.319-.428-.665-.8319-1.037-1.2065-.718-.7265-1.522-1.3284-2.387-1.8187.535.0762 1.043.3836 1.531.6198zm-.341.7087c.415.3314.807.6985 1.173 1.0947.37.4.941.9627 1.157 1.4859.146.3493.161.2477-.102.3874-.143.0762-.329.1028-.483.1574-.269.0953-.557.2375-.836.2858-.345.0597-.332.08-.489-.2464-.236-.4902-.361-1.0985-.56-1.6116-.086-.221-1.104-2.5172-1.186-2.4511.115-.094 1.227.8191 1.325.8966zm-1.685 3.0327c-.463-.2794-.993-.635-1.48-.8598-.459-.2121-1.355-.5092-1.183-.9423.076-.1905.479-.3048.665-.4077.369-.2311.773-.4026 1.09-.7226.191-.1918.587-1.096.742-1.0808.186.0191.682 1.2218.764 1.3932.274.5753.52 1.1697.74 1.7729.106.2921.207.5868.302.8852.104.329.261.4852-.192.6058-.47.1257-1.043-.4-1.448-.6439zm10.756 13.7961c-.182.9944-.733-.2426-.918-.5881-1.187-2.2021-1.543-4.5999-2.222-7.0015-.281-.9957-.672-1.8834-1.386-2.5933-.736-.7315-1.627-1.1164-2.549-1.4758-.394-.1536-.786-.3098-1.172-.48-.652-.2858-1.234-.4966-1.198-.5931.052-.1372.994-.1143 1.679-.3429 1.228-.4077 2.69-.9792 3.404.6528.281.6439.529 1.3081.797 1.9596.267.6477.603 1.3284.718 2.0282.061.3721.19.5626.304.9283.195.6185.248 1.3132.373 1.952.25 1.2726.669 2.3965 1.262 3.5218.27.5118 1.021 1.4173.908 2.0294zm-.327-1.8441c-.234-.4305-.867-1.3106-.749-1.8021.074-.3112.343-.6591.481-.9436.173-.3582.342-.7188.508-1.0821.379-.8331.744-1.6751 1.085-2.5285.267-.6681.535-1.3424.736-2.0384.256-.8852.22-1.8301.46-2.7191.165-.6058.246-1.2077.361-1.825.079-.414.165-.7505.464-1.0312.071-.0661.599-.4661.728-.3162-.038-.0445-.578 1.1391-.621 1.2979-.151.5601-.18 1.1557-.201 1.7361-.113 2.8689-.703 5.5778-1.398 8.335-.284 1.1176-.595 2.2289-.968 3.316-.045.1333-.17.6426-.288.6426s-.482-.8217-.6-1.0401zm1.22 1.9546c-.162.0914-.544.3327-.617.2921-.073-.0407.332-.7608.388-.9018.227-.5867.425-1.1861.61-1.7907.822-2.6809 1.545-5.4889 1.892-8.2931.194-1.5595-.095-3.5407.685-4.9238.251-.4457.478-.715.942-.842.303-.0825.607-.1232.904-.2337.192-.0724.384-.1574.56-.2705.061-.0393.118-.0889.178-.127.05-.0317.078-.0508.093-.066-.051.3683-1.017 1.684-1.159 1.9444-.267.4978-.492 1.0312-.571 1.6078-.11.7988.112 1.6256-.06 2.4155-.166.7608-.647 1.3272-1 1.9825-.409.7595-.272 1.6828-.117 2.5083.222 1.1887.605 2.3304.954 3.4798-1.028 1.3271-2.267 2.4269-3.684 3.2194zm4.392-4.233c-.023.0356-.302.5614-.362.5626-.06 0-.075-.1295-.129-.259-.1-.2401-.16-.5182-.236-.7709-.176-.5906-.341-1.1862-.469-1.7907-.115-.536-.223-1.0973-.204-1.6498.018-.5689.267-.9309.547-1.3868.35-.5677.663-1.1367.752-1.8263.078-.5943-.03-1.19-.003-1.7856.07-1.5926 1.195-2.6264 1.761-4.0005.228-.555.296-1.1443.381-1.7412.03-.2133.41-2.173.585-2.0612-.001 0-.003.7506.003.8471.023.3721.065.7417.086 1.1138.049.8471-.038 1.6269-.326 2.4155-.36.983-.642 1.7996-.655 2.8741-.024 2.0739.434 4.1376.844 6.1493-1.057.9169-1.792 2.1273-2.575 3.3096zm4.018-11.1417c.164 1.397.344 2.7927.553 4.1821.094.6325.329 1.3716.321 2.0092-.004.4597-.125.4114-.511.5588-.227.0863-.449.1892-.664.3048-.081.0431-.751.527-.771.5181-.053-.0254-.103-.5067-.117-.5766-.09-.4495-.178-.9004-.259-1.3512-.214-1.1989-.399-2.4169-.42-3.6399-.009-.5486.008-1.1087.127-1.6434.129-.5702.405-1.0858.587-1.6357.423-1.2776.194-2.4956.155-3.8164-.012-.3911-.036-1.223.357-1.4389.056-.0305.166-.1041.198-.0965.034.0076-.037.1943-.077.5436-.042.3492.063 1.3055.113 1.9481.106 1.3691.177 2.7877.409 4.1364zm8.334 3.9154c-.035.0127-.062-.0267-.154-.0889-.193-.1308-.38-.3111-.571-.4483-.423-.3048-.846-.5969-1.235-.9538-.695-.6375-1.295-1.3957-1.78-2.2352-1.027-1.7792-1.451-3.7833-1.37-5.875.012-.3099.025-.6185.018-.9284-.01-.3873-.114-.5092.242-.4026.439.1321.876.6782 1.158 1.0554.706.9449 1.128 2.1425 1.549 3.2601.409 1.082.782 2.1806 1.139 3.2855.187.5804.37 1.1633.551 1.7463.117.3771.491 1.1277.473 1.5252-.001.028-.006.0534-.021.0597z"/><path d="m84.1163 48.175c-.2869-.3455-.5149-.7468-.7243-1.1519-.3298-.6388-.6179-1.3069-.9315-1.9546-.7845-1.6217-1.6038-3.2423-2.548-4.7612-.8053-1.2941-1.7403-2.5248-2.924-3.4214-.449-.3403-.994-.7493-1.554-.8179-.5358-.066-.9037.2236-1.2937.5817-1.1663 1.0757-2.3315 2.2289-3.204 3.6106-.95 1.505-1.4105 3.2944-2.5387 4.6774-2.364 2.8956-6.4104 4.1961-9.7209 5.0788-.0116 0-.0232.0025-.0359.0127 0 0-.0012.0012-.0023.0025-.0058.0038-.0104.0076-.0139.0127-.1157.1003-.1678.2273-.0498.3709.1944.2349.9142-.042 1.1444-.1042 2.9738-.8128 6.5551-2.2923 8.742-4.7828 1.038-1.1811 1.5783-2.6099 2.2761-4.0348.273-.5575.5866-1.0833.9488-1.5774.1169-.1587.6098-1.049.3876-.3746-.2719.8217-.3286 1.7323-.5623 2.5705-.4571 1.6307-1.2115 3.161-2.1985 4.4793-.4976.6642-1.0542 1.2751-1.6605 1.8199-.2962.2667-.6503.4762-.9338.7556-.0613.061-.1759.1016-.1817.2159-.0404.7989 1.5321-.7594 1.6917-.9118 1.0218-.983 1.8931-2.1514 2.5735-3.443.7301-1.3856 1.1744-2.8677 1.4718-4.4272.0833-.4356.1643-.8763.3043-1.2954.0232-.0572.2662-.8459.3657-.8141.022.0063.2962 2.399.3355 3.302.0799 1.8936-.3934 3.6487-.9939 5.4026-.0301.0876-.9743 2.3889-.2581 1.9482.1609-.0991.2083-.5258.2673-.6972.1262-.3709.2569-.7392.3842-1.11.302-.8814.5901-1.7717.7834-2.6899.3228-1.5354.3078-3.1433.052-4.6914-.0763-.4623-.2453-1.0033-.2557-1.4783-.0069-.3048.081-.5143.1944-.6312.302-.3086.8979.0369 1.1629.5652.4235.8458.4397 2.0485.4837 2.9845.0625 1.3208-.0579 2.6353-.169 3.9484-.0798.9411-.1596 1.8822-.2395 2.8232-.0127.155-.1527 1.0275.2696.7532.2581-.1664.1817-1.1811.2037-1.4402.0683-.809.1377-1.618.206-2.4257.1365-1.6205.2348-3.2284.0451-4.8502-.0937-.8001-.1828-1.877-.7313-2.465-.1967-.2121-.4524-.2007-.4455-.2591.0069-.0572.1539-.1194.3865-.1232.5681-.0089 1.223.4648 1.5574.8776 1.1109 1.369 1.5425 3.5217 2.0053 5.2374.4582 1.6955.8875 3.41 1.5714 5.0166.0798.1892.3043 1.1176.6572.9448.2338-.1143.0475-.4064-.0196-.5524-.7695-1.6866-1.2578-3.4735-1.7415-5.2769-.449-1.6738-.8817-3.4582-1.7056-4.9682-.3031-.555-.6757-1.1151-1.2184-1.3907-.6712-.3403-1.2416-.1917-1.3099-.2591-.0694-.066.0694-.2311.2419-.3136.1735-.0826.6746-.2071 1.0101-.0737.2511.0991.5068.2603.7348.4127.3645.2439.707.5233 1.0298.8281.4976.4699.9454 1.002 1.3562 1.5634 1.0911 1.4897 1.9566 3.1826 2.7955 4.8514.6503 1.2928 1.1745 2.7749 2.0065 3.9446.0902.127 1.3955 1.5685 1.1999.6414-.0486-.2312-.5114-.4636-.6792-.6655z"/><path d="m53.174 74.8628h-.9697v3.1001h.4768v-.9094h.501c.4143 0 .7232-.0876.9234-.2616s.3008-.4496.3008-.8242c0-.3747-.0983-.6541-.295-.8344s-.5092-.2705-.9373-.2705zm.6005 1.5494c-.096.1105-.2753.1664-.5392.1664h-.5542v-1.2421h.4848c.258 0 .449.0445.5693.1334s.1817.24.1817.4546c0 .2147-.0475.3772-.1435.4877z"/><path d="m58.0605 76.5798c0 .2832-.0648.508-.1933.6744-.1296.1651-.3043.2489-.5253.2489s-.3957-.0825-.5253-.2489c-.1296-.1651-.1933-.3899-.1933-.6744v-1.717h-.4767v1.7386c0 .4471.1111.79.3356 1.0313.2233.2413.5103.3619.8609.3619s.6375-.1206.8609-.3619c.2233-.2413.3355-.5842.3355-1.0313v-1.7386h-.4767v1.717z"/><path d="m60.9742 76.6408h1.3538v-.4661h-1.3538v-.8204h1.5077v-.4915h-1.9845v3.1001h2.0331v-.4928h-1.5563z"/><path d="m64.8296 74.8628h-.4767v3.1001h1.7669v-.4966h-1.2902z"/><path d="m69.0773 74.7866c-.42 0-.7729.1524-1.0587.4585s-.4281.6871-.4281 1.1443.1423.8382.4281 1.1442c.2858.3061.6387.4598 1.0587.4598.4201 0 .773-.1537 1.0588-.4598.2858-.306.4281-.687.4281-1.1442s-.1423-.8382-.4281-1.1443-.6387-.4585-1.0588-.4585zm.7094 2.4003c-.1933.2185-.4293.329-.7094.329-.28 0-.5172-.1093-.7093-.329-.192-.2184-.2892-.4838-.2892-.7963 0-.3124.096-.5778.2892-.7963.1933-.2184.4293-.3276.7093-.3276.2801 0 .5173.1092.7094.3276.192.2185.2892.4839.2892.7963 0 .3125-.096.5779-.2892.7963z"/><path d="m74.0854 76.2192c-.0833 0-.1539.0318-.2118.0953-.0578.0635-.0867.141-.0867.2324s.0289.1702.0867.2349c.0579.0648.1285.0978.2118.0978s.1551-.0317.2141-.0978c.059-.0647.0891-.1435.0891-.2349s-.029-.1689-.0891-.2324c-.059-.0635-.1308-.0953-.2141-.0953z"/><path d="m78.7613 74.8628h-.9697v3.1001h.4768v-.9094h.501c.4154 0 .7232-.0876.9234-.2616.2001-.174.3008-.4496.3008-.8242 0-.3747-.0983-.6541-.295-.8344-.1968-.1803-.5092-.2705-.9373-.2705zm.5994 1.5494c-.0961.1105-.2754.1664-.5392.1664h-.5543v-1.2421h.4848c.2581 0 .449.0445.5693.1334.1204.0889.1817.24.1817.4546 0 .2147-.0486.3772-.1435.4877z"/><path d="m82.4675 74.8628-1.2451 3.1001h.5091l.2835-.7049h1.414l.2824.7049h.5091l-1.2451-3.1001h-.5091zm-.2592 1.9114.5137-1.2777.5138 1.2777h-1.0264z"/><path d="m85.3359 75.3416h.8575v2.6213h.4767v-2.6213h.8563v-.4788h-2.1905z"/><path d="m89.8869 74.8628-1.2451 3.1001h.5092l.2835-.7049h1.414l.2823.7049h.5091l-1.245-3.1001h-.5092zm-.2592 1.9114.5138-1.2777.5137 1.2777h-1.0263z"/><path d="m95.2015 77.3063c-.1805.127-.405.1905-.6723.1905s-.4964-.1003-.685-.2997-.2824-.4648-.2824-.7938c0-.3289.0972-.5956.2916-.7988.1933-.2019.4339-.3035.7198-.3035.1481 0 .2777.0203.3899.0597.1122.0393.2233.1117.3332.2146l.2546-.3988c-.2696-.2603-.6075-.3899-1.0148-.3899s-.7533.1537-1.0402.461c-.287.3074-.4305.6922-.4305 1.1532s.1412.8433.4224 1.1443.6306.4521 1.0483.4521c.4953 0 .8771-.1613 1.1433-.4839v-1.0604h-.4768v.8509z"/><path d="m98.8233 74.7866c-.42 0-.7729.1524-1.0587.4585s-.4282.6871-.4282 1.1443.1435.8382.4282 1.1442c.2858.3061.6387.4598 1.0587.4598s.773-.1537 1.0588-.4598c.2859-.306.4279-.687.4279-1.1442s-.143-.8382-.4279-1.1443c-.2858-.3061-.6388-.4585-1.0588-.4585zm.7082 2.4003c-.1933.2185-.4293.329-.7093.329-.2801 0-.5173-.1093-.7094-.329-.1932-.2184-.2892-.4838-.2892-.7963 0-.3124.096-.5778.2892-.7963.1933-.2184.4293-.3276.7094-.3276.28 0 .516.1092.7093.3276.1932.2185.2892.4839.2892.7963 0 .3125-.096.5779-.2892.7963z"/><path d="m104.242 77.178-1.641-2.3152h-.476v3.1001h.476v-2.2619l1.601 2.2619h.517v-3.1001h-.477z"/><path d="m107.193 74.8628h-.477v3.1001h.477z"/><path d="m110.551 74.8628h-.51l-1.245 3.1001h.51l.282-.7049h1.414l.282.7049h.509l-1.245-3.1001zm-.768 1.9114.514-1.2777.513 1.2777z"/><path d="m45.4017 65.2198-4.6447-6.1405h-.6028v7.6239h.7278v-6.1392l4.6146 6.1125.0208.0267h.611v-7.6239h-.7267z"/><path d="m52.9901 59.0792h-2.6371v7.6238h2.6371c1.871 0 3.2816-1.6383 3.2816-3.8126 0-2.1742-1.4106-3.8125-3.2816-3.8125zm0 6.858h-1.9104v-6.091h1.9104c1.4614 0 2.563 1.3094 2.563 3.0455s-1.1016 3.0455-2.563 3.0455z"/><path d="m60.7277 63.2437h3.5871v-.7671h-3.5871v-2.6302h3.8277v-.7671h-4.5555v7.6239h4.603v-.7658h-3.8752z"/><path d="m70.4764 62.4409-.0232.0712.022-.0712c-1.0021-.3632-1.569-.607-1.569-1.3957s.5669-1.3043 1.4093-1.3043c.9731 0 1.4233.6541 1.6292 1.2027l.0463.1232.6249-.381-.0382-.0991c-.3888-1.0172-1.2358-1.6243-2.2633-1.6243-1.2636 0-2.1465.8649-2.1465 2.1031 0 1.3627 1.0588 1.7399 2.18 2.1387l.0289.0102c.9431.3289 1.664.6464 1.664 1.4694 0 .8229-.6064 1.3576-1.583 1.3576s-1.6824-.5105-1.9138-1.4008l-.0382-.1486-.6387.4115.0266.0914c.3367 1.1417 1.2948 1.8237 2.5641 1.8237 1.4094 0 2.3201-.842 2.3201-2.145 0-1.397-1.171-1.8224-2.3039-2.2339z"/><path d="m91.4352 59.0793h-.7267v7.6239h3.8995v-.7658h-3.1728z"/><path d="m100.949 58.9636c-2.0064 0-3.5789 1.726-3.5789 3.9281 0 2.2022 1.5725 3.9282 3.5789 3.9282 2.007 0 3.579-1.726 3.579-3.9282 0-2.2021-1.572-3.9281-3.579-3.9281zm0 7.079c-1.5991 0-2.8511-1.3843-2.8511-3.1509 0-1.7665 1.252-3.1508 2.8511-3.1508 1.599 0 2.852 1.3843 2.852 3.1508 0 1.7666-1.253 3.1509-2.852 3.1509z"/><path d="m111.023 59.0792h-2.637v7.6238h2.637c1.871 0 3.281-1.6383 3.281-3.8126 0-2.1742-1.41-3.8125-3.281-3.8125zm0 6.858h-1.909v-6.091h1.909c1.461 0 2.563 1.3094 2.563 3.0455s-1.102 3.0455-2.563 3.0455z"/><path d="m121.189 63.7921h2.843c-.161 1.35-1.2 2.2505-2.609 2.2505-1.692 0-2.92-1.3246-2.92-3.1509s1.239-3.1509 2.881-3.1509c.997 0 1.917.5791 2.345 1.477l.053.1118.642-.4191-.053-.1016c-.595-1.1367-1.74-1.8441-2.987-1.8441-2.057 0-3.608 1.6891-3.608 3.9282 0 2.239 1.568 3.9281 3.646 3.9281 1.945 0 3.358-1.4262 3.358-3.3897v-.4038h-3.592v.7671z"/><path d="m129.356 65.9374v-2.6937h3.587v-.7671h-3.587v-2.6302h3.828v-.7671h-4.556v7.6239h4.603v-.7658z"/><path d="m81.3497 60.7441-2.5942 4.1961h.9373l1.9138-3.1216 1.915 3.1216h.9373l-2.5942-4.1961z"/><path d="m33.3944 58.9739-3.3996 7.7305h.8007l.8319-1.8783h4.1656l.832 1.8783h.8007l-3.3996-7.7305h-.6294zm-1.4279 5.0851 1.7426-3.932 1.7426 3.932z"/></g></svg>