<svg width="309" height="80" viewBox="0 0 309 80" fill="none" xmlns="http://www.w3.org/2000/svg">
<g clip-path="url(#clip0_242_3037)">
<path d="M93.49 42.7292C94.9498 42.7292 96.2564 42.9457 97.4279 43.3698C98.5993 43.7938 99.5905 44.3893 100.411 45.1472C101.231 45.905 101.87 46.8073 102.303 47.8538C102.744 48.9004 102.961 50.0553 102.961 51.3093C102.961 52.392 102.807 53.3935 102.501 54.3137C102.195 55.234 101.78 56.1092 101.258 56.9392C100.735 57.7693 100.122 58.5722 99.4283 59.3481C98.7345 60.1241 97.9956 60.909 97.2116 61.712L91.4445 67.6305C92.1834 67.414 92.9223 67.2426 93.6432 67.1163C94.3641 66.99 95.0399 66.9268 95.6797 66.9268H101.185C101.861 66.9268 102.393 67.1163 102.789 67.4862C103.186 67.8561 103.375 68.3433 103.375 68.9568V72.6018H82.6406V70.5718C82.6406 70.1838 82.7217 69.7598 82.8839 69.3177C83.0461 68.8756 83.3255 68.4696 83.731 68.0997L92.2375 59.5286C92.9674 58.7978 93.5981 58.1031 94.1388 57.4445C94.6795 56.7858 95.121 56.1272 95.4724 55.4866C95.8239 54.8461 96.0852 54.2055 96.2654 53.5649C96.4366 52.9243 96.5268 52.2477 96.5268 51.5259C96.5268 50.353 96.2474 49.4508 95.6887 48.8192C95.13 48.1877 94.274 47.8809 93.1296 47.8809C92.652 47.8809 92.2285 47.9531 91.832 48.0794C91.4445 48.2147 91.093 48.3952 90.7777 48.6297C90.4713 48.8553 90.2009 49.126 89.9757 49.4417C89.7504 49.7485 89.5702 50.0913 89.435 50.4522C89.2187 51.0567 88.9484 51.4988 88.615 51.7695C88.2816 52.0401 87.831 52.1755 87.2723 52.1755C87.1372 52.1755 86.993 52.1755 86.8398 52.1574C86.6866 52.1484 86.5244 52.1213 86.3622 52.0943L83.0461 51.5078C83.2624 50.0372 83.6769 48.747 84.2897 47.6553C84.9024 46.5637 85.6684 45.6524 86.5785 44.9216C87.4886 44.1908 88.5339 43.6495 89.7053 43.2886C90.8768 42.9277 92.1473 42.7473 93.49 42.7473V42.7292Z" fill="#0A2C46"/>
<path d="M127.462 57.8144C127.462 60.3947 127.182 62.6322 126.633 64.5269C126.074 66.4216 125.317 67.9824 124.335 69.2275C123.353 70.4725 122.19 71.3928 120.848 72.0063C119.505 72.6198 118.054 72.9176 116.486 72.9176C114.918 72.9176 113.477 72.6108 112.143 72.0063C110.809 71.4018 109.665 70.4725 108.692 69.2275C107.718 67.9824 106.961 66.4125 106.412 64.5269C105.862 62.6322 105.592 60.3947 105.592 57.8144C105.592 55.234 105.862 52.9965 106.412 51.1018C106.961 49.2072 107.718 47.6463 108.692 46.4013C109.665 45.1562 110.818 44.2359 112.143 43.6314C113.468 43.027 114.918 42.7292 116.486 42.7292C118.054 42.7292 119.505 43.027 120.848 43.6314C122.19 44.2359 123.353 45.1562 124.335 46.4013C125.317 47.6463 126.083 49.2162 126.633 51.1018C127.182 52.9965 127.462 55.234 127.462 57.8144ZM120.983 57.8144C120.983 55.7753 120.857 54.0972 120.595 52.798C120.334 51.4898 120.001 50.4703 119.577 49.7305C119.154 48.9906 118.667 48.4764 118.126 48.1967C117.586 47.917 117.036 47.7817 116.486 47.7817C115.937 47.7817 115.387 47.917 114.855 48.1967C114.324 48.4764 113.846 48.9816 113.44 49.7305C113.035 50.4793 112.702 51.4988 112.449 52.798C112.197 54.1062 112.071 55.7753 112.071 57.8144C112.071 59.8534 112.197 61.5405 112.449 62.8397C112.702 64.1389 113.026 65.1585 113.44 65.9073C113.855 66.6561 114.324 67.1704 114.855 67.4501C115.387 67.7298 115.937 67.8651 116.486 67.8651C117.036 67.8651 117.586 67.7298 118.126 67.4501C118.667 67.1704 119.145 66.6561 119.577 65.9073C120.001 65.1585 120.343 64.1299 120.595 62.8397C120.848 61.5405 120.983 59.8714 120.983 57.8144Z" fill="#0A2C46"/>
<path d="M140.465 42.7292C141.924 42.7292 143.231 42.9457 144.402 43.3698C145.574 43.7938 146.565 44.3893 147.385 45.1472C148.205 45.905 148.845 46.8073 149.277 47.8538C149.719 48.9004 149.935 50.0553 149.935 51.3093C149.935 52.392 149.782 53.3935 149.476 54.3137C149.169 55.234 148.755 56.1092 148.232 56.9392C147.71 57.7693 147.097 58.5722 146.403 59.3481C145.709 60.1241 144.97 60.909 144.186 61.712L138.419 67.6305C139.158 67.414 139.897 67.2426 140.618 67.1163C141.339 66.99 142.015 66.9268 142.654 66.9268H148.16C148.836 66.9268 149.368 67.1163 149.764 67.4862C150.161 67.8561 150.35 68.3433 150.35 68.9568V72.6018H129.615V70.5718C129.615 70.1838 129.696 69.7598 129.859 69.3177C130.021 68.8756 130.3 68.4696 130.706 68.0997L139.212 59.5286C139.942 58.7978 140.573 58.1031 141.113 57.4445C141.654 56.7858 142.096 56.1272 142.447 55.4866C142.798 54.8461 143.06 54.2055 143.24 53.5649C143.411 52.9243 143.501 52.2477 143.501 51.5259C143.501 50.353 143.222 49.4508 142.663 48.8192C142.105 48.1877 141.249 47.8809 140.104 47.8809C139.627 47.8809 139.203 47.9531 138.807 48.0794C138.419 48.2147 138.068 48.3952 137.752 48.6297C137.446 48.8553 137.176 49.126 136.95 49.4417C136.725 49.7485 136.545 50.0913 136.41 50.4522C136.193 51.0567 135.923 51.4988 135.59 51.7695C135.256 52.0401 134.806 52.1755 134.247 52.1755C134.112 52.1755 133.968 52.1755 133.814 52.1574C133.661 52.1484 133.499 52.1213 133.337 52.0943L130.021 51.5078C130.237 50.0372 130.652 48.747 131.264 47.6553C131.877 46.5637 132.643 45.6524 133.553 44.9216C134.463 44.1908 135.508 43.6495 136.68 43.2886C137.851 42.9277 139.122 42.7473 140.465 42.7473V42.7292Z" fill="#0A2C46"/>
<path d="M171.968 45.6524C171.968 46.0855 171.896 46.4734 171.77 46.8253C171.635 47.1772 171.418 47.4839 171.13 47.7456C170.842 48.0072 170.454 48.2147 169.986 48.3501C169.508 48.4944 168.949 48.5666 168.283 48.5666H161.236L160.407 53.4566C160.957 53.3664 161.497 53.2942 162.011 53.2401C162.524 53.195 163.02 53.1679 163.507 53.1679C165.057 53.1679 166.426 53.4025 167.616 53.8807C168.805 54.3589 169.805 54.9994 170.607 55.8205C171.409 56.6415 172.031 57.5978 172.437 58.6985C172.842 59.7992 173.058 60.9812 173.058 62.2353C173.058 63.8141 172.779 65.2577 172.22 66.5659C171.662 67.8741 170.878 68.9929 169.878 69.9402C168.877 70.8876 167.688 71.6184 166.309 72.1416C164.921 72.6649 163.408 72.9176 161.768 72.9176C160.812 72.9176 159.893 72.8183 159.028 72.6108C158.163 72.4033 157.343 72.1326 156.577 71.7898C155.811 71.4469 155.108 71.05 154.46 70.5898C153.811 70.1297 153.225 69.6515 152.693 69.1372L154.64 66.5388C154.838 66.2682 155.081 66.0607 155.352 65.9163C155.622 65.772 155.91 65.6998 156.226 65.6998C156.631 65.6998 157.01 65.8081 157.37 66.0336C157.731 66.2592 158.118 66.5028 158.542 66.7644C158.965 67.026 159.461 67.2697 160.028 67.4862C160.596 67.7027 161.299 67.811 162.137 67.811C162.975 67.811 163.687 67.6756 164.282 67.396C164.876 67.1163 165.363 66.7373 165.732 66.2592C166.102 65.781 166.372 65.2216 166.543 64.572C166.715 63.9314 166.796 63.2457 166.796 62.5149C166.796 61.0804 166.39 59.9887 165.579 59.2399C164.768 58.491 163.624 58.1121 162.137 58.1121C160.812 58.1121 159.515 58.3647 158.253 58.8609L154.369 57.8053L156.884 43.0269H171.986V45.6253L171.968 45.6524Z" fill="#0A2C46"/>
<path d="M185.926 58.4098C185.962 50.6146 192.495 44.272 200.362 44.2269C203.822 44.2269 206.967 45.3727 209.454 47.3035C210.4 48.0884 210.553 49.4688 209.85 50.4522C209.066 51.4356 207.607 51.5981 206.705 50.8853C204.975 49.4688 202.813 48.72 200.371 48.72C197.658 48.72 195.144 49.8207 193.288 51.5529C191.522 53.3664 190.413 55.7302 190.413 58.4098C190.413 61.0894 191.513 63.5344 193.288 65.2667C195.135 66.999 197.658 68.0997 200.371 68.0997C202.813 68.0997 204.93 67.3508 206.705 65.9344C207.607 65.2667 209.066 65.4201 209.85 66.3674C210.562 67.3508 210.4 68.7673 209.454 69.5162C206.976 71.4469 203.831 72.5928 200.362 72.5928C192.495 72.5928 185.962 66.2501 185.926 58.4098Z" fill="#0A2C46"/>
<path d="M220.042 70.4274V47.1862C220.042 45.9682 220.988 45.0209 222.205 45.0209C223.421 45.0209 224.403 45.9682 224.403 47.1862V56.6415H234.595V47.1862C234.595 45.9682 235.541 45.0209 236.758 45.0209C237.974 45.0209 238.956 45.9682 238.956 47.1862V70.4274C238.956 71.6454 237.974 72.5928 236.758 72.5928C235.541 72.5928 234.595 71.6454 234.595 70.4274V60.9721H224.403V70.4274C224.403 71.6454 223.421 72.5928 222.205 72.5928C220.988 72.5928 220.042 71.6454 220.042 70.4274Z" fill="#0A2C46"/>
<path d="M250.77 47.1862C250.77 45.9682 251.716 45.0209 252.932 45.0209C254.149 45.0209 255.131 45.9682 255.131 47.1862V70.4274C255.131 71.6454 254.113 72.5928 252.932 72.5928C251.752 72.5928 250.77 71.6454 250.77 70.4274V47.1862Z" fill="#0A2C46"/>
<path d="M265.053 70.4274V47.1862C265.053 46.0043 265.999 45.0209 267.215 45.0209C268.432 45.0209 269.423 46.0043 269.423 47.1862V68.217H280.083C281.228 68.217 282.246 69.2004 282.246 70.4274C282.246 71.6544 281.228 72.5928 280.083 72.5928H267.215C265.999 72.5928 265.053 71.6093 265.053 70.4274Z" fill="#0A2C46"/>
<path d="M289.761 70.4274V47.1862C289.761 45.9682 290.707 45.0209 291.923 45.0209H304.791C305.936 45.0209 306.954 45.9682 306.954 47.1862C306.954 48.4042 305.936 49.3876 304.791 49.3876H294.131V56.5964H303.295C304.476 56.5964 305.458 57.6159 305.458 58.7617C305.458 59.9797 304.476 60.9721 303.295 60.9721H294.131V68.217H304.791C305.936 68.217 306.954 69.2004 306.954 70.4274C306.954 71.6544 305.936 72.5928 304.791 72.5928H292.05C291.968 72.5928 291.968 72.5567 291.968 72.5567L291.932 72.5928C290.716 72.5928 289.77 71.6093 289.77 70.4274H289.761Z" fill="#0A2C46"/>
<path d="M220.15 0.802979H230.729L242.957 34.7446H234.73L232.477 28.2035H218.564L216.311 34.7446H208.084L220.15 0.802979ZM225.457 7.9576L220.754 21.6533H230.206L225.457 7.9576Z" fill="#0A2C46"/>
<path d="M82.4873 0.802979H99.8337C107.637 0.802979 112.62 4.56524 112.62 10.4568C112.62 13.6596 111.071 18.3151 104.862 19.6323L113.792 34.7446H104.718L96.3013 20.715H90.8046V34.7446H82.4873V0.802979ZM90.9037 6.92004V14.5438H99.0858C102.05 14.5438 103.925 13.0371 103.925 10.5921C103.925 8.47186 101.996 6.92004 99.266 6.92004H90.8947H90.9037Z" fill="#0A2C46"/>
<path d="M117.18 0.802979H140.69L139.419 7.01929H125.452V14.0837H138.338V20.3H125.452V28.5373H139.789L141.059 34.7536H117.171V0.802979H117.18Z" fill="#0A2C46"/>
<path d="M145.673 0.802979H162.785C171.715 0.802979 177.5 7.57866 177.5 18.0805C177.5 28.5824 171.859 34.7446 162.929 34.7446H145.673V0.802979ZM154.044 7.81324V27.6351H160.343C165.984 27.6351 168.804 24.3871 168.804 17.8911C168.804 11.3951 166.074 7.81324 161.19 7.81324H154.044Z" fill="#0A2C46"/>
<path d="M182.628 0.802979H190.9V27.9689H206.372V34.7446H182.628V0.802979Z" fill="#0A2C46"/>
<path d="M275.622 27.4907C274.162 29.9357 270.684 35.8182 260.808 35.8182C250.085 35.8182 243.362 28.8982 243.362 17.882C243.362 6.86591 250.04 -0.00901794 259.726 -0.00901794C271.108 -0.00901794 273.883 6.63133 275.144 9.31093L268.377 13.2627C266.638 9.2568 264.286 6.95613 260.294 6.95613C255.167 6.95613 252.112 11.0071 252.112 17.873C252.112 24.7389 255.266 28.6546 260.763 28.6546C265.701 28.6546 268.098 24.5134 269.035 22.8623L275.613 27.4727L275.622 27.4907Z" fill="#0A2C46"/>
<path d="M0 0.541336V70.2289C0 71.8349 1.30661 73.1431 2.91059 73.1431H72.5124V0.541336H0Z" fill="#06B1CE"/>
<path d="M72.5126 48.2869V31.2439C71.9539 31.3071 71.4673 31.3522 71.3682 31.3612C70.6563 31.4424 70.377 30.9462 69.6921 30.5763C69.0163 30.2064 69.3497 29.2139 69.0163 28.853C68.6739 28.4922 68.5387 27.8065 68.0792 27.229C67.6286 26.6516 67.9981 26.1013 67.6556 25.4156C67.3132 24.7299 66.4121 25.4156 65.7002 25.6592C64.9883 25.9028 65.4479 26.4441 65.3488 27.3102C65.2497 28.1764 63.8349 28.1674 61.8795 27.8065C61.6092 27.7614 61.3659 27.7614 61.1316 27.8065C60.5098 27.1659 59.4735 26.7148 58.4733 25.4066C57.2839 23.8367 57.2838 24.3329 56.9414 22.8443C56.599 21.3556 56.8603 19.7045 55.3284 19.2083C53.7966 18.7121 52.553 18.7933 52.2376 17.6384C51.9222 16.4836 51.4176 15.446 51.4176 14.7423C51.4176 14.0386 51.6699 13.5875 51.2464 13.2536C50.8229 12.9288 50.4805 12.8386 50.2281 12.4326C49.9758 12.0176 50.0029 11.8191 49.5433 11.8552C49.0927 11.8913 48.2547 12.4326 47.5879 12.8476C47.2455 13.0642 46.5786 13.7228 46.5786 13.7228C46.5786 13.7228 45.0287 13.01 44.7944 13.5153C44.5241 14.0927 43.8483 15.3287 43.2535 16.1588C42.6588 16.9888 42.6768 17.2324 42.3164 17.8911C41.965 18.5497 40.7845 17.061 40.5322 19.2985C40.2799 21.527 40.1898 22.5195 39.6852 22.9345C39.1715 23.3495 38.7029 23.7645 38.7029 25.2442C38.7029 26.7238 39.0814 29.2951 38.7029 30.6936C38.3335 32.0469 37.9009 31.3342 37.7297 32.9762C37.2161 32.5882 36.8286 32.1371 36.6484 31.6048C35.9365 29.5387 35.0084 25.7404 35.0084 23.0969C35.0084 20.4534 35.5761 18.5226 33.9901 17.1512C32.4042 15.7708 31.0976 16.3212 31.44 14.1739C31.7824 12.0266 32.287 12.189 31.44 11.0342C30.5929 9.87932 30.647 8.90493 30.5929 8.20119C30.5299 7.49746 31.0525 6.4599 30.8452 5.91857C30.638 5.37724 29.5747 3.96075 28.6375 3.04048C28.3312 2.74275 27.8085 2.44502 27.385 2.28262C27.0516 2.15631 26.2135 2.33675 25.9522 3.19386C25.6549 4.18631 25.9522 5.25995 25.9522 5.25995C25.9522 6.58622 24.8078 6.25239 24.123 7.90346C23.4381 9.55453 22.0865 10.0507 20.888 10.3846C19.6985 10.7184 18.8515 12.3424 18.3378 13.7138C17.8242 15.0942 16.0941 15.1754 14.2558 16.1678C12.4175 17.1603 11.192 19.9662 11.192 21.6172C11.192 23.2683 9.31771 25.9118 8.12824 27.4817C6.93878 29.0515 5.23568 29.8816 2.85674 30.044C1.86552 30.1162 0.847266 30.2966 -0.00878906 30.4861V44.9667V62.0638H72.5036V48.2779L72.5126 48.2869Z" fill="#04584E"/>
<path d="M25.8974 3.15778C25.6 4.15022 25.8974 5.22387 25.8974 5.22387C25.8974 6.54111 24.753 6.21631 24.0681 7.86738C23.3833 9.51844 22.0226 10.0147 20.8332 10.3485C19.6437 10.6823 18.7966 12.3063 18.283 13.6777C17.7694 15.0581 16.0392 15.1393 14.201 16.1317C12.3627 17.1242 11.1372 19.9301 11.1372 21.5811C11.1372 23.2322 9.26289 25.8757 8.07342 27.4456C6.88396 29.0155 5.18086 29.8455 2.80192 30.0079C1.82872 30.0711 0.82849 30.2515 -0.0185547 30.441V36.6122C1.15289 36.3776 2.47752 36.1159 3.27951 35.9535C4.95558 35.6197 4.66722 34.7987 6.82088 32.8138C8.97453 30.8289 9.93872 29.8365 12.4889 29.3403C15.039 28.844 16.0302 26.2005 17.445 24.0532C18.8597 21.9059 19.7969 22.6187 20.9863 20.4173C22.1758 18.2159 22.5182 17.3588 23.4644 15.2115C24.4106 13.0642 24.0411 11.2417 24.726 9.59062C25.4018 7.93956 26.0866 7.02831 26.4291 5.79227C26.8255 4.35774 26.6543 3.04951 27.0058 2.57134C27.0959 2.45405 27.2671 2.29165 27.3482 2.28263C26.6453 1.91272 26.1317 2.28263 25.8704 3.14876" fill="white"/>
<path d="M72.5217 30.9191C72.0531 31.0906 71.6205 31.3432 71.3772 31.3703C70.6654 31.4515 70.386 30.9552 69.7012 30.5853C69.0253 30.2154 69.3588 29.223 69.0253 28.8621C68.6829 28.5012 68.5478 27.8155 68.0882 27.2381C67.6376 26.6607 68.0071 26.1103 67.6647 25.4246C67.3222 24.7389 66.4211 25.4246 65.7093 25.6772C64.9974 25.9208 65.4569 26.4622 65.3578 27.3283C65.2587 28.1944 63.844 28.1854 61.8885 27.8245C61.6182 27.7794 61.3749 27.7794 61.1406 27.8245C61.2668 27.9508 61.3749 28.0862 61.465 28.2395C61.9787 29.1508 61.8886 29.3944 63.2492 30.468C64.6099 31.5417 67.4844 33.1115 68.3495 34.8438C69.2146 36.5761 68.8992 36.7836 69.7102 37.5685C70.1698 38.0106 71.4854 38.57 72.5307 38.967V30.9282L72.5217 30.9191Z" fill="white"/>
<path d="M47.083 39.3008C48.4617 39.779 49.7323 40.9699 50.5613 41.8992C51.147 41.3127 51.5796 41.1413 51.5796 40.1038C51.5796 39.1564 51.5796 38.57 51.8409 38.0286C51.6156 37.2437 51.4264 36.5941 51.3363 36.161C50.9938 34.51 49.0565 31.1176 47.849 29.3042C46.6415 27.4817 45.8665 25.4246 45.9747 23.7645C46.0918 22.1135 46.4883 20.8774 46.227 19.1361C45.9747 17.4039 45.9747 15.428 46.0558 14.7423C46.1008 14.4085 46.2991 14.0566 46.5784 13.7318C46.263 13.5784 45.0285 13.0191 44.7942 13.5243C44.5239 14.1017 43.848 15.3378 43.2533 16.1678C42.6586 16.9979 42.6766 17.2415 42.3161 17.9001C41.9647 18.5587 40.7843 17.0791 40.5319 19.3075C40.2796 21.536 40.1895 22.5285 39.6849 22.9435C39.1713 23.3585 38.7027 23.7735 38.7027 25.2532C38.7027 26.7328 39.0812 29.3042 38.7027 30.7026C38.3332 32.0559 37.9007 31.3432 37.7295 32.9852C39.1893 34.104 41.6493 34.7175 43.1632 35.331C45.1997 36.161 44.6951 38.4707 47.074 39.3008" fill="white"/>
<path d="M26.2856 33.9506C24.3843 34.7085 23.9067 39.1925 23.9067 39.1925C20.104 40.0496 19.5453 47.9531 19.4372 54.1514C19.3291 60.3406 18.3919 60.5301 17.1664 60.8188C15.9499 61.1075 12.6789 59.9166 10.2999 59.294C6.08272 58.1933 3.47851 58.1933 -0.00878906 58.7617V70.671C-0.00878906 72.0424 1.13562 73.1521 2.50531 73.1521H23.8977C25.3395 72.0424 26.1865 70.256 26.6641 68.1899C26.6911 67.6666 26.7092 67.1704 26.7272 66.7103C26.8984 63.1104 24.8439 49.7846 23.8166 48.0253C22.7893 46.2659 25.8711 46.4825 28.0338 46.9967C30.2055 47.511 32.0257 45.7787 32.7106 44.7682C33.2873 43.9111 34.1073 43.7668 34.3506 43.7487C32.3771 42.3503 28.178 39.9684 28.178 39.9684C28.178 39.9684 28.3672 39.815 28.9349 38.2271C29.5026 36.6392 29.2413 35.6829 29.1241 35.9716C29.007 36.2603 26.2135 39.2467 26.2135 39.2467C26.2135 39.2467 26.6641 38.3534 26.8443 35.8723C26.9615 34.1762 26.6551 33.9145 26.4478 33.9145C26.3487 33.9145 26.2766 33.9687 26.2766 33.9687" fill="#EC6B3E"/>
<path d="M35.0979 44.3442C34.9267 44.1818 34.6563 43.9743 34.3319 43.7487C34.0977 43.7758 33.2776 43.9111 32.6919 44.7682C32.0071 45.7787 30.1778 47.511 28.0152 46.9967C25.8435 46.4825 22.7707 46.2659 23.798 48.0253C24.8252 49.7846 26.8798 63.1104 26.7085 66.7103C26.6905 67.1704 26.6635 67.6757 26.6455 68.1899C27.7628 63.336 26.8167 56.9212 26.6545 54.0972C26.3841 49.2793 26.9068 48.6839 27.4475 48.2508C28.1954 47.6463 32.8181 47.9621 32.8181 47.9621C35.3862 49.4869 35.3682 48.0614 35.3682 48.0614C35.3682 48.0614 35.5755 48.1426 36.2423 47.7726C36.9091 47.4027 36.3414 45.49 35.0979 44.3442Z" fill="white"/>
<path d="M43.4242 46.4644C43.6945 47.0869 44.2712 47.3576 45.1273 47.3486C45.9833 47.3396 46.0554 47.5381 47.0647 47.8809C48.0739 48.2237 49.1643 47.52 50.4078 48.2598C51.4801 48.8914 51.7865 49.5681 53.03 49.6763C53.6608 49.7305 53.6788 50.6688 54.4177 50.6507C55.1567 50.6327 56.1389 49.9109 56.7516 49.8477C57.3644 49.7846 58.0582 49.9109 58.9323 49.559C59.8064 49.2072 60.2479 48.9545 61.1761 49.2613C62.1042 49.5681 62.0952 49.6132 63.1315 49.4147C64.1678 49.2162 64.0326 49.3876 64.9878 49.4598C65.9069 49.532 66.9071 48.8733 67.0874 48.747C67.4208 48.5125 67.4298 48.3861 67.4298 48.3591C67.3757 48.2057 67.2766 48.0523 67.2135 48.1245C67.1144 48.2237 66.8981 48.323 66.7359 48.4132C66.5197 48.5305 65.97 48.8192 65.0328 48.738C64.0957 48.6568 64.2218 48.4854 63.2126 48.6839C62.1943 48.8824 62.2033 48.8373 61.2932 48.5215C60.3831 48.2057 59.9416 48.4583 59.0855 48.8102C58.2294 49.1621 57.5446 49.0267 56.9409 49.0899C56.3461 49.153 55.3729 49.8838 54.652 49.8929C53.9221 49.9109 53.9131 48.9636 53.2823 48.9004C52.0568 48.7831 51.7505 48.0974 50.6962 47.4569C49.4706 46.708 48.3983 47.4208 47.4071 47.0599C46.4159 46.708 46.3528 46.5005 45.5058 46.5095C44.6587 46.5185 43.7666 46.1486 43.4873 45.8329C43.289 45.6073 43.0998 45.4449 42.9736 45.7065C43.0637 45.6073 43.2079 45.7517 43.4422 46.4464" fill="#06B1CE"/>
<path d="M67.4211 48.3591C67.4211 48.3591 67.4662 48.4854 67.0787 48.7561C66.8985 48.8824 65.8982 49.541 64.9791 49.4688C64.0329 49.3876 64.1591 49.2252 63.1228 49.4237C62.0865 49.6222 62.0955 49.5771 61.1674 49.2703C60.2393 48.9636 59.7977 49.2162 58.9236 49.5591C58.0496 49.9109 57.3557 49.7756 56.7429 49.8478C56.1302 49.9199 55.148 50.6327 54.4091 50.6507C53.6702 50.6688 53.6611 49.7395 53.0214 49.6763C51.7778 49.5681 51.4714 48.8914 50.3991 48.2599C49.1556 47.5291 48.0652 48.2328 47.056 47.8809C46.0468 47.5381 45.9837 47.3306 45.1276 47.3486C44.2716 47.3576 43.6949 47.087 43.4245 46.4644C42.9199 45.0028 42.8388 45.9682 42.8208 46.5276C42.8028 47.087 42.6586 47.917 43.7399 49.8387C44.8212 51.7605 47.1731 53.1409 49.7413 54.8461C52.3185 56.5513 51.904 57.4174 51.4444 60.503C51.111 62.7766 51.0389 64.8517 51.0299 65.79C52.1833 65.5464 53.544 65.1585 54.5623 65.1585C56.5807 65.1585 57.7522 65.6457 58.9597 65.8712C58.2478 64.2562 57.1034 61.7481 56.5717 60.8459C56.0851 60.0339 55.7157 59.1858 55.5895 58.3918C55.5895 58.3918 55.5895 58.3828 55.5895 58.3647C55.5535 58.1211 55.5445 57.8866 55.5535 57.661C55.5535 57.1287 55.6256 56.3708 55.8959 55.6039C56.4005 54.2055 57.2205 53.0597 57.0493 53.4927C56.8781 53.9348 56.1392 55.5318 56.1122 56.1092C56.1122 56.1723 56.1122 56.2355 56.1122 56.2896C56.4366 55.9738 56.8871 55.8746 57.7702 55.5859C58.0946 55.4867 59.5364 55.1438 59.9149 55.0265C60.8881 54.7288 62.0685 54.3499 63.5193 53.8446C67.0246 52.6176 67.4842 50.0733 67.5112 49.1621C67.5202 48.7922 67.4572 48.5215 67.3941 48.3591" fill="white"/>
<path d="M47.0195 66.1058C47.0195 66.1058 48.3982 66.8185 49.6328 66.8185C50.8673 66.8185 53.066 65.9073 54.5528 65.9975C56.0397 66.0787 58.3735 66.8366 60.1037 66.8185C61.8698 66.8095 62.7259 66.4757 62.7259 66.4757C62.7259 66.4757 59.9505 68.3433 55.8955 67.414C51.9847 66.5208 50.9844 67.5042 49.4435 67.405C48.3982 67.3328 47.0195 66.1058 47.0195 66.1058Z" fill="white"/>
</g>
<defs>
<clipPath id="clip0_242_3037">
<rect width="309" height="80" fill="white"/>
</clipPath>
</defs>
</svg>
