<?xml version="1.0" encoding="UTF-8"?>
<svg id="Capa_1" xmlns="http://www.w3.org/2000/svg" xmlns:ns0="http://www.w3.org/2000/svg" version="1.1" viewBox="0 0 263.3 245.4">
  <!-- Generator: Adobe Illustrator 29.2.1, SVG Export Plug-In . SVG Version: 2.1.0 Build 116)  -->
  <path d="M0,63.3h17.4v5.3H6v11h9.2v5.4H6v12.7h13.2v5.3H0v-39.7Z"/>
  <path d="M25.3,63.3h6.1v34.3h11.4v5.4h-17.5v-39.7h0Z"/>
  <path d="M64.3,86l1.7-.8v-6.3c.1,0,1-10.8,1-10.8l18.8,21-.2-4.5v-21.4h6.1v39.7h-.8l-23.2-25.7.2,4.3v21.4h-6v-22l2.5,5.1h0Z"/>
  <path d="M100.9,63.3h6.1v32.2l-6.1,1.5v-33.7Z"/>
  <path d="M139.9,74.3v-9.6l6.1-.6M135.2,83.7l5,5.6-.2-4.5s5.2,2.3,6.1,3.4v14.9h-.8l-15.5-17.1s4-2.2,5.5-2.1h0ZM127.4,83.3l-5.5-6.1.2,4.3v4.1l-6.1,3v-25.4h.8l15.6,17.4M131.7,58.9c-.7-.3-1.4-.8-2.1-1.4-.7-.5-1.2-.9-1.7-1.2s-1-.3-1.7-.3-1.1.2-1.5.6c-.3.4-.8,1.2-1.3,2.5l-2.3-3.6c.3-1.2,1-2.3,2.2-3.2s2.4-1.3,3.8-1.3,2.2.2,2.9.5,1.4.9,2.2,1.6c.5.5,1,.8,1.4,1s.8.3,1.4.3c1.6,0,2.7-.8,3.4-2.5l2.1,3.1c-.2,1.3-.9,2.3-2.1,3.2s-2.5,1.2-3.9,1.2-1.9-.2-2.6-.5h0Z"/>
  <path d="M162.7,101c-3-1.7-5.5-4.1-7.3-7.2s-2.7-6.7-2.7-10.8.9-7.8,2.7-10.8,4.2-5.4,7.3-7.1,6.4-2.5,10-2.5,6.9.8,10,2.5c3,1.7,5.5,4,7.3,7.1s2.7,6.7,2.7,10.8-.9,7.7-2.7,10.8-4.2,5.5-7.3,7.2-6.4,2.5-10,2.5-6.9-.8-10-2.5ZM179.4,96.3c2.1-1.2,3.7-2.9,4.9-5.1s1.8-4.9,1.8-8.1-.6-5.9-1.8-8.1-2.8-3.9-4.9-5.1-4.3-1.7-6.8-1.7-4.8.6-6.9,1.7-3.7,2.8-4.9,5.1-1.8,5-1.8,8.1.6,5.8,1.8,8.1c1.2,2.2,2.9,4,4.9,5.1s4.3,1.8,6.7,1.8,4.8-.6,6.8-1.8Z"/>
  <path d="M0,118.7h9.6c8,0,13.6,1.9,16.8,5.7,3.2,3.8,4.8,8.3,4.8,13.5s-.7,7-2,10.1-3.6,5.6-6.8,7.5-7.3,2.9-12.4,2.9H0v-39.7ZM10.6,153.1c5,0,8.6-1.4,10.8-4.2s3.4-6.4,3.4-10.7-1.1-7.6-3.4-10.2-5.9-3.9-10.8-3.9h-4.5v29h4.5,0Z"/>
  <path d="M37.2,118.7h17.4v5.3h-11.4v11h9.2v5.4h-9.2v12.7h13.2v5.4h-19.2v-39.7h0Z"/>
  <path d="M62.4,126.3l6.1,1.6v25.1h11.4v5.4h-17.5v-32.1h0Z"/>
  <path d="M103.7,139.6c.1,2.3.6,4.5,1.5,6.4,1,2.2,2.5,4,4.5,5.3,2,1.3,4.3,1.9,7.1,1.9s6.2-.9,9.2-2.7l1.8,5.1c-.8.7-2.2,1.4-4.3,2.1s-4.2,1-6.4,1c-4.1,0-7.7-.9-10.7-2.8s-5.3-4.3-6.9-7.4c-1.5-2.8-2.2-5.9-2.4-9.3l6.6.2ZM126.5,120.1c.8.4,1.4.8,1.7,1.1l-2.7,5.4c-.9-.8-2-1.5-3.2-2l4.2-4.5Z"/>
  <path d="M139.5,158.4h-5.5v-39.7h5.3l2.6,5.3h-1.9v11h9.2v5.4h-9.2v12.7h.7l-1.2,5.4h0ZM143.7,153.1h9.5v5.4h-9.1l-.4-5.4ZM151.4,118.7v5.3"/>
  <path d="M179.1,158.4l-8-15c-1.7,0-3.1.1-4.4.1h-1.5v14.9h-5.9v-39.7h9c4.6,0,8.3.9,11.3,2.8,2.9,1.9,4.4,5,4.4,9.2s-.6,5-1.9,6.9c-1.2,1.9-3.1,3.4-5.5,4.5l9.4,16.3h-7ZM169,138.6c3.5,0,5.9-.8,7.3-2.3s2-3.4,2-5.5c0-4.7-3.1-7.1-9.4-7.1h-3.6v14.8h3.8Z"/>
  <path d="M212,158.4l-8-15c-1.7,0-3.1.1-4.4.1h-1.5v14.9h-5.9v-39.7h9c4.6,0,8.3.9,11.3,2.8,2.9,1.9,4.4,5,4.4,9.2s-.6,5-1.9,6.9c-1.2,1.9-3.1,3.4-5.5,4.5l9.4,16.3h-7ZM201.9,138.6c3.5,0,5.9-.8,7.3-2.3s2-3.4,2-5.5c0-4.7-3.1-7.1-9.4-7.1h-3.6v14.8h3.8Z"/>
  <path d="M233.4,156.5c-3-1.7-5.5-4.1-7.3-7.1-1.8-3.1-2.7-6.7-2.7-10.8s.9-7.8,2.7-10.8,4.2-5.4,7.3-7.1c3-1.7,6.4-2.5,10-2.5s6.9.8,10,2.5c3,1.7,5.5,4,7.3,7.1s2.7,6.7,2.7,10.8-.9,7.7-2.7,10.8-4.2,5.5-7.3,7.1-6.4,2.5-10,2.5-6.9-.8-10-2.5h0ZM250.2,151.8c2.1-1.2,3.7-2.9,4.9-5.1,1.2-2.2,1.8-4.9,1.8-8.1s-.6-5.9-1.8-8.1-2.8-3.9-4.9-5.1-4.3-1.7-6.8-1.7-4.8.6-6.9,1.7-3.7,2.8-4.9,5.1-1.8,5-1.8,8.1.6,5.8,1.8,8.1,2.9,4,4.9,5.1,4.3,1.8,6.7,1.8,4.8-.6,6.8-1.8Z"/>
  <path d="M0,176.8h17.4v5.3H6v11h9.2v5.4H6v12.7h13.2v5.4H0v-39.7Z"/>
  <path d="M25.3,176.8h6.1v34.3h11.4v5.4h-17.5v-39.7h0Z"/>
  <path d="M61.8,176.8h8.8c4.9,0,8.5,1.1,10.8,3.2s3.4,5,3.4,8.7-1.2,7.5-3.7,9.8c-2.5,2.3-6.2,3.4-11.1,3.4h-2.1v14.7h-6.1v-39.7ZM70.2,196.5c3.2,0,5.4-.7,6.6-2.1,1.3-1.4,1.9-3.1,1.9-5.1s-.6-3.9-1.8-5.2c-1.2-1.3-3.3-2-6.2-2h-2.8v14.4h2.3Z"/>
  <path d="M90.4,176.8h6.1v34.3h11.4v5.4h-17.5v-39.7h0Z"/>
  <path d="M134.7,211.4c1.5-.3,2.9-.8,4.2-1.5,2.1-1.2,3.7-2.9,4.9-5.1s1.8-4.9,1.8-8.1-.6-5.9-1.8-8.1-2.8-3.9-4.9-5.1-4.3-1.7-6.8-1.7-4.8.6-6.9,1.7-3.7,2.9-4.9,5.1-1.8,5-1.8,8.1.6,5.8,1.8,8.1,2.9,4,4.9,5.1c.1,0,.3.2.4.2v5.7c-.4,0-1,0-1,0-.9-.3-1.8-.7-2.6-1.2-3-1.7-5.5-4.1-7.3-7.2s-2.7-6.7-2.7-10.8.9-7.8,2.7-10.8,4.2-5.4,7.3-7.1,6.4-2.5,10-2.5,6.9.8,10,2.5c1.7.9,3.2,2.1,4.6,3.5,1,1.1.3,3.6,1.1,4.9,1.3,2.3,3.8,3.6,4.2,6.4.1,1,.2,2,.2,3.1,0,4.1-.9,7.7-2.7,10.8s-4.2,5.5-7.3,7.2c-1.6.9-3.2,1.5-5,1.9"/>
  <path d="M157.7,206.4l6.1-29.6h.6l10.9,21.4,3.2,7.2,3.2-7.2,10.7-21.4h.6l8.5,39.7h-5.9l-4-18.5-1.2-5.6-2.2,5.6-9.6,18.5h-.3l-9.6-18.5-2.5-5.6-1.1,5.6-3,15.1-4.6-6.7Z"/>
  <path d="M215.3,214.5c-3-1.7-5.5-4.1-7.3-7.2s-2.7-6.7-2.7-10.8.9-7.8,2.7-10.8,4.2-5.4,7.3-7.1,6.4-2.5,10-2.5,6.9.8,10,2.5,5.5,4,7.3,7.1,2.7,6.7,2.7,10.8-.9,7.7-2.7,10.8-4.2,5.5-7.3,7.2-6.4,2.5-10,2.5-6.9-.8-10-2.5ZM232.1,209.8c2.1-1.2,3.7-2.9,4.9-5.1s1.8-4.9,1.8-8.1-.6-5.9-1.8-8.1-2.8-3.9-4.9-5.1-4.3-1.7-6.8-1.7-4.8.6-6.9,1.7-3.7,2.9-4.9,5.1-1.8,5-1.8,8.1.6,5.8,1.8,8.1,2.9,4,4.9,5.1,4.3,1.8,6.7,1.8,4.8-.6,6.8-1.8h0Z"/>
  <path d="M91.3,100.4l-.8,2.5h1.4v-2.1l-.6-.4Z"/>
  <path d="M143.4,134v3.9l.9-.5,1.1-2.2.3-1.1h-2.3Z"/>
  <path d="M155.2,226.4c-1.2,0-2.5,0-3.8-.3-3-.4-6.8-1.2-9.8-3.5-3.1-2.5-4.7-6.2-6.3-9.7-.3-.7-.6-1.4-.9-2.1-1.6-3.6-6-8.4-8.2-10.6l-.5-.5,1.5-1.4.5.5c2.2,2.4,6.7,7.2,8.5,11.2.3.7.6,1.4.9,2.1,1.4,3.3,2.9,6.8,5.7,8.9,2.6,2,6.1,2.7,8.8,3.1,4.1.6,9.4.5,12.1-3,.5-.6.7-1.2.8-1.7.2-1.2-.6-2.6-1.4-3.9l-6.9-10.6c-1.7-2.6-3.4-5.2-4.7-8.1-.6-1.4-1.3-2.7-1.9-3.9-1.5-3.1-3-6-4.1-9.8-.4-1.4-.7-2.8-1-4.2-.2-.8-.3-1.7-.5-2.6-.8-3.5-1.1-5.7-1.1-8.6.2-6.6.1-7.8.1-10.1,0-1,0-2.1,0-4,0-2.8-.2-11.2-.7-14.5l2-.3c.5,3.4.7,11.9.7,14.8s0,3,0,4c0,2.2,0,3.5-.1,10.1,0,2.8.3,4.7,1,8.1.2.9.4,1.8.5,2.6.3,1.4.5,2.7.9,4,1.1,3.6,2.4,6.3,4,9.5.6,1.2,1.3,2.6,1.9,4,1.3,2.7,2.9,5.3,4.6,7.8l6.9,10.6c.8,1.3,2.1,3.2,1.8,5.3-.1.9-.5,1.8-1.2,2.6-2.1,2.6-5.5,4-10.2,4h0Z"/>
  <path d="M87.7,105.8c-.7,0-1.3-.2-1.9-.7-.9-.8-1.2-1.8-1.4-2.8,0-.2,0-.4-.1-.6-.1-.5-.4-.9-.6-1.1-.6.8-1.4,1.3-2.5,1.6-1.9.5-4.4,0-6.2-1.4-3.7-2.7-8.4-13.6-9.5-17.6l1.9-.5c1.1,4.2,5.7,14.2,8.8,16.5,1.3,1,3.2,1.4,4.6,1.1.7-.2,1.2-.6,1.5-1.2l.2-.4h.5c1.6-.4,2.9,1,3.3,2.6,0,.2.1.4.2.7.2.7.3,1.4.7,1.7.5.4,1.5.1,2-.4.7-.8,1-2,1.2-3l.3-1.4,1.2.9c1.1.8,2.1,1.5,3.3,1.8.9.2,2.2,0,2.8-.8.4-.5.5-1.3.7-2.1.3-1.4.7-3.2,2.5-3.6.9-.2,1.7,0,2.4.2.3,0,.6.2.9.2,1.5.2,2.7-1.3,3.9-2.8.3-.3.6-.7.9-1,3-3.4,7.3-4.8,11.5-6.2l1-.3c4.4-1.5,9.6-3.5,13.8-6.9,4.1-3.4,7.4-9.4,7.8-14.1h2c-.3,5.4-3.9,11.9-8.5,15.6-4.4,3.6-9.8,5.7-14.4,7.2l-1,.3c-3.9,1.3-8,2.7-10.7,5.6-.3.3-.5.6-.8,1-1.5,1.8-3.1,3.8-5.7,3.5-.5,0-.9-.2-1.3-.3-.5-.2-1-.3-1.3-.2-.6.2-.8.8-1.1,2.1-.2.9-.4,2-1.1,2.8-1.1,1.6-3.2,1.9-4.8,1.5-1.1-.2-2-.8-2.8-1.3-.3.9-.7,1.8-1.3,2.5-.7.8-1.8,1.3-2.9,1.3h0Z"/>
  <path d="M65.5,89.5c-1.2-8-.2-12.7,1.3-20.4l.2-.8c.3-1.7.9-3.4,1.6-5.2.8-2.1,2.2-4.3,3.9-6.3,2.9-3.4,6.6-7.1,12-9,4.8-1.7,10.6-1.1,17.7,1.9,3.7,1.6,7.4,3.5,10.9,5.3,3.1,1.6,6.3,3.3,9.6,4.7,8.2,3.6,15.3,4.8,21.5,3.5h.4c0,0,.3,0,.3,0,2.2,1.1,4.8-.3,6.1-2.1,1.4-1.8,1.9-4.5,1.4-7.6-.3-1.9-.9-3.8-1.5-5.8-.3-.8-.5-1.7-.8-2.5-.5-1.6-.8-3.3-1.2-4.9-.4-1.8-.8-3.6-1.3-5.4-1-3.2-2.4-6.4-3.7-9.4-2.6-5.7-5.4-12.3-10.4-16.7-4.6-4.1-11.2-6.5-18.7-6.9-7.1-.3-14.3,1.1-20.5,2.5-2.9.7-5.5,1.3-7.9,2.5-2,1.1-3.9,2.6-5.7,4.1l-14.1,11.8c-2.7,2.2-5.5,4.6-8.5,6.5-6.2,3.8-13.8,6.2-23.4,7.3h-.2c-1.5.2-2.8.3-3.9,1-.9.6-1.7,1.8-1.3,2.8.3.8,1.4,1.4,2.4,2,1.5.9,3.4,1.9,3.1,4.1-.2,1.6-1.6,2.6-2.5,3.2-5.2,3.5-11.6,10-12.8,13.9l-1.9-.6c1.5-5,8.9-11.8,13.6-15,.9-.6,1.6-1.1,1.7-1.8,0-.8-.6-1.2-2.1-2.1-1.3-.7-2.7-1.5-3.3-3-.8-2,.5-4.2,2.1-5.2,1.5-.9,3.2-1.1,4.8-1.3h.2c9.3-1.1,16.7-3.4,22.6-7,2.9-1.8,5.7-4.1,8.3-6.3l14.1-11.8c1.9-1.6,3.8-3.2,6-4.3,2.6-1.4,5.3-2,8.4-2.7,6.3-1.4,13.7-2.9,21.1-2.5,7.9.4,15,3,19.9,7.4,5.3,4.7,8.3,11.4,10.9,17.4,1.4,3.1,2.8,6.3,3.8,9.7.6,1.8,1,3.7,1.4,5.5.4,1.6.7,3.2,1.2,4.8.2.8.5,1.6.7,2.4.6,2,1.2,4,1.6,6.1.5,3.6-.1,6.8-1.8,9.1-1.8,2.5-5.2,4.3-8.3,2.9-6.6,1.3-13.9,0-22.4-3.7-3.3-1.5-6.5-3.2-9.7-4.8-3.5-1.8-7.1-3.7-10.7-5.2-6.6-2.8-11.9-3.4-16.3-1.8-4.9,1.7-8.4,5.2-11.1,8.5-1.6,1.9-2.8,3.8-3.6,5.8-.7,1.7-1.2,3.3-1.5,4.8l-.2.8c-1.5,7.5-2.4,12-1.3,19.7l-2,.3h0Z"/>
  <path d="M101.4,141.3c-3.2,0-6.2-1.3-8.9-2.4-4.8-2-7.9-3.3-10.4-4.3-5.6-2.3-7.9-3.3-18.8-7.7l-1.1-.5.8-1.8,1.1.5c10.9,4.4,13.2,5.3,18.8,7.7,2.5,1,5.6,2.4,10.4,4.3,2.6,1.1,5.3,2.2,8.1,2.2h0c5.4,0,9.8-4.2,14-8.4l24.8-25.3,1.4,1.4-24.8,25.3c-4.4,4.5-9.3,8.9-15.4,9h0Z"/>
  <path d="M143.2,141.9l-1.8-.8c.8-1.6,1.8-3.8,2.9-6.1,1.1-2.2,2.2-4.4,2.9-6,1.6-3.5,3.3-7.1,4.3-10.8,1.8-6.7,3.7-16.2-1-22.4-2.3-3-4.7-6.1-7.9-8.2-2.6-1.8-6.7-3.1-10.2-1.6-1.8.8-3.3,2.2-4.8,3.6h0c-7.7,7.4-15.9,14.3-24.4,20.7-2.3,1.7-4.4,3.2-6.9,3.9-4.2,1.1-8.4-.2-13-1.9-.3-.1-.7-.2-1-.4-2.3-.8-4.6-1.6-6.5-3.9-.9-1.1-1.6-2.2-2.3-3.2-.3-.5-.7-1.1-1-1.6-1.4-2-3.6-6.1-4.6-8.4-2.8-6.6-3.6-8.3-6.8-11.9-10.4-11.3-12.8-14-28.8-17.8-5.5-1.3-10.2-1.1-13.7-.7-.9,0-1.8.2-2.7.2-5.6.4-9.2.7-11.1,5.8l-1.9-.7c2.3-6.2,7.2-6.6,12.8-7,.9,0,1.7-.1,2.6-.2,3.7-.4,8.6-.6,14.4.7,16.6,3.9,19.4,7,29.9,18.4,3.5,3.8,4.3,5.7,7.2,12.4.9,2.2,3.1,6.1,4.4,8.1.4.6.7,1.1,1.1,1.6.7,1,1.3,2,2.1,3,1.5,1.8,3.5,2.5,5.6,3.3.3.1.7.2,1.1.4,4.3,1.6,8.1,2.8,11.8,1.8,2.2-.6,4.1-2,6.3-3.6,8.4-6.3,16.5-13.2,24.2-20.5h0c1.6-1.6,3.3-3.2,5.4-4.1,3.6-1.5,8.1-.9,12.1,1.8,3.4,2.3,6,5.7,8.3,8.7,5.2,6.8,3.3,17,1.3,24.1-1.1,3.9-2.8,7.6-4.4,11.2-.7,1.6-1.8,3.8-2.9,6.1-1.1,2.2-2.2,4.5-2.9,6.1h0Z"/>
  <path d="M123.8,215c-.6-9.6,2.4-17.3,5.6-25.5,1.6-4.2,3.4-8.6,4.7-13.4.5-1.9,1.2-4.1,1.9-6.3,2.6-7.6,3.2-12.7,3.7-17.7.3-2.7.6-5.5,1.2-8.6,1.7-8.3,2.9-16.2-.9-22.6-.8-1.3-2.1-3.1-4.1-3.8-.9-.3-3.3-.9-5.3,1.2l-1.4-1.4c2-2,4.7-2.6,7.4-1.7,2,.7,3.7,2.3,5.1,4.6,4.1,7,2.9,15.3,1.1,24-.6,3.1-.9,5.7-1.2,8.4-.5,5-1.1,10.2-3.8,18.1-.7,2.1-1.4,4.3-1.9,6.2-1.3,5-3.1,9.4-4.7,13.6-3.1,7.9-6.1,15.4-5.5,24.6h-2c0,.1,0,.1,0,.1Z"/>
  <path d="M2.2,230.8h3.4v2.8c.3-.9.9-1.7,1.6-2.3s1.6-.9,2.5-.9,1.1,0,1.4.2l-.5,3.4c-.2-.1-.6-.2-1.2-.2-1,0-1.8.3-2.7.9s-1.2,1.6-1.2,3v7.3h-3.3v-14.2h0Z"/>
  <path d="M17.9,244.3c-1.1-.7-2-1.6-2.5-2.7s-.8-2.4-.8-3.7.3-2.8.9-4c.6-1.1,1.5-2,2.6-2.6s2.4-.9,3.8-.9c2.2,0,3.8.6,4.9,1.8s1.6,2.9,1.6,5.1,0,1.1,0,1.7h-10.2c.2,1.3.7,2.2,1.4,2.7s1.6.8,2.8.8,1.8,0,2.5-.2,1.2-.4,1.8-.7l1,2.4c-.5.3-1.2.6-2.1.9s-2,.4-3.2.4-3.1-.3-4.2-1h0ZM25.1,236.8c0-1.3-.3-2.2-.8-2.7-.6-.5-1.4-.8-2.5-.8-2.2,0-3.4,1.2-3.8,3.5h7.1Z"/>
  <path d="M36.7,244.4c-1.1-.6-2-1.5-2.6-2.6-.7-1.1-1-2.4-1-3.9s.3-2.8.8-3.9,1.4-2,2.4-2.6,2.3-.9,3.7-.9,1.6.1,2.3.4c.7.3,1.3.6,1.8,1.1s.8.8,1,1.3v-2.4h3.2v14.2h-3.2v-2.5c-.4.7-1.1,1.4-2,2s-2,.9-3.1.9-2.5-.3-3.5-.9h0ZM43.7,241.3c.8-.8,1.2-1.9,1.2-3.2v-.2c0-.9-.2-1.7-.6-2.4-.4-.7-.9-1.2-1.5-1.6s-1.3-.6-2.1-.6c-1.3,0-2.3.4-3.1,1.3s-1.1,2-1.1,3.3.4,2.5,1.1,3.4c.7.9,1.7,1.3,3.1,1.3s2.2-.4,3-1.2h0Z"/>
  <path d="M55.3,222.2h3.3v22.8h-3.3v-22.8Z"/>
  <path d="M65.7,227.5c-.4-.4-.7-1-.7-1.6s.2-1.1.7-1.5c.4-.4,1-.6,1.6-.6s1.2.2,1.6.6.7.9.7,1.5-.2,1.2-.6,1.6-1,.6-1.6.6-1.2-.2-1.6-.6ZM65.6,230.8h3.5v14.2h-3.5v-14.2Z"/>
  <path d="M78.4,244.4c-1.1-.6-1.9-1.5-2.6-2.6-.7-1.1-1-2.4-1-3.9,0-2.2.6-4.1,1.9-5.4s3-2,5.1-2,2.3.3,3.3.9,1.7,1.3,2,2.1l-.2-2.4v-8.8h3.3v22.8h-3.2v-2.5c-.4.7-1,1.4-2,2s-2,.9-3.1.9-2.5-.3-3.6-.9h0ZM85.5,241.3c.8-.8,1.2-1.9,1.2-3.2v-.2c0-.9-.2-1.7-.6-2.4-.4-.7-.9-1.2-1.5-1.6s-1.3-.6-2.1-.6c-1.3,0-2.3.4-3.1,1.3s-1.1,2-1.1,3.3.4,2.5,1.1,3.4c.7.9,1.7,1.3,3.1,1.3s2.2-.4,3-1.2h0Z"/>
  <path d="M99.5,244.4c-1.1-.6-1.9-1.5-2.6-2.6-.7-1.1-1-2.4-1-3.9s.3-2.8.8-3.9,1.4-2,2.4-2.6,2.3-.9,3.7-.9,1.6.1,2.3.4c.7.3,1.3.6,1.8,1.1s.8.8,1,1.3v-2.4h3.2v14.2h-3.2v-2.5c-.4.7-1,1.4-2,2s-2,.9-3.1.9-2.5-.3-3.6-.9h0ZM106.6,241.3c.8-.8,1.2-1.9,1.2-3.2v-.2c0-.9-.2-1.7-.6-2.4-.4-.7-.9-1.2-1.5-1.6s-1.3-.6-2.1-.6c-1.3,0-2.3.4-3.1,1.3s-1.1,2-1.1,3.3.4,2.5,1.1,3.4c.7.9,1.7,1.3,3.1,1.3s2.2-.4,3-1.2h0Z"/>
  <path d="M120.6,244.4c-1.1-.6-1.9-1.5-2.6-2.6-.7-1.1-1-2.4-1-3.9,0-2.2.6-4.1,1.9-5.4s3-2,5.1-2,2.3.3,3.3.9,1.7,1.3,2,2.1l-.2-2.4v-8.8h3.3v22.8h-3.2v-2.5c-.4.7-1.1,1.4-2,2s-2,.9-3.1.9-2.5-.3-3.6-.9h0ZM127.6,241.3c.8-.8,1.2-1.9,1.2-3.2v-.2c0-.9-.2-1.7-.6-2.4-.4-.7-.9-1.2-1.5-1.6s-1.3-.6-2.1-.6c-1.3,0-2.3.4-3.1,1.3s-1.1,2-1.1,3.3.4,2.5,1.1,3.4c.7.9,1.7,1.3,3.1,1.3s2.2-.4,3-1.2h0Z"/>
  <path d="M146.2,230.8h3.8l3.1,6.4,1,2.6,1-2.6,3-6.4h3.7l-7.5,14.2h-.6l-7.5-14.2Z"/>
  <path d="M166.3,227.5c-.4-.4-.6-1-.6-1.6s.2-1.1.6-1.5c.4-.4,1-.6,1.6-.6s1.1.2,1.6.6.6.9.6,1.5-.2,1.2-.6,1.6-1,.6-1.6.6-1.2-.2-1.6-.6h0ZM166.2,230.8h3.5v14.2h-3.5v-14.2Z"/>
  <path d="M176.3,230.8h3.4v2.8c.3-.9.9-1.7,1.6-2.3s1.6-.9,2.5-.9,1.1,0,1.4.2l-.5,3.4c-.2-.1-.6-.2-1.2-.2-1,0-1.9.3-2.6.9s-1.2,1.6-1.2,3v7.3h-3.4v-14.2h0Z"/>
  <path d="M190.8,233.5h-2.5v-2.7h2.5v-5.8l3.4-.7v6.5h3.3v2.7h-3.3v11.5h-3.4v-11.5Z"/>
  <path d="M203.1,243.6c-.7-1.2-1.1-2.8-1.1-4.8v-8h3.4v7.1c0,1.2,0,2.1.2,2.7s.4,1.1.8,1.4c.4.3,1,.5,1.8.5s1.1-.2,1.7-.5c.5-.3,1-.8,1.3-1.4s.5-1.2.5-1.9v-8.1h3.3v14.2h-2.7l-.4-2.1c-.5.8-1.2,1.4-1.9,1.8s-1.7.6-2.8.6c-2,0-3.3-.6-4-1.7h0Z"/>
  <path d="M224.2,244.4c-1.1-.6-1.9-1.5-2.6-2.6-.6-1.1-1-2.4-1-3.9s.3-2.8.9-3.9,1.4-2,2.4-2.6,2.3-.9,3.7-.9,1.6.1,2.3.4c.7.3,1.3.6,1.8,1.1s.8.8,1,1.3v-2.4h3.2v14.2h-3.2v-2.5c-.4.7-1.1,1.4-2,2s-2,.9-3.1.9-2.5-.3-3.6-.9h0ZM231.2,241.3c.8-.8,1.2-1.9,1.2-3.2v-.2c0-.9-.2-1.7-.6-2.4-.4-.7-.9-1.2-1.5-1.6s-1.3-.6-2.1-.6c-1.3,0-2.4.4-3.1,1.3s-1.1,2-1.1,3.3.4,2.5,1.1,3.4c.7.9,1.7,1.3,3.1,1.3s2.2-.4,3-1.2h0Z"/>
  <path d="M242.8,222.2h3.3v22.8h-3.3v-22.8Z"/>
</svg>