<?xml version="1.0" encoding="UTF-8"?>
<svg id="Capa_1" xmlns="http://www.w3.org/2000/svg" version="1.1" viewBox="0 0 194.1 36.1">
  <!-- Generator: Adobe Illustrator 29.2.1, SVG Export Plug-In . SVG Version: 2.1.0 Build 116)  -->
  <g id="logo-profisio">
    <g id="Group_13">
      <g id="Group_5">
        <path id="Path_1" d="M46.5,21.6v9.9h-2.3V6h6.5c1.2,0,2.4.1,3.5.5,1,.3,1.8.8,2.6,1.4.7.6,1.3,1.4,1.6,2.3.4,1,.6,2.1.6,3.1,0,1.1-.2,2.2-.6,3.3-.4,1-1,1.9-1.8,2.6-.8.7-1.8,1.3-2.8,1.7-1.2.4-2.5.6-3.8.6h-3.5ZM46.5,8.2v11.2h3.4c1.8.1,3.6-.4,5-1.5,1.2-1.1,1.8-2.7,1.7-4.3,0-3.6-2.1-5.4-6.3-5.4h-3.8Z"/>
      </g>
      <g id="Group_6">
        <path id="Path_2" d="M78,31.5l-3.8-7.3c-.3-.6-.7-1.2-1.1-1.8-.3-.4-.7-.8-1.1-1.2-.4-.3-.8-.5-1.2-.6-.5-.1-.9-.2-1.4-.2h-2.8v11.1h-2.3V6h7.3c.9,0,1.9.1,2.8.4.9.3,1.7.7,2.4,1.3.7.6,1.3,1.3,1.7,2.1.4.9.6,1.9.6,2.9,0,.9-.1,1.7-.4,2.5-.2.7-.6,1.4-1.2,2-.5.6-1.2,1.1-1.8,1.5-.8.4-1.6.7-2.4.9h0c.3.2.7.4.9.6.3.2.6.5.8.8.3.3.5.7.8,1.1.3.4.5.9.8,1.4l4.3,7.9h-2.7ZM66.5,8.2v10.1h4.2c.8,0,1.6-.1,2.3-.4.7-.2,1.3-.6,1.8-1.1.5-.5.9-1,1.2-1.7.3-.7.4-1.4.4-2.2,0-1.3-.4-2.6-1.4-3.5-1.2-.9-2.6-1.4-4.1-1.3h-4.4Z"/>
      </g>
      <g id="Group_7">
        <path id="Path_3" d="M95.1,31.9c-1.7,0-3.4-.3-5-1-1.4-.6-2.7-1.6-3.7-2.8-1-1.2-1.8-2.6-2.3-4.1-.6-1.6-.8-3.3-.8-5.1,0-1.9.2-3.7.8-5.5.5-1.6,1.3-3,2.4-4.2,1.1-1.2,2.4-2.1,3.9-2.8,1.7-.7,3.4-1,5.2-1,1.7,0,3.3.3,4.9,1,2.9,1.3,5,3.7,6,6.7.6,1.6.8,3.4.8,5.1,0,1.8-.2,3.6-.8,5.4-.5,1.6-1.3,3-2.3,4.3-1,1.2-2.3,2.2-3.8,2.9-1.6.8-3.4,1.1-5.3,1.1ZM95.3,7.8c-1.4,0-2.8.3-4.1.9-1.2.6-2.2,1.4-3,2.4-.8,1-1.5,2.2-1.8,3.5-.4,1.4-.6,2.8-.7,4.3,0,1.4.2,2.8.6,4.1.4,1.3.9,2.4,1.7,3.5.8,1,1.8,1.8,2.9,2.4,1.3.6,2.7,1,4.1.9,1.4,0,2.9-.2,4.2-.8,1.2-.5,2.2-1.3,3-2.3.8-1,1.5-2.2,1.8-3.5.4-1.4.6-2.9.6-4.4,0-1.4-.2-2.9-.6-4.2-.3-1.3-.9-2.5-1.7-3.5-.8-1-1.8-1.8-2.9-2.4-1.3-.6-2.8-.9-4.2-.9h0Z"/>
      </g>
      <g id="Group_8">
        <path id="Path_4" d="M125.8,9.6h-9.5v7.7h8.8v3.6h-8.7v10.6h-4.2V6h13.7v3.6h0Z"/>
      </g>
      <g id="Group_9">
        <path id="Path_5" d="M134.7,31.5h-4.3V6h4.3v25.4Z"/>
      </g>
      <g id="Group_10">
        <path id="Path_6" d="M139.8,30.4v-4.3c.4.4.9.7,1.4,1,.5.3,1.1.5,1.7.7.6.2,1.2.3,1.8.5.6,0,1.1.1,1.7.2,1.4,0,2.8-.2,4-.9.8-.6,1.3-1.5,1.3-2.6,0-.6-.1-1.1-.4-1.6-.3-.5-.7-.9-1.2-1.2-.6-.4-1.2-.8-1.8-1.1-.7-.4-1.5-.7-2.2-1.1-.9-.5-1.7-.9-2.4-1.4-.7-.4-1.4-1-1.9-1.6-.5-.6-1-1.2-1.3-1.9-.3-.8-.5-1.7-.5-2.6,0-1.1.2-2.2.8-3.1.6-.9,1.3-1.6,2.1-2.2.9-.6,1.9-1,3-1.3,1.1-.3,2.3-.4,3.4-.4,2-.1,4,.2,5.8.9v4.2c-1.6-1.1-3.6-1.7-5.6-1.6-.6,0-1.3,0-1.9.2-.6.1-1.2.3-1.7.6-.5.2-.9.6-1.2,1-.3.4-.5,1-.5,1.5,0,.5.1,1,.4,1.5.3.4.6.8,1,1.1.5.4,1.1.7,1.7,1,.7.3,1.4.7,2.3,1.1.9.5,1.7,1,2.5,1.4.8.5,1.5,1.1,2.1,1.7.6.6,1.1,1.3,1.4,2,.4.8.5,1.7.5,2.6.1,2.2-1,4.3-2.9,5.4-.9.6-2,1-3.1,1.2-1.2.3-2.4.4-3.6.4-.4,0-1,0-1.6,0-.6,0-1.3-.2-1.9-.3-.6,0-1.2-.2-1.8-.5-.5,0-1-.2-1.5-.5Z"/>
      </g>
      <g id="Group_11">
        <path id="Path_7" d="M165,31.5h-4.3V6h4.3v25.4Z"/>
      </g>
      <g id="Group_12">
        <path id="Path_8" d="M181.8,31.9c-3.3.2-6.5-1.2-8.8-3.6-2.3-2.6-3.5-5.9-3.3-9.3,0-4.1,1.1-7.4,3.4-9.8,2.2-2.5,5.3-3.6,9.1-3.6,3.3-.1,6.4,1.2,8.6,3.5,2.3,2.6,3.4,5.9,3.3,9.3,0,4.1-1.1,7.4-3.4,9.9-2.3,2.5-5.6,3.8-8.9,3.6ZM182,9.3c-2.2,0-4.3.9-5.7,2.6-1.5,1.9-2.3,4.4-2.2,6.8-.1,2.5.6,4.9,2.1,6.8,1.3,1.7,3.4,2.7,5.6,2.6,2.2.1,4.3-.8,5.8-2.5,1.4-1.6,2.1-3.9,2.1-6.9s-.7-5.4-2-7c-1.4-1.7-3.5-2.6-5.7-2.5h0Z"/>
      </g>
    </g>
    <g id="Group_19">
      <g id="Group_17">
        <g id="Group_14">
          <path id="Path_9" d="M24.2,17.7c-1-2.1-5.4-7-5.8-10.1h0s-1.1,7.6,3,12.5c1.9,2.3,2.7,5.3,2.3,8.2.6-.9,1-1.8,1.4-2.8.5-2.6.2-5.4-.9-7.9Z"/>
        </g>
        <g id="Group_15">
          <path id="Path_10" d="M14.5,19.4c-2.1,0-8.6,1.8-10.5,1.4h0s5.9,3.6,11.4,2c2.6-.7,5.3-.3,7.6,1.1-.5-.8-1.1-1.5-1.8-2.1-1.8-1.7-4.3-2.5-6.7-2.3Z"/>
        </g>
        <g id="Group_16">
          <path id="Path_11" d="M22.4,6.5c1.3-.4,2.6.2,3.1,1.5.4,1.2-.3,2.6-1.6,3,0,0,0,0,0,0-1.3.4-2.6-.2-3.1-1.5-.4-1.3.3-2.6,1.6-3Z"/>
        </g>
      </g>
      <g id="Group_18">
        <path id="Path_12" d="M18,36.1C8.1,36.1,0,28,0,18,0,8.1,8.1,0,18,0c10,0,18,8.1,18,18,0,9.9-8.1,18-18,18ZM18,3c-8.3,0-15,6.7-15,15s6.7,15,15,15c8.3,0,15-6.7,15-15,0-8.3-6.7-15-15-15Z"/>
      </g>
    </g>
  </g>
</svg>