<svg id="Capa_1" data-name="Capa 1" xmlns="http://www.w3.org/2000/svg" xmlns:xlink="http://www.w3.org/1999/xlink" viewBox="0 0 366.67 157.92"><defs><style>.cls-1{fill:none;}.cls-2{clip-path:url(#clip-path);}.cls-3,.cls-7{fill:#fff;}.cls-4{fill:#0041cc;}.cls-5,.cls-6{fill:#9ec702;}.cls-6,.cls-7{fill-rule:evenodd;}</style><clipPath id="clip-path"><rect class="cls-1" x="43.89" y="33.75" width="278.89" height="57.83"/></clipPath></defs><title>Logotipo REDPAGOS RGB</title><g class="cls-2"><rect class="cls-3" x="43.89" y="33.75" width="278.89" height="57.83"/><rect class="cls-4" x="47.12" y="48.8" width="272.43" height="39.54"/><rect class="cls-5" x="47.12" y="36.98" width="272.43" height="11.82"/><g class="cls-2"><path class="cls-6" d="M77.76,81.37l4.52-17.31c.1-.5.21-1,.32-1.51s.24-1,.37-1.5a1.51,1.51,0,0,0,.08-.35c0-.13,0-.27.07-.39.17-.61.32-1.22.45-1.84s.27-1.24.41-1.87h5.8l-1.45,6.25a16.67,16.67,0,0,1,3.52-4.52,7.3,7.3,0,0,1,5.08-1.93,7.06,7.06,0,0,1,.95.07l.9.18-1.55,6a10.1,10.1,0,0,0-1-.25,6.71,6.71,0,0,0-1.1-.09,6.19,6.19,0,0,0-5.15,2.26,16.72,16.72,0,0,0-2.71,5,5,5,0,0,1-.14.55,3.85,3.85,0,0,0-.15.55l-.1.51-2.66,10.2Z"/><path class="cls-7" d="M268,75.31a16,16,0,0,0,2.75,1.26,9.55,9.55,0,0,0,3.1.5,8.24,8.24,0,0,0,1-.06,5.93,5.93,0,0,0,1-.2,6.34,6.34,0,0,0,2-.87A2.64,2.64,0,0,0,279,74.27.46.46,0,0,0,279,74v-.22a1.53,1.53,0,0,0-.72-1.3,9.59,9.59,0,0,0-1.79-1c-.3-.13-.61-.26-.91-.37a8.79,8.79,0,0,1-.94-.43,11.3,11.3,0,0,1-3-1.85,4.17,4.17,0,0,1-1.34-3.36c0-.26,0-.56,0-.87a6,6,0,0,1,.2-1,8.08,8.08,0,0,1,3.35-4.89,15.08,15.08,0,0,1,5.41-2.32c.63-.1,1.26-.19,1.87-.25s1.21-.1,1.79-.1a15.22,15.22,0,0,1,3,.28,26.82,26.82,0,0,1,2.88.67l-1.7,4.81a18.87,18.87,0,0,0-2.43-.67A11.19,11.19,0,0,0,282.2,61c-.3,0-.65,0-1,0a10,10,0,0,0-1.1.16,7.15,7.15,0,0,0-1.91.77A2.33,2.33,0,0,0,277,63.46a.4.4,0,0,0-.05.22v.22a1.41,1.41,0,0,0,.74,1.23,10.79,10.79,0,0,0,1.8.88c.3.13.62.24.94.35a8.71,8.71,0,0,1,.93.34,11.93,11.93,0,0,1,3.07,1.79,4.14,4.14,0,0,1,1.37,3.41c0,.31-.06.63-.1.95a6.07,6.07,0,0,1-.2,1.07,8.88,8.88,0,0,1-3.64,5.3,14.07,14.07,0,0,1-5.87,2.3,11.08,11.08,0,0,1-1.39.2c-.48,0-.93,0-1.41,0a19.87,19.87,0,0,1-3.58-.31,31.75,31.75,0,0,1-3.38-.74Z"/><path class="cls-6" d="M148.68,45.34l-2.8,11c-.2.73-.38,1.47-.55,2.21A18.14,18.14,0,0,0,145,60.7a6.07,6.07,0,0,0-2.28-3.4,7.23,7.23,0,0,0-4.28-1.15,11.17,11.17,0,0,0-8.83,4,21.61,21.61,0,0,0-4.69,8.67.13.13,0,0,1,0,.06s0,0,0,.08-.07.33-.1.47-.07.31-.1.48c-.14.67-.24,1.32-.34,2a16.67,16.67,0,0,0-.11,1.8A9.31,9.31,0,0,0,126,79.4c1.18,1.54,3.18,2.32,6,2.32a11.07,11.07,0,0,0,8.95-4.56l-1,4.21h6c.18-.8.35-1.6.53-2.4s.37-1.61.58-2.41c.07-.39.15-.8.25-1.2l.3-1.19,7.46-28.83ZM143,67.07c0,.22-.05.45-.09.69a3.2,3.2,0,0,1-.07.7,6,6,0,0,1-.18.7c-.06.22-.14.48-.23.73s-.15.49-.22.72a12.53,12.53,0,0,1-2.72,4.2A5.89,5.89,0,0,1,135,76.72a3.24,3.24,0,0,1-3-1.46,6.18,6.18,0,0,1-.87-3.29c0-.25,0-.49,0-.74s.05-.49.07-.72.08-.48.13-.73.11-.49.17-.72a5.61,5.61,0,0,0,.18-.62,2.38,2.38,0,0,1,.23-.63,12.38,12.38,0,0,1,2.48-4.34,5.64,5.64,0,0,1,4.47-2,3.43,3.43,0,0,1,3.2,1.45,6.24,6.24,0,0,1,.9,3.4c0,.23,0,.46,0,.71"/><path class="cls-6" d="M120,58.3c-1.3-1.57-3.42-2.36-6.4-2.36a14.24,14.24,0,0,0-9.91,3.74A18.65,18.65,0,0,0,98.09,69a17,17,0,0,0-.45,2.21,13.77,13.77,0,0,0-.15,2.08,8,8,0,0,0,2.61,6.41c1.77,1.5,4.29,2.25,7.6,2.25a23.63,23.63,0,0,0,2.64-.15,25.52,25.52,0,0,0,2.71-.45,13.43,13.43,0,0,0,1.77-.43c.58-.18,1.18-.39,1.79-.62L118,74.77a32.52,32.52,0,0,1-4.15,1.77,12.91,12.91,0,0,1-4.21.73A6.68,6.68,0,0,1,105.36,76a4.42,4.42,0,0,1-1.62-3.68c0-.2,0-.4,0-.6s.06-.41.08-.65h16.67a1.47,1.47,0,0,1,.13-.37,2.11,2.11,0,0,0,.11-.38c0-.06,0-.13.08-.17a.71.71,0,0,1,.08-.18c.07-.16.13-.34.2-.52a2.89,2.89,0,0,0,.14-.58,23,23,0,0,0,.48-2.36,15.71,15.71,0,0,0,.17-2.25,9,9,0,0,0-2-6m-4.07,7.21c-.06.36-.11.73-.18,1.1H104.9a10.91,10.91,0,0,1,2.72-4.3,6.26,6.26,0,0,1,4.58-1.86,3.35,3.35,0,0,1,2.9,1.17,4.78,4.78,0,0,1,.86,2.84,7.9,7.9,0,0,1-.08,1.05"/><path class="cls-7" d="M263.21,58.55c-1.73-1.73-4.19-2.61-7.4-2.61a16,16,0,0,0-10.23,3.59,16.88,16.88,0,0,0-5.92,9.33c-.17.7-.31,1.39-.41,2a14.72,14.72,0,0,0-.14,1.92,8.8,8.8,0,0,0,2.57,6.67Q244.26,82,249.07,82a16.15,16.15,0,0,0,10.25-3.5,16.84,16.84,0,0,0,6-9.26,17.62,17.62,0,0,0,.37-2,15.42,15.42,0,0,0,.14-1.87,9.1,9.1,0,0,0-2.58-6.81m-4.24,9a15.3,15.3,0,0,1-.29,1.53c-.08.3-.18.61-.28.92s-.25.64-.37.92a13.83,13.83,0,0,1-3,4.39,6.32,6.32,0,0,1-4.66,2,3.83,3.83,0,0,1-3.5-1.56,6.76,6.76,0,0,1-1-3.6c0-.27,0-.53,0-.8a6.84,6.84,0,0,1,.11-.85c.05-.27.09-.53.14-.8a7.6,7.6,0,0,1,.17-.8c.08-.26.14-.53.23-.79a5.23,5.23,0,0,1,.32-.85,14,14,0,0,1,3-4.49,6.47,6.47,0,0,1,4.75-2,3.76,3.76,0,0,1,3.46,1.59,6.64,6.64,0,0,1,1,3.67,11.61,11.61,0,0,1-.1,1.57"/><path class="cls-7" d="M231.91,56.65l-1.16,4a5.11,5.11,0,0,0-2.32-3.4A8.52,8.52,0,0,0,224,56.15a10.93,10.93,0,0,0-8.75,3.93,21.71,21.71,0,0,0-4.62,8.68,4.25,4.25,0,0,1-.12.6c0,.2-.08.38-.13.55a12.19,12.19,0,0,0-.26,1.77c0,.59-.1,1.15-.13,1.68a9.38,9.38,0,0,0,1.7,5.68q1.7,2.33,5.66,2.33h.44a11.29,11.29,0,0,0,4.91-1.48,14,14,0,0,0,4.15-3.47c-.14.46-.26.94-.39,1.45s-.3,1-.46,1.54-.5,1.28-.76,1.92a11.66,11.66,0,0,1-1,1.75,7.81,7.81,0,0,1-2.56,2.27,9.79,9.79,0,0,1-3.05,1.08c-.33,0-.67.11-1,.14s-.61.05-.92.05a11.83,11.83,0,0,1-3.72-.57,22.34,22.34,0,0,1-3.35-1.43l-1.42,4.06h18.17a2.11,2.11,0,0,0,.35-.3,19.55,19.55,0,0,0,5.64-10L238,56.65Zm-3.2,10.86a6.9,6.9,0,0,1-.21,1.19c-.07.24-.15.47-.21.71a5.49,5.49,0,0,1-.25.75,12.67,12.67,0,0,1-2.74,4.13,6,6,0,0,1-4.41,1.88,3.33,3.33,0,0,1-3-1.4,6.18,6.18,0,0,1-.87-3.26,11.73,11.73,0,0,1,.1-1.43,10,10,0,0,1,.31-1.42c0-.17.07-.33.12-.5s.11-.33.18-.5a11.71,11.71,0,0,1,2.52-4.25,5.8,5.8,0,0,1,4.49-1.95,3.48,3.48,0,0,1,3.15,1.47,6.12,6.12,0,0,1,1,3.38,7,7,0,0,1-.09,1.2"/><path class="cls-7" d="M206.77,60.93a4,4,0,0,0-.35-1.18,5.25,5.25,0,0,0-2.85-2.65,11.87,11.87,0,0,0-4.1-.9,4,4,0,0,0-.6-.05h-.61a23.15,23.15,0,0,0-3,.18,19.94,19.94,0,0,0-3.05.56c-.49.14-1,.28-1.48.44a11.62,11.62,0,0,0-1.5.53L188,63.41A15.43,15.43,0,0,1,190.53,62a17.15,17.15,0,0,1,2.69-.93,12.52,12.52,0,0,1,1.6-.3,13.73,13.73,0,0,1,1.55-.1,5.5,5.5,0,0,1,3.3.83,3,3,0,0,1,1.1,2.53,5.44,5.44,0,0,1-.08,1,8.9,8.9,0,0,1-.22,1.1,5.52,5.52,0,0,1-.58,0c-.17,0-.37,0-.57,0a1.51,1.51,0,0,1-.3,0c-.1,0-.2,0-.3,0-.3,0-.6,0-.89,0s-.57,0-.86,0c-.7,0-1.42,0-2.15.08s-1.47.13-2.21.24a17.36,17.36,0,0,0-6.25,2.19,8.52,8.52,0,0,0-4,5.55c-.09.41-.17.79-.22,1.16a8,8,0,0,0-.08,1.09A4.53,4.53,0,0,0,184,80.4a8.69,8.69,0,0,0,5,1.32l.9,0a7,7,0,0,0,.9-.13,10.62,10.62,0,0,0,3.73-1.25,11.58,11.58,0,0,0,3.24-2.66l-.87,3.71h5.72c.5-2.44,1.05-4.86,1.65-7.28s1.21-4.84,1.84-7.28c.11-.37.2-.74.28-1.13s.17-.78.28-1.17.11-.8.14-1.18a10.92,10.92,0,0,0,.05-1.13,6.8,6.8,0,0,0-.1-1.27m-7.28,9.31a.79.79,0,0,0,0,.17,12.15,12.15,0,0,1-2.73,4.81,6.46,6.46,0,0,1-5,2.2,3.83,3.83,0,0,1-2.18-.63,2,2,0,0,1-.93-1.77c0-.14,0-.27,0-.41s0-.27.08-.4a4.32,4.32,0,0,1,2.21-2.85,10.45,10.45,0,0,1,3.54-1.1,14.35,14.35,0,0,1,1.83-.18l1.68,0h1.17a1.24,1.24,0,0,1,.38,0,.45.45,0,0,1,0,.13"/><path class="cls-7" d="M179.06,58.52q-1.71-2.37-5.71-2.37a11.42,11.42,0,0,0-4.9,1.08,13.81,13.81,0,0,0-4.3,3.22l.91-3.91H158.9c-.12.61-.23,1.21-.34,1.81s-.24,1.2-.37,1.8-.32,1.26-.45,1.85-.28,1.21-.45,1.8l-6.47,24.88h6.4L159,81.61a6.93,6.93,0,0,0,.27-.87,9.82,9.82,0,0,0,.24-1c.06-.33.13-.65.22-1a7.94,7.94,0,0,0,.17-.93,5.11,5.11,0,0,0,2.5,2.91,8.49,8.49,0,0,0,4,1,11.22,11.22,0,0,0,9.06-4.06,22.31,22.31,0,0,0,4.66-9c.19-.77.34-1.51.45-2.25a16,16,0,0,0,.14-2.16,9.61,9.61,0,0,0-1.69-5.73m-5.26,8.25c0,.33-.08.65-.14,1s-.08.45-.11.68-.09.42-.14.62-.17.62-.28,1-.25.67-.38,1a13.32,13.32,0,0,1-2.7,3.88,5.67,5.67,0,0,1-4.15,1.78,3.44,3.44,0,0,1-3.13-1.36,5.7,5.7,0,0,1-.87-3.2,10.9,10.9,0,0,1,.1-1.5,10.29,10.29,0,0,1,.29-1.51c.07-.23.14-.45.2-.66a5.14,5.14,0,0,1,.25-.68,13.13,13.13,0,0,1,2.73-4.3,5.91,5.91,0,0,1,4.53-2,3.3,3.3,0,0,1,3,1.27,5.53,5.53,0,0,1,.84,3.07c0,.3,0,.62-.06.92"/></g></g><path d="M89.51,108.78A4.3,4.3,0,0,1,93,110.43V109h2.13v10.19H93v-1.52a4.35,4.35,0,0,1-3.56,1.68c-2.65,0-4.78-2.16-4.78-5.31S86.83,108.78,89.51,108.78Zm.45,1.83A3.12,3.12,0,0,0,86.87,114,3.2,3.2,0,0,0,90,117.47a3.45,3.45,0,0,0,0-6.86Z"/><path d="M107.57,113.92h-2.33v5.22h-2.11V106.28h4.44c3.05,0,4.55,1.74,4.55,3.83C112.12,111.94,110.92,113.92,107.57,113.92Zm0-1.72c1.64,0,2.38-.79,2.38-2.09s-.74-2.11-2.38-2.11h-2.33v4.2Z"/><path d="M116.43,119.14h-2.11V109h2.11v1.48a3.32,3.32,0,0,1,3-1.65V111H119c-1.56,0-2.52.65-2.52,2.81Z"/><path d="M126,119.3a5,5,0,0,1-5.1-5.27,5.2,5.2,0,1,1,10.39,0A5.1,5.1,0,0,1,126,119.3Zm0-1.83a3.14,3.14,0,0,0,3.13-3.44,3.08,3.08,0,0,0-3.07-3.42c-1.59,0-3,1.11-3,3.42S124.44,117.47,126,117.47Z"/><path d="M137.3,119.3c-2.44,0-4.16-1.44-4.26-3.29h2.19a1.85,1.85,0,0,0,2,1.52c1.22,0,1.87-.52,1.87-1.22,0-2-5.92-.85-5.92-4.59,0-1.63,1.52-2.94,3.92-2.94s3.83,1.24,3.94,3.27H139a1.68,1.68,0,0,0-1.9-1.49c-1.13,0-1.72.46-1.72,1.14,0,2,5.75.91,5.86,4.59C141.2,118,139.7,119.3,137.3,119.3Z"/><path d="M148.05,119.3A4.94,4.94,0,0,1,143,114a4.88,4.88,0,0,1,5.09-5.25,4.75,4.75,0,0,1,4.95,5,7.27,7.27,0,0,1-.07,1h-7.79a2.81,2.81,0,0,0,2.91,2.7,2.46,2.46,0,0,0,2.4-1.43h2.27A4.64,4.64,0,0,1,148.05,119.3Zm-2.89-6.17h5.64a2.65,2.65,0,0,0-2.85-2.57A2.77,2.77,0,0,0,145.16,113.13Z"/><path d="M159.37,108.78a4.32,4.32,0,0,1,3.53,1.65V109H165V119.3a4.63,4.63,0,0,1-5,4.87c-2.72,0-4.73-1.35-5-3.61h2.09a2.83,2.83,0,0,0,2.9,1.78,2.72,2.72,0,0,0,2.85-3v-1.7a4.38,4.38,0,0,1-3.53,1.7c-2.68,0-4.81-2.16-4.81-5.31S156.69,108.78,159.37,108.78Zm.44,1.83a3.13,3.13,0,0,0-3.09,3.38,3.21,3.21,0,0,0,3.09,3.48,3.45,3.45,0,0,0,0-6.86Z"/><path d="M177.22,119.14h-2.11v-1.22a3.82,3.82,0,0,1-3,1.36,4,4,0,0,1-4.19-4.34v-6H170v5.67c0,1.87,1,2.83,2.55,2.83s2.57-1,2.57-2.83V109h2.11Z"/><path d="M182.29,119.14h-2.11V109h2.11v1.48a3.32,3.32,0,0,1,3.05-1.65V111h-.54c-1.55,0-2.51.65-2.51,2.81Z"/><path d="M196.76,108.78a4.43,4.43,0,0,1,4.69,3.38h-2.27a2.38,2.38,0,0,0-2.42-1.6c-1.71,0-2.83,1.25-2.83,3.47s1.12,3.5,2.83,3.5a2.34,2.34,0,0,0,2.42-1.61h2.27a4.56,4.56,0,0,1-4.69,3.38c-2.93,0-5-2.07-5-5.27S193.83,108.78,196.76,108.78Z"/><path d="M208.17,119.3a5,5,0,0,1-5.11-5.27,5.2,5.2,0,1,1,10.4,0A5.1,5.1,0,0,1,208.17,119.3Zm0-1.83a3.14,3.14,0,0,0,3.12-3.44,3.08,3.08,0,0,0-3.07-3.42c-1.59,0-3,1.11-3,3.42S206.58,117.47,208.17,117.47Z"/><path d="M230.18,113.44c0-1.87-1-2.83-2.55-2.83s-2.57,1-2.57,2.83v5.7H223v-5.7c0-1.87-1-2.83-2.55-2.83s-2.58,1-2.58,2.83v5.7h-2.1V109h2.1v1.16a4.22,4.22,0,0,1,6.68.69,4.18,4.18,0,0,1,7.75,2.33v6h-2.09Z"/><path d="M240.8,108.78c2.68,0,4.79,2.07,4.79,5.21s-2.11,5.31-4.79,5.31a4.63,4.63,0,0,1-3.55-1.64V124h-2.11V109h2.11v1.49A4.46,4.46,0,0,1,240.8,108.78Zm-.46,1.83a3.45,3.45,0,0,0,0,6.86,3.21,3.21,0,0,0,3.11-3.48A3.13,3.13,0,0,0,240.34,110.61Z"/><path d="M252,108.78a4.31,4.31,0,0,1,3.53,1.65V109h2.13v10.19h-2.13v-1.52a4.39,4.39,0,0,1-3.57,1.68c-2.64,0-4.77-2.16-4.77-5.31S249.3,108.78,252,108.78Zm.44,1.83a3.13,3.13,0,0,0-3.09,3.38,3.21,3.21,0,0,0,3.09,3.48,3.45,3.45,0,0,0,0-6.86Z"/><path d="M267.83,113.44c0-1.87-1-2.83-2.55-2.83s-2.57,1-2.57,2.83v5.7H260.6V109h2.11v1.16a3.91,3.91,0,0,1,3-1.33,4,4,0,0,1,4.18,4.35v6h-2.09Z"/><path d="M279.78,109H282l-6.25,15h-2.18l2.07-5-4-10h2.35l2.86,7.76Z"/></svg>